%TF.GenerationSoftware,KiCad,Pcbnew,7.0.1*%
%TF.CreationDate,2023-09-19T14:53:10+09:00*%
%TF.ProjectId,ESP32-DevKit-Lipo_Rev_C,45535033-322d-4446-9576-4b69742d4c69,C*%
%TF.SameCoordinates,Original*%
%TF.FileFunction,Drillmap*%
%TF.FilePolarity,Positive*%
%FSLAX45Y45*%
G04 Gerber Fmt 4.5, Leading zero omitted, Abs format (unit mm)*
G04 Created by KiCad (PCBNEW 7.0.1) date 2023-09-19 14:53:10*
%MOMM*%
%LPD*%
G01*
G04 APERTURE LIST*
%ADD10C,0.254000*%
%ADD11C,0.200000*%
%ADD12C,0.040000*%
%ADD13C,0.050000*%
%ADD14C,0.060000*%
%ADD15C,0.075000*%
%ADD16C,0.090000*%
%ADD17C,0.100000*%
%ADD18C,0.130000*%
%ADD19C,0.250000*%
G04 APERTURE END LIST*
D10*
X16390000Y-12150000D02*
X16165000Y-12150000D01*
X15915000Y-11700000D02*
X15915000Y-11900000D01*
X16165000Y-11450000D02*
G75*
G03*
X15915000Y-11700000I0J-250000D01*
G01*
X15190000Y-13500000D02*
G75*
G03*
X14940000Y-13750000I0J-250000D01*
G01*
X15540000Y-13750000D02*
G75*
G03*
X15290000Y-13500000I-250000J0D01*
G01*
X15915000Y-11900000D02*
G75*
G03*
X16165000Y-12150000I250000J0D01*
G01*
X16490000Y-12250000D02*
G75*
G03*
X16390000Y-12150000I-100000J0D01*
G01*
X14840000Y-14300000D02*
G75*
G03*
X14940000Y-14200000I0J100000D01*
G01*
X15540000Y-14200000D02*
X15540000Y-13750000D01*
X12040000Y-6850000D02*
X12040000Y-13900000D01*
X16390000Y-11450000D02*
X16165000Y-11450000D01*
X12440000Y-6450000D02*
G75*
G03*
X12040000Y-6850000I0J-400000D01*
G01*
X16090000Y-6450000D02*
X12440000Y-6450000D01*
X15290000Y-13500000D02*
X15190000Y-13500000D01*
X16490000Y-6850000D02*
X16490000Y-11350000D01*
X16490000Y-6850000D02*
G75*
G03*
X16090000Y-6450000I-400000J0D01*
G01*
X12040000Y-13900000D02*
G75*
G03*
X12440000Y-14300000I400000J0D01*
G01*
X14940000Y-13750000D02*
X14940000Y-14200000D01*
X15540000Y-14200000D02*
G75*
G03*
X15640000Y-14300000I100000J0D01*
G01*
X16390000Y-11450000D02*
G75*
G03*
X16490000Y-11350000I0J100000D01*
G01*
X16090000Y-14300000D02*
X15640000Y-14300000D01*
X16490000Y-13900000D02*
X16490000Y-12250000D01*
X14840000Y-14300000D02*
X12440000Y-14300000D01*
X16090000Y-14300000D02*
G75*
G03*
X16490000Y-13900000I0J400000D01*
G01*
D11*
D12*
X12500000Y-9490000D02*
X12540000Y-9530000D01*
X12540000Y-9490000D02*
X12500000Y-9530000D01*
X12705800Y-9911200D02*
X12745800Y-9951200D01*
X12745800Y-9911200D02*
X12705800Y-9951200D01*
X12800000Y-9210000D02*
X12840000Y-9250000D01*
X12840000Y-9210000D02*
X12800000Y-9250000D01*
X12940000Y-12510000D02*
X12980000Y-12550000D01*
X12980000Y-12510000D02*
X12940000Y-12550000D01*
X13060000Y-11880000D02*
X13100000Y-11920000D01*
X13100000Y-11880000D02*
X13060000Y-11920000D01*
X13070000Y-10800000D02*
X13110000Y-10840000D01*
X13110000Y-10800000D02*
X13070000Y-10840000D01*
X13240000Y-12070000D02*
X13280000Y-12110000D01*
X13280000Y-12070000D02*
X13240000Y-12110000D01*
X13380000Y-12768346D02*
X13420000Y-12808346D01*
X13420000Y-12768346D02*
X13380000Y-12808346D01*
X13469200Y-12540000D02*
X13509200Y-12580000D01*
X13509200Y-12540000D02*
X13469200Y-12580000D01*
X13649850Y-8380000D02*
X13689850Y-8420000D01*
X13689850Y-8380000D02*
X13649850Y-8420000D01*
X13670000Y-12070000D02*
X13710000Y-12110000D01*
X13710000Y-12070000D02*
X13670000Y-12110000D01*
X13995000Y-13455000D02*
X14035000Y-13495000D01*
X14035000Y-13455000D02*
X13995000Y-13495000D01*
X14070000Y-12930000D02*
X14110000Y-12970000D01*
X14110000Y-12930000D02*
X14070000Y-12970000D01*
X14080000Y-13080000D02*
X14120000Y-13120000D01*
X14120000Y-13080000D02*
X14080000Y-13120000D01*
X14170000Y-13305000D02*
X14210000Y-13345000D01*
X14210000Y-13305000D02*
X14170000Y-13345000D01*
X14280000Y-13080000D02*
X14320000Y-13120000D01*
X14320000Y-13080000D02*
X14280000Y-13120000D01*
X14320000Y-13330000D02*
X14360000Y-13370000D01*
X14360000Y-13330000D02*
X14320000Y-13370000D01*
X14420000Y-13280000D02*
X14460000Y-13320000D01*
X14460000Y-13280000D02*
X14420000Y-13320000D01*
X14470000Y-12680000D02*
X14510000Y-12720000D01*
X14510000Y-12680000D02*
X14470000Y-12720000D01*
X14480000Y-12170000D02*
X14520000Y-12210000D01*
X14520000Y-12170000D02*
X14480000Y-12210000D01*
X14640000Y-12413050D02*
X14680000Y-12453050D01*
X14680000Y-12413050D02*
X14640000Y-12453050D01*
X14700000Y-11240000D02*
X14740000Y-11280000D01*
X14740000Y-11240000D02*
X14700000Y-11280000D01*
X14970000Y-7630000D02*
X15010000Y-7670000D01*
X15010000Y-7630000D02*
X14970000Y-7670000D01*
X15020000Y-11605000D02*
X15060000Y-11645000D01*
X15060000Y-11605000D02*
X15020000Y-11645000D01*
X15020000Y-11680000D02*
X15060000Y-11720000D01*
X15060000Y-11680000D02*
X15020000Y-11720000D01*
X15040850Y-7740000D02*
X15080850Y-7780000D01*
X15080850Y-7740000D02*
X15040850Y-7780000D01*
X15524800Y-10698800D02*
X15564800Y-10738800D01*
X15564800Y-10698800D02*
X15524800Y-10738800D01*
X15930000Y-10270000D02*
X15970000Y-10310000D01*
X15970000Y-10270000D02*
X15930000Y-10310000D01*
D13*
X12277500Y-6850000D02*
G75*
G03*
X12277500Y-6850000I-25000J0D01*
G01*
X12277500Y-13900000D02*
G75*
G03*
X12277500Y-13900000I-25000J0D01*
G01*
X12332417Y-6717417D02*
G75*
G03*
X12332417Y-6717417I-25000J0D01*
G01*
X12332417Y-6982582D02*
G75*
G03*
X12332417Y-6982582I-25000J0D01*
G01*
X12332417Y-13767417D02*
G75*
G03*
X12332417Y-13767417I-25000J0D01*
G01*
X12332417Y-14032582D02*
G75*
G03*
X12332417Y-14032582I-25000J0D01*
G01*
X12465000Y-6662500D02*
G75*
G03*
X12465000Y-6662500I-25000J0D01*
G01*
X12465000Y-7037500D02*
G75*
G03*
X12465000Y-7037500I-25000J0D01*
G01*
X12465000Y-13712500D02*
G75*
G03*
X12465000Y-13712500I-25000J0D01*
G01*
X12465000Y-14087500D02*
G75*
G03*
X12465000Y-14087500I-25000J0D01*
G01*
X12597582Y-6717417D02*
G75*
G03*
X12597582Y-6717417I-25000J0D01*
G01*
X12597582Y-6982582D02*
G75*
G03*
X12597582Y-6982582I-25000J0D01*
G01*
X12597582Y-13767417D02*
G75*
G03*
X12597582Y-13767417I-25000J0D01*
G01*
X12597582Y-14032582D02*
G75*
G03*
X12597582Y-14032582I-25000J0D01*
G01*
X12652500Y-6850000D02*
G75*
G03*
X12652500Y-6850000I-25000J0D01*
G01*
X12652500Y-13900000D02*
G75*
G03*
X12652500Y-13900000I-25000J0D01*
G01*
X15927500Y-6850000D02*
G75*
G03*
X15927500Y-6850000I-25000J0D01*
G01*
X15927500Y-13900000D02*
G75*
G03*
X15927500Y-13900000I-25000J0D01*
G01*
X15982417Y-6717417D02*
G75*
G03*
X15982417Y-6717417I-25000J0D01*
G01*
X15982417Y-6982582D02*
G75*
G03*
X15982417Y-6982582I-25000J0D01*
G01*
X15982417Y-13767417D02*
G75*
G03*
X15982417Y-13767417I-25000J0D01*
G01*
X15982417Y-14032582D02*
G75*
G03*
X15982417Y-14032582I-25000J0D01*
G01*
X16115000Y-6662500D02*
G75*
G03*
X16115000Y-6662500I-25000J0D01*
G01*
X16115000Y-7037500D02*
G75*
G03*
X16115000Y-7037500I-25000J0D01*
G01*
X16115000Y-13712500D02*
G75*
G03*
X16115000Y-13712500I-25000J0D01*
G01*
X16115000Y-14087500D02*
G75*
G03*
X16115000Y-14087500I-25000J0D01*
G01*
X16247582Y-6717417D02*
G75*
G03*
X16247582Y-6717417I-25000J0D01*
G01*
X16247582Y-6982582D02*
G75*
G03*
X16247582Y-6982582I-25000J0D01*
G01*
X16247582Y-13767417D02*
G75*
G03*
X16247582Y-13767417I-25000J0D01*
G01*
X16247582Y-14032582D02*
G75*
G03*
X16247582Y-14032582I-25000J0D01*
G01*
X16302500Y-6850000D02*
G75*
G03*
X16302500Y-6850000I-25000J0D01*
G01*
X16302500Y-13900000D02*
G75*
G03*
X16302500Y-13900000I-25000J0D01*
G01*
D14*
X13271500Y-7590000D02*
X13271500Y-7650000D01*
X13241500Y-7620000D02*
X13301500Y-7620000D01*
X13271500Y-11806400D02*
X13271500Y-11866400D01*
X13241500Y-11836400D02*
X13301500Y-11836400D01*
X13284200Y-10295100D02*
X13284200Y-10355100D01*
X13254200Y-10325100D02*
X13314200Y-10325100D01*
X13322300Y-7767800D02*
X13322300Y-7827800D01*
X13292300Y-7797800D02*
X13352300Y-7797800D01*
X13322300Y-8059900D02*
X13322300Y-8119900D01*
X13292300Y-8089900D02*
X13352300Y-8089900D01*
X13448699Y-10662035D02*
X13448699Y-10722035D01*
X13418699Y-10692035D02*
X13478699Y-10692035D01*
X13493750Y-11006300D02*
X13493750Y-11066300D01*
X13463750Y-11036300D02*
X13523750Y-11036300D01*
X13512800Y-11289599D02*
X13512800Y-11349599D01*
X13482800Y-11319599D02*
X13542800Y-11319599D01*
X13525500Y-11806400D02*
X13525500Y-11866400D01*
X13495500Y-11836400D02*
X13555500Y-11836400D01*
X13651704Y-9253200D02*
X13651704Y-9313200D01*
X13621704Y-9283200D02*
X13681704Y-9283200D01*
X13652500Y-7170900D02*
X13652500Y-7230900D01*
X13622500Y-7200900D02*
X13682500Y-7200900D01*
X13652500Y-7348700D02*
X13652500Y-7408700D01*
X13622500Y-7378700D02*
X13682500Y-7378700D01*
X13652500Y-7475700D02*
X13652500Y-7535700D01*
X13622500Y-7505700D02*
X13682500Y-7505700D01*
X13652500Y-7729700D02*
X13652500Y-7789700D01*
X13622500Y-7759700D02*
X13682500Y-7759700D01*
X13652500Y-7983700D02*
X13652500Y-8043700D01*
X13622500Y-8013700D02*
X13682500Y-8013700D01*
X13652500Y-8999700D02*
X13652500Y-9059700D01*
X13622500Y-9029700D02*
X13682500Y-9029700D01*
X13652500Y-9126700D02*
X13652500Y-9186700D01*
X13622500Y-9156700D02*
X13682500Y-9156700D01*
X13652500Y-11615900D02*
X13652500Y-11675900D01*
X13622500Y-11645900D02*
X13682500Y-11645900D01*
X13665200Y-10295100D02*
X13665200Y-10355100D01*
X13635200Y-10325100D02*
X13695200Y-10325100D01*
X13754100Y-10752300D02*
X13754100Y-10812300D01*
X13724100Y-10782300D02*
X13784100Y-10782300D01*
X13766800Y-11615900D02*
X13766800Y-11675900D01*
X13736800Y-11645900D02*
X13796800Y-11645900D01*
X13781000Y-8555200D02*
X13781000Y-8615200D01*
X13751000Y-8585200D02*
X13811000Y-8585200D01*
X13781000Y-8680700D02*
X13781000Y-8740700D01*
X13751000Y-8710700D02*
X13811000Y-8710700D01*
X13781000Y-8820400D02*
X13781000Y-8880400D01*
X13751000Y-8850400D02*
X13811000Y-8850400D01*
X13843000Y-10422100D02*
X13843000Y-10482100D01*
X13813000Y-10452100D02*
X13873000Y-10452100D01*
X13906500Y-7170900D02*
X13906500Y-7230900D01*
X13876500Y-7200900D02*
X13936500Y-7200900D01*
X13970000Y-9583900D02*
X13970000Y-9643900D01*
X13940000Y-9613900D02*
X14000000Y-9613900D01*
X14033500Y-7272500D02*
X14033500Y-7332500D01*
X14003500Y-7302500D02*
X14063500Y-7302500D01*
X14160500Y-7170900D02*
X14160500Y-7230900D01*
X14130500Y-7200900D02*
X14190500Y-7200900D01*
X14160500Y-7399500D02*
X14160500Y-7459500D01*
X14130500Y-7429500D02*
X14190500Y-7429500D01*
X14160500Y-9736300D02*
X14160500Y-9796300D01*
X14130500Y-9766300D02*
X14190500Y-9766300D01*
X14223201Y-10548301D02*
X14223201Y-10608301D01*
X14193201Y-10578301D02*
X14253201Y-10578301D01*
X14228949Y-10417151D02*
X14228949Y-10477151D01*
X14198949Y-10447151D02*
X14258949Y-10447151D01*
X14230124Y-8538331D02*
X14230124Y-8598331D01*
X14200124Y-8568331D02*
X14260124Y-8568331D01*
X14262100Y-9736300D02*
X14262100Y-9796300D01*
X14232100Y-9766300D02*
X14292100Y-9766300D01*
X14274800Y-10289805D02*
X14274800Y-10349805D01*
X14244800Y-10319805D02*
X14304800Y-10319805D01*
X14287500Y-7272500D02*
X14287500Y-7332500D01*
X14257500Y-7302500D02*
X14317500Y-7302500D01*
X14287500Y-7526500D02*
X14287500Y-7586500D01*
X14257500Y-7556500D02*
X14317500Y-7556500D01*
X14351000Y-8352000D02*
X14351000Y-8412000D01*
X14321000Y-8382000D02*
X14381000Y-8382000D01*
X14351000Y-8669500D02*
X14351000Y-8729500D01*
X14321000Y-8699500D02*
X14381000Y-8699500D01*
X14351000Y-9291800D02*
X14351000Y-9351800D01*
X14321000Y-9321800D02*
X14381000Y-9321800D01*
X14351000Y-9418800D02*
X14351000Y-9478800D01*
X14321000Y-9448800D02*
X14381000Y-9448800D01*
X14401800Y-10131016D02*
X14401800Y-10191016D01*
X14371800Y-10161016D02*
X14431800Y-10161016D01*
X14401800Y-10282400D02*
X14401800Y-10342400D01*
X14371800Y-10312400D02*
X14431800Y-10312400D01*
X14414500Y-7170900D02*
X14414500Y-7230900D01*
X14384500Y-7200900D02*
X14444500Y-7200900D01*
X14414500Y-7399500D02*
X14414500Y-7459500D01*
X14384500Y-7429500D02*
X14444500Y-7429500D01*
X14439900Y-9723600D02*
X14439900Y-9783600D01*
X14409900Y-9753600D02*
X14469900Y-9753600D01*
X14439900Y-10752300D02*
X14439900Y-10812300D01*
X14409900Y-10782300D02*
X14469900Y-10782300D01*
X14439900Y-10866600D02*
X14439900Y-10926600D01*
X14409900Y-10896600D02*
X14469900Y-10896600D01*
X14439900Y-10993600D02*
X14439900Y-11053600D01*
X14409900Y-11023600D02*
X14469900Y-11023600D01*
X14444849Y-10417151D02*
X14444849Y-10477151D01*
X14414849Y-10447151D02*
X14474849Y-10447151D01*
X14478000Y-8542500D02*
X14478000Y-8602500D01*
X14448000Y-8572500D02*
X14508000Y-8572500D01*
X14478000Y-9469600D02*
X14478000Y-9529600D01*
X14448000Y-9499600D02*
X14508000Y-9499600D01*
X14528801Y-10549100D02*
X14528801Y-10609100D01*
X14498801Y-10579100D02*
X14558801Y-10579100D01*
X14541500Y-7272500D02*
X14541500Y-7332500D01*
X14511500Y-7302500D02*
X14571500Y-7302500D01*
X14541500Y-7526500D02*
X14541500Y-7586500D01*
X14511500Y-7556500D02*
X14571500Y-7556500D01*
X14566900Y-10752300D02*
X14566900Y-10812300D01*
X14536900Y-10782300D02*
X14596900Y-10782300D01*
X14566900Y-10866600D02*
X14566900Y-10926600D01*
X14536900Y-10896600D02*
X14596900Y-10896600D01*
X14592300Y-10320500D02*
X14592300Y-10380500D01*
X14562300Y-10350500D02*
X14622300Y-10350500D01*
X14605000Y-7653500D02*
X14605000Y-7713500D01*
X14575000Y-7683500D02*
X14635000Y-7683500D01*
X14605000Y-7907500D02*
X14605000Y-7967500D01*
X14575000Y-7937500D02*
X14635000Y-7937500D01*
X14605000Y-8161500D02*
X14605000Y-8221500D01*
X14575000Y-8191500D02*
X14635000Y-8191500D01*
X14605000Y-8352000D02*
X14605000Y-8412000D01*
X14575000Y-8382000D02*
X14635000Y-8382000D01*
X14605000Y-8669500D02*
X14605000Y-8729500D01*
X14575000Y-8699500D02*
X14635000Y-8699500D01*
X14605000Y-9495000D02*
X14605000Y-9555000D01*
X14575000Y-9525000D02*
X14635000Y-9525000D01*
X14655800Y-7170900D02*
X14655800Y-7230900D01*
X14625800Y-7200900D02*
X14685800Y-7200900D01*
X14655800Y-7399500D02*
X14655800Y-7459500D01*
X14625800Y-7429500D02*
X14685800Y-7429500D01*
X14719300Y-9736300D02*
X14719300Y-9796300D01*
X14689300Y-9766300D02*
X14749300Y-9766300D01*
X14732000Y-7526500D02*
X14732000Y-7586500D01*
X14702000Y-7556500D02*
X14762000Y-7556500D01*
X14732000Y-7780500D02*
X14732000Y-7840500D01*
X14702000Y-7810500D02*
X14762000Y-7810500D01*
X14732000Y-8034500D02*
X14732000Y-8094500D01*
X14702000Y-8064500D02*
X14762000Y-8064500D01*
X14732000Y-8288500D02*
X14732000Y-8348500D01*
X14702000Y-8318500D02*
X14762000Y-8318500D01*
X14732000Y-8542500D02*
X14732000Y-8602500D01*
X14702000Y-8572500D02*
X14762000Y-8572500D01*
X14795500Y-10028400D02*
X14795500Y-10088400D01*
X14765500Y-10058400D02*
X14825500Y-10058400D01*
X14859000Y-7653500D02*
X14859000Y-7713500D01*
X14829000Y-7683500D02*
X14889000Y-7683500D01*
X14859000Y-7907500D02*
X14859000Y-7967500D01*
X14829000Y-7937500D02*
X14889000Y-7937500D01*
X14859000Y-8161500D02*
X14859000Y-8221500D01*
X14829000Y-8191500D02*
X14889000Y-8191500D01*
X14909800Y-9914100D02*
X14909800Y-9974100D01*
X14879800Y-9944100D02*
X14939800Y-9944100D01*
X14998700Y-9647400D02*
X14998700Y-9707400D01*
X14968700Y-9677400D02*
X15028700Y-9677400D01*
X15011400Y-8479000D02*
X15011400Y-8539000D01*
X14981400Y-8509000D02*
X15041400Y-8509000D01*
X15024100Y-11323800D02*
X15024100Y-11383800D01*
X14994100Y-11353800D02*
X15054100Y-11353800D01*
X15049500Y-7170900D02*
X15049500Y-7230900D01*
X15019500Y-7200900D02*
X15079500Y-7200900D01*
X15049500Y-8999700D02*
X15049500Y-9059700D01*
X15019500Y-9029700D02*
X15079500Y-9029700D01*
X15163800Y-10980900D02*
X15163800Y-11040900D01*
X15133800Y-11010900D02*
X15193800Y-11010900D01*
X15192169Y-10584231D02*
X15192169Y-10644231D01*
X15162169Y-10614231D02*
X15222169Y-10614231D01*
X15214600Y-10345902D02*
X15214600Y-10405902D01*
X15184600Y-10375902D02*
X15244600Y-10375902D01*
X13854213Y-13758713D02*
X13854213Y-13716287D01*
X13811787Y-13716287D01*
X13811787Y-13758713D01*
X13854213Y-13758713D01*
D11*
X13803000Y-13682500D02*
X13803000Y-13792500D01*
X13803000Y-13792500D02*
G75*
G03*
X13863000Y-13792500I30000J0D01*
G01*
X13863000Y-13792500D02*
X13863000Y-13682500D01*
X13863000Y-13682500D02*
G75*
G03*
X13803000Y-13682500I-30000J0D01*
G01*
D14*
X13854213Y-14178713D02*
X13854213Y-14136287D01*
X13811787Y-14136287D01*
X13811787Y-14178713D01*
X13854213Y-14178713D01*
D11*
X13803000Y-14117500D02*
X13803000Y-14197500D01*
X13803000Y-14197500D02*
G75*
G03*
X13863000Y-14197500I30000J0D01*
G01*
X13863000Y-14197500D02*
X13863000Y-14117500D01*
X13863000Y-14117500D02*
G75*
G03*
X13803000Y-14117500I-30000J0D01*
G01*
D14*
X14092213Y-7843413D02*
X14092213Y-7800987D01*
X14049787Y-7800987D01*
X14049787Y-7843413D01*
X14092213Y-7843413D01*
X14092213Y-8023413D02*
X14092213Y-7980987D01*
X14049787Y-7980987D01*
X14049787Y-8023413D01*
X14092213Y-8023413D01*
X14092213Y-8203413D02*
X14092213Y-8160987D01*
X14049787Y-8160987D01*
X14049787Y-8203413D01*
X14092213Y-8203413D01*
X14272213Y-7843413D02*
X14272213Y-7800987D01*
X14229787Y-7800987D01*
X14229787Y-7843413D01*
X14272213Y-7843413D01*
X14272213Y-8203413D02*
X14272213Y-8160987D01*
X14229787Y-8160987D01*
X14229787Y-8203413D01*
X14272213Y-8203413D01*
X14452213Y-7843413D02*
X14452213Y-7800987D01*
X14409787Y-7800987D01*
X14409787Y-7843413D01*
X14452213Y-7843413D01*
X14452213Y-8023413D02*
X14452213Y-7980987D01*
X14409787Y-7980987D01*
X14409787Y-8023413D01*
X14452213Y-8023413D01*
X14452213Y-8203413D02*
X14452213Y-8160987D01*
X14409787Y-8160987D01*
X14409787Y-8203413D01*
X14452213Y-8203413D01*
X14718213Y-13758713D02*
X14718213Y-13716287D01*
X14675787Y-13716287D01*
X14675787Y-13758713D01*
X14718213Y-13758713D01*
D11*
X14667000Y-13682500D02*
X14667000Y-13792500D01*
X14667000Y-13792500D02*
G75*
G03*
X14727000Y-13792500I30000J0D01*
G01*
X14727000Y-13792500D02*
X14727000Y-13682500D01*
X14727000Y-13682500D02*
G75*
G03*
X14667000Y-13682500I-30000J0D01*
G01*
D14*
X14718213Y-14178713D02*
X14718213Y-14136287D01*
X14675787Y-14136287D01*
X14675787Y-14178713D01*
X14718213Y-14178713D01*
D11*
X14667000Y-14117500D02*
X14667000Y-14197500D01*
X14667000Y-14197500D02*
G75*
G03*
X14727000Y-14197500I30000J0D01*
G01*
X14727000Y-14197500D02*
X14727000Y-14117500D01*
X14727000Y-14117500D02*
G75*
G03*
X14667000Y-14117500I-30000J0D01*
G01*
D15*
X15270000Y-11737500D02*
X15307500Y-11700000D01*
X15270000Y-11662500D01*
X15232500Y-11700000D01*
X15270000Y-11737500D01*
X15270000Y-11937500D02*
X15307500Y-11900000D01*
X15270000Y-11862500D01*
X15232500Y-11900000D01*
X15270000Y-11937500D01*
D16*
X13920000Y-12005000D02*
X14010000Y-12095000D01*
X14010000Y-12005000D02*
X13920000Y-12095000D01*
X14010000Y-12050000D02*
G75*
G03*
X14010000Y-12050000I-45000J0D01*
G01*
X13920000Y-12255000D02*
X14010000Y-12345000D01*
X14010000Y-12255000D02*
X13920000Y-12345000D01*
X14010000Y-12300000D02*
G75*
G03*
X14010000Y-12300000I-45000J0D01*
G01*
X13920000Y-12505000D02*
X14010000Y-12595000D01*
X14010000Y-12505000D02*
X13920000Y-12595000D01*
X14010000Y-12550000D02*
G75*
G03*
X14010000Y-12550000I-45000J0D01*
G01*
X14520000Y-12005000D02*
X14610000Y-12095000D01*
X14610000Y-12005000D02*
X14520000Y-12095000D01*
X14610000Y-12050000D02*
G75*
G03*
X14610000Y-12050000I-45000J0D01*
G01*
X14520000Y-12255000D02*
X14610000Y-12345000D01*
X14610000Y-12255000D02*
X14520000Y-12345000D01*
X14610000Y-12300000D02*
G75*
G03*
X14610000Y-12300000I-45000J0D01*
G01*
X14520000Y-12505000D02*
X14610000Y-12595000D01*
X14610000Y-12505000D02*
X14520000Y-12595000D01*
X14610000Y-12550000D02*
G75*
G03*
X14610000Y-12550000I-45000J0D01*
G01*
D17*
X12240000Y-8290000D02*
X12340000Y-8390000D01*
X12340000Y-8290000D02*
X12240000Y-8390000D01*
X12290000Y-8290000D02*
X12290000Y-8390000D01*
X12240000Y-8340000D02*
X12340000Y-8340000D01*
X12240000Y-8544000D02*
X12340000Y-8644000D01*
X12340000Y-8544000D02*
X12240000Y-8644000D01*
X12290000Y-8544000D02*
X12290000Y-8644000D01*
X12240000Y-8594000D02*
X12340000Y-8594000D01*
X12240000Y-8798000D02*
X12340000Y-8898000D01*
X12340000Y-8798000D02*
X12240000Y-8898000D01*
X12290000Y-8798000D02*
X12290000Y-8898000D01*
X12240000Y-8848000D02*
X12340000Y-8848000D01*
X12240000Y-9052000D02*
X12340000Y-9152000D01*
X12340000Y-9052000D02*
X12240000Y-9152000D01*
X12290000Y-9052000D02*
X12290000Y-9152000D01*
X12240000Y-9102000D02*
X12340000Y-9102000D01*
X12240000Y-9306000D02*
X12340000Y-9406000D01*
X12340000Y-9306000D02*
X12240000Y-9406000D01*
X12290000Y-9306000D02*
X12290000Y-9406000D01*
X12240000Y-9356000D02*
X12340000Y-9356000D01*
X12240000Y-9560000D02*
X12340000Y-9660000D01*
X12340000Y-9560000D02*
X12240000Y-9660000D01*
X12290000Y-9560000D02*
X12290000Y-9660000D01*
X12240000Y-9610000D02*
X12340000Y-9610000D01*
X12240000Y-9814000D02*
X12340000Y-9914000D01*
X12340000Y-9814000D02*
X12240000Y-9914000D01*
X12290000Y-9814000D02*
X12290000Y-9914000D01*
X12240000Y-9864000D02*
X12340000Y-9864000D01*
D18*
X14186000Y-7937200D02*
X14316000Y-8067200D01*
X14316000Y-7937200D02*
X14186000Y-8067200D01*
X14296962Y-8048162D02*
X14296962Y-7956238D01*
X14205038Y-7956238D01*
X14205038Y-8048162D01*
X14296962Y-8048162D01*
D19*
X12315000Y-6725000D02*
X12565000Y-6975000D01*
X12565000Y-6725000D02*
X12315000Y-6975000D01*
X12440000Y-6975000D02*
X12565000Y-6850000D01*
X12440000Y-6725000D01*
X12315000Y-6850000D01*
X12440000Y-6975000D01*
X12315000Y-13775000D02*
X12565000Y-14025000D01*
X12565000Y-13775000D02*
X12315000Y-14025000D01*
X12440000Y-14025000D02*
X12565000Y-13900000D01*
X12440000Y-13775000D01*
X12315000Y-13900000D01*
X12440000Y-14025000D01*
X15965000Y-6725000D02*
X16215000Y-6975000D01*
X16215000Y-6725000D02*
X15965000Y-6975000D01*
X16090000Y-6975000D02*
X16215000Y-6850000D01*
X16090000Y-6725000D01*
X15965000Y-6850000D01*
X16090000Y-6975000D01*
X15965000Y-13775000D02*
X16215000Y-14025000D01*
X16215000Y-13775000D02*
X15965000Y-14025000D01*
X16090000Y-14025000D02*
X16215000Y-13900000D01*
X16090000Y-13775000D01*
X15965000Y-13900000D01*
X16090000Y-14025000D01*
D11*
X12274919Y-14625224D02*
X12274919Y-14425224D01*
X12274919Y-14425224D02*
X12322538Y-14425224D01*
X12322538Y-14425224D02*
X12351109Y-14434748D01*
X12351109Y-14434748D02*
X12370157Y-14453795D01*
X12370157Y-14453795D02*
X12379681Y-14472843D01*
X12379681Y-14472843D02*
X12389205Y-14510938D01*
X12389205Y-14510938D02*
X12389205Y-14539509D01*
X12389205Y-14539509D02*
X12379681Y-14577605D01*
X12379681Y-14577605D02*
X12370157Y-14596652D01*
X12370157Y-14596652D02*
X12351109Y-14615700D01*
X12351109Y-14615700D02*
X12322538Y-14625224D01*
X12322538Y-14625224D02*
X12274919Y-14625224D01*
X12474919Y-14625224D02*
X12474919Y-14491890D01*
X12474919Y-14529986D02*
X12484443Y-14510938D01*
X12484443Y-14510938D02*
X12493967Y-14501414D01*
X12493967Y-14501414D02*
X12513014Y-14491890D01*
X12513014Y-14491890D02*
X12532062Y-14491890D01*
X12598728Y-14625224D02*
X12598728Y-14491890D01*
X12598728Y-14425224D02*
X12589205Y-14434748D01*
X12589205Y-14434748D02*
X12598728Y-14444271D01*
X12598728Y-14444271D02*
X12608252Y-14434748D01*
X12608252Y-14434748D02*
X12598728Y-14425224D01*
X12598728Y-14425224D02*
X12598728Y-14444271D01*
X12722538Y-14625224D02*
X12703490Y-14615700D01*
X12703490Y-14615700D02*
X12693967Y-14596652D01*
X12693967Y-14596652D02*
X12693967Y-14425224D01*
X12827300Y-14625224D02*
X12808252Y-14615700D01*
X12808252Y-14615700D02*
X12798728Y-14596652D01*
X12798728Y-14596652D02*
X12798728Y-14425224D01*
X13055871Y-14625224D02*
X13055871Y-14425224D01*
X13055871Y-14425224D02*
X13122538Y-14568081D01*
X13122538Y-14568081D02*
X13189205Y-14425224D01*
X13189205Y-14425224D02*
X13189205Y-14625224D01*
X13370157Y-14625224D02*
X13370157Y-14520462D01*
X13370157Y-14520462D02*
X13360633Y-14501414D01*
X13360633Y-14501414D02*
X13341586Y-14491890D01*
X13341586Y-14491890D02*
X13303490Y-14491890D01*
X13303490Y-14491890D02*
X13284443Y-14501414D01*
X13370157Y-14615700D02*
X13351109Y-14625224D01*
X13351109Y-14625224D02*
X13303490Y-14625224D01*
X13303490Y-14625224D02*
X13284443Y-14615700D01*
X13284443Y-14615700D02*
X13274919Y-14596652D01*
X13274919Y-14596652D02*
X13274919Y-14577605D01*
X13274919Y-14577605D02*
X13284443Y-14558557D01*
X13284443Y-14558557D02*
X13303490Y-14549033D01*
X13303490Y-14549033D02*
X13351109Y-14549033D01*
X13351109Y-14549033D02*
X13370157Y-14539509D01*
X13465395Y-14491890D02*
X13465395Y-14691890D01*
X13465395Y-14501414D02*
X13484443Y-14491890D01*
X13484443Y-14491890D02*
X13522538Y-14491890D01*
X13522538Y-14491890D02*
X13541586Y-14501414D01*
X13541586Y-14501414D02*
X13551109Y-14510938D01*
X13551109Y-14510938D02*
X13560633Y-14529986D01*
X13560633Y-14529986D02*
X13560633Y-14587128D01*
X13560633Y-14587128D02*
X13551109Y-14606176D01*
X13551109Y-14606176D02*
X13541586Y-14615700D01*
X13541586Y-14615700D02*
X13522538Y-14625224D01*
X13522538Y-14625224D02*
X13484443Y-14625224D01*
X13484443Y-14625224D02*
X13465395Y-14615700D01*
X13646348Y-14606176D02*
X13655871Y-14615700D01*
X13655871Y-14615700D02*
X13646348Y-14625224D01*
X13646348Y-14625224D02*
X13636824Y-14615700D01*
X13636824Y-14615700D02*
X13646348Y-14606176D01*
X13646348Y-14606176D02*
X13646348Y-14625224D01*
X13646348Y-14501414D02*
X13655871Y-14510938D01*
X13655871Y-14510938D02*
X13646348Y-14520462D01*
X13646348Y-14520462D02*
X13636824Y-14510938D01*
X13636824Y-14510938D02*
X13646348Y-14501414D01*
X13646348Y-14501414D02*
X13646348Y-14520462D01*
D12*
X11987300Y-14932700D02*
X12027300Y-14972700D01*
X12027300Y-14932700D02*
X11987300Y-14972700D01*
D11*
X12313014Y-14845224D02*
X12332062Y-14845224D01*
X12332062Y-14845224D02*
X12351109Y-14854748D01*
X12351109Y-14854748D02*
X12360633Y-14864271D01*
X12360633Y-14864271D02*
X12370157Y-14883319D01*
X12370157Y-14883319D02*
X12379681Y-14921414D01*
X12379681Y-14921414D02*
X12379681Y-14969033D01*
X12379681Y-14969033D02*
X12370157Y-15007128D01*
X12370157Y-15007128D02*
X12360633Y-15026176D01*
X12360633Y-15026176D02*
X12351109Y-15035700D01*
X12351109Y-15035700D02*
X12332062Y-15045224D01*
X12332062Y-15045224D02*
X12313014Y-15045224D01*
X12313014Y-15045224D02*
X12293967Y-15035700D01*
X12293967Y-15035700D02*
X12284443Y-15026176D01*
X12284443Y-15026176D02*
X12274919Y-15007128D01*
X12274919Y-15007128D02*
X12265395Y-14969033D01*
X12265395Y-14969033D02*
X12265395Y-14921414D01*
X12265395Y-14921414D02*
X12274919Y-14883319D01*
X12274919Y-14883319D02*
X12284443Y-14864271D01*
X12284443Y-14864271D02*
X12293967Y-14854748D01*
X12293967Y-14854748D02*
X12313014Y-14845224D01*
X12465395Y-15026176D02*
X12474919Y-15035700D01*
X12474919Y-15035700D02*
X12465395Y-15045224D01*
X12465395Y-15045224D02*
X12455871Y-15035700D01*
X12455871Y-15035700D02*
X12465395Y-15026176D01*
X12465395Y-15026176D02*
X12465395Y-15045224D01*
X12646348Y-14911890D02*
X12646348Y-15045224D01*
X12598728Y-14835700D02*
X12551109Y-14978557D01*
X12551109Y-14978557D02*
X12674919Y-14978557D01*
X12789205Y-14845224D02*
X12808252Y-14845224D01*
X12808252Y-14845224D02*
X12827300Y-14854748D01*
X12827300Y-14854748D02*
X12836824Y-14864271D01*
X12836824Y-14864271D02*
X12846348Y-14883319D01*
X12846348Y-14883319D02*
X12855871Y-14921414D01*
X12855871Y-14921414D02*
X12855871Y-14969033D01*
X12855871Y-14969033D02*
X12846348Y-15007128D01*
X12846348Y-15007128D02*
X12836824Y-15026176D01*
X12836824Y-15026176D02*
X12827300Y-15035700D01*
X12827300Y-15035700D02*
X12808252Y-15045224D01*
X12808252Y-15045224D02*
X12789205Y-15045224D01*
X12789205Y-15045224D02*
X12770157Y-15035700D01*
X12770157Y-15035700D02*
X12760633Y-15026176D01*
X12760633Y-15026176D02*
X12751109Y-15007128D01*
X12751109Y-15007128D02*
X12741586Y-14969033D01*
X12741586Y-14969033D02*
X12741586Y-14921414D01*
X12741586Y-14921414D02*
X12751109Y-14883319D01*
X12751109Y-14883319D02*
X12760633Y-14864271D01*
X12760633Y-14864271D02*
X12770157Y-14854748D01*
X12770157Y-14854748D02*
X12789205Y-14845224D01*
X12979681Y-14845224D02*
X12998729Y-14845224D01*
X12998729Y-14845224D02*
X13017776Y-14854748D01*
X13017776Y-14854748D02*
X13027300Y-14864271D01*
X13027300Y-14864271D02*
X13036824Y-14883319D01*
X13036824Y-14883319D02*
X13046348Y-14921414D01*
X13046348Y-14921414D02*
X13046348Y-14969033D01*
X13046348Y-14969033D02*
X13036824Y-15007128D01*
X13036824Y-15007128D02*
X13027300Y-15026176D01*
X13027300Y-15026176D02*
X13017776Y-15035700D01*
X13017776Y-15035700D02*
X12998729Y-15045224D01*
X12998729Y-15045224D02*
X12979681Y-15045224D01*
X12979681Y-15045224D02*
X12960633Y-15035700D01*
X12960633Y-15035700D02*
X12951109Y-15026176D01*
X12951109Y-15026176D02*
X12941586Y-15007128D01*
X12941586Y-15007128D02*
X12932062Y-14969033D01*
X12932062Y-14969033D02*
X12932062Y-14921414D01*
X12932062Y-14921414D02*
X12941586Y-14883319D01*
X12941586Y-14883319D02*
X12951109Y-14864271D01*
X12951109Y-14864271D02*
X12960633Y-14854748D01*
X12960633Y-14854748D02*
X12979681Y-14845224D01*
X13132062Y-15045224D02*
X13132062Y-14911890D01*
X13132062Y-14930938D02*
X13141586Y-14921414D01*
X13141586Y-14921414D02*
X13160633Y-14911890D01*
X13160633Y-14911890D02*
X13189205Y-14911890D01*
X13189205Y-14911890D02*
X13208252Y-14921414D01*
X13208252Y-14921414D02*
X13217776Y-14940462D01*
X13217776Y-14940462D02*
X13217776Y-15045224D01*
X13217776Y-14940462D02*
X13227300Y-14921414D01*
X13227300Y-14921414D02*
X13246348Y-14911890D01*
X13246348Y-14911890D02*
X13274919Y-14911890D01*
X13274919Y-14911890D02*
X13293967Y-14921414D01*
X13293967Y-14921414D02*
X13303490Y-14940462D01*
X13303490Y-14940462D02*
X13303490Y-15045224D01*
X13398729Y-15045224D02*
X13398729Y-14911890D01*
X13398729Y-14930938D02*
X13408252Y-14921414D01*
X13408252Y-14921414D02*
X13427300Y-14911890D01*
X13427300Y-14911890D02*
X13455871Y-14911890D01*
X13455871Y-14911890D02*
X13474919Y-14921414D01*
X13474919Y-14921414D02*
X13484443Y-14940462D01*
X13484443Y-14940462D02*
X13484443Y-15045224D01*
X13484443Y-14940462D02*
X13493967Y-14921414D01*
X13493967Y-14921414D02*
X13513014Y-14911890D01*
X13513014Y-14911890D02*
X13541586Y-14911890D01*
X13541586Y-14911890D02*
X13560633Y-14921414D01*
X13560633Y-14921414D02*
X13570157Y-14940462D01*
X13570157Y-14940462D02*
X13570157Y-15045224D01*
X13960633Y-14835700D02*
X13789205Y-15092843D01*
X14217776Y-14845224D02*
X14236824Y-14845224D01*
X14236824Y-14845224D02*
X14255872Y-14854748D01*
X14255872Y-14854748D02*
X14265395Y-14864271D01*
X14265395Y-14864271D02*
X14274919Y-14883319D01*
X14274919Y-14883319D02*
X14284443Y-14921414D01*
X14284443Y-14921414D02*
X14284443Y-14969033D01*
X14284443Y-14969033D02*
X14274919Y-15007128D01*
X14274919Y-15007128D02*
X14265395Y-15026176D01*
X14265395Y-15026176D02*
X14255872Y-15035700D01*
X14255872Y-15035700D02*
X14236824Y-15045224D01*
X14236824Y-15045224D02*
X14217776Y-15045224D01*
X14217776Y-15045224D02*
X14198729Y-15035700D01*
X14198729Y-15035700D02*
X14189205Y-15026176D01*
X14189205Y-15026176D02*
X14179681Y-15007128D01*
X14179681Y-15007128D02*
X14170157Y-14969033D01*
X14170157Y-14969033D02*
X14170157Y-14921414D01*
X14170157Y-14921414D02*
X14179681Y-14883319D01*
X14179681Y-14883319D02*
X14189205Y-14864271D01*
X14189205Y-14864271D02*
X14198729Y-14854748D01*
X14198729Y-14854748D02*
X14217776Y-14845224D01*
X14370157Y-15026176D02*
X14379681Y-15035700D01*
X14379681Y-15035700D02*
X14370157Y-15045224D01*
X14370157Y-15045224D02*
X14360633Y-15035700D01*
X14360633Y-15035700D02*
X14370157Y-15026176D01*
X14370157Y-15026176D02*
X14370157Y-15045224D01*
X14503491Y-14845224D02*
X14522538Y-14845224D01*
X14522538Y-14845224D02*
X14541586Y-14854748D01*
X14541586Y-14854748D02*
X14551110Y-14864271D01*
X14551110Y-14864271D02*
X14560633Y-14883319D01*
X14560633Y-14883319D02*
X14570157Y-14921414D01*
X14570157Y-14921414D02*
X14570157Y-14969033D01*
X14570157Y-14969033D02*
X14560633Y-15007128D01*
X14560633Y-15007128D02*
X14551110Y-15026176D01*
X14551110Y-15026176D02*
X14541586Y-15035700D01*
X14541586Y-15035700D02*
X14522538Y-15045224D01*
X14522538Y-15045224D02*
X14503491Y-15045224D01*
X14503491Y-15045224D02*
X14484443Y-15035700D01*
X14484443Y-15035700D02*
X14474919Y-15026176D01*
X14474919Y-15026176D02*
X14465395Y-15007128D01*
X14465395Y-15007128D02*
X14455872Y-14969033D01*
X14455872Y-14969033D02*
X14455872Y-14921414D01*
X14455872Y-14921414D02*
X14465395Y-14883319D01*
X14465395Y-14883319D02*
X14474919Y-14864271D01*
X14474919Y-14864271D02*
X14484443Y-14854748D01*
X14484443Y-14854748D02*
X14503491Y-14845224D01*
X14760633Y-15045224D02*
X14646348Y-15045224D01*
X14703491Y-15045224D02*
X14703491Y-14845224D01*
X14703491Y-14845224D02*
X14684443Y-14873795D01*
X14684443Y-14873795D02*
X14665395Y-14892843D01*
X14665395Y-14892843D02*
X14646348Y-14902367D01*
X14941586Y-14845224D02*
X14846348Y-14845224D01*
X14846348Y-14845224D02*
X14836824Y-14940462D01*
X14836824Y-14940462D02*
X14846348Y-14930938D01*
X14846348Y-14930938D02*
X14865395Y-14921414D01*
X14865395Y-14921414D02*
X14913014Y-14921414D01*
X14913014Y-14921414D02*
X14932062Y-14930938D01*
X14932062Y-14930938D02*
X14941586Y-14940462D01*
X14941586Y-14940462D02*
X14951110Y-14959509D01*
X14951110Y-14959509D02*
X14951110Y-15007128D01*
X14951110Y-15007128D02*
X14941586Y-15026176D01*
X14941586Y-15026176D02*
X14932062Y-15035700D01*
X14932062Y-15035700D02*
X14913014Y-15045224D01*
X14913014Y-15045224D02*
X14865395Y-15045224D01*
X14865395Y-15045224D02*
X14846348Y-15035700D01*
X14846348Y-15035700D02*
X14836824Y-15026176D01*
X15017776Y-14845224D02*
X15151110Y-14845224D01*
X15151110Y-14845224D02*
X15065395Y-15045224D01*
X15217776Y-14845224D02*
X15217776Y-14883319D01*
X15293967Y-14845224D02*
X15293967Y-14883319D01*
X15589205Y-15121414D02*
X15579681Y-15111890D01*
X15579681Y-15111890D02*
X15560634Y-15083319D01*
X15560634Y-15083319D02*
X15551110Y-15064271D01*
X15551110Y-15064271D02*
X15541586Y-15035700D01*
X15541586Y-15035700D02*
X15532062Y-14988081D01*
X15532062Y-14988081D02*
X15532062Y-14949986D01*
X15532062Y-14949986D02*
X15541586Y-14902367D01*
X15541586Y-14902367D02*
X15551110Y-14873795D01*
X15551110Y-14873795D02*
X15560634Y-14854748D01*
X15560634Y-14854748D02*
X15579681Y-14826176D01*
X15579681Y-14826176D02*
X15589205Y-14816652D01*
X15655872Y-14864271D02*
X15665395Y-14854748D01*
X15665395Y-14854748D02*
X15684443Y-14845224D01*
X15684443Y-14845224D02*
X15732062Y-14845224D01*
X15732062Y-14845224D02*
X15751110Y-14854748D01*
X15751110Y-14854748D02*
X15760634Y-14864271D01*
X15760634Y-14864271D02*
X15770157Y-14883319D01*
X15770157Y-14883319D02*
X15770157Y-14902367D01*
X15770157Y-14902367D02*
X15760634Y-14930938D01*
X15760634Y-14930938D02*
X15646348Y-15045224D01*
X15646348Y-15045224D02*
X15770157Y-15045224D01*
X15884443Y-14930938D02*
X15865395Y-14921414D01*
X15865395Y-14921414D02*
X15855872Y-14911890D01*
X15855872Y-14911890D02*
X15846348Y-14892843D01*
X15846348Y-14892843D02*
X15846348Y-14883319D01*
X15846348Y-14883319D02*
X15855872Y-14864271D01*
X15855872Y-14864271D02*
X15865395Y-14854748D01*
X15865395Y-14854748D02*
X15884443Y-14845224D01*
X15884443Y-14845224D02*
X15922538Y-14845224D01*
X15922538Y-14845224D02*
X15941586Y-14854748D01*
X15941586Y-14854748D02*
X15951110Y-14864271D01*
X15951110Y-14864271D02*
X15960634Y-14883319D01*
X15960634Y-14883319D02*
X15960634Y-14892843D01*
X15960634Y-14892843D02*
X15951110Y-14911890D01*
X15951110Y-14911890D02*
X15941586Y-14921414D01*
X15941586Y-14921414D02*
X15922538Y-14930938D01*
X15922538Y-14930938D02*
X15884443Y-14930938D01*
X15884443Y-14930938D02*
X15865395Y-14940462D01*
X15865395Y-14940462D02*
X15855872Y-14949986D01*
X15855872Y-14949986D02*
X15846348Y-14969033D01*
X15846348Y-14969033D02*
X15846348Y-15007128D01*
X15846348Y-15007128D02*
X15855872Y-15026176D01*
X15855872Y-15026176D02*
X15865395Y-15035700D01*
X15865395Y-15035700D02*
X15884443Y-15045224D01*
X15884443Y-15045224D02*
X15922538Y-15045224D01*
X15922538Y-15045224D02*
X15941586Y-15035700D01*
X15941586Y-15035700D02*
X15951110Y-15026176D01*
X15951110Y-15026176D02*
X15960634Y-15007128D01*
X15960634Y-15007128D02*
X15960634Y-14969033D01*
X15960634Y-14969033D02*
X15951110Y-14949986D01*
X15951110Y-14949986D02*
X15941586Y-14940462D01*
X15941586Y-14940462D02*
X15922538Y-14930938D01*
X16198729Y-15045224D02*
X16198729Y-14845224D01*
X16284443Y-15045224D02*
X16284443Y-14940462D01*
X16284443Y-14940462D02*
X16274919Y-14921414D01*
X16274919Y-14921414D02*
X16255872Y-14911890D01*
X16255872Y-14911890D02*
X16227300Y-14911890D01*
X16227300Y-14911890D02*
X16208253Y-14921414D01*
X16208253Y-14921414D02*
X16198729Y-14930938D01*
X16408253Y-15045224D02*
X16389205Y-15035700D01*
X16389205Y-15035700D02*
X16379681Y-15026176D01*
X16379681Y-15026176D02*
X16370157Y-15007128D01*
X16370157Y-15007128D02*
X16370157Y-14949986D01*
X16370157Y-14949986D02*
X16379681Y-14930938D01*
X16379681Y-14930938D02*
X16389205Y-14921414D01*
X16389205Y-14921414D02*
X16408253Y-14911890D01*
X16408253Y-14911890D02*
X16436824Y-14911890D01*
X16436824Y-14911890D02*
X16455872Y-14921414D01*
X16455872Y-14921414D02*
X16465396Y-14930938D01*
X16465396Y-14930938D02*
X16474919Y-14949986D01*
X16474919Y-14949986D02*
X16474919Y-15007128D01*
X16474919Y-15007128D02*
X16465396Y-15026176D01*
X16465396Y-15026176D02*
X16455872Y-15035700D01*
X16455872Y-15035700D02*
X16436824Y-15045224D01*
X16436824Y-15045224D02*
X16408253Y-15045224D01*
X16589205Y-15045224D02*
X16570157Y-15035700D01*
X16570157Y-15035700D02*
X16560634Y-15016652D01*
X16560634Y-15016652D02*
X16560634Y-14845224D01*
X16741586Y-15035700D02*
X16722538Y-15045224D01*
X16722538Y-15045224D02*
X16684443Y-15045224D01*
X16684443Y-15045224D02*
X16665396Y-15035700D01*
X16665396Y-15035700D02*
X16655872Y-15016652D01*
X16655872Y-15016652D02*
X16655872Y-14940462D01*
X16655872Y-14940462D02*
X16665396Y-14921414D01*
X16665396Y-14921414D02*
X16684443Y-14911890D01*
X16684443Y-14911890D02*
X16722538Y-14911890D01*
X16722538Y-14911890D02*
X16741586Y-14921414D01*
X16741586Y-14921414D02*
X16751110Y-14940462D01*
X16751110Y-14940462D02*
X16751110Y-14959509D01*
X16751110Y-14959509D02*
X16655872Y-14978557D01*
X16827300Y-15035700D02*
X16846348Y-15045224D01*
X16846348Y-15045224D02*
X16884443Y-15045224D01*
X16884443Y-15045224D02*
X16903491Y-15035700D01*
X16903491Y-15035700D02*
X16913015Y-15016652D01*
X16913015Y-15016652D02*
X16913015Y-15007128D01*
X16913015Y-15007128D02*
X16903491Y-14988081D01*
X16903491Y-14988081D02*
X16884443Y-14978557D01*
X16884443Y-14978557D02*
X16855872Y-14978557D01*
X16855872Y-14978557D02*
X16836824Y-14969033D01*
X16836824Y-14969033D02*
X16827300Y-14949986D01*
X16827300Y-14949986D02*
X16827300Y-14940462D01*
X16827300Y-14940462D02*
X16836824Y-14921414D01*
X16836824Y-14921414D02*
X16855872Y-14911890D01*
X16855872Y-14911890D02*
X16884443Y-14911890D01*
X16884443Y-14911890D02*
X16903491Y-14921414D01*
X16979681Y-15121414D02*
X16989205Y-15111890D01*
X16989205Y-15111890D02*
X17008253Y-15083319D01*
X17008253Y-15083319D02*
X17017777Y-15064271D01*
X17017777Y-15064271D02*
X17027300Y-15035700D01*
X17027300Y-15035700D02*
X17036824Y-14988081D01*
X17036824Y-14988081D02*
X17036824Y-14949986D01*
X17036824Y-14949986D02*
X17027300Y-14902367D01*
X17027300Y-14902367D02*
X17017777Y-14873795D01*
X17017777Y-14873795D02*
X17008253Y-14854748D01*
X17008253Y-14854748D02*
X16989205Y-14826176D01*
X16989205Y-14826176D02*
X16979681Y-14816652D01*
D13*
X12027300Y-15216700D02*
G75*
G03*
X12027300Y-15216700I-25000J0D01*
G01*
D11*
X12313014Y-15109224D02*
X12332062Y-15109224D01*
X12332062Y-15109224D02*
X12351109Y-15118748D01*
X12351109Y-15118748D02*
X12360633Y-15128271D01*
X12360633Y-15128271D02*
X12370157Y-15147319D01*
X12370157Y-15147319D02*
X12379681Y-15185414D01*
X12379681Y-15185414D02*
X12379681Y-15233033D01*
X12379681Y-15233033D02*
X12370157Y-15271128D01*
X12370157Y-15271128D02*
X12360633Y-15290176D01*
X12360633Y-15290176D02*
X12351109Y-15299700D01*
X12351109Y-15299700D02*
X12332062Y-15309224D01*
X12332062Y-15309224D02*
X12313014Y-15309224D01*
X12313014Y-15309224D02*
X12293967Y-15299700D01*
X12293967Y-15299700D02*
X12284443Y-15290176D01*
X12284443Y-15290176D02*
X12274919Y-15271128D01*
X12274919Y-15271128D02*
X12265395Y-15233033D01*
X12265395Y-15233033D02*
X12265395Y-15185414D01*
X12265395Y-15185414D02*
X12274919Y-15147319D01*
X12274919Y-15147319D02*
X12284443Y-15128271D01*
X12284443Y-15128271D02*
X12293967Y-15118748D01*
X12293967Y-15118748D02*
X12313014Y-15109224D01*
X12465395Y-15290176D02*
X12474919Y-15299700D01*
X12474919Y-15299700D02*
X12465395Y-15309224D01*
X12465395Y-15309224D02*
X12455871Y-15299700D01*
X12455871Y-15299700D02*
X12465395Y-15290176D01*
X12465395Y-15290176D02*
X12465395Y-15309224D01*
X12655871Y-15109224D02*
X12560633Y-15109224D01*
X12560633Y-15109224D02*
X12551109Y-15204462D01*
X12551109Y-15204462D02*
X12560633Y-15194938D01*
X12560633Y-15194938D02*
X12579681Y-15185414D01*
X12579681Y-15185414D02*
X12627300Y-15185414D01*
X12627300Y-15185414D02*
X12646348Y-15194938D01*
X12646348Y-15194938D02*
X12655871Y-15204462D01*
X12655871Y-15204462D02*
X12665395Y-15223509D01*
X12665395Y-15223509D02*
X12665395Y-15271128D01*
X12665395Y-15271128D02*
X12655871Y-15290176D01*
X12655871Y-15290176D02*
X12646348Y-15299700D01*
X12646348Y-15299700D02*
X12627300Y-15309224D01*
X12627300Y-15309224D02*
X12579681Y-15309224D01*
X12579681Y-15309224D02*
X12560633Y-15299700D01*
X12560633Y-15299700D02*
X12551109Y-15290176D01*
X12789205Y-15109224D02*
X12808252Y-15109224D01*
X12808252Y-15109224D02*
X12827300Y-15118748D01*
X12827300Y-15118748D02*
X12836824Y-15128271D01*
X12836824Y-15128271D02*
X12846348Y-15147319D01*
X12846348Y-15147319D02*
X12855871Y-15185414D01*
X12855871Y-15185414D02*
X12855871Y-15233033D01*
X12855871Y-15233033D02*
X12846348Y-15271128D01*
X12846348Y-15271128D02*
X12836824Y-15290176D01*
X12836824Y-15290176D02*
X12827300Y-15299700D01*
X12827300Y-15299700D02*
X12808252Y-15309224D01*
X12808252Y-15309224D02*
X12789205Y-15309224D01*
X12789205Y-15309224D02*
X12770157Y-15299700D01*
X12770157Y-15299700D02*
X12760633Y-15290176D01*
X12760633Y-15290176D02*
X12751109Y-15271128D01*
X12751109Y-15271128D02*
X12741586Y-15233033D01*
X12741586Y-15233033D02*
X12741586Y-15185414D01*
X12741586Y-15185414D02*
X12751109Y-15147319D01*
X12751109Y-15147319D02*
X12760633Y-15128271D01*
X12760633Y-15128271D02*
X12770157Y-15118748D01*
X12770157Y-15118748D02*
X12789205Y-15109224D01*
X12979681Y-15109224D02*
X12998729Y-15109224D01*
X12998729Y-15109224D02*
X13017776Y-15118748D01*
X13017776Y-15118748D02*
X13027300Y-15128271D01*
X13027300Y-15128271D02*
X13036824Y-15147319D01*
X13036824Y-15147319D02*
X13046348Y-15185414D01*
X13046348Y-15185414D02*
X13046348Y-15233033D01*
X13046348Y-15233033D02*
X13036824Y-15271128D01*
X13036824Y-15271128D02*
X13027300Y-15290176D01*
X13027300Y-15290176D02*
X13017776Y-15299700D01*
X13017776Y-15299700D02*
X12998729Y-15309224D01*
X12998729Y-15309224D02*
X12979681Y-15309224D01*
X12979681Y-15309224D02*
X12960633Y-15299700D01*
X12960633Y-15299700D02*
X12951109Y-15290176D01*
X12951109Y-15290176D02*
X12941586Y-15271128D01*
X12941586Y-15271128D02*
X12932062Y-15233033D01*
X12932062Y-15233033D02*
X12932062Y-15185414D01*
X12932062Y-15185414D02*
X12941586Y-15147319D01*
X12941586Y-15147319D02*
X12951109Y-15128271D01*
X12951109Y-15128271D02*
X12960633Y-15118748D01*
X12960633Y-15118748D02*
X12979681Y-15109224D01*
X13132062Y-15309224D02*
X13132062Y-15175890D01*
X13132062Y-15194938D02*
X13141586Y-15185414D01*
X13141586Y-15185414D02*
X13160633Y-15175890D01*
X13160633Y-15175890D02*
X13189205Y-15175890D01*
X13189205Y-15175890D02*
X13208252Y-15185414D01*
X13208252Y-15185414D02*
X13217776Y-15204462D01*
X13217776Y-15204462D02*
X13217776Y-15309224D01*
X13217776Y-15204462D02*
X13227300Y-15185414D01*
X13227300Y-15185414D02*
X13246348Y-15175890D01*
X13246348Y-15175890D02*
X13274919Y-15175890D01*
X13274919Y-15175890D02*
X13293967Y-15185414D01*
X13293967Y-15185414D02*
X13303490Y-15204462D01*
X13303490Y-15204462D02*
X13303490Y-15309224D01*
X13398729Y-15309224D02*
X13398729Y-15175890D01*
X13398729Y-15194938D02*
X13408252Y-15185414D01*
X13408252Y-15185414D02*
X13427300Y-15175890D01*
X13427300Y-15175890D02*
X13455871Y-15175890D01*
X13455871Y-15175890D02*
X13474919Y-15185414D01*
X13474919Y-15185414D02*
X13484443Y-15204462D01*
X13484443Y-15204462D02*
X13484443Y-15309224D01*
X13484443Y-15204462D02*
X13493967Y-15185414D01*
X13493967Y-15185414D02*
X13513014Y-15175890D01*
X13513014Y-15175890D02*
X13541586Y-15175890D01*
X13541586Y-15175890D02*
X13560633Y-15185414D01*
X13560633Y-15185414D02*
X13570157Y-15204462D01*
X13570157Y-15204462D02*
X13570157Y-15309224D01*
X13960633Y-15099700D02*
X13789205Y-15356843D01*
X14217776Y-15109224D02*
X14236824Y-15109224D01*
X14236824Y-15109224D02*
X14255872Y-15118748D01*
X14255872Y-15118748D02*
X14265395Y-15128271D01*
X14265395Y-15128271D02*
X14274919Y-15147319D01*
X14274919Y-15147319D02*
X14284443Y-15185414D01*
X14284443Y-15185414D02*
X14284443Y-15233033D01*
X14284443Y-15233033D02*
X14274919Y-15271128D01*
X14274919Y-15271128D02*
X14265395Y-15290176D01*
X14265395Y-15290176D02*
X14255872Y-15299700D01*
X14255872Y-15299700D02*
X14236824Y-15309224D01*
X14236824Y-15309224D02*
X14217776Y-15309224D01*
X14217776Y-15309224D02*
X14198729Y-15299700D01*
X14198729Y-15299700D02*
X14189205Y-15290176D01*
X14189205Y-15290176D02*
X14179681Y-15271128D01*
X14179681Y-15271128D02*
X14170157Y-15233033D01*
X14170157Y-15233033D02*
X14170157Y-15185414D01*
X14170157Y-15185414D02*
X14179681Y-15147319D01*
X14179681Y-15147319D02*
X14189205Y-15128271D01*
X14189205Y-15128271D02*
X14198729Y-15118748D01*
X14198729Y-15118748D02*
X14217776Y-15109224D01*
X14370157Y-15290176D02*
X14379681Y-15299700D01*
X14379681Y-15299700D02*
X14370157Y-15309224D01*
X14370157Y-15309224D02*
X14360633Y-15299700D01*
X14360633Y-15299700D02*
X14370157Y-15290176D01*
X14370157Y-15290176D02*
X14370157Y-15309224D01*
X14503491Y-15109224D02*
X14522538Y-15109224D01*
X14522538Y-15109224D02*
X14541586Y-15118748D01*
X14541586Y-15118748D02*
X14551110Y-15128271D01*
X14551110Y-15128271D02*
X14560633Y-15147319D01*
X14560633Y-15147319D02*
X14570157Y-15185414D01*
X14570157Y-15185414D02*
X14570157Y-15233033D01*
X14570157Y-15233033D02*
X14560633Y-15271128D01*
X14560633Y-15271128D02*
X14551110Y-15290176D01*
X14551110Y-15290176D02*
X14541586Y-15299700D01*
X14541586Y-15299700D02*
X14522538Y-15309224D01*
X14522538Y-15309224D02*
X14503491Y-15309224D01*
X14503491Y-15309224D02*
X14484443Y-15299700D01*
X14484443Y-15299700D02*
X14474919Y-15290176D01*
X14474919Y-15290176D02*
X14465395Y-15271128D01*
X14465395Y-15271128D02*
X14455872Y-15233033D01*
X14455872Y-15233033D02*
X14455872Y-15185414D01*
X14455872Y-15185414D02*
X14465395Y-15147319D01*
X14465395Y-15147319D02*
X14474919Y-15128271D01*
X14474919Y-15128271D02*
X14484443Y-15118748D01*
X14484443Y-15118748D02*
X14503491Y-15109224D01*
X14760633Y-15309224D02*
X14646348Y-15309224D01*
X14703491Y-15309224D02*
X14703491Y-15109224D01*
X14703491Y-15109224D02*
X14684443Y-15137795D01*
X14684443Y-15137795D02*
X14665395Y-15156843D01*
X14665395Y-15156843D02*
X14646348Y-15166367D01*
X14855872Y-15309224D02*
X14893967Y-15309224D01*
X14893967Y-15309224D02*
X14913014Y-15299700D01*
X14913014Y-15299700D02*
X14922538Y-15290176D01*
X14922538Y-15290176D02*
X14941586Y-15261605D01*
X14941586Y-15261605D02*
X14951110Y-15223509D01*
X14951110Y-15223509D02*
X14951110Y-15147319D01*
X14951110Y-15147319D02*
X14941586Y-15128271D01*
X14941586Y-15128271D02*
X14932062Y-15118748D01*
X14932062Y-15118748D02*
X14913014Y-15109224D01*
X14913014Y-15109224D02*
X14874919Y-15109224D01*
X14874919Y-15109224D02*
X14855872Y-15118748D01*
X14855872Y-15118748D02*
X14846348Y-15128271D01*
X14846348Y-15128271D02*
X14836824Y-15147319D01*
X14836824Y-15147319D02*
X14836824Y-15194938D01*
X14836824Y-15194938D02*
X14846348Y-15213986D01*
X14846348Y-15213986D02*
X14855872Y-15223509D01*
X14855872Y-15223509D02*
X14874919Y-15233033D01*
X14874919Y-15233033D02*
X14913014Y-15233033D01*
X14913014Y-15233033D02*
X14932062Y-15223509D01*
X14932062Y-15223509D02*
X14941586Y-15213986D01*
X14941586Y-15213986D02*
X14951110Y-15194938D01*
X15017776Y-15109224D02*
X15151110Y-15109224D01*
X15151110Y-15109224D02*
X15065395Y-15309224D01*
X15217776Y-15109224D02*
X15217776Y-15147319D01*
X15293967Y-15109224D02*
X15293967Y-15147319D01*
X15589205Y-15385414D02*
X15579681Y-15375890D01*
X15579681Y-15375890D02*
X15560634Y-15347319D01*
X15560634Y-15347319D02*
X15551110Y-15328271D01*
X15551110Y-15328271D02*
X15541586Y-15299700D01*
X15541586Y-15299700D02*
X15532062Y-15252081D01*
X15532062Y-15252081D02*
X15532062Y-15213986D01*
X15532062Y-15213986D02*
X15541586Y-15166367D01*
X15541586Y-15166367D02*
X15551110Y-15137795D01*
X15551110Y-15137795D02*
X15560634Y-15118748D01*
X15560634Y-15118748D02*
X15579681Y-15090176D01*
X15579681Y-15090176D02*
X15589205Y-15080652D01*
X15646348Y-15109224D02*
X15770157Y-15109224D01*
X15770157Y-15109224D02*
X15703491Y-15185414D01*
X15703491Y-15185414D02*
X15732062Y-15185414D01*
X15732062Y-15185414D02*
X15751110Y-15194938D01*
X15751110Y-15194938D02*
X15760634Y-15204462D01*
X15760634Y-15204462D02*
X15770157Y-15223509D01*
X15770157Y-15223509D02*
X15770157Y-15271128D01*
X15770157Y-15271128D02*
X15760634Y-15290176D01*
X15760634Y-15290176D02*
X15751110Y-15299700D01*
X15751110Y-15299700D02*
X15732062Y-15309224D01*
X15732062Y-15309224D02*
X15674919Y-15309224D01*
X15674919Y-15309224D02*
X15655872Y-15299700D01*
X15655872Y-15299700D02*
X15646348Y-15290176D01*
X15846348Y-15128271D02*
X15855872Y-15118748D01*
X15855872Y-15118748D02*
X15874919Y-15109224D01*
X15874919Y-15109224D02*
X15922538Y-15109224D01*
X15922538Y-15109224D02*
X15941586Y-15118748D01*
X15941586Y-15118748D02*
X15951110Y-15128271D01*
X15951110Y-15128271D02*
X15960634Y-15147319D01*
X15960634Y-15147319D02*
X15960634Y-15166367D01*
X15960634Y-15166367D02*
X15951110Y-15194938D01*
X15951110Y-15194938D02*
X15836824Y-15309224D01*
X15836824Y-15309224D02*
X15960634Y-15309224D01*
X16198729Y-15309224D02*
X16198729Y-15109224D01*
X16284443Y-15309224D02*
X16284443Y-15204462D01*
X16284443Y-15204462D02*
X16274919Y-15185414D01*
X16274919Y-15185414D02*
X16255872Y-15175890D01*
X16255872Y-15175890D02*
X16227300Y-15175890D01*
X16227300Y-15175890D02*
X16208253Y-15185414D01*
X16208253Y-15185414D02*
X16198729Y-15194938D01*
X16408253Y-15309224D02*
X16389205Y-15299700D01*
X16389205Y-15299700D02*
X16379681Y-15290176D01*
X16379681Y-15290176D02*
X16370157Y-15271128D01*
X16370157Y-15271128D02*
X16370157Y-15213986D01*
X16370157Y-15213986D02*
X16379681Y-15194938D01*
X16379681Y-15194938D02*
X16389205Y-15185414D01*
X16389205Y-15185414D02*
X16408253Y-15175890D01*
X16408253Y-15175890D02*
X16436824Y-15175890D01*
X16436824Y-15175890D02*
X16455872Y-15185414D01*
X16455872Y-15185414D02*
X16465396Y-15194938D01*
X16465396Y-15194938D02*
X16474919Y-15213986D01*
X16474919Y-15213986D02*
X16474919Y-15271128D01*
X16474919Y-15271128D02*
X16465396Y-15290176D01*
X16465396Y-15290176D02*
X16455872Y-15299700D01*
X16455872Y-15299700D02*
X16436824Y-15309224D01*
X16436824Y-15309224D02*
X16408253Y-15309224D01*
X16589205Y-15309224D02*
X16570157Y-15299700D01*
X16570157Y-15299700D02*
X16560634Y-15280652D01*
X16560634Y-15280652D02*
X16560634Y-15109224D01*
X16741586Y-15299700D02*
X16722538Y-15309224D01*
X16722538Y-15309224D02*
X16684443Y-15309224D01*
X16684443Y-15309224D02*
X16665396Y-15299700D01*
X16665396Y-15299700D02*
X16655872Y-15280652D01*
X16655872Y-15280652D02*
X16655872Y-15204462D01*
X16655872Y-15204462D02*
X16665396Y-15185414D01*
X16665396Y-15185414D02*
X16684443Y-15175890D01*
X16684443Y-15175890D02*
X16722538Y-15175890D01*
X16722538Y-15175890D02*
X16741586Y-15185414D01*
X16741586Y-15185414D02*
X16751110Y-15204462D01*
X16751110Y-15204462D02*
X16751110Y-15223509D01*
X16751110Y-15223509D02*
X16655872Y-15242557D01*
X16827300Y-15299700D02*
X16846348Y-15309224D01*
X16846348Y-15309224D02*
X16884443Y-15309224D01*
X16884443Y-15309224D02*
X16903491Y-15299700D01*
X16903491Y-15299700D02*
X16913015Y-15280652D01*
X16913015Y-15280652D02*
X16913015Y-15271128D01*
X16913015Y-15271128D02*
X16903491Y-15252081D01*
X16903491Y-15252081D02*
X16884443Y-15242557D01*
X16884443Y-15242557D02*
X16855872Y-15242557D01*
X16855872Y-15242557D02*
X16836824Y-15233033D01*
X16836824Y-15233033D02*
X16827300Y-15213986D01*
X16827300Y-15213986D02*
X16827300Y-15204462D01*
X16827300Y-15204462D02*
X16836824Y-15185414D01*
X16836824Y-15185414D02*
X16855872Y-15175890D01*
X16855872Y-15175890D02*
X16884443Y-15175890D01*
X16884443Y-15175890D02*
X16903491Y-15185414D01*
X16979681Y-15385414D02*
X16989205Y-15375890D01*
X16989205Y-15375890D02*
X17008253Y-15347319D01*
X17008253Y-15347319D02*
X17017777Y-15328271D01*
X17017777Y-15328271D02*
X17027300Y-15299700D01*
X17027300Y-15299700D02*
X17036824Y-15252081D01*
X17036824Y-15252081D02*
X17036824Y-15213986D01*
X17036824Y-15213986D02*
X17027300Y-15166367D01*
X17027300Y-15166367D02*
X17017777Y-15137795D01*
X17017777Y-15137795D02*
X17008253Y-15118748D01*
X17008253Y-15118748D02*
X16989205Y-15090176D01*
X16989205Y-15090176D02*
X16979681Y-15080652D01*
D14*
X11997300Y-15450700D02*
X11997300Y-15510700D01*
X11967300Y-15480700D02*
X12027300Y-15480700D01*
D11*
X12313014Y-15373224D02*
X12332062Y-15373224D01*
X12332062Y-15373224D02*
X12351109Y-15382748D01*
X12351109Y-15382748D02*
X12360633Y-15392271D01*
X12360633Y-15392271D02*
X12370157Y-15411319D01*
X12370157Y-15411319D02*
X12379681Y-15449414D01*
X12379681Y-15449414D02*
X12379681Y-15497033D01*
X12379681Y-15497033D02*
X12370157Y-15535128D01*
X12370157Y-15535128D02*
X12360633Y-15554176D01*
X12360633Y-15554176D02*
X12351109Y-15563700D01*
X12351109Y-15563700D02*
X12332062Y-15573224D01*
X12332062Y-15573224D02*
X12313014Y-15573224D01*
X12313014Y-15573224D02*
X12293967Y-15563700D01*
X12293967Y-15563700D02*
X12284443Y-15554176D01*
X12284443Y-15554176D02*
X12274919Y-15535128D01*
X12274919Y-15535128D02*
X12265395Y-15497033D01*
X12265395Y-15497033D02*
X12265395Y-15449414D01*
X12265395Y-15449414D02*
X12274919Y-15411319D01*
X12274919Y-15411319D02*
X12284443Y-15392271D01*
X12284443Y-15392271D02*
X12293967Y-15382748D01*
X12293967Y-15382748D02*
X12313014Y-15373224D01*
X12465395Y-15554176D02*
X12474919Y-15563700D01*
X12474919Y-15563700D02*
X12465395Y-15573224D01*
X12465395Y-15573224D02*
X12455871Y-15563700D01*
X12455871Y-15563700D02*
X12465395Y-15554176D01*
X12465395Y-15554176D02*
X12465395Y-15573224D01*
X12646348Y-15373224D02*
X12608252Y-15373224D01*
X12608252Y-15373224D02*
X12589205Y-15382748D01*
X12589205Y-15382748D02*
X12579681Y-15392271D01*
X12579681Y-15392271D02*
X12560633Y-15420843D01*
X12560633Y-15420843D02*
X12551109Y-15458938D01*
X12551109Y-15458938D02*
X12551109Y-15535128D01*
X12551109Y-15535128D02*
X12560633Y-15554176D01*
X12560633Y-15554176D02*
X12570157Y-15563700D01*
X12570157Y-15563700D02*
X12589205Y-15573224D01*
X12589205Y-15573224D02*
X12627300Y-15573224D01*
X12627300Y-15573224D02*
X12646348Y-15563700D01*
X12646348Y-15563700D02*
X12655871Y-15554176D01*
X12655871Y-15554176D02*
X12665395Y-15535128D01*
X12665395Y-15535128D02*
X12665395Y-15487509D01*
X12665395Y-15487509D02*
X12655871Y-15468462D01*
X12655871Y-15468462D02*
X12646348Y-15458938D01*
X12646348Y-15458938D02*
X12627300Y-15449414D01*
X12627300Y-15449414D02*
X12589205Y-15449414D01*
X12589205Y-15449414D02*
X12570157Y-15458938D01*
X12570157Y-15458938D02*
X12560633Y-15468462D01*
X12560633Y-15468462D02*
X12551109Y-15487509D01*
X12789205Y-15373224D02*
X12808252Y-15373224D01*
X12808252Y-15373224D02*
X12827300Y-15382748D01*
X12827300Y-15382748D02*
X12836824Y-15392271D01*
X12836824Y-15392271D02*
X12846348Y-15411319D01*
X12846348Y-15411319D02*
X12855871Y-15449414D01*
X12855871Y-15449414D02*
X12855871Y-15497033D01*
X12855871Y-15497033D02*
X12846348Y-15535128D01*
X12846348Y-15535128D02*
X12836824Y-15554176D01*
X12836824Y-15554176D02*
X12827300Y-15563700D01*
X12827300Y-15563700D02*
X12808252Y-15573224D01*
X12808252Y-15573224D02*
X12789205Y-15573224D01*
X12789205Y-15573224D02*
X12770157Y-15563700D01*
X12770157Y-15563700D02*
X12760633Y-15554176D01*
X12760633Y-15554176D02*
X12751109Y-15535128D01*
X12751109Y-15535128D02*
X12741586Y-15497033D01*
X12741586Y-15497033D02*
X12741586Y-15449414D01*
X12741586Y-15449414D02*
X12751109Y-15411319D01*
X12751109Y-15411319D02*
X12760633Y-15392271D01*
X12760633Y-15392271D02*
X12770157Y-15382748D01*
X12770157Y-15382748D02*
X12789205Y-15373224D01*
X12979681Y-15373224D02*
X12998729Y-15373224D01*
X12998729Y-15373224D02*
X13017776Y-15382748D01*
X13017776Y-15382748D02*
X13027300Y-15392271D01*
X13027300Y-15392271D02*
X13036824Y-15411319D01*
X13036824Y-15411319D02*
X13046348Y-15449414D01*
X13046348Y-15449414D02*
X13046348Y-15497033D01*
X13046348Y-15497033D02*
X13036824Y-15535128D01*
X13036824Y-15535128D02*
X13027300Y-15554176D01*
X13027300Y-15554176D02*
X13017776Y-15563700D01*
X13017776Y-15563700D02*
X12998729Y-15573224D01*
X12998729Y-15573224D02*
X12979681Y-15573224D01*
X12979681Y-15573224D02*
X12960633Y-15563700D01*
X12960633Y-15563700D02*
X12951109Y-15554176D01*
X12951109Y-15554176D02*
X12941586Y-15535128D01*
X12941586Y-15535128D02*
X12932062Y-15497033D01*
X12932062Y-15497033D02*
X12932062Y-15449414D01*
X12932062Y-15449414D02*
X12941586Y-15411319D01*
X12941586Y-15411319D02*
X12951109Y-15392271D01*
X12951109Y-15392271D02*
X12960633Y-15382748D01*
X12960633Y-15382748D02*
X12979681Y-15373224D01*
X13132062Y-15573224D02*
X13132062Y-15439890D01*
X13132062Y-15458938D02*
X13141586Y-15449414D01*
X13141586Y-15449414D02*
X13160633Y-15439890D01*
X13160633Y-15439890D02*
X13189205Y-15439890D01*
X13189205Y-15439890D02*
X13208252Y-15449414D01*
X13208252Y-15449414D02*
X13217776Y-15468462D01*
X13217776Y-15468462D02*
X13217776Y-15573224D01*
X13217776Y-15468462D02*
X13227300Y-15449414D01*
X13227300Y-15449414D02*
X13246348Y-15439890D01*
X13246348Y-15439890D02*
X13274919Y-15439890D01*
X13274919Y-15439890D02*
X13293967Y-15449414D01*
X13293967Y-15449414D02*
X13303490Y-15468462D01*
X13303490Y-15468462D02*
X13303490Y-15573224D01*
X13398729Y-15573224D02*
X13398729Y-15439890D01*
X13398729Y-15458938D02*
X13408252Y-15449414D01*
X13408252Y-15449414D02*
X13427300Y-15439890D01*
X13427300Y-15439890D02*
X13455871Y-15439890D01*
X13455871Y-15439890D02*
X13474919Y-15449414D01*
X13474919Y-15449414D02*
X13484443Y-15468462D01*
X13484443Y-15468462D02*
X13484443Y-15573224D01*
X13484443Y-15468462D02*
X13493967Y-15449414D01*
X13493967Y-15449414D02*
X13513014Y-15439890D01*
X13513014Y-15439890D02*
X13541586Y-15439890D01*
X13541586Y-15439890D02*
X13560633Y-15449414D01*
X13560633Y-15449414D02*
X13570157Y-15468462D01*
X13570157Y-15468462D02*
X13570157Y-15573224D01*
X13960633Y-15363700D02*
X13789205Y-15620843D01*
X14217776Y-15373224D02*
X14236824Y-15373224D01*
X14236824Y-15373224D02*
X14255872Y-15382748D01*
X14255872Y-15382748D02*
X14265395Y-15392271D01*
X14265395Y-15392271D02*
X14274919Y-15411319D01*
X14274919Y-15411319D02*
X14284443Y-15449414D01*
X14284443Y-15449414D02*
X14284443Y-15497033D01*
X14284443Y-15497033D02*
X14274919Y-15535128D01*
X14274919Y-15535128D02*
X14265395Y-15554176D01*
X14265395Y-15554176D02*
X14255872Y-15563700D01*
X14255872Y-15563700D02*
X14236824Y-15573224D01*
X14236824Y-15573224D02*
X14217776Y-15573224D01*
X14217776Y-15573224D02*
X14198729Y-15563700D01*
X14198729Y-15563700D02*
X14189205Y-15554176D01*
X14189205Y-15554176D02*
X14179681Y-15535128D01*
X14179681Y-15535128D02*
X14170157Y-15497033D01*
X14170157Y-15497033D02*
X14170157Y-15449414D01*
X14170157Y-15449414D02*
X14179681Y-15411319D01*
X14179681Y-15411319D02*
X14189205Y-15392271D01*
X14189205Y-15392271D02*
X14198729Y-15382748D01*
X14198729Y-15382748D02*
X14217776Y-15373224D01*
X14370157Y-15554176D02*
X14379681Y-15563700D01*
X14379681Y-15563700D02*
X14370157Y-15573224D01*
X14370157Y-15573224D02*
X14360633Y-15563700D01*
X14360633Y-15563700D02*
X14370157Y-15554176D01*
X14370157Y-15554176D02*
X14370157Y-15573224D01*
X14503491Y-15373224D02*
X14522538Y-15373224D01*
X14522538Y-15373224D02*
X14541586Y-15382748D01*
X14541586Y-15382748D02*
X14551110Y-15392271D01*
X14551110Y-15392271D02*
X14560633Y-15411319D01*
X14560633Y-15411319D02*
X14570157Y-15449414D01*
X14570157Y-15449414D02*
X14570157Y-15497033D01*
X14570157Y-15497033D02*
X14560633Y-15535128D01*
X14560633Y-15535128D02*
X14551110Y-15554176D01*
X14551110Y-15554176D02*
X14541586Y-15563700D01*
X14541586Y-15563700D02*
X14522538Y-15573224D01*
X14522538Y-15573224D02*
X14503491Y-15573224D01*
X14503491Y-15573224D02*
X14484443Y-15563700D01*
X14484443Y-15563700D02*
X14474919Y-15554176D01*
X14474919Y-15554176D02*
X14465395Y-15535128D01*
X14465395Y-15535128D02*
X14455872Y-15497033D01*
X14455872Y-15497033D02*
X14455872Y-15449414D01*
X14455872Y-15449414D02*
X14465395Y-15411319D01*
X14465395Y-15411319D02*
X14474919Y-15392271D01*
X14474919Y-15392271D02*
X14484443Y-15382748D01*
X14484443Y-15382748D02*
X14503491Y-15373224D01*
X14646348Y-15392271D02*
X14655872Y-15382748D01*
X14655872Y-15382748D02*
X14674919Y-15373224D01*
X14674919Y-15373224D02*
X14722538Y-15373224D01*
X14722538Y-15373224D02*
X14741586Y-15382748D01*
X14741586Y-15382748D02*
X14751110Y-15392271D01*
X14751110Y-15392271D02*
X14760633Y-15411319D01*
X14760633Y-15411319D02*
X14760633Y-15430367D01*
X14760633Y-15430367D02*
X14751110Y-15458938D01*
X14751110Y-15458938D02*
X14636824Y-15573224D01*
X14636824Y-15573224D02*
X14760633Y-15573224D01*
X14827300Y-15373224D02*
X14951110Y-15373224D01*
X14951110Y-15373224D02*
X14884443Y-15449414D01*
X14884443Y-15449414D02*
X14913014Y-15449414D01*
X14913014Y-15449414D02*
X14932062Y-15458938D01*
X14932062Y-15458938D02*
X14941586Y-15468462D01*
X14941586Y-15468462D02*
X14951110Y-15487509D01*
X14951110Y-15487509D02*
X14951110Y-15535128D01*
X14951110Y-15535128D02*
X14941586Y-15554176D01*
X14941586Y-15554176D02*
X14932062Y-15563700D01*
X14932062Y-15563700D02*
X14913014Y-15573224D01*
X14913014Y-15573224D02*
X14855872Y-15573224D01*
X14855872Y-15573224D02*
X14836824Y-15563700D01*
X14836824Y-15563700D02*
X14827300Y-15554176D01*
X15122538Y-15373224D02*
X15084443Y-15373224D01*
X15084443Y-15373224D02*
X15065395Y-15382748D01*
X15065395Y-15382748D02*
X15055872Y-15392271D01*
X15055872Y-15392271D02*
X15036824Y-15420843D01*
X15036824Y-15420843D02*
X15027300Y-15458938D01*
X15027300Y-15458938D02*
X15027300Y-15535128D01*
X15027300Y-15535128D02*
X15036824Y-15554176D01*
X15036824Y-15554176D02*
X15046348Y-15563700D01*
X15046348Y-15563700D02*
X15065395Y-15573224D01*
X15065395Y-15573224D02*
X15103491Y-15573224D01*
X15103491Y-15573224D02*
X15122538Y-15563700D01*
X15122538Y-15563700D02*
X15132062Y-15554176D01*
X15132062Y-15554176D02*
X15141586Y-15535128D01*
X15141586Y-15535128D02*
X15141586Y-15487509D01*
X15141586Y-15487509D02*
X15132062Y-15468462D01*
X15132062Y-15468462D02*
X15122538Y-15458938D01*
X15122538Y-15458938D02*
X15103491Y-15449414D01*
X15103491Y-15449414D02*
X15065395Y-15449414D01*
X15065395Y-15449414D02*
X15046348Y-15458938D01*
X15046348Y-15458938D02*
X15036824Y-15468462D01*
X15036824Y-15468462D02*
X15027300Y-15487509D01*
X15217776Y-15373224D02*
X15217776Y-15411319D01*
X15293967Y-15373224D02*
X15293967Y-15411319D01*
X15589205Y-15649414D02*
X15579681Y-15639890D01*
X15579681Y-15639890D02*
X15560634Y-15611319D01*
X15560634Y-15611319D02*
X15551110Y-15592271D01*
X15551110Y-15592271D02*
X15541586Y-15563700D01*
X15541586Y-15563700D02*
X15532062Y-15516081D01*
X15532062Y-15516081D02*
X15532062Y-15477986D01*
X15532062Y-15477986D02*
X15541586Y-15430367D01*
X15541586Y-15430367D02*
X15551110Y-15401795D01*
X15551110Y-15401795D02*
X15560634Y-15382748D01*
X15560634Y-15382748D02*
X15579681Y-15354176D01*
X15579681Y-15354176D02*
X15589205Y-15344652D01*
X15693967Y-15458938D02*
X15674919Y-15449414D01*
X15674919Y-15449414D02*
X15665395Y-15439890D01*
X15665395Y-15439890D02*
X15655872Y-15420843D01*
X15655872Y-15420843D02*
X15655872Y-15411319D01*
X15655872Y-15411319D02*
X15665395Y-15392271D01*
X15665395Y-15392271D02*
X15674919Y-15382748D01*
X15674919Y-15382748D02*
X15693967Y-15373224D01*
X15693967Y-15373224D02*
X15732062Y-15373224D01*
X15732062Y-15373224D02*
X15751110Y-15382748D01*
X15751110Y-15382748D02*
X15760634Y-15392271D01*
X15760634Y-15392271D02*
X15770157Y-15411319D01*
X15770157Y-15411319D02*
X15770157Y-15420843D01*
X15770157Y-15420843D02*
X15760634Y-15439890D01*
X15760634Y-15439890D02*
X15751110Y-15449414D01*
X15751110Y-15449414D02*
X15732062Y-15458938D01*
X15732062Y-15458938D02*
X15693967Y-15458938D01*
X15693967Y-15458938D02*
X15674919Y-15468462D01*
X15674919Y-15468462D02*
X15665395Y-15477986D01*
X15665395Y-15477986D02*
X15655872Y-15497033D01*
X15655872Y-15497033D02*
X15655872Y-15535128D01*
X15655872Y-15535128D02*
X15665395Y-15554176D01*
X15665395Y-15554176D02*
X15674919Y-15563700D01*
X15674919Y-15563700D02*
X15693967Y-15573224D01*
X15693967Y-15573224D02*
X15732062Y-15573224D01*
X15732062Y-15573224D02*
X15751110Y-15563700D01*
X15751110Y-15563700D02*
X15760634Y-15554176D01*
X15760634Y-15554176D02*
X15770157Y-15535128D01*
X15770157Y-15535128D02*
X15770157Y-15497033D01*
X15770157Y-15497033D02*
X15760634Y-15477986D01*
X15760634Y-15477986D02*
X15751110Y-15468462D01*
X15751110Y-15468462D02*
X15732062Y-15458938D01*
X15941586Y-15373224D02*
X15903491Y-15373224D01*
X15903491Y-15373224D02*
X15884443Y-15382748D01*
X15884443Y-15382748D02*
X15874919Y-15392271D01*
X15874919Y-15392271D02*
X15855872Y-15420843D01*
X15855872Y-15420843D02*
X15846348Y-15458938D01*
X15846348Y-15458938D02*
X15846348Y-15535128D01*
X15846348Y-15535128D02*
X15855872Y-15554176D01*
X15855872Y-15554176D02*
X15865395Y-15563700D01*
X15865395Y-15563700D02*
X15884443Y-15573224D01*
X15884443Y-15573224D02*
X15922538Y-15573224D01*
X15922538Y-15573224D02*
X15941586Y-15563700D01*
X15941586Y-15563700D02*
X15951110Y-15554176D01*
X15951110Y-15554176D02*
X15960634Y-15535128D01*
X15960634Y-15535128D02*
X15960634Y-15487509D01*
X15960634Y-15487509D02*
X15951110Y-15468462D01*
X15951110Y-15468462D02*
X15941586Y-15458938D01*
X15941586Y-15458938D02*
X15922538Y-15449414D01*
X15922538Y-15449414D02*
X15884443Y-15449414D01*
X15884443Y-15449414D02*
X15865395Y-15458938D01*
X15865395Y-15458938D02*
X15855872Y-15468462D01*
X15855872Y-15468462D02*
X15846348Y-15487509D01*
X16198729Y-15573224D02*
X16198729Y-15373224D01*
X16284443Y-15573224D02*
X16284443Y-15468462D01*
X16284443Y-15468462D02*
X16274919Y-15449414D01*
X16274919Y-15449414D02*
X16255872Y-15439890D01*
X16255872Y-15439890D02*
X16227300Y-15439890D01*
X16227300Y-15439890D02*
X16208253Y-15449414D01*
X16208253Y-15449414D02*
X16198729Y-15458938D01*
X16408253Y-15573224D02*
X16389205Y-15563700D01*
X16389205Y-15563700D02*
X16379681Y-15554176D01*
X16379681Y-15554176D02*
X16370157Y-15535128D01*
X16370157Y-15535128D02*
X16370157Y-15477986D01*
X16370157Y-15477986D02*
X16379681Y-15458938D01*
X16379681Y-15458938D02*
X16389205Y-15449414D01*
X16389205Y-15449414D02*
X16408253Y-15439890D01*
X16408253Y-15439890D02*
X16436824Y-15439890D01*
X16436824Y-15439890D02*
X16455872Y-15449414D01*
X16455872Y-15449414D02*
X16465396Y-15458938D01*
X16465396Y-15458938D02*
X16474919Y-15477986D01*
X16474919Y-15477986D02*
X16474919Y-15535128D01*
X16474919Y-15535128D02*
X16465396Y-15554176D01*
X16465396Y-15554176D02*
X16455872Y-15563700D01*
X16455872Y-15563700D02*
X16436824Y-15573224D01*
X16436824Y-15573224D02*
X16408253Y-15573224D01*
X16589205Y-15573224D02*
X16570157Y-15563700D01*
X16570157Y-15563700D02*
X16560634Y-15544652D01*
X16560634Y-15544652D02*
X16560634Y-15373224D01*
X16741586Y-15563700D02*
X16722538Y-15573224D01*
X16722538Y-15573224D02*
X16684443Y-15573224D01*
X16684443Y-15573224D02*
X16665396Y-15563700D01*
X16665396Y-15563700D02*
X16655872Y-15544652D01*
X16655872Y-15544652D02*
X16655872Y-15468462D01*
X16655872Y-15468462D02*
X16665396Y-15449414D01*
X16665396Y-15449414D02*
X16684443Y-15439890D01*
X16684443Y-15439890D02*
X16722538Y-15439890D01*
X16722538Y-15439890D02*
X16741586Y-15449414D01*
X16741586Y-15449414D02*
X16751110Y-15468462D01*
X16751110Y-15468462D02*
X16751110Y-15487509D01*
X16751110Y-15487509D02*
X16655872Y-15506557D01*
X16827300Y-15563700D02*
X16846348Y-15573224D01*
X16846348Y-15573224D02*
X16884443Y-15573224D01*
X16884443Y-15573224D02*
X16903491Y-15563700D01*
X16903491Y-15563700D02*
X16913015Y-15544652D01*
X16913015Y-15544652D02*
X16913015Y-15535128D01*
X16913015Y-15535128D02*
X16903491Y-15516081D01*
X16903491Y-15516081D02*
X16884443Y-15506557D01*
X16884443Y-15506557D02*
X16855872Y-15506557D01*
X16855872Y-15506557D02*
X16836824Y-15497033D01*
X16836824Y-15497033D02*
X16827300Y-15477986D01*
X16827300Y-15477986D02*
X16827300Y-15468462D01*
X16827300Y-15468462D02*
X16836824Y-15449414D01*
X16836824Y-15449414D02*
X16855872Y-15439890D01*
X16855872Y-15439890D02*
X16884443Y-15439890D01*
X16884443Y-15439890D02*
X16903491Y-15449414D01*
X16979681Y-15649414D02*
X16989205Y-15639890D01*
X16989205Y-15639890D02*
X17008253Y-15611319D01*
X17008253Y-15611319D02*
X17017777Y-15592271D01*
X17017777Y-15592271D02*
X17027300Y-15563700D01*
X17027300Y-15563700D02*
X17036824Y-15516081D01*
X17036824Y-15516081D02*
X17036824Y-15477986D01*
X17036824Y-15477986D02*
X17027300Y-15430367D01*
X17027300Y-15430367D02*
X17017777Y-15401795D01*
X17017777Y-15401795D02*
X17008253Y-15382748D01*
X17008253Y-15382748D02*
X16989205Y-15354176D01*
X16989205Y-15354176D02*
X16979681Y-15344652D01*
D14*
X12018513Y-15765913D02*
X12018513Y-15723487D01*
X11976087Y-15723487D01*
X11976087Y-15765913D01*
X12018513Y-15765913D01*
D11*
X12313014Y-15637224D02*
X12332062Y-15637224D01*
X12332062Y-15637224D02*
X12351109Y-15646748D01*
X12351109Y-15646748D02*
X12360633Y-15656271D01*
X12360633Y-15656271D02*
X12370157Y-15675319D01*
X12370157Y-15675319D02*
X12379681Y-15713414D01*
X12379681Y-15713414D02*
X12379681Y-15761033D01*
X12379681Y-15761033D02*
X12370157Y-15799128D01*
X12370157Y-15799128D02*
X12360633Y-15818176D01*
X12360633Y-15818176D02*
X12351109Y-15827700D01*
X12351109Y-15827700D02*
X12332062Y-15837224D01*
X12332062Y-15837224D02*
X12313014Y-15837224D01*
X12313014Y-15837224D02*
X12293967Y-15827700D01*
X12293967Y-15827700D02*
X12284443Y-15818176D01*
X12284443Y-15818176D02*
X12274919Y-15799128D01*
X12274919Y-15799128D02*
X12265395Y-15761033D01*
X12265395Y-15761033D02*
X12265395Y-15713414D01*
X12265395Y-15713414D02*
X12274919Y-15675319D01*
X12274919Y-15675319D02*
X12284443Y-15656271D01*
X12284443Y-15656271D02*
X12293967Y-15646748D01*
X12293967Y-15646748D02*
X12313014Y-15637224D01*
X12465395Y-15818176D02*
X12474919Y-15827700D01*
X12474919Y-15827700D02*
X12465395Y-15837224D01*
X12465395Y-15837224D02*
X12455871Y-15827700D01*
X12455871Y-15827700D02*
X12465395Y-15818176D01*
X12465395Y-15818176D02*
X12465395Y-15837224D01*
X12646348Y-15637224D02*
X12608252Y-15637224D01*
X12608252Y-15637224D02*
X12589205Y-15646748D01*
X12589205Y-15646748D02*
X12579681Y-15656271D01*
X12579681Y-15656271D02*
X12560633Y-15684843D01*
X12560633Y-15684843D02*
X12551109Y-15722938D01*
X12551109Y-15722938D02*
X12551109Y-15799128D01*
X12551109Y-15799128D02*
X12560633Y-15818176D01*
X12560633Y-15818176D02*
X12570157Y-15827700D01*
X12570157Y-15827700D02*
X12589205Y-15837224D01*
X12589205Y-15837224D02*
X12627300Y-15837224D01*
X12627300Y-15837224D02*
X12646348Y-15827700D01*
X12646348Y-15827700D02*
X12655871Y-15818176D01*
X12655871Y-15818176D02*
X12665395Y-15799128D01*
X12665395Y-15799128D02*
X12665395Y-15751509D01*
X12665395Y-15751509D02*
X12655871Y-15732462D01*
X12655871Y-15732462D02*
X12646348Y-15722938D01*
X12646348Y-15722938D02*
X12627300Y-15713414D01*
X12627300Y-15713414D02*
X12589205Y-15713414D01*
X12589205Y-15713414D02*
X12570157Y-15722938D01*
X12570157Y-15722938D02*
X12560633Y-15732462D01*
X12560633Y-15732462D02*
X12551109Y-15751509D01*
X12789205Y-15637224D02*
X12808252Y-15637224D01*
X12808252Y-15637224D02*
X12827300Y-15646748D01*
X12827300Y-15646748D02*
X12836824Y-15656271D01*
X12836824Y-15656271D02*
X12846348Y-15675319D01*
X12846348Y-15675319D02*
X12855871Y-15713414D01*
X12855871Y-15713414D02*
X12855871Y-15761033D01*
X12855871Y-15761033D02*
X12846348Y-15799128D01*
X12846348Y-15799128D02*
X12836824Y-15818176D01*
X12836824Y-15818176D02*
X12827300Y-15827700D01*
X12827300Y-15827700D02*
X12808252Y-15837224D01*
X12808252Y-15837224D02*
X12789205Y-15837224D01*
X12789205Y-15837224D02*
X12770157Y-15827700D01*
X12770157Y-15827700D02*
X12760633Y-15818176D01*
X12760633Y-15818176D02*
X12751109Y-15799128D01*
X12751109Y-15799128D02*
X12741586Y-15761033D01*
X12741586Y-15761033D02*
X12741586Y-15713414D01*
X12741586Y-15713414D02*
X12751109Y-15675319D01*
X12751109Y-15675319D02*
X12760633Y-15656271D01*
X12760633Y-15656271D02*
X12770157Y-15646748D01*
X12770157Y-15646748D02*
X12789205Y-15637224D01*
X12979681Y-15637224D02*
X12998729Y-15637224D01*
X12998729Y-15637224D02*
X13017776Y-15646748D01*
X13017776Y-15646748D02*
X13027300Y-15656271D01*
X13027300Y-15656271D02*
X13036824Y-15675319D01*
X13036824Y-15675319D02*
X13046348Y-15713414D01*
X13046348Y-15713414D02*
X13046348Y-15761033D01*
X13046348Y-15761033D02*
X13036824Y-15799128D01*
X13036824Y-15799128D02*
X13027300Y-15818176D01*
X13027300Y-15818176D02*
X13017776Y-15827700D01*
X13017776Y-15827700D02*
X12998729Y-15837224D01*
X12998729Y-15837224D02*
X12979681Y-15837224D01*
X12979681Y-15837224D02*
X12960633Y-15827700D01*
X12960633Y-15827700D02*
X12951109Y-15818176D01*
X12951109Y-15818176D02*
X12941586Y-15799128D01*
X12941586Y-15799128D02*
X12932062Y-15761033D01*
X12932062Y-15761033D02*
X12932062Y-15713414D01*
X12932062Y-15713414D02*
X12941586Y-15675319D01*
X12941586Y-15675319D02*
X12951109Y-15656271D01*
X12951109Y-15656271D02*
X12960633Y-15646748D01*
X12960633Y-15646748D02*
X12979681Y-15637224D01*
X13132062Y-15837224D02*
X13132062Y-15703890D01*
X13132062Y-15722938D02*
X13141586Y-15713414D01*
X13141586Y-15713414D02*
X13160633Y-15703890D01*
X13160633Y-15703890D02*
X13189205Y-15703890D01*
X13189205Y-15703890D02*
X13208252Y-15713414D01*
X13208252Y-15713414D02*
X13217776Y-15732462D01*
X13217776Y-15732462D02*
X13217776Y-15837224D01*
X13217776Y-15732462D02*
X13227300Y-15713414D01*
X13227300Y-15713414D02*
X13246348Y-15703890D01*
X13246348Y-15703890D02*
X13274919Y-15703890D01*
X13274919Y-15703890D02*
X13293967Y-15713414D01*
X13293967Y-15713414D02*
X13303490Y-15732462D01*
X13303490Y-15732462D02*
X13303490Y-15837224D01*
X13398729Y-15837224D02*
X13398729Y-15703890D01*
X13398729Y-15722938D02*
X13408252Y-15713414D01*
X13408252Y-15713414D02*
X13427300Y-15703890D01*
X13427300Y-15703890D02*
X13455871Y-15703890D01*
X13455871Y-15703890D02*
X13474919Y-15713414D01*
X13474919Y-15713414D02*
X13484443Y-15732462D01*
X13484443Y-15732462D02*
X13484443Y-15837224D01*
X13484443Y-15732462D02*
X13493967Y-15713414D01*
X13493967Y-15713414D02*
X13513014Y-15703890D01*
X13513014Y-15703890D02*
X13541586Y-15703890D01*
X13541586Y-15703890D02*
X13560633Y-15713414D01*
X13560633Y-15713414D02*
X13570157Y-15732462D01*
X13570157Y-15732462D02*
X13570157Y-15837224D01*
X13960633Y-15627700D02*
X13789205Y-15884843D01*
X14217776Y-15637224D02*
X14236824Y-15637224D01*
X14236824Y-15637224D02*
X14255872Y-15646748D01*
X14255872Y-15646748D02*
X14265395Y-15656271D01*
X14265395Y-15656271D02*
X14274919Y-15675319D01*
X14274919Y-15675319D02*
X14284443Y-15713414D01*
X14284443Y-15713414D02*
X14284443Y-15761033D01*
X14284443Y-15761033D02*
X14274919Y-15799128D01*
X14274919Y-15799128D02*
X14265395Y-15818176D01*
X14265395Y-15818176D02*
X14255872Y-15827700D01*
X14255872Y-15827700D02*
X14236824Y-15837224D01*
X14236824Y-15837224D02*
X14217776Y-15837224D01*
X14217776Y-15837224D02*
X14198729Y-15827700D01*
X14198729Y-15827700D02*
X14189205Y-15818176D01*
X14189205Y-15818176D02*
X14179681Y-15799128D01*
X14179681Y-15799128D02*
X14170157Y-15761033D01*
X14170157Y-15761033D02*
X14170157Y-15713414D01*
X14170157Y-15713414D02*
X14179681Y-15675319D01*
X14179681Y-15675319D02*
X14189205Y-15656271D01*
X14189205Y-15656271D02*
X14198729Y-15646748D01*
X14198729Y-15646748D02*
X14217776Y-15637224D01*
X14370157Y-15818176D02*
X14379681Y-15827700D01*
X14379681Y-15827700D02*
X14370157Y-15837224D01*
X14370157Y-15837224D02*
X14360633Y-15827700D01*
X14360633Y-15827700D02*
X14370157Y-15818176D01*
X14370157Y-15818176D02*
X14370157Y-15837224D01*
X14503491Y-15637224D02*
X14522538Y-15637224D01*
X14522538Y-15637224D02*
X14541586Y-15646748D01*
X14541586Y-15646748D02*
X14551110Y-15656271D01*
X14551110Y-15656271D02*
X14560633Y-15675319D01*
X14560633Y-15675319D02*
X14570157Y-15713414D01*
X14570157Y-15713414D02*
X14570157Y-15761033D01*
X14570157Y-15761033D02*
X14560633Y-15799128D01*
X14560633Y-15799128D02*
X14551110Y-15818176D01*
X14551110Y-15818176D02*
X14541586Y-15827700D01*
X14541586Y-15827700D02*
X14522538Y-15837224D01*
X14522538Y-15837224D02*
X14503491Y-15837224D01*
X14503491Y-15837224D02*
X14484443Y-15827700D01*
X14484443Y-15827700D02*
X14474919Y-15818176D01*
X14474919Y-15818176D02*
X14465395Y-15799128D01*
X14465395Y-15799128D02*
X14455872Y-15761033D01*
X14455872Y-15761033D02*
X14455872Y-15713414D01*
X14455872Y-15713414D02*
X14465395Y-15675319D01*
X14465395Y-15675319D02*
X14474919Y-15656271D01*
X14474919Y-15656271D02*
X14484443Y-15646748D01*
X14484443Y-15646748D02*
X14503491Y-15637224D01*
X14646348Y-15656271D02*
X14655872Y-15646748D01*
X14655872Y-15646748D02*
X14674919Y-15637224D01*
X14674919Y-15637224D02*
X14722538Y-15637224D01*
X14722538Y-15637224D02*
X14741586Y-15646748D01*
X14741586Y-15646748D02*
X14751110Y-15656271D01*
X14751110Y-15656271D02*
X14760633Y-15675319D01*
X14760633Y-15675319D02*
X14760633Y-15694367D01*
X14760633Y-15694367D02*
X14751110Y-15722938D01*
X14751110Y-15722938D02*
X14636824Y-15837224D01*
X14636824Y-15837224D02*
X14760633Y-15837224D01*
X14827300Y-15637224D02*
X14951110Y-15637224D01*
X14951110Y-15637224D02*
X14884443Y-15713414D01*
X14884443Y-15713414D02*
X14913014Y-15713414D01*
X14913014Y-15713414D02*
X14932062Y-15722938D01*
X14932062Y-15722938D02*
X14941586Y-15732462D01*
X14941586Y-15732462D02*
X14951110Y-15751509D01*
X14951110Y-15751509D02*
X14951110Y-15799128D01*
X14951110Y-15799128D02*
X14941586Y-15818176D01*
X14941586Y-15818176D02*
X14932062Y-15827700D01*
X14932062Y-15827700D02*
X14913014Y-15837224D01*
X14913014Y-15837224D02*
X14855872Y-15837224D01*
X14855872Y-15837224D02*
X14836824Y-15827700D01*
X14836824Y-15827700D02*
X14827300Y-15818176D01*
X15122538Y-15637224D02*
X15084443Y-15637224D01*
X15084443Y-15637224D02*
X15065395Y-15646748D01*
X15065395Y-15646748D02*
X15055872Y-15656271D01*
X15055872Y-15656271D02*
X15036824Y-15684843D01*
X15036824Y-15684843D02*
X15027300Y-15722938D01*
X15027300Y-15722938D02*
X15027300Y-15799128D01*
X15027300Y-15799128D02*
X15036824Y-15818176D01*
X15036824Y-15818176D02*
X15046348Y-15827700D01*
X15046348Y-15827700D02*
X15065395Y-15837224D01*
X15065395Y-15837224D02*
X15103491Y-15837224D01*
X15103491Y-15837224D02*
X15122538Y-15827700D01*
X15122538Y-15827700D02*
X15132062Y-15818176D01*
X15132062Y-15818176D02*
X15141586Y-15799128D01*
X15141586Y-15799128D02*
X15141586Y-15751509D01*
X15141586Y-15751509D02*
X15132062Y-15732462D01*
X15132062Y-15732462D02*
X15122538Y-15722938D01*
X15122538Y-15722938D02*
X15103491Y-15713414D01*
X15103491Y-15713414D02*
X15065395Y-15713414D01*
X15065395Y-15713414D02*
X15046348Y-15722938D01*
X15046348Y-15722938D02*
X15036824Y-15732462D01*
X15036824Y-15732462D02*
X15027300Y-15751509D01*
X15217776Y-15637224D02*
X15217776Y-15675319D01*
X15293967Y-15637224D02*
X15293967Y-15675319D01*
X15589205Y-15913414D02*
X15579681Y-15903890D01*
X15579681Y-15903890D02*
X15560634Y-15875319D01*
X15560634Y-15875319D02*
X15551110Y-15856271D01*
X15551110Y-15856271D02*
X15541586Y-15827700D01*
X15541586Y-15827700D02*
X15532062Y-15780081D01*
X15532062Y-15780081D02*
X15532062Y-15741986D01*
X15532062Y-15741986D02*
X15541586Y-15694367D01*
X15541586Y-15694367D02*
X15551110Y-15665795D01*
X15551110Y-15665795D02*
X15560634Y-15646748D01*
X15560634Y-15646748D02*
X15579681Y-15618176D01*
X15579681Y-15618176D02*
X15589205Y-15608652D01*
X15693967Y-15722938D02*
X15674919Y-15713414D01*
X15674919Y-15713414D02*
X15665395Y-15703890D01*
X15665395Y-15703890D02*
X15655872Y-15684843D01*
X15655872Y-15684843D02*
X15655872Y-15675319D01*
X15655872Y-15675319D02*
X15665395Y-15656271D01*
X15665395Y-15656271D02*
X15674919Y-15646748D01*
X15674919Y-15646748D02*
X15693967Y-15637224D01*
X15693967Y-15637224D02*
X15732062Y-15637224D01*
X15732062Y-15637224D02*
X15751110Y-15646748D01*
X15751110Y-15646748D02*
X15760634Y-15656271D01*
X15760634Y-15656271D02*
X15770157Y-15675319D01*
X15770157Y-15675319D02*
X15770157Y-15684843D01*
X15770157Y-15684843D02*
X15760634Y-15703890D01*
X15760634Y-15703890D02*
X15751110Y-15713414D01*
X15751110Y-15713414D02*
X15732062Y-15722938D01*
X15732062Y-15722938D02*
X15693967Y-15722938D01*
X15693967Y-15722938D02*
X15674919Y-15732462D01*
X15674919Y-15732462D02*
X15665395Y-15741986D01*
X15665395Y-15741986D02*
X15655872Y-15761033D01*
X15655872Y-15761033D02*
X15655872Y-15799128D01*
X15655872Y-15799128D02*
X15665395Y-15818176D01*
X15665395Y-15818176D02*
X15674919Y-15827700D01*
X15674919Y-15827700D02*
X15693967Y-15837224D01*
X15693967Y-15837224D02*
X15732062Y-15837224D01*
X15732062Y-15837224D02*
X15751110Y-15827700D01*
X15751110Y-15827700D02*
X15760634Y-15818176D01*
X15760634Y-15818176D02*
X15770157Y-15799128D01*
X15770157Y-15799128D02*
X15770157Y-15761033D01*
X15770157Y-15761033D02*
X15760634Y-15741986D01*
X15760634Y-15741986D02*
X15751110Y-15732462D01*
X15751110Y-15732462D02*
X15732062Y-15722938D01*
X16008253Y-15837224D02*
X16008253Y-15637224D01*
X16093967Y-15837224D02*
X16093967Y-15732462D01*
X16093967Y-15732462D02*
X16084443Y-15713414D01*
X16084443Y-15713414D02*
X16065396Y-15703890D01*
X16065396Y-15703890D02*
X16036824Y-15703890D01*
X16036824Y-15703890D02*
X16017776Y-15713414D01*
X16017776Y-15713414D02*
X16008253Y-15722938D01*
X16217776Y-15837224D02*
X16198729Y-15827700D01*
X16198729Y-15827700D02*
X16189205Y-15818176D01*
X16189205Y-15818176D02*
X16179681Y-15799128D01*
X16179681Y-15799128D02*
X16179681Y-15741986D01*
X16179681Y-15741986D02*
X16189205Y-15722938D01*
X16189205Y-15722938D02*
X16198729Y-15713414D01*
X16198729Y-15713414D02*
X16217776Y-15703890D01*
X16217776Y-15703890D02*
X16246348Y-15703890D01*
X16246348Y-15703890D02*
X16265396Y-15713414D01*
X16265396Y-15713414D02*
X16274919Y-15722938D01*
X16274919Y-15722938D02*
X16284443Y-15741986D01*
X16284443Y-15741986D02*
X16284443Y-15799128D01*
X16284443Y-15799128D02*
X16274919Y-15818176D01*
X16274919Y-15818176D02*
X16265396Y-15827700D01*
X16265396Y-15827700D02*
X16246348Y-15837224D01*
X16246348Y-15837224D02*
X16217776Y-15837224D01*
X16398729Y-15837224D02*
X16379681Y-15827700D01*
X16379681Y-15827700D02*
X16370157Y-15808652D01*
X16370157Y-15808652D02*
X16370157Y-15637224D01*
X16551110Y-15827700D02*
X16532062Y-15837224D01*
X16532062Y-15837224D02*
X16493967Y-15837224D01*
X16493967Y-15837224D02*
X16474919Y-15827700D01*
X16474919Y-15827700D02*
X16465396Y-15808652D01*
X16465396Y-15808652D02*
X16465396Y-15732462D01*
X16465396Y-15732462D02*
X16474919Y-15713414D01*
X16474919Y-15713414D02*
X16493967Y-15703890D01*
X16493967Y-15703890D02*
X16532062Y-15703890D01*
X16532062Y-15703890D02*
X16551110Y-15713414D01*
X16551110Y-15713414D02*
X16560634Y-15732462D01*
X16560634Y-15732462D02*
X16560634Y-15751509D01*
X16560634Y-15751509D02*
X16465396Y-15770557D01*
X16636824Y-15827700D02*
X16655872Y-15837224D01*
X16655872Y-15837224D02*
X16693967Y-15837224D01*
X16693967Y-15837224D02*
X16713015Y-15827700D01*
X16713015Y-15827700D02*
X16722538Y-15808652D01*
X16722538Y-15808652D02*
X16722538Y-15799128D01*
X16722538Y-15799128D02*
X16713015Y-15780081D01*
X16713015Y-15780081D02*
X16693967Y-15770557D01*
X16693967Y-15770557D02*
X16665396Y-15770557D01*
X16665396Y-15770557D02*
X16646348Y-15761033D01*
X16646348Y-15761033D02*
X16636824Y-15741986D01*
X16636824Y-15741986D02*
X16636824Y-15732462D01*
X16636824Y-15732462D02*
X16646348Y-15713414D01*
X16646348Y-15713414D02*
X16665396Y-15703890D01*
X16665396Y-15703890D02*
X16693967Y-15703890D01*
X16693967Y-15703890D02*
X16713015Y-15713414D01*
X16960634Y-15761033D02*
X17113015Y-15761033D01*
X17036824Y-15837224D02*
X17036824Y-15684843D01*
X17446348Y-15703890D02*
X17446348Y-15837224D01*
X17398729Y-15627700D02*
X17351110Y-15770557D01*
X17351110Y-15770557D02*
X17474920Y-15770557D01*
X17693967Y-15827700D02*
X17713015Y-15837224D01*
X17713015Y-15837224D02*
X17751110Y-15837224D01*
X17751110Y-15837224D02*
X17770158Y-15827700D01*
X17770158Y-15827700D02*
X17779682Y-15808652D01*
X17779682Y-15808652D02*
X17779682Y-15799128D01*
X17779682Y-15799128D02*
X17770158Y-15780081D01*
X17770158Y-15780081D02*
X17751110Y-15770557D01*
X17751110Y-15770557D02*
X17722539Y-15770557D01*
X17722539Y-15770557D02*
X17703491Y-15761033D01*
X17703491Y-15761033D02*
X17693967Y-15741986D01*
X17693967Y-15741986D02*
X17693967Y-15732462D01*
X17693967Y-15732462D02*
X17703491Y-15713414D01*
X17703491Y-15713414D02*
X17722539Y-15703890D01*
X17722539Y-15703890D02*
X17751110Y-15703890D01*
X17751110Y-15703890D02*
X17770158Y-15713414D01*
X17893967Y-15837224D02*
X17874920Y-15827700D01*
X17874920Y-15827700D02*
X17865396Y-15808652D01*
X17865396Y-15808652D02*
X17865396Y-15637224D01*
X17998729Y-15837224D02*
X17979682Y-15827700D01*
X17979682Y-15827700D02*
X17970158Y-15818176D01*
X17970158Y-15818176D02*
X17960634Y-15799128D01*
X17960634Y-15799128D02*
X17960634Y-15741986D01*
X17960634Y-15741986D02*
X17970158Y-15722938D01*
X17970158Y-15722938D02*
X17979682Y-15713414D01*
X17979682Y-15713414D02*
X17998729Y-15703890D01*
X17998729Y-15703890D02*
X18027301Y-15703890D01*
X18027301Y-15703890D02*
X18046348Y-15713414D01*
X18046348Y-15713414D02*
X18055872Y-15722938D01*
X18055872Y-15722938D02*
X18065396Y-15741986D01*
X18065396Y-15741986D02*
X18065396Y-15799128D01*
X18065396Y-15799128D02*
X18055872Y-15818176D01*
X18055872Y-15818176D02*
X18046348Y-15827700D01*
X18046348Y-15827700D02*
X18027301Y-15837224D01*
X18027301Y-15837224D02*
X17998729Y-15837224D01*
X18122539Y-15703890D02*
X18198729Y-15703890D01*
X18151110Y-15637224D02*
X18151110Y-15808652D01*
X18151110Y-15808652D02*
X18160634Y-15827700D01*
X18160634Y-15827700D02*
X18179682Y-15837224D01*
X18179682Y-15837224D02*
X18198729Y-15837224D01*
X18255872Y-15827700D02*
X18274920Y-15837224D01*
X18274920Y-15837224D02*
X18313015Y-15837224D01*
X18313015Y-15837224D02*
X18332063Y-15827700D01*
X18332063Y-15827700D02*
X18341586Y-15808652D01*
X18341586Y-15808652D02*
X18341586Y-15799128D01*
X18341586Y-15799128D02*
X18332063Y-15780081D01*
X18332063Y-15780081D02*
X18313015Y-15770557D01*
X18313015Y-15770557D02*
X18284443Y-15770557D01*
X18284443Y-15770557D02*
X18265396Y-15761033D01*
X18265396Y-15761033D02*
X18255872Y-15741986D01*
X18255872Y-15741986D02*
X18255872Y-15732462D01*
X18255872Y-15732462D02*
X18265396Y-15713414D01*
X18265396Y-15713414D02*
X18284443Y-15703890D01*
X18284443Y-15703890D02*
X18313015Y-15703890D01*
X18313015Y-15703890D02*
X18332063Y-15713414D01*
X18408253Y-15913414D02*
X18417777Y-15903890D01*
X18417777Y-15903890D02*
X18436824Y-15875319D01*
X18436824Y-15875319D02*
X18446348Y-15856271D01*
X18446348Y-15856271D02*
X18455872Y-15827700D01*
X18455872Y-15827700D02*
X18465396Y-15780081D01*
X18465396Y-15780081D02*
X18465396Y-15741986D01*
X18465396Y-15741986D02*
X18455872Y-15694367D01*
X18455872Y-15694367D02*
X18446348Y-15665795D01*
X18446348Y-15665795D02*
X18436824Y-15646748D01*
X18436824Y-15646748D02*
X18417777Y-15618176D01*
X18417777Y-15618176D02*
X18408253Y-15608652D01*
D15*
X11989800Y-16046200D02*
X12027300Y-16008700D01*
X11989800Y-15971200D01*
X11952300Y-16008700D01*
X11989800Y-16046200D01*
D11*
X12313014Y-15901224D02*
X12332062Y-15901224D01*
X12332062Y-15901224D02*
X12351109Y-15910748D01*
X12351109Y-15910748D02*
X12360633Y-15920271D01*
X12360633Y-15920271D02*
X12370157Y-15939319D01*
X12370157Y-15939319D02*
X12379681Y-15977414D01*
X12379681Y-15977414D02*
X12379681Y-16025033D01*
X12379681Y-16025033D02*
X12370157Y-16063128D01*
X12370157Y-16063128D02*
X12360633Y-16082176D01*
X12360633Y-16082176D02*
X12351109Y-16091700D01*
X12351109Y-16091700D02*
X12332062Y-16101224D01*
X12332062Y-16101224D02*
X12313014Y-16101224D01*
X12313014Y-16101224D02*
X12293967Y-16091700D01*
X12293967Y-16091700D02*
X12284443Y-16082176D01*
X12284443Y-16082176D02*
X12274919Y-16063128D01*
X12274919Y-16063128D02*
X12265395Y-16025033D01*
X12265395Y-16025033D02*
X12265395Y-15977414D01*
X12265395Y-15977414D02*
X12274919Y-15939319D01*
X12274919Y-15939319D02*
X12284443Y-15920271D01*
X12284443Y-15920271D02*
X12293967Y-15910748D01*
X12293967Y-15910748D02*
X12313014Y-15901224D01*
X12465395Y-16082176D02*
X12474919Y-16091700D01*
X12474919Y-16091700D02*
X12465395Y-16101224D01*
X12465395Y-16101224D02*
X12455871Y-16091700D01*
X12455871Y-16091700D02*
X12465395Y-16082176D01*
X12465395Y-16082176D02*
X12465395Y-16101224D01*
X12541586Y-15901224D02*
X12674919Y-15901224D01*
X12674919Y-15901224D02*
X12589205Y-16101224D01*
X12846348Y-15901224D02*
X12751109Y-15901224D01*
X12751109Y-15901224D02*
X12741586Y-15996462D01*
X12741586Y-15996462D02*
X12751109Y-15986938D01*
X12751109Y-15986938D02*
X12770157Y-15977414D01*
X12770157Y-15977414D02*
X12817776Y-15977414D01*
X12817776Y-15977414D02*
X12836824Y-15986938D01*
X12836824Y-15986938D02*
X12846348Y-15996462D01*
X12846348Y-15996462D02*
X12855871Y-16015509D01*
X12855871Y-16015509D02*
X12855871Y-16063128D01*
X12855871Y-16063128D02*
X12846348Y-16082176D01*
X12846348Y-16082176D02*
X12836824Y-16091700D01*
X12836824Y-16091700D02*
X12817776Y-16101224D01*
X12817776Y-16101224D02*
X12770157Y-16101224D01*
X12770157Y-16101224D02*
X12751109Y-16091700D01*
X12751109Y-16091700D02*
X12741586Y-16082176D01*
X12979681Y-15901224D02*
X12998729Y-15901224D01*
X12998729Y-15901224D02*
X13017776Y-15910748D01*
X13017776Y-15910748D02*
X13027300Y-15920271D01*
X13027300Y-15920271D02*
X13036824Y-15939319D01*
X13036824Y-15939319D02*
X13046348Y-15977414D01*
X13046348Y-15977414D02*
X13046348Y-16025033D01*
X13046348Y-16025033D02*
X13036824Y-16063128D01*
X13036824Y-16063128D02*
X13027300Y-16082176D01*
X13027300Y-16082176D02*
X13017776Y-16091700D01*
X13017776Y-16091700D02*
X12998729Y-16101224D01*
X12998729Y-16101224D02*
X12979681Y-16101224D01*
X12979681Y-16101224D02*
X12960633Y-16091700D01*
X12960633Y-16091700D02*
X12951109Y-16082176D01*
X12951109Y-16082176D02*
X12941586Y-16063128D01*
X12941586Y-16063128D02*
X12932062Y-16025033D01*
X12932062Y-16025033D02*
X12932062Y-15977414D01*
X12932062Y-15977414D02*
X12941586Y-15939319D01*
X12941586Y-15939319D02*
X12951109Y-15920271D01*
X12951109Y-15920271D02*
X12960633Y-15910748D01*
X12960633Y-15910748D02*
X12979681Y-15901224D01*
X13132062Y-16101224D02*
X13132062Y-15967890D01*
X13132062Y-15986938D02*
X13141586Y-15977414D01*
X13141586Y-15977414D02*
X13160633Y-15967890D01*
X13160633Y-15967890D02*
X13189205Y-15967890D01*
X13189205Y-15967890D02*
X13208252Y-15977414D01*
X13208252Y-15977414D02*
X13217776Y-15996462D01*
X13217776Y-15996462D02*
X13217776Y-16101224D01*
X13217776Y-15996462D02*
X13227300Y-15977414D01*
X13227300Y-15977414D02*
X13246348Y-15967890D01*
X13246348Y-15967890D02*
X13274919Y-15967890D01*
X13274919Y-15967890D02*
X13293967Y-15977414D01*
X13293967Y-15977414D02*
X13303490Y-15996462D01*
X13303490Y-15996462D02*
X13303490Y-16101224D01*
X13398729Y-16101224D02*
X13398729Y-15967890D01*
X13398729Y-15986938D02*
X13408252Y-15977414D01*
X13408252Y-15977414D02*
X13427300Y-15967890D01*
X13427300Y-15967890D02*
X13455871Y-15967890D01*
X13455871Y-15967890D02*
X13474919Y-15977414D01*
X13474919Y-15977414D02*
X13484443Y-15996462D01*
X13484443Y-15996462D02*
X13484443Y-16101224D01*
X13484443Y-15996462D02*
X13493967Y-15977414D01*
X13493967Y-15977414D02*
X13513014Y-15967890D01*
X13513014Y-15967890D02*
X13541586Y-15967890D01*
X13541586Y-15967890D02*
X13560633Y-15977414D01*
X13560633Y-15977414D02*
X13570157Y-15996462D01*
X13570157Y-15996462D02*
X13570157Y-16101224D01*
X13960633Y-15891700D02*
X13789205Y-16148843D01*
X14217776Y-15901224D02*
X14236824Y-15901224D01*
X14236824Y-15901224D02*
X14255872Y-15910748D01*
X14255872Y-15910748D02*
X14265395Y-15920271D01*
X14265395Y-15920271D02*
X14274919Y-15939319D01*
X14274919Y-15939319D02*
X14284443Y-15977414D01*
X14284443Y-15977414D02*
X14284443Y-16025033D01*
X14284443Y-16025033D02*
X14274919Y-16063128D01*
X14274919Y-16063128D02*
X14265395Y-16082176D01*
X14265395Y-16082176D02*
X14255872Y-16091700D01*
X14255872Y-16091700D02*
X14236824Y-16101224D01*
X14236824Y-16101224D02*
X14217776Y-16101224D01*
X14217776Y-16101224D02*
X14198729Y-16091700D01*
X14198729Y-16091700D02*
X14189205Y-16082176D01*
X14189205Y-16082176D02*
X14179681Y-16063128D01*
X14179681Y-16063128D02*
X14170157Y-16025033D01*
X14170157Y-16025033D02*
X14170157Y-15977414D01*
X14170157Y-15977414D02*
X14179681Y-15939319D01*
X14179681Y-15939319D02*
X14189205Y-15920271D01*
X14189205Y-15920271D02*
X14198729Y-15910748D01*
X14198729Y-15910748D02*
X14217776Y-15901224D01*
X14370157Y-16082176D02*
X14379681Y-16091700D01*
X14379681Y-16091700D02*
X14370157Y-16101224D01*
X14370157Y-16101224D02*
X14360633Y-16091700D01*
X14360633Y-16091700D02*
X14370157Y-16082176D01*
X14370157Y-16082176D02*
X14370157Y-16101224D01*
X14503491Y-15901224D02*
X14522538Y-15901224D01*
X14522538Y-15901224D02*
X14541586Y-15910748D01*
X14541586Y-15910748D02*
X14551110Y-15920271D01*
X14551110Y-15920271D02*
X14560633Y-15939319D01*
X14560633Y-15939319D02*
X14570157Y-15977414D01*
X14570157Y-15977414D02*
X14570157Y-16025033D01*
X14570157Y-16025033D02*
X14560633Y-16063128D01*
X14560633Y-16063128D02*
X14551110Y-16082176D01*
X14551110Y-16082176D02*
X14541586Y-16091700D01*
X14541586Y-16091700D02*
X14522538Y-16101224D01*
X14522538Y-16101224D02*
X14503491Y-16101224D01*
X14503491Y-16101224D02*
X14484443Y-16091700D01*
X14484443Y-16091700D02*
X14474919Y-16082176D01*
X14474919Y-16082176D02*
X14465395Y-16063128D01*
X14465395Y-16063128D02*
X14455872Y-16025033D01*
X14455872Y-16025033D02*
X14455872Y-15977414D01*
X14455872Y-15977414D02*
X14465395Y-15939319D01*
X14465395Y-15939319D02*
X14474919Y-15920271D01*
X14474919Y-15920271D02*
X14484443Y-15910748D01*
X14484443Y-15910748D02*
X14503491Y-15901224D01*
X14646348Y-15920271D02*
X14655872Y-15910748D01*
X14655872Y-15910748D02*
X14674919Y-15901224D01*
X14674919Y-15901224D02*
X14722538Y-15901224D01*
X14722538Y-15901224D02*
X14741586Y-15910748D01*
X14741586Y-15910748D02*
X14751110Y-15920271D01*
X14751110Y-15920271D02*
X14760633Y-15939319D01*
X14760633Y-15939319D02*
X14760633Y-15958367D01*
X14760633Y-15958367D02*
X14751110Y-15986938D01*
X14751110Y-15986938D02*
X14636824Y-16101224D01*
X14636824Y-16101224D02*
X14760633Y-16101224D01*
X14855872Y-16101224D02*
X14893967Y-16101224D01*
X14893967Y-16101224D02*
X14913014Y-16091700D01*
X14913014Y-16091700D02*
X14922538Y-16082176D01*
X14922538Y-16082176D02*
X14941586Y-16053605D01*
X14941586Y-16053605D02*
X14951110Y-16015509D01*
X14951110Y-16015509D02*
X14951110Y-15939319D01*
X14951110Y-15939319D02*
X14941586Y-15920271D01*
X14941586Y-15920271D02*
X14932062Y-15910748D01*
X14932062Y-15910748D02*
X14913014Y-15901224D01*
X14913014Y-15901224D02*
X14874919Y-15901224D01*
X14874919Y-15901224D02*
X14855872Y-15910748D01*
X14855872Y-15910748D02*
X14846348Y-15920271D01*
X14846348Y-15920271D02*
X14836824Y-15939319D01*
X14836824Y-15939319D02*
X14836824Y-15986938D01*
X14836824Y-15986938D02*
X14846348Y-16005986D01*
X14846348Y-16005986D02*
X14855872Y-16015509D01*
X14855872Y-16015509D02*
X14874919Y-16025033D01*
X14874919Y-16025033D02*
X14913014Y-16025033D01*
X14913014Y-16025033D02*
X14932062Y-16015509D01*
X14932062Y-16015509D02*
X14941586Y-16005986D01*
X14941586Y-16005986D02*
X14951110Y-15986938D01*
X15132062Y-15901224D02*
X15036824Y-15901224D01*
X15036824Y-15901224D02*
X15027300Y-15996462D01*
X15027300Y-15996462D02*
X15036824Y-15986938D01*
X15036824Y-15986938D02*
X15055872Y-15977414D01*
X15055872Y-15977414D02*
X15103491Y-15977414D01*
X15103491Y-15977414D02*
X15122538Y-15986938D01*
X15122538Y-15986938D02*
X15132062Y-15996462D01*
X15132062Y-15996462D02*
X15141586Y-16015509D01*
X15141586Y-16015509D02*
X15141586Y-16063128D01*
X15141586Y-16063128D02*
X15132062Y-16082176D01*
X15132062Y-16082176D02*
X15122538Y-16091700D01*
X15122538Y-16091700D02*
X15103491Y-16101224D01*
X15103491Y-16101224D02*
X15055872Y-16101224D01*
X15055872Y-16101224D02*
X15036824Y-16091700D01*
X15036824Y-16091700D02*
X15027300Y-16082176D01*
X15217776Y-15901224D02*
X15217776Y-15939319D01*
X15293967Y-15901224D02*
X15293967Y-15939319D01*
X15589205Y-16177414D02*
X15579681Y-16167890D01*
X15579681Y-16167890D02*
X15560634Y-16139319D01*
X15560634Y-16139319D02*
X15551110Y-16120271D01*
X15551110Y-16120271D02*
X15541586Y-16091700D01*
X15541586Y-16091700D02*
X15532062Y-16044081D01*
X15532062Y-16044081D02*
X15532062Y-16005986D01*
X15532062Y-16005986D02*
X15541586Y-15958367D01*
X15541586Y-15958367D02*
X15551110Y-15929795D01*
X15551110Y-15929795D02*
X15560634Y-15910748D01*
X15560634Y-15910748D02*
X15579681Y-15882176D01*
X15579681Y-15882176D02*
X15589205Y-15872652D01*
X15655872Y-15920271D02*
X15665395Y-15910748D01*
X15665395Y-15910748D02*
X15684443Y-15901224D01*
X15684443Y-15901224D02*
X15732062Y-15901224D01*
X15732062Y-15901224D02*
X15751110Y-15910748D01*
X15751110Y-15910748D02*
X15760634Y-15920271D01*
X15760634Y-15920271D02*
X15770157Y-15939319D01*
X15770157Y-15939319D02*
X15770157Y-15958367D01*
X15770157Y-15958367D02*
X15760634Y-15986938D01*
X15760634Y-15986938D02*
X15646348Y-16101224D01*
X15646348Y-16101224D02*
X15770157Y-16101224D01*
X16008253Y-16101224D02*
X16008253Y-15901224D01*
X16093967Y-16101224D02*
X16093967Y-15996462D01*
X16093967Y-15996462D02*
X16084443Y-15977414D01*
X16084443Y-15977414D02*
X16065396Y-15967890D01*
X16065396Y-15967890D02*
X16036824Y-15967890D01*
X16036824Y-15967890D02*
X16017776Y-15977414D01*
X16017776Y-15977414D02*
X16008253Y-15986938D01*
X16217776Y-16101224D02*
X16198729Y-16091700D01*
X16198729Y-16091700D02*
X16189205Y-16082176D01*
X16189205Y-16082176D02*
X16179681Y-16063128D01*
X16179681Y-16063128D02*
X16179681Y-16005986D01*
X16179681Y-16005986D02*
X16189205Y-15986938D01*
X16189205Y-15986938D02*
X16198729Y-15977414D01*
X16198729Y-15977414D02*
X16217776Y-15967890D01*
X16217776Y-15967890D02*
X16246348Y-15967890D01*
X16246348Y-15967890D02*
X16265396Y-15977414D01*
X16265396Y-15977414D02*
X16274919Y-15986938D01*
X16274919Y-15986938D02*
X16284443Y-16005986D01*
X16284443Y-16005986D02*
X16284443Y-16063128D01*
X16284443Y-16063128D02*
X16274919Y-16082176D01*
X16274919Y-16082176D02*
X16265396Y-16091700D01*
X16265396Y-16091700D02*
X16246348Y-16101224D01*
X16246348Y-16101224D02*
X16217776Y-16101224D01*
X16398729Y-16101224D02*
X16379681Y-16091700D01*
X16379681Y-16091700D02*
X16370157Y-16072652D01*
X16370157Y-16072652D02*
X16370157Y-15901224D01*
X16551110Y-16091700D02*
X16532062Y-16101224D01*
X16532062Y-16101224D02*
X16493967Y-16101224D01*
X16493967Y-16101224D02*
X16474919Y-16091700D01*
X16474919Y-16091700D02*
X16465396Y-16072652D01*
X16465396Y-16072652D02*
X16465396Y-15996462D01*
X16465396Y-15996462D02*
X16474919Y-15977414D01*
X16474919Y-15977414D02*
X16493967Y-15967890D01*
X16493967Y-15967890D02*
X16532062Y-15967890D01*
X16532062Y-15967890D02*
X16551110Y-15977414D01*
X16551110Y-15977414D02*
X16560634Y-15996462D01*
X16560634Y-15996462D02*
X16560634Y-16015509D01*
X16560634Y-16015509D02*
X16465396Y-16034557D01*
X16636824Y-16091700D02*
X16655872Y-16101224D01*
X16655872Y-16101224D02*
X16693967Y-16101224D01*
X16693967Y-16101224D02*
X16713015Y-16091700D01*
X16713015Y-16091700D02*
X16722538Y-16072652D01*
X16722538Y-16072652D02*
X16722538Y-16063128D01*
X16722538Y-16063128D02*
X16713015Y-16044081D01*
X16713015Y-16044081D02*
X16693967Y-16034557D01*
X16693967Y-16034557D02*
X16665396Y-16034557D01*
X16665396Y-16034557D02*
X16646348Y-16025033D01*
X16646348Y-16025033D02*
X16636824Y-16005986D01*
X16636824Y-16005986D02*
X16636824Y-15996462D01*
X16636824Y-15996462D02*
X16646348Y-15977414D01*
X16646348Y-15977414D02*
X16665396Y-15967890D01*
X16665396Y-15967890D02*
X16693967Y-15967890D01*
X16693967Y-15967890D02*
X16713015Y-15977414D01*
X16789205Y-16177414D02*
X16798729Y-16167890D01*
X16798729Y-16167890D02*
X16817777Y-16139319D01*
X16817777Y-16139319D02*
X16827300Y-16120271D01*
X16827300Y-16120271D02*
X16836824Y-16091700D01*
X16836824Y-16091700D02*
X16846348Y-16044081D01*
X16846348Y-16044081D02*
X16846348Y-16005986D01*
X16846348Y-16005986D02*
X16836824Y-15958367D01*
X16836824Y-15958367D02*
X16827300Y-15929795D01*
X16827300Y-15929795D02*
X16817777Y-15910748D01*
X16817777Y-15910748D02*
X16798729Y-15882176D01*
X16798729Y-15882176D02*
X16789205Y-15872652D01*
D16*
X11937300Y-16227700D02*
X12027300Y-16317700D01*
X12027300Y-16227700D02*
X11937300Y-16317700D01*
X12027300Y-16272700D02*
G75*
G03*
X12027300Y-16272700I-45000J0D01*
G01*
D11*
X12313014Y-16165224D02*
X12332062Y-16165224D01*
X12332062Y-16165224D02*
X12351109Y-16174748D01*
X12351109Y-16174748D02*
X12360633Y-16184271D01*
X12360633Y-16184271D02*
X12370157Y-16203319D01*
X12370157Y-16203319D02*
X12379681Y-16241414D01*
X12379681Y-16241414D02*
X12379681Y-16289033D01*
X12379681Y-16289033D02*
X12370157Y-16327128D01*
X12370157Y-16327128D02*
X12360633Y-16346176D01*
X12360633Y-16346176D02*
X12351109Y-16355700D01*
X12351109Y-16355700D02*
X12332062Y-16365224D01*
X12332062Y-16365224D02*
X12313014Y-16365224D01*
X12313014Y-16365224D02*
X12293967Y-16355700D01*
X12293967Y-16355700D02*
X12284443Y-16346176D01*
X12284443Y-16346176D02*
X12274919Y-16327128D01*
X12274919Y-16327128D02*
X12265395Y-16289033D01*
X12265395Y-16289033D02*
X12265395Y-16241414D01*
X12265395Y-16241414D02*
X12274919Y-16203319D01*
X12274919Y-16203319D02*
X12284443Y-16184271D01*
X12284443Y-16184271D02*
X12293967Y-16174748D01*
X12293967Y-16174748D02*
X12313014Y-16165224D01*
X12465395Y-16346176D02*
X12474919Y-16355700D01*
X12474919Y-16355700D02*
X12465395Y-16365224D01*
X12465395Y-16365224D02*
X12455871Y-16355700D01*
X12455871Y-16355700D02*
X12465395Y-16346176D01*
X12465395Y-16346176D02*
X12465395Y-16365224D01*
X12570157Y-16365224D02*
X12608252Y-16365224D01*
X12608252Y-16365224D02*
X12627300Y-16355700D01*
X12627300Y-16355700D02*
X12636824Y-16346176D01*
X12636824Y-16346176D02*
X12655871Y-16317605D01*
X12655871Y-16317605D02*
X12665395Y-16279509D01*
X12665395Y-16279509D02*
X12665395Y-16203319D01*
X12665395Y-16203319D02*
X12655871Y-16184271D01*
X12655871Y-16184271D02*
X12646348Y-16174748D01*
X12646348Y-16174748D02*
X12627300Y-16165224D01*
X12627300Y-16165224D02*
X12589205Y-16165224D01*
X12589205Y-16165224D02*
X12570157Y-16174748D01*
X12570157Y-16174748D02*
X12560633Y-16184271D01*
X12560633Y-16184271D02*
X12551109Y-16203319D01*
X12551109Y-16203319D02*
X12551109Y-16250938D01*
X12551109Y-16250938D02*
X12560633Y-16269986D01*
X12560633Y-16269986D02*
X12570157Y-16279509D01*
X12570157Y-16279509D02*
X12589205Y-16289033D01*
X12589205Y-16289033D02*
X12627300Y-16289033D01*
X12627300Y-16289033D02*
X12646348Y-16279509D01*
X12646348Y-16279509D02*
X12655871Y-16269986D01*
X12655871Y-16269986D02*
X12665395Y-16250938D01*
X12789205Y-16165224D02*
X12808252Y-16165224D01*
X12808252Y-16165224D02*
X12827300Y-16174748D01*
X12827300Y-16174748D02*
X12836824Y-16184271D01*
X12836824Y-16184271D02*
X12846348Y-16203319D01*
X12846348Y-16203319D02*
X12855871Y-16241414D01*
X12855871Y-16241414D02*
X12855871Y-16289033D01*
X12855871Y-16289033D02*
X12846348Y-16327128D01*
X12846348Y-16327128D02*
X12836824Y-16346176D01*
X12836824Y-16346176D02*
X12827300Y-16355700D01*
X12827300Y-16355700D02*
X12808252Y-16365224D01*
X12808252Y-16365224D02*
X12789205Y-16365224D01*
X12789205Y-16365224D02*
X12770157Y-16355700D01*
X12770157Y-16355700D02*
X12760633Y-16346176D01*
X12760633Y-16346176D02*
X12751109Y-16327128D01*
X12751109Y-16327128D02*
X12741586Y-16289033D01*
X12741586Y-16289033D02*
X12741586Y-16241414D01*
X12741586Y-16241414D02*
X12751109Y-16203319D01*
X12751109Y-16203319D02*
X12760633Y-16184271D01*
X12760633Y-16184271D02*
X12770157Y-16174748D01*
X12770157Y-16174748D02*
X12789205Y-16165224D01*
X12979681Y-16165224D02*
X12998729Y-16165224D01*
X12998729Y-16165224D02*
X13017776Y-16174748D01*
X13017776Y-16174748D02*
X13027300Y-16184271D01*
X13027300Y-16184271D02*
X13036824Y-16203319D01*
X13036824Y-16203319D02*
X13046348Y-16241414D01*
X13046348Y-16241414D02*
X13046348Y-16289033D01*
X13046348Y-16289033D02*
X13036824Y-16327128D01*
X13036824Y-16327128D02*
X13027300Y-16346176D01*
X13027300Y-16346176D02*
X13017776Y-16355700D01*
X13017776Y-16355700D02*
X12998729Y-16365224D01*
X12998729Y-16365224D02*
X12979681Y-16365224D01*
X12979681Y-16365224D02*
X12960633Y-16355700D01*
X12960633Y-16355700D02*
X12951109Y-16346176D01*
X12951109Y-16346176D02*
X12941586Y-16327128D01*
X12941586Y-16327128D02*
X12932062Y-16289033D01*
X12932062Y-16289033D02*
X12932062Y-16241414D01*
X12932062Y-16241414D02*
X12941586Y-16203319D01*
X12941586Y-16203319D02*
X12951109Y-16184271D01*
X12951109Y-16184271D02*
X12960633Y-16174748D01*
X12960633Y-16174748D02*
X12979681Y-16165224D01*
X13132062Y-16365224D02*
X13132062Y-16231890D01*
X13132062Y-16250938D02*
X13141586Y-16241414D01*
X13141586Y-16241414D02*
X13160633Y-16231890D01*
X13160633Y-16231890D02*
X13189205Y-16231890D01*
X13189205Y-16231890D02*
X13208252Y-16241414D01*
X13208252Y-16241414D02*
X13217776Y-16260462D01*
X13217776Y-16260462D02*
X13217776Y-16365224D01*
X13217776Y-16260462D02*
X13227300Y-16241414D01*
X13227300Y-16241414D02*
X13246348Y-16231890D01*
X13246348Y-16231890D02*
X13274919Y-16231890D01*
X13274919Y-16231890D02*
X13293967Y-16241414D01*
X13293967Y-16241414D02*
X13303490Y-16260462D01*
X13303490Y-16260462D02*
X13303490Y-16365224D01*
X13398729Y-16365224D02*
X13398729Y-16231890D01*
X13398729Y-16250938D02*
X13408252Y-16241414D01*
X13408252Y-16241414D02*
X13427300Y-16231890D01*
X13427300Y-16231890D02*
X13455871Y-16231890D01*
X13455871Y-16231890D02*
X13474919Y-16241414D01*
X13474919Y-16241414D02*
X13484443Y-16260462D01*
X13484443Y-16260462D02*
X13484443Y-16365224D01*
X13484443Y-16260462D02*
X13493967Y-16241414D01*
X13493967Y-16241414D02*
X13513014Y-16231890D01*
X13513014Y-16231890D02*
X13541586Y-16231890D01*
X13541586Y-16231890D02*
X13560633Y-16241414D01*
X13560633Y-16241414D02*
X13570157Y-16260462D01*
X13570157Y-16260462D02*
X13570157Y-16365224D01*
X13960633Y-16155700D02*
X13789205Y-16412843D01*
X14217776Y-16165224D02*
X14236824Y-16165224D01*
X14236824Y-16165224D02*
X14255872Y-16174748D01*
X14255872Y-16174748D02*
X14265395Y-16184271D01*
X14265395Y-16184271D02*
X14274919Y-16203319D01*
X14274919Y-16203319D02*
X14284443Y-16241414D01*
X14284443Y-16241414D02*
X14284443Y-16289033D01*
X14284443Y-16289033D02*
X14274919Y-16327128D01*
X14274919Y-16327128D02*
X14265395Y-16346176D01*
X14265395Y-16346176D02*
X14255872Y-16355700D01*
X14255872Y-16355700D02*
X14236824Y-16365224D01*
X14236824Y-16365224D02*
X14217776Y-16365224D01*
X14217776Y-16365224D02*
X14198729Y-16355700D01*
X14198729Y-16355700D02*
X14189205Y-16346176D01*
X14189205Y-16346176D02*
X14179681Y-16327128D01*
X14179681Y-16327128D02*
X14170157Y-16289033D01*
X14170157Y-16289033D02*
X14170157Y-16241414D01*
X14170157Y-16241414D02*
X14179681Y-16203319D01*
X14179681Y-16203319D02*
X14189205Y-16184271D01*
X14189205Y-16184271D02*
X14198729Y-16174748D01*
X14198729Y-16174748D02*
X14217776Y-16165224D01*
X14370157Y-16346176D02*
X14379681Y-16355700D01*
X14379681Y-16355700D02*
X14370157Y-16365224D01*
X14370157Y-16365224D02*
X14360633Y-16355700D01*
X14360633Y-16355700D02*
X14370157Y-16346176D01*
X14370157Y-16346176D02*
X14370157Y-16365224D01*
X14503491Y-16165224D02*
X14522538Y-16165224D01*
X14522538Y-16165224D02*
X14541586Y-16174748D01*
X14541586Y-16174748D02*
X14551110Y-16184271D01*
X14551110Y-16184271D02*
X14560633Y-16203319D01*
X14560633Y-16203319D02*
X14570157Y-16241414D01*
X14570157Y-16241414D02*
X14570157Y-16289033D01*
X14570157Y-16289033D02*
X14560633Y-16327128D01*
X14560633Y-16327128D02*
X14551110Y-16346176D01*
X14551110Y-16346176D02*
X14541586Y-16355700D01*
X14541586Y-16355700D02*
X14522538Y-16365224D01*
X14522538Y-16365224D02*
X14503491Y-16365224D01*
X14503491Y-16365224D02*
X14484443Y-16355700D01*
X14484443Y-16355700D02*
X14474919Y-16346176D01*
X14474919Y-16346176D02*
X14465395Y-16327128D01*
X14465395Y-16327128D02*
X14455872Y-16289033D01*
X14455872Y-16289033D02*
X14455872Y-16241414D01*
X14455872Y-16241414D02*
X14465395Y-16203319D01*
X14465395Y-16203319D02*
X14474919Y-16184271D01*
X14474919Y-16184271D02*
X14484443Y-16174748D01*
X14484443Y-16174748D02*
X14503491Y-16165224D01*
X14636824Y-16165224D02*
X14760633Y-16165224D01*
X14760633Y-16165224D02*
X14693967Y-16241414D01*
X14693967Y-16241414D02*
X14722538Y-16241414D01*
X14722538Y-16241414D02*
X14741586Y-16250938D01*
X14741586Y-16250938D02*
X14751110Y-16260462D01*
X14751110Y-16260462D02*
X14760633Y-16279509D01*
X14760633Y-16279509D02*
X14760633Y-16327128D01*
X14760633Y-16327128D02*
X14751110Y-16346176D01*
X14751110Y-16346176D02*
X14741586Y-16355700D01*
X14741586Y-16355700D02*
X14722538Y-16365224D01*
X14722538Y-16365224D02*
X14665395Y-16365224D01*
X14665395Y-16365224D02*
X14646348Y-16355700D01*
X14646348Y-16355700D02*
X14636824Y-16346176D01*
X14941586Y-16165224D02*
X14846348Y-16165224D01*
X14846348Y-16165224D02*
X14836824Y-16260462D01*
X14836824Y-16260462D02*
X14846348Y-16250938D01*
X14846348Y-16250938D02*
X14865395Y-16241414D01*
X14865395Y-16241414D02*
X14913014Y-16241414D01*
X14913014Y-16241414D02*
X14932062Y-16250938D01*
X14932062Y-16250938D02*
X14941586Y-16260462D01*
X14941586Y-16260462D02*
X14951110Y-16279509D01*
X14951110Y-16279509D02*
X14951110Y-16327128D01*
X14951110Y-16327128D02*
X14941586Y-16346176D01*
X14941586Y-16346176D02*
X14932062Y-16355700D01*
X14932062Y-16355700D02*
X14913014Y-16365224D01*
X14913014Y-16365224D02*
X14865395Y-16365224D01*
X14865395Y-16365224D02*
X14846348Y-16355700D01*
X14846348Y-16355700D02*
X14836824Y-16346176D01*
X15122538Y-16231890D02*
X15122538Y-16365224D01*
X15074919Y-16155700D02*
X15027300Y-16298557D01*
X15027300Y-16298557D02*
X15151110Y-16298557D01*
X15217776Y-16165224D02*
X15217776Y-16203319D01*
X15293967Y-16165224D02*
X15293967Y-16203319D01*
X15589205Y-16441414D02*
X15579681Y-16431890D01*
X15579681Y-16431890D02*
X15560634Y-16403319D01*
X15560634Y-16403319D02*
X15551110Y-16384271D01*
X15551110Y-16384271D02*
X15541586Y-16355700D01*
X15541586Y-16355700D02*
X15532062Y-16308081D01*
X15532062Y-16308081D02*
X15532062Y-16269986D01*
X15532062Y-16269986D02*
X15541586Y-16222367D01*
X15541586Y-16222367D02*
X15551110Y-16193795D01*
X15551110Y-16193795D02*
X15560634Y-16174748D01*
X15560634Y-16174748D02*
X15579681Y-16146176D01*
X15579681Y-16146176D02*
X15589205Y-16136652D01*
X15751110Y-16165224D02*
X15713014Y-16165224D01*
X15713014Y-16165224D02*
X15693967Y-16174748D01*
X15693967Y-16174748D02*
X15684443Y-16184271D01*
X15684443Y-16184271D02*
X15665395Y-16212843D01*
X15665395Y-16212843D02*
X15655872Y-16250938D01*
X15655872Y-16250938D02*
X15655872Y-16327128D01*
X15655872Y-16327128D02*
X15665395Y-16346176D01*
X15665395Y-16346176D02*
X15674919Y-16355700D01*
X15674919Y-16355700D02*
X15693967Y-16365224D01*
X15693967Y-16365224D02*
X15732062Y-16365224D01*
X15732062Y-16365224D02*
X15751110Y-16355700D01*
X15751110Y-16355700D02*
X15760634Y-16346176D01*
X15760634Y-16346176D02*
X15770157Y-16327128D01*
X15770157Y-16327128D02*
X15770157Y-16279509D01*
X15770157Y-16279509D02*
X15760634Y-16260462D01*
X15760634Y-16260462D02*
X15751110Y-16250938D01*
X15751110Y-16250938D02*
X15732062Y-16241414D01*
X15732062Y-16241414D02*
X15693967Y-16241414D01*
X15693967Y-16241414D02*
X15674919Y-16250938D01*
X15674919Y-16250938D02*
X15665395Y-16260462D01*
X15665395Y-16260462D02*
X15655872Y-16279509D01*
X16008253Y-16365224D02*
X16008253Y-16165224D01*
X16093967Y-16365224D02*
X16093967Y-16260462D01*
X16093967Y-16260462D02*
X16084443Y-16241414D01*
X16084443Y-16241414D02*
X16065396Y-16231890D01*
X16065396Y-16231890D02*
X16036824Y-16231890D01*
X16036824Y-16231890D02*
X16017776Y-16241414D01*
X16017776Y-16241414D02*
X16008253Y-16250938D01*
X16217776Y-16365224D02*
X16198729Y-16355700D01*
X16198729Y-16355700D02*
X16189205Y-16346176D01*
X16189205Y-16346176D02*
X16179681Y-16327128D01*
X16179681Y-16327128D02*
X16179681Y-16269986D01*
X16179681Y-16269986D02*
X16189205Y-16250938D01*
X16189205Y-16250938D02*
X16198729Y-16241414D01*
X16198729Y-16241414D02*
X16217776Y-16231890D01*
X16217776Y-16231890D02*
X16246348Y-16231890D01*
X16246348Y-16231890D02*
X16265396Y-16241414D01*
X16265396Y-16241414D02*
X16274919Y-16250938D01*
X16274919Y-16250938D02*
X16284443Y-16269986D01*
X16284443Y-16269986D02*
X16284443Y-16327128D01*
X16284443Y-16327128D02*
X16274919Y-16346176D01*
X16274919Y-16346176D02*
X16265396Y-16355700D01*
X16265396Y-16355700D02*
X16246348Y-16365224D01*
X16246348Y-16365224D02*
X16217776Y-16365224D01*
X16398729Y-16365224D02*
X16379681Y-16355700D01*
X16379681Y-16355700D02*
X16370157Y-16336652D01*
X16370157Y-16336652D02*
X16370157Y-16165224D01*
X16551110Y-16355700D02*
X16532062Y-16365224D01*
X16532062Y-16365224D02*
X16493967Y-16365224D01*
X16493967Y-16365224D02*
X16474919Y-16355700D01*
X16474919Y-16355700D02*
X16465396Y-16336652D01*
X16465396Y-16336652D02*
X16465396Y-16260462D01*
X16465396Y-16260462D02*
X16474919Y-16241414D01*
X16474919Y-16241414D02*
X16493967Y-16231890D01*
X16493967Y-16231890D02*
X16532062Y-16231890D01*
X16532062Y-16231890D02*
X16551110Y-16241414D01*
X16551110Y-16241414D02*
X16560634Y-16260462D01*
X16560634Y-16260462D02*
X16560634Y-16279509D01*
X16560634Y-16279509D02*
X16465396Y-16298557D01*
X16636824Y-16355700D02*
X16655872Y-16365224D01*
X16655872Y-16365224D02*
X16693967Y-16365224D01*
X16693967Y-16365224D02*
X16713015Y-16355700D01*
X16713015Y-16355700D02*
X16722538Y-16336652D01*
X16722538Y-16336652D02*
X16722538Y-16327128D01*
X16722538Y-16327128D02*
X16713015Y-16308081D01*
X16713015Y-16308081D02*
X16693967Y-16298557D01*
X16693967Y-16298557D02*
X16665396Y-16298557D01*
X16665396Y-16298557D02*
X16646348Y-16289033D01*
X16646348Y-16289033D02*
X16636824Y-16269986D01*
X16636824Y-16269986D02*
X16636824Y-16260462D01*
X16636824Y-16260462D02*
X16646348Y-16241414D01*
X16646348Y-16241414D02*
X16665396Y-16231890D01*
X16665396Y-16231890D02*
X16693967Y-16231890D01*
X16693967Y-16231890D02*
X16713015Y-16241414D01*
X16789205Y-16441414D02*
X16798729Y-16431890D01*
X16798729Y-16431890D02*
X16817777Y-16403319D01*
X16817777Y-16403319D02*
X16827300Y-16384271D01*
X16827300Y-16384271D02*
X16836824Y-16355700D01*
X16836824Y-16355700D02*
X16846348Y-16308081D01*
X16846348Y-16308081D02*
X16846348Y-16269986D01*
X16846348Y-16269986D02*
X16836824Y-16222367D01*
X16836824Y-16222367D02*
X16827300Y-16193795D01*
X16827300Y-16193795D02*
X16817777Y-16174748D01*
X16817777Y-16174748D02*
X16798729Y-16146176D01*
X16798729Y-16146176D02*
X16789205Y-16136652D01*
D17*
X11927300Y-16486700D02*
X12027300Y-16586700D01*
X12027300Y-16486700D02*
X11927300Y-16586700D01*
X11977300Y-16486700D02*
X11977300Y-16586700D01*
X11927300Y-16536700D02*
X12027300Y-16536700D01*
D11*
X12379681Y-16629224D02*
X12265395Y-16629224D01*
X12322538Y-16629224D02*
X12322538Y-16429224D01*
X12322538Y-16429224D02*
X12303490Y-16457795D01*
X12303490Y-16457795D02*
X12284443Y-16476843D01*
X12284443Y-16476843D02*
X12265395Y-16486367D01*
X12465395Y-16610176D02*
X12474919Y-16619700D01*
X12474919Y-16619700D02*
X12465395Y-16629224D01*
X12465395Y-16629224D02*
X12455871Y-16619700D01*
X12455871Y-16619700D02*
X12465395Y-16610176D01*
X12465395Y-16610176D02*
X12465395Y-16629224D01*
X12598728Y-16429224D02*
X12617776Y-16429224D01*
X12617776Y-16429224D02*
X12636824Y-16438748D01*
X12636824Y-16438748D02*
X12646348Y-16448271D01*
X12646348Y-16448271D02*
X12655871Y-16467319D01*
X12655871Y-16467319D02*
X12665395Y-16505414D01*
X12665395Y-16505414D02*
X12665395Y-16553033D01*
X12665395Y-16553033D02*
X12655871Y-16591128D01*
X12655871Y-16591128D02*
X12646348Y-16610176D01*
X12646348Y-16610176D02*
X12636824Y-16619700D01*
X12636824Y-16619700D02*
X12617776Y-16629224D01*
X12617776Y-16629224D02*
X12598728Y-16629224D01*
X12598728Y-16629224D02*
X12579681Y-16619700D01*
X12579681Y-16619700D02*
X12570157Y-16610176D01*
X12570157Y-16610176D02*
X12560633Y-16591128D01*
X12560633Y-16591128D02*
X12551109Y-16553033D01*
X12551109Y-16553033D02*
X12551109Y-16505414D01*
X12551109Y-16505414D02*
X12560633Y-16467319D01*
X12560633Y-16467319D02*
X12570157Y-16448271D01*
X12570157Y-16448271D02*
X12579681Y-16438748D01*
X12579681Y-16438748D02*
X12598728Y-16429224D01*
X12789205Y-16429224D02*
X12808252Y-16429224D01*
X12808252Y-16429224D02*
X12827300Y-16438748D01*
X12827300Y-16438748D02*
X12836824Y-16448271D01*
X12836824Y-16448271D02*
X12846348Y-16467319D01*
X12846348Y-16467319D02*
X12855871Y-16505414D01*
X12855871Y-16505414D02*
X12855871Y-16553033D01*
X12855871Y-16553033D02*
X12846348Y-16591128D01*
X12846348Y-16591128D02*
X12836824Y-16610176D01*
X12836824Y-16610176D02*
X12827300Y-16619700D01*
X12827300Y-16619700D02*
X12808252Y-16629224D01*
X12808252Y-16629224D02*
X12789205Y-16629224D01*
X12789205Y-16629224D02*
X12770157Y-16619700D01*
X12770157Y-16619700D02*
X12760633Y-16610176D01*
X12760633Y-16610176D02*
X12751109Y-16591128D01*
X12751109Y-16591128D02*
X12741586Y-16553033D01*
X12741586Y-16553033D02*
X12741586Y-16505414D01*
X12741586Y-16505414D02*
X12751109Y-16467319D01*
X12751109Y-16467319D02*
X12760633Y-16448271D01*
X12760633Y-16448271D02*
X12770157Y-16438748D01*
X12770157Y-16438748D02*
X12789205Y-16429224D01*
X12979681Y-16429224D02*
X12998729Y-16429224D01*
X12998729Y-16429224D02*
X13017776Y-16438748D01*
X13017776Y-16438748D02*
X13027300Y-16448271D01*
X13027300Y-16448271D02*
X13036824Y-16467319D01*
X13036824Y-16467319D02*
X13046348Y-16505414D01*
X13046348Y-16505414D02*
X13046348Y-16553033D01*
X13046348Y-16553033D02*
X13036824Y-16591128D01*
X13036824Y-16591128D02*
X13027300Y-16610176D01*
X13027300Y-16610176D02*
X13017776Y-16619700D01*
X13017776Y-16619700D02*
X12998729Y-16629224D01*
X12998729Y-16629224D02*
X12979681Y-16629224D01*
X12979681Y-16629224D02*
X12960633Y-16619700D01*
X12960633Y-16619700D02*
X12951109Y-16610176D01*
X12951109Y-16610176D02*
X12941586Y-16591128D01*
X12941586Y-16591128D02*
X12932062Y-16553033D01*
X12932062Y-16553033D02*
X12932062Y-16505414D01*
X12932062Y-16505414D02*
X12941586Y-16467319D01*
X12941586Y-16467319D02*
X12951109Y-16448271D01*
X12951109Y-16448271D02*
X12960633Y-16438748D01*
X12960633Y-16438748D02*
X12979681Y-16429224D01*
X13132062Y-16629224D02*
X13132062Y-16495890D01*
X13132062Y-16514938D02*
X13141586Y-16505414D01*
X13141586Y-16505414D02*
X13160633Y-16495890D01*
X13160633Y-16495890D02*
X13189205Y-16495890D01*
X13189205Y-16495890D02*
X13208252Y-16505414D01*
X13208252Y-16505414D02*
X13217776Y-16524462D01*
X13217776Y-16524462D02*
X13217776Y-16629224D01*
X13217776Y-16524462D02*
X13227300Y-16505414D01*
X13227300Y-16505414D02*
X13246348Y-16495890D01*
X13246348Y-16495890D02*
X13274919Y-16495890D01*
X13274919Y-16495890D02*
X13293967Y-16505414D01*
X13293967Y-16505414D02*
X13303490Y-16524462D01*
X13303490Y-16524462D02*
X13303490Y-16629224D01*
X13398729Y-16629224D02*
X13398729Y-16495890D01*
X13398729Y-16514938D02*
X13408252Y-16505414D01*
X13408252Y-16505414D02*
X13427300Y-16495890D01*
X13427300Y-16495890D02*
X13455871Y-16495890D01*
X13455871Y-16495890D02*
X13474919Y-16505414D01*
X13474919Y-16505414D02*
X13484443Y-16524462D01*
X13484443Y-16524462D02*
X13484443Y-16629224D01*
X13484443Y-16524462D02*
X13493967Y-16505414D01*
X13493967Y-16505414D02*
X13513014Y-16495890D01*
X13513014Y-16495890D02*
X13541586Y-16495890D01*
X13541586Y-16495890D02*
X13560633Y-16505414D01*
X13560633Y-16505414D02*
X13570157Y-16524462D01*
X13570157Y-16524462D02*
X13570157Y-16629224D01*
X13960633Y-16419700D02*
X13789205Y-16676843D01*
X14217776Y-16429224D02*
X14236824Y-16429224D01*
X14236824Y-16429224D02*
X14255872Y-16438748D01*
X14255872Y-16438748D02*
X14265395Y-16448271D01*
X14265395Y-16448271D02*
X14274919Y-16467319D01*
X14274919Y-16467319D02*
X14284443Y-16505414D01*
X14284443Y-16505414D02*
X14284443Y-16553033D01*
X14284443Y-16553033D02*
X14274919Y-16591128D01*
X14274919Y-16591128D02*
X14265395Y-16610176D01*
X14265395Y-16610176D02*
X14255872Y-16619700D01*
X14255872Y-16619700D02*
X14236824Y-16629224D01*
X14236824Y-16629224D02*
X14217776Y-16629224D01*
X14217776Y-16629224D02*
X14198729Y-16619700D01*
X14198729Y-16619700D02*
X14189205Y-16610176D01*
X14189205Y-16610176D02*
X14179681Y-16591128D01*
X14179681Y-16591128D02*
X14170157Y-16553033D01*
X14170157Y-16553033D02*
X14170157Y-16505414D01*
X14170157Y-16505414D02*
X14179681Y-16467319D01*
X14179681Y-16467319D02*
X14189205Y-16448271D01*
X14189205Y-16448271D02*
X14198729Y-16438748D01*
X14198729Y-16438748D02*
X14217776Y-16429224D01*
X14370157Y-16610176D02*
X14379681Y-16619700D01*
X14379681Y-16619700D02*
X14370157Y-16629224D01*
X14370157Y-16629224D02*
X14360633Y-16619700D01*
X14360633Y-16619700D02*
X14370157Y-16610176D01*
X14370157Y-16610176D02*
X14370157Y-16629224D01*
X14503491Y-16429224D02*
X14522538Y-16429224D01*
X14522538Y-16429224D02*
X14541586Y-16438748D01*
X14541586Y-16438748D02*
X14551110Y-16448271D01*
X14551110Y-16448271D02*
X14560633Y-16467319D01*
X14560633Y-16467319D02*
X14570157Y-16505414D01*
X14570157Y-16505414D02*
X14570157Y-16553033D01*
X14570157Y-16553033D02*
X14560633Y-16591128D01*
X14560633Y-16591128D02*
X14551110Y-16610176D01*
X14551110Y-16610176D02*
X14541586Y-16619700D01*
X14541586Y-16619700D02*
X14522538Y-16629224D01*
X14522538Y-16629224D02*
X14503491Y-16629224D01*
X14503491Y-16629224D02*
X14484443Y-16619700D01*
X14484443Y-16619700D02*
X14474919Y-16610176D01*
X14474919Y-16610176D02*
X14465395Y-16591128D01*
X14465395Y-16591128D02*
X14455872Y-16553033D01*
X14455872Y-16553033D02*
X14455872Y-16505414D01*
X14455872Y-16505414D02*
X14465395Y-16467319D01*
X14465395Y-16467319D02*
X14474919Y-16448271D01*
X14474919Y-16448271D02*
X14484443Y-16438748D01*
X14484443Y-16438748D02*
X14503491Y-16429224D01*
X14636824Y-16429224D02*
X14760633Y-16429224D01*
X14760633Y-16429224D02*
X14693967Y-16505414D01*
X14693967Y-16505414D02*
X14722538Y-16505414D01*
X14722538Y-16505414D02*
X14741586Y-16514938D01*
X14741586Y-16514938D02*
X14751110Y-16524462D01*
X14751110Y-16524462D02*
X14760633Y-16543509D01*
X14760633Y-16543509D02*
X14760633Y-16591128D01*
X14760633Y-16591128D02*
X14751110Y-16610176D01*
X14751110Y-16610176D02*
X14741586Y-16619700D01*
X14741586Y-16619700D02*
X14722538Y-16629224D01*
X14722538Y-16629224D02*
X14665395Y-16629224D01*
X14665395Y-16629224D02*
X14646348Y-16619700D01*
X14646348Y-16619700D02*
X14636824Y-16610176D01*
X14855872Y-16629224D02*
X14893967Y-16629224D01*
X14893967Y-16629224D02*
X14913014Y-16619700D01*
X14913014Y-16619700D02*
X14922538Y-16610176D01*
X14922538Y-16610176D02*
X14941586Y-16581605D01*
X14941586Y-16581605D02*
X14951110Y-16543509D01*
X14951110Y-16543509D02*
X14951110Y-16467319D01*
X14951110Y-16467319D02*
X14941586Y-16448271D01*
X14941586Y-16448271D02*
X14932062Y-16438748D01*
X14932062Y-16438748D02*
X14913014Y-16429224D01*
X14913014Y-16429224D02*
X14874919Y-16429224D01*
X14874919Y-16429224D02*
X14855872Y-16438748D01*
X14855872Y-16438748D02*
X14846348Y-16448271D01*
X14846348Y-16448271D02*
X14836824Y-16467319D01*
X14836824Y-16467319D02*
X14836824Y-16514938D01*
X14836824Y-16514938D02*
X14846348Y-16533986D01*
X14846348Y-16533986D02*
X14855872Y-16543509D01*
X14855872Y-16543509D02*
X14874919Y-16553033D01*
X14874919Y-16553033D02*
X14913014Y-16553033D01*
X14913014Y-16553033D02*
X14932062Y-16543509D01*
X14932062Y-16543509D02*
X14941586Y-16533986D01*
X14941586Y-16533986D02*
X14951110Y-16514938D01*
X15122538Y-16495890D02*
X15122538Y-16629224D01*
X15074919Y-16419700D02*
X15027300Y-16562557D01*
X15027300Y-16562557D02*
X15151110Y-16562557D01*
X15217776Y-16429224D02*
X15217776Y-16467319D01*
X15293967Y-16429224D02*
X15293967Y-16467319D01*
X15589205Y-16705414D02*
X15579681Y-16695890D01*
X15579681Y-16695890D02*
X15560634Y-16667319D01*
X15560634Y-16667319D02*
X15551110Y-16648271D01*
X15551110Y-16648271D02*
X15541586Y-16619700D01*
X15541586Y-16619700D02*
X15532062Y-16572081D01*
X15532062Y-16572081D02*
X15532062Y-16533986D01*
X15532062Y-16533986D02*
X15541586Y-16486367D01*
X15541586Y-16486367D02*
X15551110Y-16457795D01*
X15551110Y-16457795D02*
X15560634Y-16438748D01*
X15560634Y-16438748D02*
X15579681Y-16410176D01*
X15579681Y-16410176D02*
X15589205Y-16400652D01*
X15646348Y-16429224D02*
X15779681Y-16429224D01*
X15779681Y-16429224D02*
X15693967Y-16629224D01*
X16008253Y-16629224D02*
X16008253Y-16429224D01*
X16093967Y-16629224D02*
X16093967Y-16524462D01*
X16093967Y-16524462D02*
X16084443Y-16505414D01*
X16084443Y-16505414D02*
X16065396Y-16495890D01*
X16065396Y-16495890D02*
X16036824Y-16495890D01*
X16036824Y-16495890D02*
X16017776Y-16505414D01*
X16017776Y-16505414D02*
X16008253Y-16514938D01*
X16217776Y-16629224D02*
X16198729Y-16619700D01*
X16198729Y-16619700D02*
X16189205Y-16610176D01*
X16189205Y-16610176D02*
X16179681Y-16591128D01*
X16179681Y-16591128D02*
X16179681Y-16533986D01*
X16179681Y-16533986D02*
X16189205Y-16514938D01*
X16189205Y-16514938D02*
X16198729Y-16505414D01*
X16198729Y-16505414D02*
X16217776Y-16495890D01*
X16217776Y-16495890D02*
X16246348Y-16495890D01*
X16246348Y-16495890D02*
X16265396Y-16505414D01*
X16265396Y-16505414D02*
X16274919Y-16514938D01*
X16274919Y-16514938D02*
X16284443Y-16533986D01*
X16284443Y-16533986D02*
X16284443Y-16591128D01*
X16284443Y-16591128D02*
X16274919Y-16610176D01*
X16274919Y-16610176D02*
X16265396Y-16619700D01*
X16265396Y-16619700D02*
X16246348Y-16629224D01*
X16246348Y-16629224D02*
X16217776Y-16629224D01*
X16398729Y-16629224D02*
X16379681Y-16619700D01*
X16379681Y-16619700D02*
X16370157Y-16600652D01*
X16370157Y-16600652D02*
X16370157Y-16429224D01*
X16551110Y-16619700D02*
X16532062Y-16629224D01*
X16532062Y-16629224D02*
X16493967Y-16629224D01*
X16493967Y-16629224D02*
X16474919Y-16619700D01*
X16474919Y-16619700D02*
X16465396Y-16600652D01*
X16465396Y-16600652D02*
X16465396Y-16524462D01*
X16465396Y-16524462D02*
X16474919Y-16505414D01*
X16474919Y-16505414D02*
X16493967Y-16495890D01*
X16493967Y-16495890D02*
X16532062Y-16495890D01*
X16532062Y-16495890D02*
X16551110Y-16505414D01*
X16551110Y-16505414D02*
X16560634Y-16524462D01*
X16560634Y-16524462D02*
X16560634Y-16543509D01*
X16560634Y-16543509D02*
X16465396Y-16562557D01*
X16636824Y-16619700D02*
X16655872Y-16629224D01*
X16655872Y-16629224D02*
X16693967Y-16629224D01*
X16693967Y-16629224D02*
X16713015Y-16619700D01*
X16713015Y-16619700D02*
X16722538Y-16600652D01*
X16722538Y-16600652D02*
X16722538Y-16591128D01*
X16722538Y-16591128D02*
X16713015Y-16572081D01*
X16713015Y-16572081D02*
X16693967Y-16562557D01*
X16693967Y-16562557D02*
X16665396Y-16562557D01*
X16665396Y-16562557D02*
X16646348Y-16553033D01*
X16646348Y-16553033D02*
X16636824Y-16533986D01*
X16636824Y-16533986D02*
X16636824Y-16524462D01*
X16636824Y-16524462D02*
X16646348Y-16505414D01*
X16646348Y-16505414D02*
X16665396Y-16495890D01*
X16665396Y-16495890D02*
X16693967Y-16495890D01*
X16693967Y-16495890D02*
X16713015Y-16505414D01*
X16789205Y-16705414D02*
X16798729Y-16695890D01*
X16798729Y-16695890D02*
X16817777Y-16667319D01*
X16817777Y-16667319D02*
X16827300Y-16648271D01*
X16827300Y-16648271D02*
X16836824Y-16619700D01*
X16836824Y-16619700D02*
X16846348Y-16572081D01*
X16846348Y-16572081D02*
X16846348Y-16533986D01*
X16846348Y-16533986D02*
X16836824Y-16486367D01*
X16836824Y-16486367D02*
X16827300Y-16457795D01*
X16827300Y-16457795D02*
X16817777Y-16438748D01*
X16817777Y-16438748D02*
X16798729Y-16410176D01*
X16798729Y-16410176D02*
X16789205Y-16400652D01*
D18*
X11897300Y-16735700D02*
X12027300Y-16865700D01*
X12027300Y-16735700D02*
X11897300Y-16865700D01*
X12008262Y-16846662D02*
X12008262Y-16754738D01*
X11916338Y-16754738D01*
X11916338Y-16846662D01*
X12008262Y-16846662D01*
D11*
X12379681Y-16893224D02*
X12265395Y-16893224D01*
X12322538Y-16893224D02*
X12322538Y-16693224D01*
X12322538Y-16693224D02*
X12303490Y-16721795D01*
X12303490Y-16721795D02*
X12284443Y-16740843D01*
X12284443Y-16740843D02*
X12265395Y-16750367D01*
X12465395Y-16874176D02*
X12474919Y-16883700D01*
X12474919Y-16883700D02*
X12465395Y-16893224D01*
X12465395Y-16893224D02*
X12455871Y-16883700D01*
X12455871Y-16883700D02*
X12465395Y-16874176D01*
X12465395Y-16874176D02*
X12465395Y-16893224D01*
X12541586Y-16693224D02*
X12665395Y-16693224D01*
X12665395Y-16693224D02*
X12598728Y-16769414D01*
X12598728Y-16769414D02*
X12627300Y-16769414D01*
X12627300Y-16769414D02*
X12646348Y-16778938D01*
X12646348Y-16778938D02*
X12655871Y-16788462D01*
X12655871Y-16788462D02*
X12665395Y-16807510D01*
X12665395Y-16807510D02*
X12665395Y-16855129D01*
X12665395Y-16855129D02*
X12655871Y-16874176D01*
X12655871Y-16874176D02*
X12646348Y-16883700D01*
X12646348Y-16883700D02*
X12627300Y-16893224D01*
X12627300Y-16893224D02*
X12570157Y-16893224D01*
X12570157Y-16893224D02*
X12551109Y-16883700D01*
X12551109Y-16883700D02*
X12541586Y-16874176D01*
X12789205Y-16693224D02*
X12808252Y-16693224D01*
X12808252Y-16693224D02*
X12827300Y-16702748D01*
X12827300Y-16702748D02*
X12836824Y-16712271D01*
X12836824Y-16712271D02*
X12846348Y-16731319D01*
X12846348Y-16731319D02*
X12855871Y-16769414D01*
X12855871Y-16769414D02*
X12855871Y-16817033D01*
X12855871Y-16817033D02*
X12846348Y-16855129D01*
X12846348Y-16855129D02*
X12836824Y-16874176D01*
X12836824Y-16874176D02*
X12827300Y-16883700D01*
X12827300Y-16883700D02*
X12808252Y-16893224D01*
X12808252Y-16893224D02*
X12789205Y-16893224D01*
X12789205Y-16893224D02*
X12770157Y-16883700D01*
X12770157Y-16883700D02*
X12760633Y-16874176D01*
X12760633Y-16874176D02*
X12751109Y-16855129D01*
X12751109Y-16855129D02*
X12741586Y-16817033D01*
X12741586Y-16817033D02*
X12741586Y-16769414D01*
X12741586Y-16769414D02*
X12751109Y-16731319D01*
X12751109Y-16731319D02*
X12760633Y-16712271D01*
X12760633Y-16712271D02*
X12770157Y-16702748D01*
X12770157Y-16702748D02*
X12789205Y-16693224D01*
X12979681Y-16693224D02*
X12998729Y-16693224D01*
X12998729Y-16693224D02*
X13017776Y-16702748D01*
X13017776Y-16702748D02*
X13027300Y-16712271D01*
X13027300Y-16712271D02*
X13036824Y-16731319D01*
X13036824Y-16731319D02*
X13046348Y-16769414D01*
X13046348Y-16769414D02*
X13046348Y-16817033D01*
X13046348Y-16817033D02*
X13036824Y-16855129D01*
X13036824Y-16855129D02*
X13027300Y-16874176D01*
X13027300Y-16874176D02*
X13017776Y-16883700D01*
X13017776Y-16883700D02*
X12998729Y-16893224D01*
X12998729Y-16893224D02*
X12979681Y-16893224D01*
X12979681Y-16893224D02*
X12960633Y-16883700D01*
X12960633Y-16883700D02*
X12951109Y-16874176D01*
X12951109Y-16874176D02*
X12941586Y-16855129D01*
X12941586Y-16855129D02*
X12932062Y-16817033D01*
X12932062Y-16817033D02*
X12932062Y-16769414D01*
X12932062Y-16769414D02*
X12941586Y-16731319D01*
X12941586Y-16731319D02*
X12951109Y-16712271D01*
X12951109Y-16712271D02*
X12960633Y-16702748D01*
X12960633Y-16702748D02*
X12979681Y-16693224D01*
X13132062Y-16893224D02*
X13132062Y-16759890D01*
X13132062Y-16778938D02*
X13141586Y-16769414D01*
X13141586Y-16769414D02*
X13160633Y-16759890D01*
X13160633Y-16759890D02*
X13189205Y-16759890D01*
X13189205Y-16759890D02*
X13208252Y-16769414D01*
X13208252Y-16769414D02*
X13217776Y-16788462D01*
X13217776Y-16788462D02*
X13217776Y-16893224D01*
X13217776Y-16788462D02*
X13227300Y-16769414D01*
X13227300Y-16769414D02*
X13246348Y-16759890D01*
X13246348Y-16759890D02*
X13274919Y-16759890D01*
X13274919Y-16759890D02*
X13293967Y-16769414D01*
X13293967Y-16769414D02*
X13303490Y-16788462D01*
X13303490Y-16788462D02*
X13303490Y-16893224D01*
X13398729Y-16893224D02*
X13398729Y-16759890D01*
X13398729Y-16778938D02*
X13408252Y-16769414D01*
X13408252Y-16769414D02*
X13427300Y-16759890D01*
X13427300Y-16759890D02*
X13455871Y-16759890D01*
X13455871Y-16759890D02*
X13474919Y-16769414D01*
X13474919Y-16769414D02*
X13484443Y-16788462D01*
X13484443Y-16788462D02*
X13484443Y-16893224D01*
X13484443Y-16788462D02*
X13493967Y-16769414D01*
X13493967Y-16769414D02*
X13513014Y-16759890D01*
X13513014Y-16759890D02*
X13541586Y-16759890D01*
X13541586Y-16759890D02*
X13560633Y-16769414D01*
X13560633Y-16769414D02*
X13570157Y-16788462D01*
X13570157Y-16788462D02*
X13570157Y-16893224D01*
X13960633Y-16683700D02*
X13789205Y-16940843D01*
X14217776Y-16693224D02*
X14236824Y-16693224D01*
X14236824Y-16693224D02*
X14255872Y-16702748D01*
X14255872Y-16702748D02*
X14265395Y-16712271D01*
X14265395Y-16712271D02*
X14274919Y-16731319D01*
X14274919Y-16731319D02*
X14284443Y-16769414D01*
X14284443Y-16769414D02*
X14284443Y-16817033D01*
X14284443Y-16817033D02*
X14274919Y-16855129D01*
X14274919Y-16855129D02*
X14265395Y-16874176D01*
X14265395Y-16874176D02*
X14255872Y-16883700D01*
X14255872Y-16883700D02*
X14236824Y-16893224D01*
X14236824Y-16893224D02*
X14217776Y-16893224D01*
X14217776Y-16893224D02*
X14198729Y-16883700D01*
X14198729Y-16883700D02*
X14189205Y-16874176D01*
X14189205Y-16874176D02*
X14179681Y-16855129D01*
X14179681Y-16855129D02*
X14170157Y-16817033D01*
X14170157Y-16817033D02*
X14170157Y-16769414D01*
X14170157Y-16769414D02*
X14179681Y-16731319D01*
X14179681Y-16731319D02*
X14189205Y-16712271D01*
X14189205Y-16712271D02*
X14198729Y-16702748D01*
X14198729Y-16702748D02*
X14217776Y-16693224D01*
X14370157Y-16874176D02*
X14379681Y-16883700D01*
X14379681Y-16883700D02*
X14370157Y-16893224D01*
X14370157Y-16893224D02*
X14360633Y-16883700D01*
X14360633Y-16883700D02*
X14370157Y-16874176D01*
X14370157Y-16874176D02*
X14370157Y-16893224D01*
X14503491Y-16693224D02*
X14522538Y-16693224D01*
X14522538Y-16693224D02*
X14541586Y-16702748D01*
X14541586Y-16702748D02*
X14551110Y-16712271D01*
X14551110Y-16712271D02*
X14560633Y-16731319D01*
X14560633Y-16731319D02*
X14570157Y-16769414D01*
X14570157Y-16769414D02*
X14570157Y-16817033D01*
X14570157Y-16817033D02*
X14560633Y-16855129D01*
X14560633Y-16855129D02*
X14551110Y-16874176D01*
X14551110Y-16874176D02*
X14541586Y-16883700D01*
X14541586Y-16883700D02*
X14522538Y-16893224D01*
X14522538Y-16893224D02*
X14503491Y-16893224D01*
X14503491Y-16893224D02*
X14484443Y-16883700D01*
X14484443Y-16883700D02*
X14474919Y-16874176D01*
X14474919Y-16874176D02*
X14465395Y-16855129D01*
X14465395Y-16855129D02*
X14455872Y-16817033D01*
X14455872Y-16817033D02*
X14455872Y-16769414D01*
X14455872Y-16769414D02*
X14465395Y-16731319D01*
X14465395Y-16731319D02*
X14474919Y-16712271D01*
X14474919Y-16712271D02*
X14484443Y-16702748D01*
X14484443Y-16702748D02*
X14503491Y-16693224D01*
X14751110Y-16693224D02*
X14655872Y-16693224D01*
X14655872Y-16693224D02*
X14646348Y-16788462D01*
X14646348Y-16788462D02*
X14655872Y-16778938D01*
X14655872Y-16778938D02*
X14674919Y-16769414D01*
X14674919Y-16769414D02*
X14722538Y-16769414D01*
X14722538Y-16769414D02*
X14741586Y-16778938D01*
X14741586Y-16778938D02*
X14751110Y-16788462D01*
X14751110Y-16788462D02*
X14760633Y-16807510D01*
X14760633Y-16807510D02*
X14760633Y-16855129D01*
X14760633Y-16855129D02*
X14751110Y-16874176D01*
X14751110Y-16874176D02*
X14741586Y-16883700D01*
X14741586Y-16883700D02*
X14722538Y-16893224D01*
X14722538Y-16893224D02*
X14674919Y-16893224D01*
X14674919Y-16893224D02*
X14655872Y-16883700D01*
X14655872Y-16883700D02*
X14646348Y-16874176D01*
X14951110Y-16893224D02*
X14836824Y-16893224D01*
X14893967Y-16893224D02*
X14893967Y-16693224D01*
X14893967Y-16693224D02*
X14874919Y-16721795D01*
X14874919Y-16721795D02*
X14855872Y-16740843D01*
X14855872Y-16740843D02*
X14836824Y-16750367D01*
X15027300Y-16712271D02*
X15036824Y-16702748D01*
X15036824Y-16702748D02*
X15055872Y-16693224D01*
X15055872Y-16693224D02*
X15103491Y-16693224D01*
X15103491Y-16693224D02*
X15122538Y-16702748D01*
X15122538Y-16702748D02*
X15132062Y-16712271D01*
X15132062Y-16712271D02*
X15141586Y-16731319D01*
X15141586Y-16731319D02*
X15141586Y-16750367D01*
X15141586Y-16750367D02*
X15132062Y-16778938D01*
X15132062Y-16778938D02*
X15017776Y-16893224D01*
X15017776Y-16893224D02*
X15141586Y-16893224D01*
X15217776Y-16693224D02*
X15217776Y-16731319D01*
X15293967Y-16693224D02*
X15293967Y-16731319D01*
X15589205Y-16969414D02*
X15579681Y-16959890D01*
X15579681Y-16959890D02*
X15560634Y-16931319D01*
X15560634Y-16931319D02*
X15551110Y-16912271D01*
X15551110Y-16912271D02*
X15541586Y-16883700D01*
X15541586Y-16883700D02*
X15532062Y-16836081D01*
X15532062Y-16836081D02*
X15532062Y-16797986D01*
X15532062Y-16797986D02*
X15541586Y-16750367D01*
X15541586Y-16750367D02*
X15551110Y-16721795D01*
X15551110Y-16721795D02*
X15560634Y-16702748D01*
X15560634Y-16702748D02*
X15579681Y-16674176D01*
X15579681Y-16674176D02*
X15589205Y-16664652D01*
X15770157Y-16893224D02*
X15655872Y-16893224D01*
X15713014Y-16893224D02*
X15713014Y-16693224D01*
X15713014Y-16693224D02*
X15693967Y-16721795D01*
X15693967Y-16721795D02*
X15674919Y-16740843D01*
X15674919Y-16740843D02*
X15655872Y-16750367D01*
X16008253Y-16893224D02*
X16008253Y-16693224D01*
X16093967Y-16893224D02*
X16093967Y-16788462D01*
X16093967Y-16788462D02*
X16084443Y-16769414D01*
X16084443Y-16769414D02*
X16065396Y-16759890D01*
X16065396Y-16759890D02*
X16036824Y-16759890D01*
X16036824Y-16759890D02*
X16017776Y-16769414D01*
X16017776Y-16769414D02*
X16008253Y-16778938D01*
X16217776Y-16893224D02*
X16198729Y-16883700D01*
X16198729Y-16883700D02*
X16189205Y-16874176D01*
X16189205Y-16874176D02*
X16179681Y-16855129D01*
X16179681Y-16855129D02*
X16179681Y-16797986D01*
X16179681Y-16797986D02*
X16189205Y-16778938D01*
X16189205Y-16778938D02*
X16198729Y-16769414D01*
X16198729Y-16769414D02*
X16217776Y-16759890D01*
X16217776Y-16759890D02*
X16246348Y-16759890D01*
X16246348Y-16759890D02*
X16265396Y-16769414D01*
X16265396Y-16769414D02*
X16274919Y-16778938D01*
X16274919Y-16778938D02*
X16284443Y-16797986D01*
X16284443Y-16797986D02*
X16284443Y-16855129D01*
X16284443Y-16855129D02*
X16274919Y-16874176D01*
X16274919Y-16874176D02*
X16265396Y-16883700D01*
X16265396Y-16883700D02*
X16246348Y-16893224D01*
X16246348Y-16893224D02*
X16217776Y-16893224D01*
X16398729Y-16893224D02*
X16379681Y-16883700D01*
X16379681Y-16883700D02*
X16370157Y-16864652D01*
X16370157Y-16864652D02*
X16370157Y-16693224D01*
X16551110Y-16883700D02*
X16532062Y-16893224D01*
X16532062Y-16893224D02*
X16493967Y-16893224D01*
X16493967Y-16893224D02*
X16474919Y-16883700D01*
X16474919Y-16883700D02*
X16465396Y-16864652D01*
X16465396Y-16864652D02*
X16465396Y-16788462D01*
X16465396Y-16788462D02*
X16474919Y-16769414D01*
X16474919Y-16769414D02*
X16493967Y-16759890D01*
X16493967Y-16759890D02*
X16532062Y-16759890D01*
X16532062Y-16759890D02*
X16551110Y-16769414D01*
X16551110Y-16769414D02*
X16560634Y-16788462D01*
X16560634Y-16788462D02*
X16560634Y-16807510D01*
X16560634Y-16807510D02*
X16465396Y-16826557D01*
X16627300Y-16969414D02*
X16636824Y-16959890D01*
X16636824Y-16959890D02*
X16655872Y-16931319D01*
X16655872Y-16931319D02*
X16665396Y-16912271D01*
X16665396Y-16912271D02*
X16674919Y-16883700D01*
X16674919Y-16883700D02*
X16684443Y-16836081D01*
X16684443Y-16836081D02*
X16684443Y-16797986D01*
X16684443Y-16797986D02*
X16674919Y-16750367D01*
X16674919Y-16750367D02*
X16665396Y-16721795D01*
X16665396Y-16721795D02*
X16655872Y-16702748D01*
X16655872Y-16702748D02*
X16636824Y-16674176D01*
X16636824Y-16674176D02*
X16627300Y-16664652D01*
X11827300Y-16964700D02*
X12027300Y-17164700D01*
X12027300Y-16964700D02*
X11827300Y-17164700D01*
X11927300Y-17164700D02*
X12027300Y-17064700D01*
X11927300Y-16964700D01*
X11827300Y-17064700D01*
X11927300Y-17164700D01*
X12265395Y-16976271D02*
X12274919Y-16966748D01*
X12274919Y-16966748D02*
X12293967Y-16957224D01*
X12293967Y-16957224D02*
X12341586Y-16957224D01*
X12341586Y-16957224D02*
X12360633Y-16966748D01*
X12360633Y-16966748D02*
X12370157Y-16976271D01*
X12370157Y-16976271D02*
X12379681Y-16995319D01*
X12379681Y-16995319D02*
X12379681Y-17014367D01*
X12379681Y-17014367D02*
X12370157Y-17042938D01*
X12370157Y-17042938D02*
X12255871Y-17157224D01*
X12255871Y-17157224D02*
X12379681Y-17157224D01*
X12465395Y-17138176D02*
X12474919Y-17147700D01*
X12474919Y-17147700D02*
X12465395Y-17157224D01*
X12465395Y-17157224D02*
X12455871Y-17147700D01*
X12455871Y-17147700D02*
X12465395Y-17138176D01*
X12465395Y-17138176D02*
X12465395Y-17157224D01*
X12655871Y-16957224D02*
X12560633Y-16957224D01*
X12560633Y-16957224D02*
X12551109Y-17052462D01*
X12551109Y-17052462D02*
X12560633Y-17042938D01*
X12560633Y-17042938D02*
X12579681Y-17033414D01*
X12579681Y-17033414D02*
X12627300Y-17033414D01*
X12627300Y-17033414D02*
X12646348Y-17042938D01*
X12646348Y-17042938D02*
X12655871Y-17052462D01*
X12655871Y-17052462D02*
X12665395Y-17071510D01*
X12665395Y-17071510D02*
X12665395Y-17119129D01*
X12665395Y-17119129D02*
X12655871Y-17138176D01*
X12655871Y-17138176D02*
X12646348Y-17147700D01*
X12646348Y-17147700D02*
X12627300Y-17157224D01*
X12627300Y-17157224D02*
X12579681Y-17157224D01*
X12579681Y-17157224D02*
X12560633Y-17147700D01*
X12560633Y-17147700D02*
X12551109Y-17138176D01*
X12789205Y-16957224D02*
X12808252Y-16957224D01*
X12808252Y-16957224D02*
X12827300Y-16966748D01*
X12827300Y-16966748D02*
X12836824Y-16976271D01*
X12836824Y-16976271D02*
X12846348Y-16995319D01*
X12846348Y-16995319D02*
X12855871Y-17033414D01*
X12855871Y-17033414D02*
X12855871Y-17081033D01*
X12855871Y-17081033D02*
X12846348Y-17119129D01*
X12846348Y-17119129D02*
X12836824Y-17138176D01*
X12836824Y-17138176D02*
X12827300Y-17147700D01*
X12827300Y-17147700D02*
X12808252Y-17157224D01*
X12808252Y-17157224D02*
X12789205Y-17157224D01*
X12789205Y-17157224D02*
X12770157Y-17147700D01*
X12770157Y-17147700D02*
X12760633Y-17138176D01*
X12760633Y-17138176D02*
X12751109Y-17119129D01*
X12751109Y-17119129D02*
X12741586Y-17081033D01*
X12741586Y-17081033D02*
X12741586Y-17033414D01*
X12741586Y-17033414D02*
X12751109Y-16995319D01*
X12751109Y-16995319D02*
X12760633Y-16976271D01*
X12760633Y-16976271D02*
X12770157Y-16966748D01*
X12770157Y-16966748D02*
X12789205Y-16957224D01*
X12979681Y-16957224D02*
X12998729Y-16957224D01*
X12998729Y-16957224D02*
X13017776Y-16966748D01*
X13017776Y-16966748D02*
X13027300Y-16976271D01*
X13027300Y-16976271D02*
X13036824Y-16995319D01*
X13036824Y-16995319D02*
X13046348Y-17033414D01*
X13046348Y-17033414D02*
X13046348Y-17081033D01*
X13046348Y-17081033D02*
X13036824Y-17119129D01*
X13036824Y-17119129D02*
X13027300Y-17138176D01*
X13027300Y-17138176D02*
X13017776Y-17147700D01*
X13017776Y-17147700D02*
X12998729Y-17157224D01*
X12998729Y-17157224D02*
X12979681Y-17157224D01*
X12979681Y-17157224D02*
X12960633Y-17147700D01*
X12960633Y-17147700D02*
X12951109Y-17138176D01*
X12951109Y-17138176D02*
X12941586Y-17119129D01*
X12941586Y-17119129D02*
X12932062Y-17081033D01*
X12932062Y-17081033D02*
X12932062Y-17033414D01*
X12932062Y-17033414D02*
X12941586Y-16995319D01*
X12941586Y-16995319D02*
X12951109Y-16976271D01*
X12951109Y-16976271D02*
X12960633Y-16966748D01*
X12960633Y-16966748D02*
X12979681Y-16957224D01*
X13132062Y-17157224D02*
X13132062Y-17023890D01*
X13132062Y-17042938D02*
X13141586Y-17033414D01*
X13141586Y-17033414D02*
X13160633Y-17023890D01*
X13160633Y-17023890D02*
X13189205Y-17023890D01*
X13189205Y-17023890D02*
X13208252Y-17033414D01*
X13208252Y-17033414D02*
X13217776Y-17052462D01*
X13217776Y-17052462D02*
X13217776Y-17157224D01*
X13217776Y-17052462D02*
X13227300Y-17033414D01*
X13227300Y-17033414D02*
X13246348Y-17023890D01*
X13246348Y-17023890D02*
X13274919Y-17023890D01*
X13274919Y-17023890D02*
X13293967Y-17033414D01*
X13293967Y-17033414D02*
X13303490Y-17052462D01*
X13303490Y-17052462D02*
X13303490Y-17157224D01*
X13398729Y-17157224D02*
X13398729Y-17023890D01*
X13398729Y-17042938D02*
X13408252Y-17033414D01*
X13408252Y-17033414D02*
X13427300Y-17023890D01*
X13427300Y-17023890D02*
X13455871Y-17023890D01*
X13455871Y-17023890D02*
X13474919Y-17033414D01*
X13474919Y-17033414D02*
X13484443Y-17052462D01*
X13484443Y-17052462D02*
X13484443Y-17157224D01*
X13484443Y-17052462D02*
X13493967Y-17033414D01*
X13493967Y-17033414D02*
X13513014Y-17023890D01*
X13513014Y-17023890D02*
X13541586Y-17023890D01*
X13541586Y-17023890D02*
X13560633Y-17033414D01*
X13560633Y-17033414D02*
X13570157Y-17052462D01*
X13570157Y-17052462D02*
X13570157Y-17157224D01*
X13960633Y-16947700D02*
X13789205Y-17204843D01*
X14217776Y-16957224D02*
X14236824Y-16957224D01*
X14236824Y-16957224D02*
X14255872Y-16966748D01*
X14255872Y-16966748D02*
X14265395Y-16976271D01*
X14265395Y-16976271D02*
X14274919Y-16995319D01*
X14274919Y-16995319D02*
X14284443Y-17033414D01*
X14284443Y-17033414D02*
X14284443Y-17081033D01*
X14284443Y-17081033D02*
X14274919Y-17119129D01*
X14274919Y-17119129D02*
X14265395Y-17138176D01*
X14265395Y-17138176D02*
X14255872Y-17147700D01*
X14255872Y-17147700D02*
X14236824Y-17157224D01*
X14236824Y-17157224D02*
X14217776Y-17157224D01*
X14217776Y-17157224D02*
X14198729Y-17147700D01*
X14198729Y-17147700D02*
X14189205Y-17138176D01*
X14189205Y-17138176D02*
X14179681Y-17119129D01*
X14179681Y-17119129D02*
X14170157Y-17081033D01*
X14170157Y-17081033D02*
X14170157Y-17033414D01*
X14170157Y-17033414D02*
X14179681Y-16995319D01*
X14179681Y-16995319D02*
X14189205Y-16976271D01*
X14189205Y-16976271D02*
X14198729Y-16966748D01*
X14198729Y-16966748D02*
X14217776Y-16957224D01*
X14370157Y-17138176D02*
X14379681Y-17147700D01*
X14379681Y-17147700D02*
X14370157Y-17157224D01*
X14370157Y-17157224D02*
X14360633Y-17147700D01*
X14360633Y-17147700D02*
X14370157Y-17138176D01*
X14370157Y-17138176D02*
X14370157Y-17157224D01*
X14503491Y-16957224D02*
X14522538Y-16957224D01*
X14522538Y-16957224D02*
X14541586Y-16966748D01*
X14541586Y-16966748D02*
X14551110Y-16976271D01*
X14551110Y-16976271D02*
X14560633Y-16995319D01*
X14560633Y-16995319D02*
X14570157Y-17033414D01*
X14570157Y-17033414D02*
X14570157Y-17081033D01*
X14570157Y-17081033D02*
X14560633Y-17119129D01*
X14560633Y-17119129D02*
X14551110Y-17138176D01*
X14551110Y-17138176D02*
X14541586Y-17147700D01*
X14541586Y-17147700D02*
X14522538Y-17157224D01*
X14522538Y-17157224D02*
X14503491Y-17157224D01*
X14503491Y-17157224D02*
X14484443Y-17147700D01*
X14484443Y-17147700D02*
X14474919Y-17138176D01*
X14474919Y-17138176D02*
X14465395Y-17119129D01*
X14465395Y-17119129D02*
X14455872Y-17081033D01*
X14455872Y-17081033D02*
X14455872Y-17033414D01*
X14455872Y-17033414D02*
X14465395Y-16995319D01*
X14465395Y-16995319D02*
X14474919Y-16976271D01*
X14474919Y-16976271D02*
X14484443Y-16966748D01*
X14484443Y-16966748D02*
X14503491Y-16957224D01*
X14665395Y-17157224D02*
X14703491Y-17157224D01*
X14703491Y-17157224D02*
X14722538Y-17147700D01*
X14722538Y-17147700D02*
X14732062Y-17138176D01*
X14732062Y-17138176D02*
X14751110Y-17109605D01*
X14751110Y-17109605D02*
X14760633Y-17071510D01*
X14760633Y-17071510D02*
X14760633Y-16995319D01*
X14760633Y-16995319D02*
X14751110Y-16976271D01*
X14751110Y-16976271D02*
X14741586Y-16966748D01*
X14741586Y-16966748D02*
X14722538Y-16957224D01*
X14722538Y-16957224D02*
X14684443Y-16957224D01*
X14684443Y-16957224D02*
X14665395Y-16966748D01*
X14665395Y-16966748D02*
X14655872Y-16976271D01*
X14655872Y-16976271D02*
X14646348Y-16995319D01*
X14646348Y-16995319D02*
X14646348Y-17042938D01*
X14646348Y-17042938D02*
X14655872Y-17061986D01*
X14655872Y-17061986D02*
X14665395Y-17071510D01*
X14665395Y-17071510D02*
X14684443Y-17081033D01*
X14684443Y-17081033D02*
X14722538Y-17081033D01*
X14722538Y-17081033D02*
X14741586Y-17071510D01*
X14741586Y-17071510D02*
X14751110Y-17061986D01*
X14751110Y-17061986D02*
X14760633Y-17042938D01*
X14874919Y-17042938D02*
X14855872Y-17033414D01*
X14855872Y-17033414D02*
X14846348Y-17023890D01*
X14846348Y-17023890D02*
X14836824Y-17004843D01*
X14836824Y-17004843D02*
X14836824Y-16995319D01*
X14836824Y-16995319D02*
X14846348Y-16976271D01*
X14846348Y-16976271D02*
X14855872Y-16966748D01*
X14855872Y-16966748D02*
X14874919Y-16957224D01*
X14874919Y-16957224D02*
X14913014Y-16957224D01*
X14913014Y-16957224D02*
X14932062Y-16966748D01*
X14932062Y-16966748D02*
X14941586Y-16976271D01*
X14941586Y-16976271D02*
X14951110Y-16995319D01*
X14951110Y-16995319D02*
X14951110Y-17004843D01*
X14951110Y-17004843D02*
X14941586Y-17023890D01*
X14941586Y-17023890D02*
X14932062Y-17033414D01*
X14932062Y-17033414D02*
X14913014Y-17042938D01*
X14913014Y-17042938D02*
X14874919Y-17042938D01*
X14874919Y-17042938D02*
X14855872Y-17052462D01*
X14855872Y-17052462D02*
X14846348Y-17061986D01*
X14846348Y-17061986D02*
X14836824Y-17081033D01*
X14836824Y-17081033D02*
X14836824Y-17119129D01*
X14836824Y-17119129D02*
X14846348Y-17138176D01*
X14846348Y-17138176D02*
X14855872Y-17147700D01*
X14855872Y-17147700D02*
X14874919Y-17157224D01*
X14874919Y-17157224D02*
X14913014Y-17157224D01*
X14913014Y-17157224D02*
X14932062Y-17147700D01*
X14932062Y-17147700D02*
X14941586Y-17138176D01*
X14941586Y-17138176D02*
X14951110Y-17119129D01*
X14951110Y-17119129D02*
X14951110Y-17081033D01*
X14951110Y-17081033D02*
X14941586Y-17061986D01*
X14941586Y-17061986D02*
X14932062Y-17052462D01*
X14932062Y-17052462D02*
X14913014Y-17042938D01*
X15122538Y-17023890D02*
X15122538Y-17157224D01*
X15074919Y-16947700D02*
X15027300Y-17090557D01*
X15027300Y-17090557D02*
X15151110Y-17090557D01*
X15217776Y-16957224D02*
X15217776Y-16995319D01*
X15293967Y-16957224D02*
X15293967Y-16995319D01*
X15589205Y-17233414D02*
X15579681Y-17223890D01*
X15579681Y-17223890D02*
X15560634Y-17195319D01*
X15560634Y-17195319D02*
X15551110Y-17176271D01*
X15551110Y-17176271D02*
X15541586Y-17147700D01*
X15541586Y-17147700D02*
X15532062Y-17100081D01*
X15532062Y-17100081D02*
X15532062Y-17061986D01*
X15532062Y-17061986D02*
X15541586Y-17014367D01*
X15541586Y-17014367D02*
X15551110Y-16985795D01*
X15551110Y-16985795D02*
X15560634Y-16966748D01*
X15560634Y-16966748D02*
X15579681Y-16938176D01*
X15579681Y-16938176D02*
X15589205Y-16928652D01*
X15751110Y-17023890D02*
X15751110Y-17157224D01*
X15703491Y-16947700D02*
X15655872Y-17090557D01*
X15655872Y-17090557D02*
X15779681Y-17090557D01*
X16008253Y-17157224D02*
X16008253Y-16957224D01*
X16093967Y-17157224D02*
X16093967Y-17052462D01*
X16093967Y-17052462D02*
X16084443Y-17033414D01*
X16084443Y-17033414D02*
X16065396Y-17023890D01*
X16065396Y-17023890D02*
X16036824Y-17023890D01*
X16036824Y-17023890D02*
X16017776Y-17033414D01*
X16017776Y-17033414D02*
X16008253Y-17042938D01*
X16217776Y-17157224D02*
X16198729Y-17147700D01*
X16198729Y-17147700D02*
X16189205Y-17138176D01*
X16189205Y-17138176D02*
X16179681Y-17119129D01*
X16179681Y-17119129D02*
X16179681Y-17061986D01*
X16179681Y-17061986D02*
X16189205Y-17042938D01*
X16189205Y-17042938D02*
X16198729Y-17033414D01*
X16198729Y-17033414D02*
X16217776Y-17023890D01*
X16217776Y-17023890D02*
X16246348Y-17023890D01*
X16246348Y-17023890D02*
X16265396Y-17033414D01*
X16265396Y-17033414D02*
X16274919Y-17042938D01*
X16274919Y-17042938D02*
X16284443Y-17061986D01*
X16284443Y-17061986D02*
X16284443Y-17119129D01*
X16284443Y-17119129D02*
X16274919Y-17138176D01*
X16274919Y-17138176D02*
X16265396Y-17147700D01*
X16265396Y-17147700D02*
X16246348Y-17157224D01*
X16246348Y-17157224D02*
X16217776Y-17157224D01*
X16398729Y-17157224D02*
X16379681Y-17147700D01*
X16379681Y-17147700D02*
X16370157Y-17128652D01*
X16370157Y-17128652D02*
X16370157Y-16957224D01*
X16551110Y-17147700D02*
X16532062Y-17157224D01*
X16532062Y-17157224D02*
X16493967Y-17157224D01*
X16493967Y-17157224D02*
X16474919Y-17147700D01*
X16474919Y-17147700D02*
X16465396Y-17128652D01*
X16465396Y-17128652D02*
X16465396Y-17052462D01*
X16465396Y-17052462D02*
X16474919Y-17033414D01*
X16474919Y-17033414D02*
X16493967Y-17023890D01*
X16493967Y-17023890D02*
X16532062Y-17023890D01*
X16532062Y-17023890D02*
X16551110Y-17033414D01*
X16551110Y-17033414D02*
X16560634Y-17052462D01*
X16560634Y-17052462D02*
X16560634Y-17071510D01*
X16560634Y-17071510D02*
X16465396Y-17090557D01*
X16636824Y-17147700D02*
X16655872Y-17157224D01*
X16655872Y-17157224D02*
X16693967Y-17157224D01*
X16693967Y-17157224D02*
X16713015Y-17147700D01*
X16713015Y-17147700D02*
X16722538Y-17128652D01*
X16722538Y-17128652D02*
X16722538Y-17119129D01*
X16722538Y-17119129D02*
X16713015Y-17100081D01*
X16713015Y-17100081D02*
X16693967Y-17090557D01*
X16693967Y-17090557D02*
X16665396Y-17090557D01*
X16665396Y-17090557D02*
X16646348Y-17081033D01*
X16646348Y-17081033D02*
X16636824Y-17061986D01*
X16636824Y-17061986D02*
X16636824Y-17052462D01*
X16636824Y-17052462D02*
X16646348Y-17033414D01*
X16646348Y-17033414D02*
X16665396Y-17023890D01*
X16665396Y-17023890D02*
X16693967Y-17023890D01*
X16693967Y-17023890D02*
X16713015Y-17033414D01*
X16789205Y-17233414D02*
X16798729Y-17223890D01*
X16798729Y-17223890D02*
X16817777Y-17195319D01*
X16817777Y-17195319D02*
X16827300Y-17176271D01*
X16827300Y-17176271D02*
X16836824Y-17147700D01*
X16836824Y-17147700D02*
X16846348Y-17100081D01*
X16846348Y-17100081D02*
X16846348Y-17061986D01*
X16846348Y-17061986D02*
X16836824Y-17014367D01*
X16836824Y-17014367D02*
X16827300Y-16985795D01*
X16827300Y-16985795D02*
X16817777Y-16966748D01*
X16817777Y-16966748D02*
X16798729Y-16938176D01*
X16798729Y-16938176D02*
X16789205Y-16928652D01*
M02*
