M48
; DRILL file {KiCad 7.0.1} date Tue Sep 19 14:52:31 2023
; FORMAT={-:-/ absolute / metric / decimal}
; #@! TF.CreationDate,2023-09-19T14:52:31+09:00
; #@! TF.GenerationSoftware,Kicad,Pcbnew,7.0.1
; #@! TF.FileFunction,Plated,1,2,PTH
FMAT,2
METRIC
; #@! TA.AperFunction,Plated,PTH,ViaDrill
T1C0.400
; #@! TA.AperFunction,Plated,PTH,ComponentDrill
T2C0.500
; #@! TA.AperFunction,Plated,PTH,ViaDrill
T3C0.600
; #@! TA.AperFunction,Plated,PTH,ComponentDrill
T4C0.600
; #@! TA.AperFunction,Plated,PTH,ComponentDrill
T5C0.750
; #@! TA.AperFunction,Plated,PTH,ComponentDrill
T6C0.900
; #@! TA.AperFunction,Plated,PTH,ComponentDrill
T7C1.000
; #@! TA.AperFunction,Plated,PTH,ComponentDrill
T8C1.300
; #@! TA.AperFunction,Plated,PTH,ComponentDrill
T9C2.500
%
G90
G05
T1
X125.2Y-95.1
X127.258Y-99.312
X128.2Y-92.3
X129.6Y-125.3
X130.8Y-119.0
X130.9Y-108.2
X132.6Y-120.9
X134.0Y-127.883
X134.892Y-125.6
X136.698Y-84.0
X136.9Y-120.9
X140.15Y-134.75
X140.9Y-129.5
X141.0Y-131.0
X141.9Y-133.25
X143.0Y-131.0
X143.4Y-133.5
X144.4Y-133.0
X144.9Y-127.0
X145.0Y-121.9
X146.6Y-124.331
X147.2Y-112.6
X149.9Y-76.5
X150.4Y-116.25
X150.4Y-117.0
X150.608Y-77.6
X155.448Y-107.188
X159.5Y-102.9
T2
X122.525Y-68.5
X122.525Y-139.0
X123.074Y-67.174
X123.074Y-69.826
X123.074Y-137.674
X123.074Y-140.326
X124.4Y-66.625
X124.4Y-70.375
X124.4Y-137.125
X124.4Y-140.875
X125.726Y-67.174
X125.726Y-69.826
X125.726Y-137.674
X125.726Y-140.326
X126.275Y-68.5
X126.275Y-139.0
X159.025Y-68.5
X159.025Y-139.0
X159.574Y-67.174
X159.574Y-69.826
X159.574Y-137.674
X159.574Y-140.326
X160.9Y-66.625
X160.9Y-70.375
X160.9Y-137.125
X160.9Y-140.875
X162.226Y-67.174
X162.226Y-69.826
X162.226Y-137.674
X162.226Y-140.326
X162.775Y-68.5
X162.775Y-139.0
T3
X132.715Y-76.2
X132.715Y-118.364
X132.842Y-103.251
X133.223Y-77.978
X133.223Y-80.899
X134.487Y-106.92
X134.938Y-110.363
X135.128Y-113.196
X135.255Y-118.364
X136.517Y-92.832
X136.525Y-72.009
X136.525Y-73.787
X136.525Y-75.057
X136.525Y-77.597
X136.525Y-80.137
X136.525Y-90.297
X136.525Y-91.567
X136.525Y-116.459
X136.652Y-103.251
X137.541Y-107.823
X137.668Y-116.459
X137.81Y-85.852
X137.81Y-87.107
X137.81Y-88.504
X138.43Y-104.521
X139.065Y-72.009
X139.7Y-96.139
X140.335Y-73.025
X141.605Y-72.009
X141.605Y-74.295
X141.605Y-97.663
X142.232Y-105.783
X142.289Y-104.472
X142.301Y-85.683
X142.621Y-97.663
X142.748Y-103.198
X142.875Y-73.025
X142.875Y-75.565
X143.51Y-83.82
X143.51Y-86.995
X143.51Y-93.218
X143.51Y-94.488
X144.018Y-101.61
X144.018Y-103.124
X144.145Y-72.009
X144.145Y-74.295
X144.399Y-97.536
X144.399Y-107.823
X144.399Y-108.966
X144.399Y-110.236
X144.448Y-104.472
X144.78Y-85.725
X144.78Y-94.996
X145.288Y-105.791
X145.415Y-73.025
X145.415Y-75.565
X145.669Y-107.823
X145.669Y-108.966
X145.923Y-103.505
X146.05Y-76.835
X146.05Y-79.375
X146.05Y-81.915
X146.05Y-83.82
X146.05Y-86.995
X146.05Y-95.25
X146.558Y-72.009
X146.558Y-74.295
X147.193Y-97.663
X147.32Y-75.565
X147.32Y-78.105
X147.32Y-80.645
X147.32Y-83.185
X147.32Y-85.725
X147.955Y-100.584
X148.59Y-76.835
X148.59Y-79.375
X148.59Y-81.915
X149.098Y-99.441
X149.987Y-96.774
X150.114Y-85.09
X150.241Y-113.538
X150.495Y-72.009
X150.495Y-90.297
X151.638Y-110.109
X151.922Y-106.142
X152.146Y-103.759
T4
X140.71Y-78.222
X140.71Y-80.022
X140.71Y-81.822
X142.51Y-78.222
X142.51Y-81.822
X144.31Y-78.222
X144.31Y-80.022
X144.31Y-81.822
T5
X152.7Y-117.0
X152.7Y-119.0
T6
X139.65Y-120.5
X139.65Y-123.0
X139.65Y-125.5
X145.65Y-120.5
X145.65Y-123.0
X145.65Y-125.5
T7
X122.9Y-83.4
X122.9Y-85.94
X122.9Y-88.48
X122.9Y-91.02
X122.9Y-93.56
X122.9Y-96.1
X122.9Y-98.64
T8
X142.51Y-80.022
T9
X124.4Y-68.5
X124.4Y-139.0
X160.9Y-68.5
X160.9Y-139.0
T4
X138.33Y-136.825G85X138.33Y-137.925
G05
X138.33Y-141.175G85X138.33Y-141.975
G05
X146.97Y-136.825G85X146.97Y-137.925
G05
X146.97Y-141.175G85X146.97Y-141.975
G05
T0
M30
