G04 #@! TF.GenerationSoftware,KiCad,Pcbnew,7.0.1*
G04 #@! TF.CreationDate,2023-09-19T14:51:07+09:00*
G04 #@! TF.ProjectId,ESP32-DevKit-Lipo_Rev_C,45535033-322d-4446-9576-4b69742d4c69,C*
G04 #@! TF.SameCoordinates,Original*
G04 #@! TF.FileFunction,Paste,Bot*
G04 #@! TF.FilePolarity,Positive*
%FSLAX46Y46*%
G04 Gerber Fmt 4.6, Leading zero omitted, Abs format (unit mm)*
G04 Created by KiCad (PCBNEW 7.0.1) date 2023-09-19 14:51:07*
%MOMM*%
%LPD*%
G01*
G04 APERTURE LIST*
G04 #@! TA.AperFunction,Profile*
%ADD10C,0.254000*%
G04 #@! TD*
G04 APERTURE END LIST*
D10*
X163900000Y-121500000D02*
X161650000Y-121500000D01*
X159150000Y-117000000D02*
X159150000Y-119000000D01*
X161650000Y-114500000D02*
G75*
G03*
X159150000Y-117000000I0J-2500000D01*
G01*
X151900000Y-135000000D02*
G75*
G03*
X149400000Y-137500000I0J-2500000D01*
G01*
X155400000Y-137500000D02*
G75*
G03*
X152900000Y-135000000I-2500000J0D01*
G01*
X159150000Y-119000000D02*
G75*
G03*
X161650000Y-121500000I2500000J0D01*
G01*
X164900000Y-122500000D02*
G75*
G03*
X163900000Y-121500000I-1000000J0D01*
G01*
X148400000Y-143000000D02*
G75*
G03*
X149400000Y-142000000I0J1000000D01*
G01*
X155400000Y-142000000D02*
X155400000Y-137500000D01*
X120400000Y-68500000D02*
X120400000Y-139000000D01*
X163900000Y-114500000D02*
X161650000Y-114500000D01*
X124400000Y-64500000D02*
G75*
G03*
X120400000Y-68500000I0J-4000000D01*
G01*
X160900000Y-64500000D02*
X124400000Y-64500000D01*
X152900000Y-135000000D02*
X151900000Y-135000000D01*
X164900000Y-68500000D02*
X164900000Y-113500000D01*
X164900000Y-68500000D02*
G75*
G03*
X160900000Y-64500000I-4000000J0D01*
G01*
X120400000Y-139000000D02*
G75*
G03*
X124400000Y-143000000I4000000J0D01*
G01*
X149400000Y-137500000D02*
X149400000Y-142000000D01*
X155400000Y-142000000D02*
G75*
G03*
X156400000Y-143000000I1000000J0D01*
G01*
X163900000Y-114500000D02*
G75*
G03*
X164900000Y-113500000I0J1000000D01*
G01*
X160900000Y-143000000D02*
X156400000Y-143000000D01*
X164900000Y-139000000D02*
X164900000Y-122500000D01*
X148400000Y-143000000D02*
X124400000Y-143000000D01*
X160900000Y-143000000D02*
G75*
G03*
X164900000Y-139000000I0J4000000D01*
G01*
M02*
