G04 #@! TF.GenerationSoftware,KiCad,Pcbnew,7.0.1*
G04 #@! TF.CreationDate,2023-09-19T14:51:07+09:00*
G04 #@! TF.ProjectId,ESP32-DevKit-Lipo_Rev_C,45535033-322d-4446-9576-4b69742d4c69,C*
G04 #@! TF.SameCoordinates,Original*
G04 #@! TF.FileFunction,Copper,L2,Bot*
G04 #@! TF.FilePolarity,Positive*
%FSLAX46Y46*%
G04 Gerber Fmt 4.6, Leading zero omitted, Abs format (unit mm)*
G04 Created by KiCad (PCBNEW 7.0.1) date 2023-09-19 14:51:07*
%MOMM*%
%LPD*%
G01*
G04 APERTURE LIST*
G04 Aperture macros list*
%AMRoundRect*
0 Rectangle with rounded corners*
0 $1 Rounding radius*
0 $2 $3 $4 $5 $6 $7 $8 $9 X,Y pos of 4 corners*
0 Add a 4 corners polygon primitive as box body*
4,1,4,$2,$3,$4,$5,$6,$7,$8,$9,$2,$3,0*
0 Add four circle primitives for the rounded corners*
1,1,$1+$1,$2,$3*
1,1,$1+$1,$4,$5*
1,1,$1+$1,$6,$7*
1,1,$1+$1,$8,$9*
0 Add four rect primitives between the rounded corners*
20,1,$1+$1,$2,$3,$4,$5,0*
20,1,$1+$1,$4,$5,$6,$7,0*
20,1,$1+$1,$6,$7,$8,$9,0*
20,1,$1+$1,$8,$9,$2,$3,0*%
G04 Aperture macros list end*
G04 #@! TA.AperFunction,ComponentPad*
%ADD10C,1.300000*%
G04 #@! TD*
G04 #@! TA.AperFunction,ComponentPad*
%ADD11C,2.000000*%
G04 #@! TD*
G04 #@! TA.AperFunction,ComponentPad*
%ADD12RoundRect,0.250000X0.625000X-0.350000X0.625000X0.350000X-0.625000X0.350000X-0.625000X-0.350000X0*%
G04 #@! TD*
G04 #@! TA.AperFunction,ComponentPad*
%ADD13O,1.750000X1.200000*%
G04 #@! TD*
G04 #@! TA.AperFunction,ComponentPad*
%ADD14C,0.800000*%
G04 #@! TD*
G04 #@! TA.AperFunction,ComponentPad*
%ADD15C,5.000000*%
G04 #@! TD*
G04 #@! TA.AperFunction,WasherPad*
%ADD16C,4.000000*%
G04 #@! TD*
G04 #@! TA.AperFunction,ComponentPad*
%ADD17R,1.524000X1.524000*%
G04 #@! TD*
G04 #@! TA.AperFunction,ComponentPad*
%ADD18C,1.524000*%
G04 #@! TD*
G04 #@! TA.AperFunction,ComponentPad*
%ADD19R,1.700000X1.700000*%
G04 #@! TD*
G04 #@! TA.AperFunction,ComponentPad*
%ADD20O,1.700000X1.700000*%
G04 #@! TD*
G04 #@! TA.AperFunction,ComponentPad*
%ADD21O,1.000000X2.100000*%
G04 #@! TD*
G04 #@! TA.AperFunction,ComponentPad*
%ADD22O,1.000000X1.800000*%
G04 #@! TD*
G04 #@! TA.AperFunction,SMDPad,CuDef*
%ADD23C,1.000000*%
G04 #@! TD*
G04 #@! TA.AperFunction,ViaPad*
%ADD24C,1.000000*%
G04 #@! TD*
G04 #@! TA.AperFunction,ViaPad*
%ADD25C,0.700000*%
G04 #@! TD*
G04 #@! TA.AperFunction,Conductor*
%ADD26C,0.762000*%
G04 #@! TD*
G04 #@! TA.AperFunction,Conductor*
%ADD27C,0.254000*%
G04 #@! TD*
G04 #@! TA.AperFunction,Conductor*
%ADD28C,1.016000*%
G04 #@! TD*
G04 #@! TA.AperFunction,Conductor*
%ADD29C,0.203200*%
G04 #@! TD*
G04 #@! TA.AperFunction,Conductor*
%ADD30C,0.508000*%
G04 #@! TD*
G04 #@! TA.AperFunction,Profile*
%ADD31C,0.254000*%
G04 #@! TD*
G04 APERTURE END LIST*
D10*
X140710000Y-78222000D03*
X140710000Y-80022000D03*
X140710000Y-81822000D03*
X142510000Y-78222000D03*
D11*
X142510000Y-80022000D03*
D10*
X142510000Y-81822000D03*
X144310000Y-78222000D03*
X144310000Y-80022000D03*
X144310000Y-81822000D03*
D12*
X152700000Y-119000000D03*
D13*
X152700000Y-117000000D03*
D14*
X159025000Y-68500000D03*
X159574175Y-67174175D03*
X159574175Y-69825825D03*
X160900000Y-66625000D03*
D15*
X160900000Y-68500000D03*
D14*
X160900000Y-70375000D03*
X162225825Y-67174175D03*
X162225825Y-69825825D03*
X162775000Y-68500000D03*
D16*
X122900000Y-75000000D03*
X122900000Y-106900000D03*
X162400000Y-75000000D03*
X162400000Y-106900000D03*
D14*
X159025000Y-139000000D03*
X159574175Y-137674175D03*
X159574175Y-140325825D03*
X160900000Y-137125000D03*
D15*
X160900000Y-139000000D03*
D14*
X160900000Y-140875000D03*
X162225825Y-137674175D03*
X162225825Y-140325825D03*
X162775000Y-139000000D03*
D17*
X145650000Y-120500000D03*
D18*
X145650000Y-123000000D03*
X145650000Y-125500000D03*
X139650000Y-120500000D03*
X139650000Y-123000000D03*
X139650000Y-125500000D03*
D14*
X122525000Y-139000000D03*
X123074175Y-137674175D03*
X123074175Y-140325825D03*
X124400000Y-137125000D03*
D15*
X124400000Y-139000000D03*
D14*
X124400000Y-140875000D03*
X125725825Y-137674175D03*
X125725825Y-140325825D03*
X126275000Y-139000000D03*
D19*
X122900000Y-83400000D03*
D20*
X122900000Y-85940000D03*
X122900000Y-88480000D03*
X122900000Y-91020000D03*
X122900000Y-93560000D03*
X122900000Y-96100000D03*
X122900000Y-98640000D03*
D14*
X122525000Y-68500000D03*
X123074175Y-67174175D03*
X123074175Y-69825825D03*
X124400000Y-66625000D03*
D15*
X124400000Y-68500000D03*
D14*
X124400000Y-70375000D03*
X125725825Y-67174175D03*
X125725825Y-69825825D03*
X126275000Y-68500000D03*
D21*
X138330000Y-137375000D03*
D22*
X138330000Y-141575000D03*
D21*
X146970000Y-137375000D03*
D22*
X146970000Y-141575000D03*
D23*
X154900000Y-118000000D03*
D24*
X137668000Y-116459000D03*
X136525000Y-116459000D03*
X132715000Y-76200000D03*
X150241000Y-113538000D03*
X149098000Y-99441000D03*
X132715000Y-118364000D03*
X135255000Y-118364000D03*
X144399000Y-108966000D03*
X145669000Y-108966000D03*
X132842000Y-103251000D03*
X137810000Y-85852000D03*
X144145000Y-72009000D03*
X141605000Y-72009000D03*
X139065000Y-72009000D03*
X136525000Y-72009000D03*
X140335000Y-73025000D03*
X142875000Y-73025000D03*
X145415000Y-73025000D03*
X146558000Y-74295000D03*
X144145000Y-74295000D03*
X141605000Y-74295000D03*
X142875000Y-75565000D03*
X145415000Y-75565000D03*
X149987000Y-96774000D03*
X147320000Y-85725000D03*
X144780000Y-85725000D03*
X147320000Y-78105000D03*
X147320000Y-83185000D03*
X148590000Y-76835000D03*
X147320000Y-75565000D03*
X147320000Y-80645000D03*
X148590000Y-79375000D03*
X148590000Y-81915000D03*
X146050000Y-79375000D03*
X146050000Y-81915000D03*
X146050000Y-76835000D03*
X146050000Y-83820000D03*
X146050000Y-86995000D03*
X143510000Y-86995000D03*
X143510000Y-83820000D03*
X143510000Y-93218000D03*
X144399000Y-97536000D03*
X144399000Y-107823000D03*
X145669000Y-107823000D03*
X137541000Y-107823000D03*
X147955000Y-100584000D03*
X150114000Y-85090000D03*
X146558000Y-72009000D03*
X142289488Y-104471512D03*
X137810000Y-87107000D03*
X147193000Y-97663000D03*
X144018000Y-103123996D03*
X145923000Y-103505000D03*
X150495000Y-72009000D03*
X142301243Y-85683306D03*
D25*
X147200000Y-112600000D03*
D24*
X136652000Y-103251000D03*
X144018000Y-101610160D03*
X137810000Y-88504000D03*
X144448488Y-104471512D03*
X134937500Y-110363000D03*
X136525000Y-90297000D03*
X142621000Y-97663000D03*
X141605000Y-97663000D03*
D25*
X134892000Y-125600000D03*
D24*
X136525000Y-73787000D03*
X139700000Y-96139000D03*
X135128000Y-113195989D03*
X144399000Y-110236000D03*
X142748000Y-103198048D03*
X136525000Y-75057000D03*
D25*
X140150000Y-134750000D03*
X134000000Y-127883458D03*
D24*
X145288008Y-105791000D03*
D25*
X144400000Y-133000000D03*
X140900000Y-129500000D03*
D24*
X134486989Y-106920351D03*
X151638000Y-110109000D03*
X151921689Y-106142311D03*
X136525000Y-91567000D03*
D25*
X127258000Y-99312000D03*
X136698500Y-84000000D03*
D24*
X133223000Y-80899000D03*
X136525000Y-80137000D03*
D25*
X132600000Y-120900000D03*
X130800000Y-119000000D03*
X125200000Y-95100000D03*
X159500000Y-102900000D03*
X136900000Y-120900000D03*
X129600000Y-125300000D03*
X144900000Y-127000000D03*
X128200000Y-92300000D03*
X146600000Y-124330500D03*
X130900000Y-108200000D03*
X145000000Y-121900000D03*
D24*
X150495000Y-90297000D03*
D25*
X155448000Y-107188000D03*
X143000000Y-131000000D03*
X143400000Y-133500000D03*
X141000000Y-131000000D03*
X141900000Y-133250000D03*
X150400000Y-117000000D03*
D24*
X143510000Y-94488000D03*
D25*
X150400000Y-116250000D03*
D24*
X152146000Y-103759020D03*
D25*
X150608500Y-77600000D03*
D24*
X146050000Y-95250000D03*
X138430000Y-104521000D03*
X142232010Y-105783010D03*
X144780000Y-94996000D03*
D25*
X149900000Y-76500000D03*
D24*
X133223000Y-77978000D03*
X136525000Y-77597000D03*
X136517042Y-92832000D03*
D26*
X137033000Y-116459000D02*
X136906000Y-116459000D01*
X149098000Y-99441000D02*
X149098000Y-98806000D01*
D27*
X135636000Y-75819000D02*
X135636000Y-73406000D01*
X144272000Y-96647000D02*
X147574000Y-96647000D01*
D26*
X139400000Y-117600000D02*
X147000000Y-117600000D01*
D27*
X139573000Y-75311000D02*
X139573000Y-84201000D01*
D26*
X150241000Y-112268000D02*
X149098000Y-111125000D01*
D27*
X135636000Y-73406000D02*
X136144000Y-72898000D01*
D26*
X149098000Y-100148106D02*
X149098000Y-99441000D01*
X150241000Y-113538000D02*
X150241000Y-112268000D01*
D27*
X139573000Y-84201000D02*
X142367000Y-86995000D01*
D28*
X137668000Y-116459000D02*
X136525000Y-116459000D01*
D26*
X138167999Y-116367999D02*
X139400000Y-117600000D01*
X138167999Y-116367999D02*
X138076998Y-116459000D01*
X149098000Y-111125000D02*
X149098000Y-100148106D01*
X137668000Y-116459000D02*
X137795000Y-116332000D01*
D27*
X132715000Y-76200000D02*
X135255000Y-76200000D01*
X136144000Y-72898000D02*
X137160000Y-72898000D01*
X149098000Y-98171000D02*
X149098000Y-98425000D01*
D26*
X138076998Y-116459000D02*
X136525000Y-116459000D01*
D27*
X142367000Y-86995000D02*
X142367000Y-94742000D01*
X148844000Y-98552000D02*
X149098000Y-98806000D01*
X148844000Y-97917000D02*
X149098000Y-98171000D01*
D26*
X148209000Y-114947764D02*
X149618764Y-113538000D01*
D27*
X147574000Y-96647000D02*
X148844000Y-97917000D01*
X148844000Y-97917000D02*
X148844000Y-98552000D01*
D26*
X149098000Y-98806000D02*
X149098000Y-98425000D01*
X136906000Y-116459000D02*
X136525000Y-116459000D01*
D27*
X135255000Y-76200000D02*
X135636000Y-75819000D01*
D26*
X148209000Y-116391000D02*
X148209000Y-114947764D01*
X149618764Y-113538000D02*
X150241000Y-113538000D01*
X147000000Y-117600000D02*
X148209000Y-116391000D01*
D27*
X142367000Y-94742000D02*
X144272000Y-96647000D01*
X137160000Y-72898000D02*
X139573000Y-75311000D01*
D28*
X145669000Y-107823000D02*
X147066000Y-107823000D01*
X144399000Y-107823000D02*
X145669000Y-107823000D01*
X138430000Y-101251236D02*
X138430000Y-100838000D01*
X147320000Y-78105000D02*
X147320000Y-80645000D01*
X144145000Y-72009000D02*
X144145000Y-74295000D01*
X147193000Y-102235000D02*
X147193000Y-101981000D01*
X137795000Y-118364000D02*
X132715000Y-118364000D01*
X138430000Y-100838000D02*
X138430000Y-100965000D01*
X144018000Y-104394000D02*
X144095512Y-104471512D01*
X138430000Y-100965000D02*
X138430000Y-102108000D01*
X145923000Y-103505000D02*
X144399000Y-103505000D01*
X144399000Y-97536000D02*
X147193000Y-97536000D01*
X137477500Y-107823000D02*
X137541000Y-107823000D01*
X147193000Y-108966000D02*
X147193000Y-107696000D01*
X146988488Y-104471512D02*
X147193000Y-104267000D01*
X136525000Y-90297000D02*
X137795000Y-90297000D01*
X132842000Y-103378000D02*
X132842000Y-103251000D01*
X144018000Y-103123996D02*
X144018000Y-103124000D01*
X138430000Y-102108000D02*
X138430000Y-102997000D01*
D26*
X133858039Y-97898885D02*
X133349980Y-98406944D01*
D28*
X147320000Y-78105000D02*
X147320000Y-75565000D01*
X145415000Y-73025000D02*
X145415000Y-75565000D01*
X147193000Y-111125000D02*
X147200000Y-112600000D01*
X147193000Y-100584000D02*
X147193000Y-97536000D01*
X147320000Y-83185000D02*
X147320000Y-85725000D01*
X142875000Y-73025000D02*
X142875000Y-75565000D01*
X146050000Y-76200000D02*
X145415000Y-75565000D01*
X144018000Y-103124000D02*
X144018000Y-104394000D01*
X140429764Y-103251000D02*
X141650276Y-104471512D01*
X146050000Y-81915000D02*
X146050000Y-84455000D01*
X147193000Y-107696000D02*
X147193000Y-105537000D01*
X145923000Y-103505000D02*
X144956488Y-104471512D01*
X148590000Y-79375000D02*
X148590000Y-81915000D01*
D26*
X133349979Y-100203021D02*
X132842000Y-100711000D01*
D28*
X146050000Y-76835000D02*
X146050000Y-76200000D01*
X148590000Y-76835000D02*
X148590000Y-79375000D01*
X146127512Y-104471512D02*
X146988488Y-104471512D01*
X143510000Y-92964000D02*
X143510000Y-86995000D01*
X145923000Y-103505000D02*
X147193000Y-102235000D01*
X142289488Y-104471512D02*
X144095512Y-104471512D01*
X133858000Y-113792000D02*
X133858000Y-111442500D01*
X144956488Y-104471512D02*
X144448488Y-104471512D01*
X137287000Y-103251000D02*
X137160000Y-103251000D01*
X138430000Y-101473000D02*
X138430000Y-100965000D01*
X139700000Y-103251000D02*
X140429764Y-103251000D01*
X150495000Y-72009000D02*
X148336000Y-72009000D01*
X148590000Y-72263000D02*
X148336000Y-72009000D01*
D26*
X133349980Y-98406944D02*
X133349979Y-100203021D01*
D28*
X137810000Y-85852000D02*
X137810000Y-90282000D01*
X146050000Y-76835000D02*
X146050000Y-79375000D01*
X147193000Y-103378000D02*
X147193000Y-102743000D01*
X144956488Y-104471512D02*
X146127512Y-104471512D01*
X144095512Y-104471512D02*
X144448488Y-104471512D01*
X145669000Y-108966000D02*
X147193000Y-108966000D01*
X138430000Y-102997000D02*
X138176000Y-103251000D01*
X136652000Y-103251000D02*
X138430000Y-101473000D01*
X141650276Y-104471512D02*
X142289488Y-104471512D01*
X147066000Y-103505000D02*
X147193000Y-103378000D01*
D26*
X132842000Y-100711000D02*
X132842000Y-101915646D01*
D28*
X147193000Y-102743000D02*
X147193000Y-101981000D01*
X145923000Y-103505000D02*
X147066000Y-103505000D01*
D26*
X132842000Y-101915646D02*
X132842000Y-103378000D01*
D28*
X147200000Y-112600000D02*
X147193000Y-112477000D01*
X140429764Y-103251000D02*
X138430000Y-101251236D01*
D26*
X134873996Y-93791356D02*
X133858039Y-94807313D01*
D28*
X136652000Y-103251000D02*
X137160000Y-103251000D01*
D26*
X134873996Y-91567005D02*
X134873996Y-93791356D01*
D28*
X137160000Y-103251000D02*
X138176000Y-103251000D01*
X147193000Y-112394000D02*
X147193000Y-111125000D01*
X137795000Y-90297000D02*
X137810000Y-90282000D01*
X147066000Y-107823000D02*
X147193000Y-107696000D01*
X146050000Y-84455000D02*
X146050000Y-86995000D01*
X147193000Y-100584000D02*
X147955000Y-100584000D01*
X136367001Y-114457999D02*
X134523999Y-114457999D01*
X144018000Y-101727000D02*
X144018000Y-103123996D01*
D26*
X133858039Y-94807313D02*
X133858039Y-97898885D01*
D28*
X147193000Y-111125000D02*
X147193000Y-108966000D01*
X144399000Y-108966000D02*
X144399000Y-107823000D01*
X147193000Y-104267000D02*
X147193000Y-103378000D01*
X144399000Y-103505000D02*
X144018000Y-103124000D01*
X145669000Y-108966000D02*
X145669000Y-107823000D01*
X144399000Y-108966000D02*
X145669000Y-108966000D01*
D26*
X136525000Y-90297000D02*
X136144001Y-90297000D01*
D28*
X138430000Y-90932000D02*
X138430000Y-100838000D01*
X147193000Y-101981000D02*
X147193000Y-100584000D01*
X138176000Y-103251000D02*
X139700000Y-103251000D01*
X134523999Y-114457999D02*
X133858000Y-113792000D01*
X138430000Y-102108000D02*
X137287000Y-103251000D01*
X133858000Y-111442500D02*
X134937500Y-110363000D01*
X147320000Y-80645000D02*
X147320000Y-83185000D01*
X148590000Y-76835000D02*
X148590000Y-72263000D01*
X134937500Y-110363000D02*
X137477500Y-107823000D01*
X139573000Y-103251000D02*
X139700000Y-103251000D01*
X144018000Y-97917000D02*
X144018000Y-101727000D01*
X146050000Y-79375000D02*
X146050000Y-81915000D01*
X144448488Y-104471512D02*
X144448488Y-104471512D01*
X144399000Y-97536000D02*
X144018000Y-97917000D01*
X146127512Y-104471512D02*
X147193000Y-105537000D01*
D26*
X136144001Y-90297000D02*
X134873996Y-91567005D01*
D28*
X143510000Y-83820000D02*
X143510000Y-86995000D01*
X138430000Y-102108000D02*
X139573000Y-103251000D01*
X148336000Y-72009000D02*
X146558000Y-72009000D01*
X147193000Y-105537000D02*
X147193000Y-104267000D01*
X138348000Y-112477000D02*
X136367001Y-114457999D01*
X137795000Y-90297000D02*
X138430000Y-90932000D01*
X137541000Y-107823000D02*
X144399000Y-107823000D01*
D29*
X128334000Y-123000000D02*
X126242000Y-120908000D01*
X134892000Y-125600000D02*
X132000000Y-125600000D01*
X126242000Y-120908000D02*
X126242000Y-86742000D01*
X126242000Y-86742000D02*
X122900000Y-83400000D01*
D26*
X138810989Y-75691989D02*
X136906000Y-73787000D01*
X141605000Y-97663000D02*
X141605000Y-87310646D01*
X142621000Y-97663000D02*
X141605000Y-96647000D01*
D28*
X141605000Y-97663000D02*
X142621000Y-97663000D01*
D26*
X138810989Y-84516635D02*
X138810989Y-75691989D01*
D29*
X129400000Y-123000000D02*
X128334000Y-123000000D01*
X132000000Y-125600000D02*
X129400000Y-123000000D01*
D26*
X141605000Y-87310646D02*
X138810989Y-84516635D01*
X136906000Y-73787000D02*
X136525000Y-73787000D01*
D30*
X144399000Y-110236000D02*
X138087989Y-110236000D01*
D27*
X139700000Y-100150048D02*
X142248001Y-102698049D01*
X139700000Y-86483292D02*
X139700000Y-100150048D01*
D30*
X138087989Y-110236000D02*
X135128000Y-113195989D01*
D27*
X142248001Y-102698049D02*
X142748000Y-103198048D01*
X138048978Y-76580978D02*
X138048978Y-84832270D01*
X136525000Y-75057000D02*
X138048978Y-76580978D01*
X138048978Y-84832270D02*
X139700000Y-86483292D01*
X138210000Y-131200000D02*
X140150000Y-133140000D01*
X134000000Y-127883458D02*
X134000000Y-130300000D01*
X142533791Y-129500000D02*
X140900000Y-129500000D01*
X144400000Y-133000000D02*
X144400000Y-131366209D01*
D30*
X134486989Y-106920351D02*
X134608341Y-106798999D01*
D27*
X144400000Y-131366209D02*
X142533791Y-129500000D01*
D30*
X134608341Y-106798999D02*
X144280009Y-106798999D01*
D27*
X140150000Y-133140000D02*
X140150000Y-134750000D01*
D30*
X144788009Y-106290999D02*
X145288008Y-105791000D01*
D27*
X134900000Y-131200000D02*
X138210000Y-131200000D01*
D30*
X144280009Y-106798999D02*
X144788009Y-106290999D01*
D27*
X134000000Y-130300000D02*
X134900000Y-131200000D01*
D30*
X152527000Y-110998000D02*
X152527000Y-114577178D01*
D26*
X151638000Y-110109000D02*
X151638000Y-106426000D01*
D30*
X154900000Y-116950178D02*
X154900000Y-118000000D01*
D26*
X151638000Y-106426000D02*
X151921689Y-106142311D01*
D30*
X152527000Y-114577178D02*
X154900000Y-116950178D01*
X151638000Y-110109000D02*
X152527000Y-110998000D01*
D27*
X130069000Y-107408236D02*
X135636001Y-101841235D01*
X130069000Y-120069000D02*
X130069000Y-107408236D01*
X135636001Y-101841235D02*
X135636001Y-92455999D01*
X139650000Y-123000000D02*
X133000000Y-123000000D01*
X133000000Y-123000000D02*
X131950000Y-121950000D01*
X131950000Y-121950000D02*
X130069000Y-120069000D01*
X135636001Y-92455999D02*
X136525000Y-91567000D01*
X127258000Y-91642000D02*
X127258000Y-99312000D01*
X131300000Y-87600000D02*
X134900000Y-84000000D01*
X131300000Y-87600000D02*
X127258000Y-91642000D01*
X134900000Y-84000000D02*
X136698500Y-84000000D01*
D26*
X136525000Y-80137000D02*
X133985000Y-80137000D01*
X133985000Y-80137000D02*
X133223000Y-80899000D01*
D27*
X157100000Y-105300000D02*
X159500000Y-102900000D01*
X125200000Y-95100000D02*
X125200000Y-90780000D01*
X156169000Y-119981000D02*
X157100000Y-119050000D01*
X138800000Y-119000000D02*
X150832631Y-119000000D01*
X157100000Y-119050000D02*
X157100000Y-105300000D01*
X136900000Y-120900000D02*
X138800000Y-119000000D01*
X130800000Y-119100000D02*
X130800000Y-119000000D01*
X150832631Y-119000000D02*
X151813631Y-119981000D01*
X125200000Y-90780000D02*
X122900000Y-88480000D01*
X151813631Y-119981000D02*
X156169000Y-119981000D01*
X132600000Y-120900000D02*
X130800000Y-119100000D01*
X131300000Y-127000000D02*
X129600000Y-125300000D01*
X144900000Y-127000000D02*
X131300000Y-127000000D01*
X133612080Y-124330500D02*
X128200000Y-118918420D01*
X128200000Y-118918420D02*
X128200000Y-92300000D01*
X146600000Y-124330500D02*
X133612080Y-124330500D01*
X145000000Y-121900000D02*
X134993764Y-121900000D01*
X130900000Y-117806236D02*
X130900000Y-108200000D01*
X134993764Y-121900000D02*
X130900000Y-117806236D01*
X153923980Y-100631236D02*
X154939999Y-101647255D01*
X154939999Y-101647255D02*
X154939999Y-106679999D01*
X154939999Y-106679999D02*
X155448000Y-107188000D01*
D26*
X151202106Y-90297000D02*
X152527000Y-90297000D01*
X150495000Y-90297000D02*
X151202106Y-90297000D01*
D27*
X152527000Y-90297000D02*
X153923980Y-91693980D01*
X153923980Y-91693980D02*
X153923980Y-100631236D01*
X143000000Y-133100000D02*
X143400000Y-133500000D01*
X143000000Y-131000000D02*
X143000000Y-133100000D01*
X141000000Y-132350000D02*
X141900000Y-133250000D01*
X141000000Y-131000000D02*
X141000000Y-132350000D01*
D30*
X150400000Y-117000000D02*
X150368000Y-117032000D01*
X151765000Y-111760000D02*
X151765000Y-114681000D01*
X149479000Y-117983000D02*
X149098000Y-117602000D01*
X150622000Y-110617000D02*
X151765000Y-111760000D01*
X150368000Y-116968000D02*
X150400000Y-117000000D01*
D28*
X150368000Y-116238020D02*
X150400000Y-116250000D01*
D30*
X150622000Y-105283020D02*
X150622000Y-110617000D01*
D27*
X149987000Y-98236354D02*
X147889635Y-96138989D01*
X147889635Y-96138989D02*
X144482425Y-96138989D01*
X149479000Y-114935000D02*
X150241000Y-114935000D01*
D30*
X149098000Y-117602000D02*
X149098000Y-115316000D01*
X150622000Y-105283020D02*
X152146000Y-103759020D01*
D27*
X149098000Y-115316000D02*
X149479000Y-114935000D01*
D30*
X150355300Y-116225320D02*
X150355300Y-116090700D01*
X151765000Y-114681000D02*
X151257000Y-115189000D01*
D27*
X143510000Y-95166564D02*
X143510000Y-94488000D01*
D28*
X150400000Y-116250000D02*
X150368000Y-116967000D01*
D30*
X150368000Y-117983000D02*
X149479000Y-117983000D01*
D28*
X150355300Y-116090700D02*
X151257000Y-115189000D01*
D27*
X151130000Y-114046000D02*
X151130000Y-112077500D01*
D30*
X150368000Y-117032000D02*
X150368000Y-117983000D01*
D27*
X149987000Y-110934500D02*
X149987000Y-98236354D01*
X144482425Y-96138989D02*
X143510000Y-95166564D01*
D30*
X150368000Y-116967000D02*
X150368000Y-116968000D01*
D27*
X151130000Y-112077500D02*
X149987000Y-110934500D01*
D28*
X150355300Y-116225320D02*
X150368000Y-116238020D01*
D30*
X152146000Y-103759020D02*
X152146000Y-103759000D01*
D27*
X150241000Y-114935000D02*
X151130000Y-114046000D01*
X148209000Y-94615000D02*
X148717000Y-94107000D01*
X148717000Y-84201000D02*
X150509000Y-82409000D01*
X148717000Y-94107000D02*
X148717000Y-84201000D01*
X150509000Y-82409000D02*
X150509000Y-77699500D01*
X146050000Y-95250000D02*
X146685000Y-94615000D01*
X146685000Y-94615000D02*
X148209000Y-94615000D01*
X150509000Y-77699500D02*
X150608500Y-77600000D01*
D30*
X141524904Y-105783010D02*
X142232010Y-105783010D01*
X139692010Y-105783010D02*
X141524904Y-105783010D01*
X138430000Y-104521000D02*
X139692010Y-105783010D01*
D27*
X149878000Y-76522000D02*
X149900000Y-76500000D01*
X145669000Y-94107000D02*
X147955000Y-94107000D01*
X148209000Y-93853000D02*
X148209000Y-83947000D01*
X149878000Y-82278000D02*
X149878000Y-76522000D01*
X144780000Y-94996000D02*
X145669000Y-94107000D01*
X148209000Y-83947000D02*
X149878000Y-82278000D01*
X147955000Y-94107000D02*
X148209000Y-93853000D01*
D26*
X136525000Y-77597000D02*
X133604000Y-77597000D01*
X133604000Y-77597000D02*
X133223000Y-77978000D01*
D27*
X136144000Y-93726000D02*
X136144000Y-93205042D01*
X136398000Y-93472000D02*
X136777521Y-93092479D01*
X136144000Y-93218000D02*
X136398000Y-93472000D01*
X136144000Y-92666434D02*
X136249217Y-92561217D01*
X136777521Y-93092479D02*
X136517042Y-92832000D01*
X136144000Y-93205042D02*
X136144000Y-92666434D01*
X136144000Y-93726000D02*
X136398000Y-93472000D01*
X136144000Y-93205042D02*
X136144000Y-93218000D01*
X136144000Y-93205042D02*
X136517042Y-92832000D01*
X136144000Y-93205042D02*
X136512042Y-93205042D01*
G04 #@! TA.AperFunction,Conductor*
G36*
X123428910Y-71347599D02*
G01*
X123535827Y-71386513D01*
X123876784Y-71467322D01*
X124224804Y-71508000D01*
X124575196Y-71508000D01*
X124923215Y-71467322D01*
X125264172Y-71386513D01*
X125371090Y-71347599D01*
X125414184Y-71340000D01*
X159885816Y-71340000D01*
X159928910Y-71347599D01*
X160035827Y-71386513D01*
X160376784Y-71467322D01*
X160724804Y-71508000D01*
X161075196Y-71508000D01*
X161423215Y-71467322D01*
X161764172Y-71386513D01*
X161871090Y-71347599D01*
X161914184Y-71340000D01*
X164646500Y-71340000D01*
X164709500Y-71356881D01*
X164755619Y-71403000D01*
X164772500Y-71466000D01*
X164772500Y-74212227D01*
X164753062Y-74279462D01*
X164700744Y-74325953D01*
X164631690Y-74337354D01*
X164567206Y-74310147D01*
X164527187Y-74252728D01*
X164487357Y-74135393D01*
X164480817Y-74122132D01*
X164356643Y-73870332D01*
X164192453Y-73624603D01*
X164192452Y-73624601D01*
X163997593Y-73402406D01*
X163775397Y-73207547D01*
X163529671Y-73043358D01*
X163264607Y-72912642D01*
X162984761Y-72817648D01*
X162694902Y-72759991D01*
X162400000Y-72740663D01*
X162105097Y-72759991D01*
X161815238Y-72817648D01*
X161535393Y-72912642D01*
X161270329Y-73043358D01*
X161024601Y-73207547D01*
X160802406Y-73402406D01*
X160607547Y-73624601D01*
X160443358Y-73870329D01*
X160312642Y-74135393D01*
X160217648Y-74415238D01*
X160159991Y-74705097D01*
X160140663Y-75000000D01*
X160159991Y-75294902D01*
X160217648Y-75584761D01*
X160312642Y-75864607D01*
X160443358Y-76129671D01*
X160607547Y-76375397D01*
X160802406Y-76597593D01*
X160997265Y-76768479D01*
X161024603Y-76792453D01*
X161270331Y-76956643D01*
X161376764Y-77009130D01*
X161535392Y-77087357D01*
X161787785Y-77173032D01*
X161815241Y-77182352D01*
X162105097Y-77240008D01*
X162400000Y-77259337D01*
X162694903Y-77240008D01*
X162984759Y-77182352D01*
X163078042Y-77150686D01*
X163264607Y-77087357D01*
X163295813Y-77071968D01*
X163529669Y-76956643D01*
X163775397Y-76792453D01*
X163997593Y-76597593D01*
X164192453Y-76375397D01*
X164356643Y-76129669D01*
X164487355Y-75864611D01*
X164487356Y-75864607D01*
X164487357Y-75864606D01*
X164527187Y-75747272D01*
X164567206Y-75689853D01*
X164631690Y-75662646D01*
X164700744Y-75674047D01*
X164753062Y-75720538D01*
X164772500Y-75787773D01*
X164772500Y-106112227D01*
X164753062Y-106179462D01*
X164700744Y-106225953D01*
X164631690Y-106237354D01*
X164567206Y-106210147D01*
X164527187Y-106152728D01*
X164487357Y-106035393D01*
X164446214Y-105951964D01*
X164356643Y-105770332D01*
X164208546Y-105548688D01*
X164192452Y-105524601D01*
X163997593Y-105302406D01*
X163775397Y-105107547D01*
X163529671Y-104943358D01*
X163264607Y-104812642D01*
X162984761Y-104717648D01*
X162694902Y-104659991D01*
X162400000Y-104640663D01*
X162105097Y-104659991D01*
X161815238Y-104717648D01*
X161535393Y-104812642D01*
X161270329Y-104943358D01*
X161024601Y-105107547D01*
X160802406Y-105302406D01*
X160607547Y-105524601D01*
X160443358Y-105770329D01*
X160312642Y-106035393D01*
X160217648Y-106315238D01*
X160159991Y-106605097D01*
X160140663Y-106899999D01*
X160159991Y-107194902D01*
X160217648Y-107484761D01*
X160312642Y-107764607D01*
X160443358Y-108029671D01*
X160607547Y-108275397D01*
X160802406Y-108497593D01*
X160997266Y-108668479D01*
X161024603Y-108692453D01*
X161270331Y-108856643D01*
X161402860Y-108921999D01*
X161535392Y-108987357D01*
X161815238Y-109082351D01*
X161815241Y-109082352D01*
X162105097Y-109140008D01*
X162400000Y-109159337D01*
X162694903Y-109140008D01*
X162984759Y-109082352D01*
X163078042Y-109050686D01*
X163264607Y-108987357D01*
X163271588Y-108983914D01*
X163529669Y-108856643D01*
X163775397Y-108692453D01*
X163997593Y-108497593D01*
X164192453Y-108275397D01*
X164356643Y-108029669D01*
X164487355Y-107764611D01*
X164487356Y-107764607D01*
X164487357Y-107764606D01*
X164527187Y-107647272D01*
X164567206Y-107589853D01*
X164631690Y-107562646D01*
X164700744Y-107574047D01*
X164753062Y-107620538D01*
X164772500Y-107687773D01*
X164772500Y-113493813D01*
X164771893Y-113506164D01*
X164756951Y-113657862D01*
X164752133Y-113682086D01*
X164709686Y-113822017D01*
X164700233Y-113844838D01*
X164631307Y-113973789D01*
X164617585Y-113994326D01*
X164524824Y-114107357D01*
X164507357Y-114124824D01*
X164394326Y-114217585D01*
X164373789Y-114231307D01*
X164244838Y-114300233D01*
X164222017Y-114309686D01*
X164082086Y-114352133D01*
X164057862Y-114356951D01*
X163924657Y-114370071D01*
X163906161Y-114371893D01*
X163893813Y-114372500D01*
X161679101Y-114372500D01*
X161650000Y-114372500D01*
X161502443Y-114372500D01*
X161359870Y-114388564D01*
X161209182Y-114405542D01*
X160921465Y-114471213D01*
X160642915Y-114568681D01*
X160377026Y-114696726D01*
X160127149Y-114853733D01*
X159896409Y-115037743D01*
X159687743Y-115246409D01*
X159503733Y-115477149D01*
X159346726Y-115727026D01*
X159218681Y-115992915D01*
X159121213Y-116271465D01*
X159055542Y-116559182D01*
X159047077Y-116634315D01*
X159022500Y-116852443D01*
X159022500Y-116962563D01*
X159022500Y-118970899D01*
X159022500Y-119000000D01*
X159022500Y-119147557D01*
X159037447Y-119280219D01*
X159055542Y-119440817D01*
X159071327Y-119509974D01*
X159103452Y-119650722D01*
X159121213Y-119728534D01*
X159218681Y-120007084D01*
X159346726Y-120272973D01*
X159503733Y-120522850D01*
X159687743Y-120753590D01*
X159896409Y-120962256D01*
X159896413Y-120962259D01*
X159896416Y-120962262D01*
X160127145Y-121146263D01*
X160127149Y-121146266D01*
X160356354Y-121290284D01*
X160377026Y-121303273D01*
X160642915Y-121431318D01*
X160921469Y-121528788D01*
X161209184Y-121594458D01*
X161502443Y-121627500D01*
X161612563Y-121627500D01*
X161650000Y-121627500D01*
X161679101Y-121627500D01*
X163870899Y-121627500D01*
X163893813Y-121627500D01*
X163906162Y-121628106D01*
X164057862Y-121643048D01*
X164082086Y-121647866D01*
X164222017Y-121690313D01*
X164244835Y-121699764D01*
X164364064Y-121763494D01*
X164373789Y-121768692D01*
X164394325Y-121782413D01*
X164507359Y-121875177D01*
X164524824Y-121892642D01*
X164617585Y-122005673D01*
X164631307Y-122026210D01*
X164700233Y-122155161D01*
X164709686Y-122177982D01*
X164752133Y-122317913D01*
X164756951Y-122342137D01*
X164771893Y-122493836D01*
X164772500Y-122506187D01*
X164772500Y-138996912D01*
X164772348Y-139003095D01*
X164754156Y-139373388D01*
X164752944Y-139385693D01*
X164698999Y-139749359D01*
X164696587Y-139761487D01*
X164607255Y-140118120D01*
X164603666Y-140129952D01*
X164479808Y-140476114D01*
X164475076Y-140487538D01*
X164317885Y-140819889D01*
X164312056Y-140830794D01*
X164123046Y-141146139D01*
X164116176Y-141156420D01*
X163897170Y-141451716D01*
X163889326Y-141461274D01*
X163642428Y-141733684D01*
X163633684Y-141742428D01*
X163361274Y-141989326D01*
X163351716Y-141997170D01*
X163056420Y-142216176D01*
X163046139Y-142223046D01*
X162730794Y-142412056D01*
X162719889Y-142417885D01*
X162387538Y-142575076D01*
X162376114Y-142579808D01*
X162029952Y-142703666D01*
X162018120Y-142707255D01*
X161661487Y-142796587D01*
X161649359Y-142798999D01*
X161285693Y-142852944D01*
X161273388Y-142854156D01*
X160924760Y-142871283D01*
X160903093Y-142872348D01*
X160896912Y-142872500D01*
X156406187Y-142872500D01*
X156393838Y-142871893D01*
X156373023Y-142869843D01*
X156242137Y-142856951D01*
X156217913Y-142852133D01*
X156077982Y-142809686D01*
X156055161Y-142800233D01*
X155926210Y-142731307D01*
X155905673Y-142717585D01*
X155792642Y-142624824D01*
X155775175Y-142607357D01*
X155752566Y-142579808D01*
X155682413Y-142494325D01*
X155668692Y-142473789D01*
X155599766Y-142344838D01*
X155590313Y-142322017D01*
X155547866Y-142182086D01*
X155543048Y-142157861D01*
X155528107Y-142006163D01*
X155527500Y-141993813D01*
X155527500Y-141339966D01*
X159009045Y-141339966D01*
X159100700Y-141416874D01*
X159393450Y-141609418D01*
X159706579Y-141766677D01*
X160035827Y-141886513D01*
X160376784Y-141967322D01*
X160724804Y-142008000D01*
X161075196Y-142008000D01*
X161423215Y-141967322D01*
X161764172Y-141886513D01*
X162093420Y-141766677D01*
X162406549Y-141609418D01*
X162699299Y-141416874D01*
X162790953Y-141339966D01*
X162790953Y-141339965D01*
X160900001Y-139449013D01*
X160899999Y-139449013D01*
X159009045Y-141339965D01*
X159009045Y-141339966D01*
X155527500Y-141339966D01*
X155527500Y-139000000D01*
X157886901Y-139000000D01*
X157907275Y-139349797D01*
X157968120Y-139694868D01*
X158068615Y-140030544D01*
X158207396Y-140352276D01*
X158382590Y-140655720D01*
X158558704Y-140892282D01*
X160450987Y-139000001D01*
X161349013Y-139000001D01*
X163241294Y-140892282D01*
X163241295Y-140892282D01*
X163417406Y-140655726D01*
X163592603Y-140352276D01*
X163731384Y-140030544D01*
X163831879Y-139694868D01*
X163892724Y-139349797D01*
X163913098Y-139000000D01*
X163892724Y-138650202D01*
X163831879Y-138305131D01*
X163731384Y-137969455D01*
X163592603Y-137647723D01*
X163417406Y-137344273D01*
X163241294Y-137107716D01*
X161349013Y-138999999D01*
X161349013Y-139000001D01*
X160450987Y-139000001D01*
X160450987Y-138999999D01*
X158558704Y-137107716D01*
X158382590Y-137344280D01*
X158207396Y-137647723D01*
X158068615Y-137969455D01*
X157968120Y-138305131D01*
X157907275Y-138650202D01*
X157886901Y-139000000D01*
X155527500Y-139000000D01*
X155527500Y-137352446D01*
X155511904Y-137214027D01*
X155494458Y-137059184D01*
X155428788Y-136771469D01*
X155389795Y-136660032D01*
X159009045Y-136660032D01*
X160899999Y-138550987D01*
X160900001Y-138550987D01*
X162790953Y-136660033D01*
X162790953Y-136660032D01*
X162699299Y-136583125D01*
X162406549Y-136390581D01*
X162093420Y-136233322D01*
X161764172Y-136113486D01*
X161423215Y-136032677D01*
X161075196Y-135992000D01*
X160724804Y-135992000D01*
X160376784Y-136032677D01*
X160035827Y-136113486D01*
X159706579Y-136233322D01*
X159393450Y-136390581D01*
X159100701Y-136583125D01*
X159009045Y-136660032D01*
X155389795Y-136660032D01*
X155331318Y-136492915D01*
X155203273Y-136227026D01*
X155046266Y-135977149D01*
X154862256Y-135746409D01*
X154653590Y-135537743D01*
X154422850Y-135353733D01*
X154172973Y-135196726D01*
X153907084Y-135068681D01*
X153628534Y-134971213D01*
X153628533Y-134971212D01*
X153628531Y-134971212D01*
X153461644Y-134933120D01*
X153340817Y-134905542D01*
X153267501Y-134897281D01*
X153047557Y-134872500D01*
X152937437Y-134872500D01*
X151929101Y-134872500D01*
X151900000Y-134872500D01*
X151752443Y-134872500D01*
X151576487Y-134892325D01*
X151459182Y-134905542D01*
X151171465Y-134971213D01*
X150892915Y-135068681D01*
X150627026Y-135196726D01*
X150377149Y-135353733D01*
X150146409Y-135537743D01*
X149937743Y-135746409D01*
X149753733Y-135977149D01*
X149596726Y-136227026D01*
X149468681Y-136492915D01*
X149371213Y-136771465D01*
X149305542Y-137059182D01*
X149272500Y-137352446D01*
X149272500Y-141993813D01*
X149271893Y-142006164D01*
X149256951Y-142157862D01*
X149252133Y-142182086D01*
X149209686Y-142322017D01*
X149200233Y-142344838D01*
X149131307Y-142473789D01*
X149117585Y-142494326D01*
X149024824Y-142607357D01*
X149007357Y-142624824D01*
X148894326Y-142717585D01*
X148873789Y-142731307D01*
X148744838Y-142800233D01*
X148722017Y-142809686D01*
X148582086Y-142852133D01*
X148557862Y-142856951D01*
X148424657Y-142870071D01*
X148406161Y-142871893D01*
X148393813Y-142872500D01*
X147803838Y-142872500D01*
X147736428Y-142852952D01*
X147689935Y-142800372D01*
X147678786Y-142731077D01*
X147706438Y-142666567D01*
X147812176Y-142537723D01*
X147905776Y-142362609D01*
X147963415Y-142172603D01*
X147978000Y-142024521D01*
X147978000Y-141892500D01*
X145962000Y-141892500D01*
X145962000Y-142024521D01*
X145976584Y-142172603D01*
X146034223Y-142362609D01*
X146127823Y-142537723D01*
X146233562Y-142666567D01*
X146261214Y-142731077D01*
X146250065Y-142800372D01*
X146203572Y-142852952D01*
X146136162Y-142872500D01*
X139163838Y-142872500D01*
X139096428Y-142852952D01*
X139049935Y-142800372D01*
X139038786Y-142731077D01*
X139066438Y-142666567D01*
X139172176Y-142537723D01*
X139265776Y-142362609D01*
X139323415Y-142172603D01*
X139338000Y-142024521D01*
X139338000Y-141892500D01*
X137322000Y-141892500D01*
X137322000Y-142024521D01*
X137336584Y-142172603D01*
X137394223Y-142362609D01*
X137487823Y-142537723D01*
X137593562Y-142666567D01*
X137621214Y-142731077D01*
X137610065Y-142800372D01*
X137563572Y-142852952D01*
X137496162Y-142872500D01*
X124403088Y-142872500D01*
X124396906Y-142872348D01*
X124373814Y-142871213D01*
X124026611Y-142854156D01*
X124014306Y-142852944D01*
X123650640Y-142798999D01*
X123638512Y-142796587D01*
X123281879Y-142707255D01*
X123270047Y-142703666D01*
X122923885Y-142579808D01*
X122912461Y-142575076D01*
X122580110Y-142417885D01*
X122569205Y-142412056D01*
X122253860Y-142223046D01*
X122243579Y-142216176D01*
X121948283Y-141997170D01*
X121938725Y-141989326D01*
X121918394Y-141970899D01*
X121666309Y-141742422D01*
X121657577Y-141733690D01*
X121410668Y-141461268D01*
X121402834Y-141451722D01*
X121319950Y-141339966D01*
X122509045Y-141339966D01*
X122600700Y-141416874D01*
X122893450Y-141609418D01*
X123206579Y-141766677D01*
X123535827Y-141886513D01*
X123876784Y-141967322D01*
X124224804Y-142008000D01*
X124575196Y-142008000D01*
X124923215Y-141967322D01*
X125264172Y-141886513D01*
X125593420Y-141766677D01*
X125906549Y-141609418D01*
X126199299Y-141416874D01*
X126290953Y-141339966D01*
X126290953Y-141339965D01*
X126208488Y-141257500D01*
X137322000Y-141257500D01*
X138012500Y-141257500D01*
X138012500Y-140217957D01*
X138647500Y-140217957D01*
X138647500Y-141257500D01*
X139338000Y-141257500D01*
X145962000Y-141257500D01*
X146652500Y-141257500D01*
X146652500Y-140217957D01*
X147287500Y-140217957D01*
X147287500Y-141257500D01*
X147978000Y-141257500D01*
X147978000Y-141125479D01*
X147963415Y-140977396D01*
X147905776Y-140787390D01*
X147812176Y-140612276D01*
X147686212Y-140458787D01*
X147532723Y-140332823D01*
X147357614Y-140239225D01*
X147287500Y-140217957D01*
X146652500Y-140217957D01*
X146582385Y-140239225D01*
X146407276Y-140332823D01*
X146253787Y-140458787D01*
X146127823Y-140612276D01*
X146034223Y-140787390D01*
X145976584Y-140977396D01*
X145962000Y-141125479D01*
X145962000Y-141257500D01*
X139338000Y-141257500D01*
X139338000Y-141125479D01*
X139323415Y-140977396D01*
X139265776Y-140787390D01*
X139172176Y-140612276D01*
X139046212Y-140458787D01*
X138892723Y-140332823D01*
X138717614Y-140239225D01*
X138647500Y-140217957D01*
X138012500Y-140217957D01*
X137942385Y-140239225D01*
X137767276Y-140332823D01*
X137613787Y-140458787D01*
X137487823Y-140612276D01*
X137394223Y-140787390D01*
X137336584Y-140977396D01*
X137322000Y-141125479D01*
X137322000Y-141257500D01*
X126208488Y-141257500D01*
X124400001Y-139449013D01*
X124399999Y-139449013D01*
X122509045Y-141339965D01*
X122509045Y-141339966D01*
X121319950Y-141339966D01*
X121183823Y-141156420D01*
X121176953Y-141146139D01*
X120987943Y-140830794D01*
X120982114Y-140819889D01*
X120910732Y-140668965D01*
X120824918Y-140487525D01*
X120820196Y-140476126D01*
X120696331Y-140129948D01*
X120692744Y-140118120D01*
X120670807Y-140030544D01*
X120603412Y-139761487D01*
X120601000Y-139749359D01*
X120547055Y-139385693D01*
X120545843Y-139373387D01*
X120527652Y-139003094D01*
X120527576Y-138999999D01*
X121386901Y-138999999D01*
X121407275Y-139349797D01*
X121468120Y-139694868D01*
X121568615Y-140030544D01*
X121707396Y-140352276D01*
X121882590Y-140655720D01*
X122058704Y-140892282D01*
X123950987Y-139000001D01*
X124849013Y-139000001D01*
X126741294Y-140892282D01*
X126741295Y-140892282D01*
X126917406Y-140655726D01*
X127092603Y-140352276D01*
X127231384Y-140030544D01*
X127331879Y-139694868D01*
X127392724Y-139349797D01*
X127413098Y-138999999D01*
X127392724Y-138650202D01*
X127331879Y-138305131D01*
X127231384Y-137969455D01*
X127111918Y-137692500D01*
X137322000Y-137692500D01*
X137322000Y-137974521D01*
X137336584Y-138122603D01*
X137394223Y-138312609D01*
X137487823Y-138487723D01*
X137613787Y-138641212D01*
X137767276Y-138767176D01*
X137942385Y-138860774D01*
X138012500Y-138882043D01*
X138647500Y-138882043D01*
X138717614Y-138860774D01*
X138892723Y-138767176D01*
X139046212Y-138641212D01*
X139172176Y-138487723D01*
X139265774Y-138312613D01*
X139276923Y-138275862D01*
X139310615Y-138221183D01*
X139366882Y-138190213D01*
X139431104Y-138191001D01*
X139486593Y-138223342D01*
X139506777Y-138243526D01*
X139506779Y-138243527D01*
X139506780Y-138243528D01*
X139626874Y-138304719D01*
X139726512Y-138320500D01*
X139793486Y-138320500D01*
X139793488Y-138320500D01*
X139893126Y-138304719D01*
X140013220Y-138243528D01*
X140108528Y-138148220D01*
X140169719Y-138028126D01*
X140190804Y-137895000D01*
X145109195Y-137895000D01*
X145120988Y-137969455D01*
X145130281Y-138028126D01*
X145189267Y-138143893D01*
X145191473Y-138148222D01*
X145286777Y-138243526D01*
X145286779Y-138243527D01*
X145286780Y-138243528D01*
X145406874Y-138304719D01*
X145506512Y-138320500D01*
X145573486Y-138320500D01*
X145573488Y-138320500D01*
X145673126Y-138304719D01*
X145793220Y-138243528D01*
X145813406Y-138223341D01*
X145868894Y-138191002D01*
X145933115Y-138190213D01*
X145989382Y-138221181D01*
X146023075Y-138275860D01*
X146034223Y-138312610D01*
X146127823Y-138487723D01*
X146253787Y-138641212D01*
X146407276Y-138767176D01*
X146582385Y-138860774D01*
X146652500Y-138882043D01*
X146652500Y-137692500D01*
X147287500Y-137692500D01*
X147287500Y-138882043D01*
X147357614Y-138860774D01*
X147532723Y-138767176D01*
X147686212Y-138641212D01*
X147812176Y-138487723D01*
X147905776Y-138312609D01*
X147963415Y-138122603D01*
X147978000Y-137974521D01*
X147978000Y-137692500D01*
X147287500Y-137692500D01*
X146652500Y-137692500D01*
X145991439Y-137692500D01*
X145943221Y-137682909D01*
X145902344Y-137655595D01*
X145793222Y-137546473D01*
X145788893Y-137544267D01*
X145673126Y-137485281D01*
X145573488Y-137469500D01*
X145506512Y-137469500D01*
X145406874Y-137485280D01*
X145406874Y-137485281D01*
X145286777Y-137546473D01*
X145191473Y-137641777D01*
X145130281Y-137761874D01*
X145109195Y-137895000D01*
X140190804Y-137895000D01*
X140169719Y-137761874D01*
X140108528Y-137641780D01*
X140108527Y-137641779D01*
X140108526Y-137641777D01*
X140013222Y-137546473D01*
X140008893Y-137544267D01*
X139893126Y-137485281D01*
X139793488Y-137469500D01*
X139726512Y-137469500D01*
X139626874Y-137485280D01*
X139626874Y-137485281D01*
X139506777Y-137546473D01*
X139397656Y-137655595D01*
X139356779Y-137682909D01*
X139308561Y-137692500D01*
X138647500Y-137692500D01*
X138647500Y-138882043D01*
X138012500Y-138882043D01*
X138012500Y-137692500D01*
X137322000Y-137692500D01*
X127111918Y-137692500D01*
X127092603Y-137647723D01*
X126917406Y-137344273D01*
X126741294Y-137107716D01*
X124849013Y-138999999D01*
X124849013Y-139000001D01*
X123950987Y-139000001D01*
X123950987Y-138999999D01*
X122058704Y-137107716D01*
X121882590Y-137344280D01*
X121707396Y-137647723D01*
X121568615Y-137969455D01*
X121468120Y-138305131D01*
X121407275Y-138650202D01*
X121386901Y-138999999D01*
X120527576Y-138999999D01*
X120527500Y-138996912D01*
X120527500Y-136660032D01*
X122509045Y-136660032D01*
X124399999Y-138550987D01*
X124400001Y-138550987D01*
X125893486Y-137057500D01*
X137322000Y-137057500D01*
X138012500Y-137057500D01*
X138012500Y-135867957D01*
X138647500Y-135867957D01*
X138647500Y-137057500D01*
X139338000Y-137057500D01*
X145962000Y-137057500D01*
X146652500Y-137057500D01*
X146652500Y-135867957D01*
X147287500Y-135867957D01*
X147287500Y-137057500D01*
X147978000Y-137057500D01*
X147978000Y-136775479D01*
X147963415Y-136627396D01*
X147905776Y-136437390D01*
X147812176Y-136262276D01*
X147686212Y-136108787D01*
X147532723Y-135982823D01*
X147357614Y-135889225D01*
X147287500Y-135867957D01*
X146652500Y-135867957D01*
X146582385Y-135889225D01*
X146407276Y-135982823D01*
X146253787Y-136108787D01*
X146127823Y-136262276D01*
X146034223Y-136437390D01*
X145976584Y-136627396D01*
X145962000Y-136775479D01*
X145962000Y-137057500D01*
X139338000Y-137057500D01*
X139338000Y-136775479D01*
X139323415Y-136627396D01*
X139265776Y-136437390D01*
X139172176Y-136262276D01*
X139046212Y-136108787D01*
X138892723Y-135982823D01*
X138717614Y-135889225D01*
X138647500Y-135867957D01*
X138012500Y-135867957D01*
X137942385Y-135889225D01*
X137767276Y-135982823D01*
X137613787Y-136108787D01*
X137487823Y-136262276D01*
X137394223Y-136437390D01*
X137336584Y-136627396D01*
X137322000Y-136775479D01*
X137322000Y-137057500D01*
X125893486Y-137057500D01*
X126290953Y-136660033D01*
X126290953Y-136660032D01*
X126199299Y-136583125D01*
X125906549Y-136390581D01*
X125593420Y-136233322D01*
X125264172Y-136113486D01*
X124923215Y-136032677D01*
X124575196Y-135992000D01*
X124224804Y-135992000D01*
X123876784Y-136032677D01*
X123535827Y-136113486D01*
X123206579Y-136233322D01*
X122893450Y-136390581D01*
X122600701Y-136583125D01*
X122509045Y-136660032D01*
X120527500Y-136660032D01*
X120527500Y-107687773D01*
X120546938Y-107620538D01*
X120599256Y-107574047D01*
X120668310Y-107562646D01*
X120732794Y-107589853D01*
X120772813Y-107647272D01*
X120812642Y-107764606D01*
X120943358Y-108029671D01*
X121107547Y-108275397D01*
X121302406Y-108497593D01*
X121497266Y-108668479D01*
X121524603Y-108692453D01*
X121770331Y-108856643D01*
X121902860Y-108921999D01*
X122035392Y-108987357D01*
X122315238Y-109082351D01*
X122315241Y-109082352D01*
X122605097Y-109140008D01*
X122900000Y-109159337D01*
X123194903Y-109140008D01*
X123484759Y-109082352D01*
X123578042Y-109050686D01*
X123764607Y-108987357D01*
X123771588Y-108983914D01*
X124029669Y-108856643D01*
X124275397Y-108692453D01*
X124497593Y-108497593D01*
X124692453Y-108275397D01*
X124856643Y-108029669D01*
X124987355Y-107764611D01*
X124987354Y-107764611D01*
X124987357Y-107764607D01*
X125072435Y-107513973D01*
X125082352Y-107484759D01*
X125140008Y-107194903D01*
X125159337Y-106900000D01*
X125140008Y-106605097D01*
X125082352Y-106315241D01*
X125069898Y-106278553D01*
X124987357Y-106035393D01*
X124946214Y-105951964D01*
X124856643Y-105770332D01*
X124708546Y-105548688D01*
X124692452Y-105524601D01*
X124497593Y-105302406D01*
X124275397Y-105107547D01*
X124029671Y-104943358D01*
X123764607Y-104812642D01*
X123484761Y-104717648D01*
X123194902Y-104659991D01*
X122900000Y-104640663D01*
X122605097Y-104659991D01*
X122315238Y-104717648D01*
X122035393Y-104812642D01*
X121770329Y-104943358D01*
X121524601Y-105107547D01*
X121302406Y-105302406D01*
X121107547Y-105524601D01*
X120943358Y-105770329D01*
X120812642Y-106035393D01*
X120772813Y-106152728D01*
X120732794Y-106210147D01*
X120668310Y-106237354D01*
X120599256Y-106225953D01*
X120546938Y-106179462D01*
X120527500Y-106112227D01*
X120527500Y-98639999D01*
X121790767Y-98639999D01*
X121809654Y-98843819D01*
X121865672Y-99040702D01*
X121956910Y-99223933D01*
X121993244Y-99272047D01*
X122080268Y-99387285D01*
X122231538Y-99525186D01*
X122405573Y-99632944D01*
X122596444Y-99706888D01*
X122797653Y-99744500D01*
X123002345Y-99744500D01*
X123002347Y-99744500D01*
X123203556Y-99706888D01*
X123394427Y-99632944D01*
X123568462Y-99525186D01*
X123719732Y-99387285D01*
X123843088Y-99223935D01*
X123934328Y-99040701D01*
X123990345Y-98843821D01*
X124009232Y-98640000D01*
X123990345Y-98436179D01*
X123934328Y-98239299D01*
X123874294Y-98118735D01*
X123843089Y-98056066D01*
X123804077Y-98004406D01*
X123719732Y-97892715D01*
X123568462Y-97754814D01*
X123492267Y-97707636D01*
X123394428Y-97647056D01*
X123298991Y-97610083D01*
X123203556Y-97573112D01*
X123002347Y-97535500D01*
X122797653Y-97535500D01*
X122596444Y-97573111D01*
X122596444Y-97573112D01*
X122405571Y-97647056D01*
X122231539Y-97754813D01*
X122080267Y-97892716D01*
X121956910Y-98056066D01*
X121865672Y-98239297D01*
X121809654Y-98436180D01*
X121790767Y-98639999D01*
X120527500Y-98639999D01*
X120527500Y-96099999D01*
X121790767Y-96099999D01*
X121809654Y-96303819D01*
X121865672Y-96500702D01*
X121956910Y-96683933D01*
X122017314Y-96763920D01*
X122080268Y-96847285D01*
X122231538Y-96985186D01*
X122405573Y-97092944D01*
X122596444Y-97166888D01*
X122797653Y-97204500D01*
X123002345Y-97204500D01*
X123002347Y-97204500D01*
X123203556Y-97166888D01*
X123394427Y-97092944D01*
X123568462Y-96985186D01*
X123719732Y-96847285D01*
X123843088Y-96683935D01*
X123934328Y-96500701D01*
X123990345Y-96303821D01*
X124009232Y-96100000D01*
X123990345Y-95896179D01*
X123934328Y-95699299D01*
X123874644Y-95579437D01*
X123843089Y-95516066D01*
X123789187Y-95444689D01*
X123719732Y-95352715D01*
X123568462Y-95214814D01*
X123520087Y-95184861D01*
X123394428Y-95107056D01*
X123266555Y-95057518D01*
X123203556Y-95033112D01*
X123002347Y-94995500D01*
X122797653Y-94995500D01*
X122596444Y-95033111D01*
X122596444Y-95033112D01*
X122405571Y-95107056D01*
X122231539Y-95214813D01*
X122080267Y-95352716D01*
X121956910Y-95516066D01*
X121865672Y-95699297D01*
X121809654Y-95896180D01*
X121790767Y-96099999D01*
X120527500Y-96099999D01*
X120527500Y-93560000D01*
X121790767Y-93560000D01*
X121809654Y-93763819D01*
X121865672Y-93960702D01*
X121956910Y-94143933D01*
X121983433Y-94179055D01*
X122080268Y-94307285D01*
X122231538Y-94445186D01*
X122405573Y-94552944D01*
X122596444Y-94626888D01*
X122797653Y-94664500D01*
X123002345Y-94664500D01*
X123002347Y-94664500D01*
X123203556Y-94626888D01*
X123394427Y-94552944D01*
X123568462Y-94445186D01*
X123719732Y-94307285D01*
X123843088Y-94143935D01*
X123934328Y-93960701D01*
X123990345Y-93763821D01*
X124009232Y-93560000D01*
X123990345Y-93356179D01*
X123934328Y-93159299D01*
X123933585Y-93157807D01*
X123843089Y-92976066D01*
X123734295Y-92832000D01*
X123719732Y-92812715D01*
X123568462Y-92674814D01*
X123520087Y-92644861D01*
X123394428Y-92567056D01*
X123289655Y-92526467D01*
X123203556Y-92493112D01*
X123002347Y-92455500D01*
X122797653Y-92455500D01*
X122596443Y-92493112D01*
X122596444Y-92493112D01*
X122405571Y-92567056D01*
X122231539Y-92674813D01*
X122080267Y-92812716D01*
X121956910Y-92976066D01*
X121865672Y-93159297D01*
X121809654Y-93356180D01*
X121790767Y-93560000D01*
X120527500Y-93560000D01*
X120527500Y-91020000D01*
X121790767Y-91020000D01*
X121809654Y-91223819D01*
X121865672Y-91420702D01*
X121956910Y-91603933D01*
X122001117Y-91662472D01*
X122080268Y-91767285D01*
X122231538Y-91905186D01*
X122405573Y-92012944D01*
X122596444Y-92086888D01*
X122797653Y-92124500D01*
X123002345Y-92124500D01*
X123002347Y-92124500D01*
X123203556Y-92086888D01*
X123394427Y-92012944D01*
X123568462Y-91905186D01*
X123719732Y-91767285D01*
X123843088Y-91603935D01*
X123934328Y-91420701D01*
X123990345Y-91223821D01*
X124009232Y-91020000D01*
X123990345Y-90816179D01*
X123934328Y-90619299D01*
X123927386Y-90605358D01*
X123843089Y-90436066D01*
X123780266Y-90352875D01*
X123719732Y-90272715D01*
X123568462Y-90134814D01*
X123520087Y-90104861D01*
X123394428Y-90027056D01*
X123240858Y-89967563D01*
X123203556Y-89953112D01*
X123002347Y-89915500D01*
X122797653Y-89915500D01*
X122596443Y-89953112D01*
X122596444Y-89953112D01*
X122405571Y-90027056D01*
X122231539Y-90134813D01*
X122080267Y-90272716D01*
X121956910Y-90436066D01*
X121865672Y-90619297D01*
X121809654Y-90816180D01*
X121790767Y-91020000D01*
X120527500Y-91020000D01*
X120527500Y-86257500D01*
X121579535Y-86257500D01*
X121611177Y-86382451D01*
X121701580Y-86588548D01*
X121824678Y-86776962D01*
X121977096Y-86942533D01*
X122154697Y-87080766D01*
X122352631Y-87187883D01*
X122463803Y-87226048D01*
X122514925Y-87259164D01*
X122544539Y-87312392D01*
X122545724Y-87373292D01*
X122518204Y-87427631D01*
X122468409Y-87462712D01*
X122405572Y-87487055D01*
X122231539Y-87594813D01*
X122080267Y-87732716D01*
X121956910Y-87896066D01*
X121865672Y-88079297D01*
X121809654Y-88276180D01*
X121790767Y-88479999D01*
X121809654Y-88683819D01*
X121865672Y-88880702D01*
X121956910Y-89063933D01*
X121956912Y-89063935D01*
X122080268Y-89227285D01*
X122231538Y-89365186D01*
X122405573Y-89472944D01*
X122596444Y-89546888D01*
X122797653Y-89584500D01*
X123002345Y-89584500D01*
X123002347Y-89584500D01*
X123203556Y-89546888D01*
X123288313Y-89514052D01*
X123335771Y-89505558D01*
X123382944Y-89515509D01*
X123422926Y-89542448D01*
X124781595Y-90901117D01*
X124808909Y-90941994D01*
X124818500Y-90990212D01*
X124818500Y-94568644D01*
X124805507Y-94624371D01*
X124769207Y-94668604D01*
X124768868Y-94668864D01*
X124768867Y-94668865D01*
X124768866Y-94668866D01*
X124742312Y-94703470D01*
X124671968Y-94795143D01*
X124611059Y-94942193D01*
X124590284Y-95099999D01*
X124611059Y-95257806D01*
X124671968Y-95404856D01*
X124682786Y-95418954D01*
X124768866Y-95531134D01*
X124845091Y-95589624D01*
X124895143Y-95628031D01*
X125042193Y-95688940D01*
X125060552Y-95691356D01*
X125200000Y-95709716D01*
X125357806Y-95688940D01*
X125414162Y-95665597D01*
X125504856Y-95628031D01*
X125504856Y-95628030D01*
X125504858Y-95628030D01*
X125631134Y-95531134D01*
X125659938Y-95493595D01*
X125708652Y-95455194D01*
X125769787Y-95444689D01*
X125828525Y-95464629D01*
X125870631Y-95510179D01*
X125885900Y-95570301D01*
X125885900Y-120858000D01*
X125883218Y-120883857D01*
X125881283Y-120893081D01*
X125884932Y-120922346D01*
X125885858Y-120937264D01*
X125889117Y-120956797D01*
X125889867Y-120961942D01*
X125896923Y-121018545D01*
X125900536Y-121025222D01*
X125900537Y-121025224D01*
X125923398Y-121067467D01*
X125924085Y-121068737D01*
X125926467Y-121073366D01*
X125951516Y-121124605D01*
X125993513Y-121163265D01*
X125997271Y-121166872D01*
X128046839Y-123216440D01*
X128063226Y-123236619D01*
X128068383Y-123244512D01*
X128068385Y-123244513D01*
X128068386Y-123244515D01*
X128091667Y-123262635D01*
X128102859Y-123272519D01*
X128118968Y-123284021D01*
X128123137Y-123287129D01*
X128162172Y-123317511D01*
X128162175Y-123317512D01*
X128168165Y-123322174D01*
X128175435Y-123324338D01*
X128175439Y-123324341D01*
X128222908Y-123338472D01*
X128227773Y-123340031D01*
X128274577Y-123356100D01*
X128274579Y-123356100D01*
X128281759Y-123358565D01*
X128289342Y-123358251D01*
X128289344Y-123358252D01*
X128338756Y-123356207D01*
X128343964Y-123356100D01*
X129200309Y-123356100D01*
X129248527Y-123365691D01*
X129289403Y-123393004D01*
X130508599Y-124612201D01*
X131712841Y-125816443D01*
X131729228Y-125836622D01*
X131734383Y-125844513D01*
X131734386Y-125844515D01*
X131757661Y-125862631D01*
X131768859Y-125872520D01*
X131784977Y-125884028D01*
X131789146Y-125887136D01*
X131828172Y-125917511D01*
X131828175Y-125917512D01*
X131834165Y-125922174D01*
X131841435Y-125924338D01*
X131841439Y-125924341D01*
X131888908Y-125938472D01*
X131893773Y-125940031D01*
X131940577Y-125956100D01*
X131940579Y-125956100D01*
X131947759Y-125958565D01*
X131955342Y-125958251D01*
X131955344Y-125958252D01*
X132004756Y-125956207D01*
X132009964Y-125956100D01*
X134341154Y-125956100D01*
X134396882Y-125969094D01*
X134441115Y-126005394D01*
X134460866Y-126031134D01*
X134563308Y-126109741D01*
X134587143Y-126128031D01*
X134734193Y-126188940D01*
X134752552Y-126191356D01*
X134892000Y-126209716D01*
X135049806Y-126188940D01*
X135049805Y-126188940D01*
X135196856Y-126128031D01*
X135196856Y-126128030D01*
X135196858Y-126128030D01*
X135323134Y-126031134D01*
X135420030Y-125904858D01*
X135426624Y-125888940D01*
X135480940Y-125757806D01*
X135480939Y-125757806D01*
X135501716Y-125600000D01*
X135480940Y-125442194D01*
X135480940Y-125442193D01*
X135420031Y-125295143D01*
X135380710Y-125243900D01*
X135323134Y-125168866D01*
X135243122Y-125107470D01*
X135196856Y-125071968D01*
X135049806Y-125011059D01*
X134892000Y-124990284D01*
X134734193Y-125011059D01*
X134587143Y-125071968D01*
X134460866Y-125168866D01*
X134441116Y-125194605D01*
X134396882Y-125230906D01*
X134341154Y-125243900D01*
X132199692Y-125243900D01*
X132151474Y-125234309D01*
X132110597Y-125206995D01*
X129687158Y-122783557D01*
X129670770Y-122763377D01*
X129665614Y-122755485D01*
X129642331Y-122737363D01*
X129631149Y-122727487D01*
X129615023Y-122715973D01*
X129610890Y-122712892D01*
X129571828Y-122682489D01*
X129571825Y-122682488D01*
X129565833Y-122677824D01*
X129511137Y-122661539D01*
X129506181Y-122659951D01*
X129452242Y-122641434D01*
X129395244Y-122643792D01*
X129390036Y-122643900D01*
X128533691Y-122643900D01*
X128485473Y-122634309D01*
X128444596Y-122606995D01*
X126635005Y-120797404D01*
X126607691Y-120756527D01*
X126598100Y-120708309D01*
X126598100Y-99816184D01*
X126613369Y-99756062D01*
X126655475Y-99710512D01*
X126714214Y-99690572D01*
X126775348Y-99701077D01*
X126824060Y-99739477D01*
X126826866Y-99743134D01*
X126922066Y-99816184D01*
X126953143Y-99840031D01*
X127100193Y-99900940D01*
X127118552Y-99903356D01*
X127258000Y-99921716D01*
X127415806Y-99900940D01*
X127562858Y-99840030D01*
X127615796Y-99799408D01*
X127680149Y-99773978D01*
X127748228Y-99786365D01*
X127799499Y-99832834D01*
X127818500Y-99899371D01*
X127818500Y-118865787D01*
X127815818Y-118891645D01*
X127813554Y-118902437D01*
X127817532Y-118934342D01*
X127818500Y-118949928D01*
X127818500Y-118950034D01*
X127821975Y-118970863D01*
X127822725Y-118976009D01*
X127830294Y-119036722D01*
X127830371Y-119036962D01*
X127834181Y-119044003D01*
X127834182Y-119044006D01*
X127859492Y-119090775D01*
X127861874Y-119095404D01*
X127888742Y-119150363D01*
X127888884Y-119150554D01*
X127894779Y-119155981D01*
X127894780Y-119155982D01*
X127933931Y-119192023D01*
X127937663Y-119195605D01*
X133305098Y-124563041D01*
X133321486Y-124583221D01*
X133327518Y-124592454D01*
X133327519Y-124592455D01*
X133327520Y-124592456D01*
X133352898Y-124612208D01*
X133364603Y-124622546D01*
X133364671Y-124622614D01*
X133381862Y-124634888D01*
X133386038Y-124638002D01*
X133434317Y-124675579D01*
X133434531Y-124675689D01*
X133442209Y-124677974D01*
X133442210Y-124677975D01*
X133493213Y-124693158D01*
X133498077Y-124694716D01*
X133548419Y-124712000D01*
X133548421Y-124712000D01*
X133556000Y-124714602D01*
X133556231Y-124714636D01*
X133564238Y-124714304D01*
X133564239Y-124714305D01*
X133617353Y-124712107D01*
X133622560Y-124712000D01*
X138715303Y-124712000D01*
X138782713Y-124731548D01*
X138829206Y-124784128D01*
X138840355Y-124853424D01*
X138812702Y-124917933D01*
X138800723Y-124932529D01*
X138706332Y-125109121D01*
X138648207Y-125300730D01*
X138628581Y-125500000D01*
X138648207Y-125699269D01*
X138706332Y-125890878D01*
X138706333Y-125890880D01*
X138800722Y-126067469D01*
X138850355Y-126127948D01*
X138927747Y-126222252D01*
X139002928Y-126283950D01*
X139082531Y-126349278D01*
X139142586Y-126381378D01*
X139190623Y-126426665D01*
X139209166Y-126490026D01*
X139193124Y-126554066D01*
X139146903Y-126601205D01*
X139083190Y-126618500D01*
X131510212Y-126618500D01*
X131461994Y-126608909D01*
X131421117Y-126581595D01*
X130245487Y-125405965D01*
X130215269Y-125357371D01*
X130209660Y-125300423D01*
X130209716Y-125300000D01*
X130188940Y-125142194D01*
X130188940Y-125142193D01*
X130128031Y-124995143D01*
X130109741Y-124971308D01*
X130031134Y-124868866D01*
X129952525Y-124808546D01*
X129904856Y-124771968D01*
X129757806Y-124711059D01*
X129618358Y-124692700D01*
X129600000Y-124690284D01*
X129599999Y-124690284D01*
X129442193Y-124711059D01*
X129295143Y-124771968D01*
X129168866Y-124868866D01*
X129071968Y-124995143D01*
X129011059Y-125142193D01*
X128990284Y-125299999D01*
X129011059Y-125457806D01*
X129071968Y-125604856D01*
X129071970Y-125604858D01*
X129168866Y-125731134D01*
X129271308Y-125809741D01*
X129295143Y-125828031D01*
X129442193Y-125888940D01*
X129456914Y-125890878D01*
X129600000Y-125909716D01*
X129600423Y-125909660D01*
X129657369Y-125915268D01*
X129705964Y-125945487D01*
X130993018Y-127232541D01*
X131009406Y-127252721D01*
X131015438Y-127261954D01*
X131015439Y-127261955D01*
X131015440Y-127261956D01*
X131040818Y-127281708D01*
X131052523Y-127292046D01*
X131052591Y-127292114D01*
X131069782Y-127304388D01*
X131073958Y-127307502D01*
X131122237Y-127345079D01*
X131122451Y-127345189D01*
X131130129Y-127347474D01*
X131130130Y-127347475D01*
X131181133Y-127362658D01*
X131185997Y-127364216D01*
X131236339Y-127381500D01*
X131236341Y-127381500D01*
X131243920Y-127384102D01*
X131244151Y-127384136D01*
X131252158Y-127383804D01*
X131252159Y-127383805D01*
X131305273Y-127381607D01*
X131310480Y-127381500D01*
X133367707Y-127381500D01*
X133434244Y-127400501D01*
X133480713Y-127451772D01*
X133493100Y-127519851D01*
X133476275Y-127562426D01*
X133478318Y-127563273D01*
X133411059Y-127725651D01*
X133390284Y-127883457D01*
X133411059Y-128041264D01*
X133471968Y-128188314D01*
X133471970Y-128188316D01*
X133568866Y-128314592D01*
X133569075Y-128314752D01*
X133569207Y-128314854D01*
X133605507Y-128359087D01*
X133618500Y-128414814D01*
X133618500Y-130247367D01*
X133615818Y-130273225D01*
X133613554Y-130284017D01*
X133617532Y-130315922D01*
X133618500Y-130331508D01*
X133618500Y-130331614D01*
X133621975Y-130352443D01*
X133622725Y-130357589D01*
X133630294Y-130418302D01*
X133630371Y-130418542D01*
X133634181Y-130425583D01*
X133634182Y-130425586D01*
X133659283Y-130471969D01*
X133659492Y-130472355D01*
X133661874Y-130476984D01*
X133688742Y-130531943D01*
X133688884Y-130532134D01*
X133694779Y-130537561D01*
X133694780Y-130537562D01*
X133733931Y-130573603D01*
X133737663Y-130577185D01*
X134593015Y-131432537D01*
X134609403Y-131452716D01*
X134615440Y-131461957D01*
X134640815Y-131481706D01*
X134652528Y-131492050D01*
X134652590Y-131492112D01*
X134669773Y-131504380D01*
X134673930Y-131507479D01*
X134715915Y-131540158D01*
X134722234Y-131545076D01*
X134722456Y-131545190D01*
X134730128Y-131547474D01*
X134730130Y-131547475D01*
X134781135Y-131562659D01*
X134786000Y-131564217D01*
X134836339Y-131581500D01*
X134836342Y-131581500D01*
X134843921Y-131584102D01*
X134844150Y-131584136D01*
X134852157Y-131583804D01*
X134852158Y-131583805D01*
X134905272Y-131581608D01*
X134910480Y-131581500D01*
X137999788Y-131581500D01*
X138048006Y-131591091D01*
X138088883Y-131618405D01*
X139731595Y-133261117D01*
X139758909Y-133301994D01*
X139768500Y-133350212D01*
X139768500Y-134218644D01*
X139755507Y-134274371D01*
X139719207Y-134318604D01*
X139718868Y-134318864D01*
X139621968Y-134445143D01*
X139561059Y-134592193D01*
X139540284Y-134750000D01*
X139561059Y-134907806D01*
X139621968Y-135054856D01*
X139658546Y-135102525D01*
X139718866Y-135181134D01*
X139821308Y-135259741D01*
X139845143Y-135278031D01*
X139992193Y-135338940D01*
X140010552Y-135341356D01*
X140150000Y-135359716D01*
X140307806Y-135338940D01*
X140307805Y-135338940D01*
X140454856Y-135278031D01*
X140454856Y-135278030D01*
X140454858Y-135278030D01*
X140581134Y-135181134D01*
X140678030Y-135054858D01*
X140738940Y-134907806D01*
X140759716Y-134750000D01*
X140738940Y-134592194D01*
X140738940Y-134592193D01*
X140678031Y-134445143D01*
X140664753Y-134427839D01*
X140581134Y-134318866D01*
X140580793Y-134318604D01*
X140544493Y-134274371D01*
X140531500Y-134218644D01*
X140531500Y-133192633D01*
X140534182Y-133166775D01*
X140536445Y-133155982D01*
X140532468Y-133124078D01*
X140531500Y-133108492D01*
X140531500Y-133108392D01*
X140531500Y-133108389D01*
X140528017Y-133087523D01*
X140527273Y-133082406D01*
X140519704Y-133021683D01*
X140519635Y-133021469D01*
X140515818Y-133014416D01*
X140515818Y-133014414D01*
X140490509Y-132967648D01*
X140488133Y-132963031D01*
X140461255Y-132908052D01*
X140461114Y-132907862D01*
X140416081Y-132866407D01*
X140412323Y-132862801D01*
X138516981Y-130967458D01*
X138500592Y-130947276D01*
X138494561Y-130938045D01*
X138494560Y-130938044D01*
X138469183Y-130918292D01*
X138457475Y-130907952D01*
X138457410Y-130907887D01*
X138457409Y-130907886D01*
X138440191Y-130895593D01*
X138436080Y-130892527D01*
X138394085Y-130859842D01*
X138394082Y-130859840D01*
X138387771Y-130854929D01*
X138387534Y-130854807D01*
X138379870Y-130852525D01*
X138328899Y-130837350D01*
X138323949Y-130835764D01*
X138266080Y-130815897D01*
X138265848Y-130815863D01*
X138204727Y-130818392D01*
X138199520Y-130818500D01*
X135110213Y-130818500D01*
X135061995Y-130808909D01*
X135021117Y-130781595D01*
X134418404Y-130178881D01*
X134391091Y-130138004D01*
X134381500Y-130089786D01*
X134381500Y-129500000D01*
X140290284Y-129500000D01*
X140311059Y-129657806D01*
X140371968Y-129804856D01*
X140371970Y-129804858D01*
X140468866Y-129931134D01*
X140571308Y-130009741D01*
X140595143Y-130028031D01*
X140742193Y-130088940D01*
X140760552Y-130091356D01*
X140900000Y-130109716D01*
X141057806Y-130088940D01*
X141204858Y-130028030D01*
X141331134Y-129931134D01*
X141331395Y-129930793D01*
X141375629Y-129894493D01*
X141431356Y-129881500D01*
X142323579Y-129881500D01*
X142371797Y-129891091D01*
X142412674Y-129918405D01*
X142753495Y-130259226D01*
X142784974Y-130311744D01*
X142787979Y-130372901D01*
X142761801Y-130428253D01*
X142712621Y-130464729D01*
X142695143Y-130471969D01*
X142568866Y-130568866D01*
X142471968Y-130695143D01*
X142411059Y-130842193D01*
X142390284Y-131000000D01*
X142411059Y-131157806D01*
X142471968Y-131304856D01*
X142494793Y-131334601D01*
X142568866Y-131431134D01*
X142569075Y-131431294D01*
X142569207Y-131431396D01*
X142605507Y-131475629D01*
X142618500Y-131531356D01*
X142618500Y-132822184D01*
X142603231Y-132882306D01*
X142561125Y-132927856D01*
X142502386Y-132947796D01*
X142441252Y-132937291D01*
X142392538Y-132898889D01*
X142391648Y-132897729D01*
X142331134Y-132818866D01*
X142252525Y-132758546D01*
X142204856Y-132721968D01*
X142057806Y-132661059D01*
X141899996Y-132640283D01*
X141899569Y-132640340D01*
X141842625Y-132634729D01*
X141794034Y-132604512D01*
X141418404Y-132228881D01*
X141391091Y-132188004D01*
X141381500Y-132139786D01*
X141381500Y-131531356D01*
X141394493Y-131475629D01*
X141430793Y-131431396D01*
X141430862Y-131431342D01*
X141431134Y-131431134D01*
X141528030Y-131304858D01*
X141535268Y-131287385D01*
X141588940Y-131157806D01*
X141591092Y-131141463D01*
X141609716Y-131000000D01*
X141588940Y-130842194D01*
X141578034Y-130815863D01*
X141528031Y-130695143D01*
X141436102Y-130575341D01*
X141431134Y-130568866D01*
X141352525Y-130508546D01*
X141304856Y-130471968D01*
X141157806Y-130411059D01*
X141000000Y-130390284D01*
X140842193Y-130411059D01*
X140695143Y-130471968D01*
X140568866Y-130568866D01*
X140471968Y-130695143D01*
X140411059Y-130842193D01*
X140390284Y-131000000D01*
X140411059Y-131157806D01*
X140471968Y-131304856D01*
X140494793Y-131334601D01*
X140568866Y-131431134D01*
X140569075Y-131431294D01*
X140569207Y-131431396D01*
X140605507Y-131475629D01*
X140618500Y-131531356D01*
X140618500Y-132297367D01*
X140615818Y-132323225D01*
X140613554Y-132334017D01*
X140617532Y-132365922D01*
X140618500Y-132381508D01*
X140618500Y-132381614D01*
X140621975Y-132402443D01*
X140622725Y-132407589D01*
X140630294Y-132468302D01*
X140630371Y-132468542D01*
X140634181Y-132475583D01*
X140634182Y-132475586D01*
X140659492Y-132522355D01*
X140661874Y-132526984D01*
X140688742Y-132581943D01*
X140688884Y-132582134D01*
X140694779Y-132587561D01*
X140694780Y-132587562D01*
X140733931Y-132623603D01*
X140737663Y-132627185D01*
X141254512Y-133144034D01*
X141284729Y-133192624D01*
X141290340Y-133249567D01*
X141290283Y-133249995D01*
X141311059Y-133407806D01*
X141371968Y-133554856D01*
X141398122Y-133588940D01*
X141468866Y-133681134D01*
X141571308Y-133759741D01*
X141595143Y-133778031D01*
X141742193Y-133838940D01*
X141760552Y-133841356D01*
X141900000Y-133859716D01*
X142057806Y-133838940D01*
X142057805Y-133838940D01*
X142204856Y-133778031D01*
X142204856Y-133778030D01*
X142204858Y-133778030D01*
X142331134Y-133681134D01*
X142428030Y-133554858D01*
X142439142Y-133528031D01*
X142495288Y-133392481D01*
X142497718Y-133393487D01*
X142514452Y-133354325D01*
X142569714Y-133314792D01*
X142637469Y-133309704D01*
X142698015Y-133340540D01*
X142733905Y-133373579D01*
X142737663Y-133377185D01*
X142754512Y-133394034D01*
X142784729Y-133442624D01*
X142790340Y-133499567D01*
X142790283Y-133499995D01*
X142811059Y-133657806D01*
X142871968Y-133804856D01*
X142871970Y-133804858D01*
X142968866Y-133931134D01*
X143071308Y-134009741D01*
X143095143Y-134028031D01*
X143242193Y-134088940D01*
X143260552Y-134091356D01*
X143400000Y-134109716D01*
X143557806Y-134088940D01*
X143704858Y-134028030D01*
X143831134Y-133931134D01*
X143928030Y-133804858D01*
X143988940Y-133657806D01*
X143989200Y-133655826D01*
X144009355Y-133602274D01*
X144051120Y-133563155D01*
X144105879Y-133546543D01*
X144162339Y-133555864D01*
X144242193Y-133588940D01*
X144260552Y-133591356D01*
X144400000Y-133609716D01*
X144557806Y-133588940D01*
X144557805Y-133588940D01*
X144704856Y-133528031D01*
X144704856Y-133528030D01*
X144704858Y-133528030D01*
X144831134Y-133431134D01*
X144928030Y-133304858D01*
X144964166Y-133217618D01*
X144988940Y-133157806D01*
X144995432Y-133108492D01*
X145009716Y-133000000D01*
X144988940Y-132842194D01*
X144980652Y-132822184D01*
X144928031Y-132695143D01*
X144914753Y-132677839D01*
X144831134Y-132568866D01*
X144830793Y-132568604D01*
X144794493Y-132524371D01*
X144781500Y-132468644D01*
X144781500Y-131418842D01*
X144784182Y-131392984D01*
X144786445Y-131382191D01*
X144782468Y-131350287D01*
X144781500Y-131334701D01*
X144781500Y-131334601D01*
X144781500Y-131334598D01*
X144778017Y-131313732D01*
X144777273Y-131308615D01*
X144776804Y-131304856D01*
X144770696Y-131255849D01*
X144770695Y-131255848D01*
X144769704Y-131247892D01*
X144769635Y-131247678D01*
X144765818Y-131240625D01*
X144765818Y-131240623D01*
X144740509Y-131193857D01*
X144738133Y-131189240D01*
X144711255Y-131134261D01*
X144711114Y-131134071D01*
X144666081Y-131092616D01*
X144662323Y-131089010D01*
X142840772Y-129267458D01*
X142824383Y-129247276D01*
X142818352Y-129238045D01*
X142818351Y-129238044D01*
X142792974Y-129218292D01*
X142781266Y-129207952D01*
X142781201Y-129207887D01*
X142781200Y-129207886D01*
X142763982Y-129195593D01*
X142759871Y-129192527D01*
X142717876Y-129159842D01*
X142717873Y-129159840D01*
X142711562Y-129154929D01*
X142711325Y-129154807D01*
X142703661Y-129152525D01*
X142652690Y-129137350D01*
X142647740Y-129135764D01*
X142589871Y-129115897D01*
X142589639Y-129115863D01*
X142528518Y-129118392D01*
X142523311Y-129118500D01*
X141431356Y-129118500D01*
X141375629Y-129105507D01*
X141331396Y-129069207D01*
X141331294Y-129069075D01*
X141331134Y-129068866D01*
X141239462Y-128998523D01*
X141204856Y-128971968D01*
X141057806Y-128911059D01*
X140900000Y-128890284D01*
X140742193Y-128911059D01*
X140595143Y-128971968D01*
X140468866Y-129068866D01*
X140371968Y-129195143D01*
X140311059Y-129342193D01*
X140290284Y-129500000D01*
X134381500Y-129500000D01*
X134381500Y-128414814D01*
X134394493Y-128359087D01*
X134430793Y-128314854D01*
X134430862Y-128314800D01*
X134431134Y-128314592D01*
X134528030Y-128188316D01*
X134588940Y-128041264D01*
X134609716Y-127883458D01*
X134588940Y-127725652D01*
X134588940Y-127725651D01*
X134521682Y-127563273D01*
X134523724Y-127562426D01*
X134506900Y-127519851D01*
X134519287Y-127451772D01*
X134565756Y-127400501D01*
X134632293Y-127381500D01*
X144368644Y-127381500D01*
X144424371Y-127394493D01*
X144468604Y-127430793D01*
X144468866Y-127431134D01*
X144577839Y-127514753D01*
X144595143Y-127528031D01*
X144742193Y-127588940D01*
X144760552Y-127591356D01*
X144900000Y-127609716D01*
X145057806Y-127588940D01*
X145119773Y-127563273D01*
X145204856Y-127528031D01*
X145204856Y-127528030D01*
X145204858Y-127528030D01*
X145331134Y-127431134D01*
X145428030Y-127304858D01*
X145488940Y-127157806D01*
X145509716Y-127000000D01*
X145498585Y-126915456D01*
X145503759Y-126859817D01*
X145532489Y-126811883D01*
X145579124Y-126781090D01*
X145634489Y-126773494D01*
X145649995Y-126774850D01*
X145871376Y-126755482D01*
X146086024Y-126697968D01*
X146287425Y-126604052D01*
X146297785Y-126596797D01*
X145290082Y-125589094D01*
X145257470Y-125532610D01*
X145257470Y-125467388D01*
X145290082Y-125410904D01*
X145560904Y-125140082D01*
X145617388Y-125107470D01*
X145682610Y-125107470D01*
X145739094Y-125140082D01*
X146746797Y-126147785D01*
X146754052Y-126137425D01*
X146847968Y-125936024D01*
X146905482Y-125721376D01*
X146924850Y-125499999D01*
X146905482Y-125278625D01*
X146847966Y-125063973D01*
X146832510Y-125030827D01*
X146821358Y-124964770D01*
X146845639Y-124902333D01*
X146898488Y-124861168D01*
X146904858Y-124858530D01*
X147031134Y-124761634D01*
X147128030Y-124635358D01*
X147188940Y-124488306D01*
X147209716Y-124330500D01*
X147188940Y-124172694D01*
X147188940Y-124172693D01*
X147128031Y-124025643D01*
X147109741Y-124001808D01*
X147031134Y-123899366D01*
X146904858Y-123802470D01*
X146904857Y-123802469D01*
X146835565Y-123773768D01*
X146782716Y-123732601D01*
X146758435Y-123670165D01*
X146769589Y-123604108D01*
X146847967Y-123436027D01*
X146905482Y-123221376D01*
X146924850Y-122999999D01*
X146905482Y-122778623D01*
X146847968Y-122563975D01*
X146754052Y-122362573D01*
X146746798Y-122352214D01*
X146746796Y-122352214D01*
X145739094Y-123359917D01*
X145682610Y-123392529D01*
X145617388Y-123392529D01*
X145560904Y-123359917D01*
X145290081Y-123089094D01*
X145257469Y-123032610D01*
X145257469Y-122967388D01*
X145290081Y-122910904D01*
X146299087Y-121901898D01*
X146311039Y-121839450D01*
X146357490Y-121788759D01*
X146423636Y-121770000D01*
X146460589Y-121770000D01*
X146521093Y-121763494D01*
X146657962Y-121712445D01*
X146774904Y-121624904D01*
X146862445Y-121507962D01*
X146913494Y-121371093D01*
X146920000Y-121310589D01*
X146920000Y-120817500D01*
X144380000Y-120817500D01*
X144380000Y-121310589D01*
X144387359Y-121379030D01*
X144375417Y-121447554D01*
X144328936Y-121499301D01*
X144262081Y-121518500D01*
X140363418Y-121518500D01*
X140304022Y-121503622D01*
X140258653Y-121462501D01*
X140238025Y-121404849D01*
X140247010Y-121344281D01*
X140283486Y-121295100D01*
X140372250Y-121222254D01*
X140375474Y-121218326D01*
X140499278Y-121067469D01*
X140593667Y-120890880D01*
X140651792Y-120699269D01*
X140671418Y-120500000D01*
X140656707Y-120350639D01*
X140651792Y-120300730D01*
X140593667Y-120109121D01*
X140593667Y-120109120D01*
X140499278Y-119932531D01*
X140424407Y-119841300D01*
X140372252Y-119777747D01*
X140255630Y-119682040D01*
X140217469Y-119650722D01*
X140157413Y-119618621D01*
X140109377Y-119573335D01*
X140090834Y-119509974D01*
X140106876Y-119445934D01*
X140153097Y-119398795D01*
X140216810Y-119381500D01*
X144297308Y-119381500D01*
X144355710Y-119395852D01*
X144400807Y-119435639D01*
X144422326Y-119491797D01*
X144415364Y-119551532D01*
X144386505Y-119628906D01*
X144380000Y-119689411D01*
X144380000Y-120182500D01*
X146920000Y-120182500D01*
X146920000Y-119689411D01*
X146913494Y-119628906D01*
X146884636Y-119551532D01*
X146877674Y-119491797D01*
X146899193Y-119435639D01*
X146944290Y-119395852D01*
X147002692Y-119381500D01*
X150622418Y-119381500D01*
X150670636Y-119391091D01*
X150711514Y-119418405D01*
X151506652Y-120213544D01*
X151523039Y-120233724D01*
X151529069Y-120242954D01*
X151529070Y-120242955D01*
X151529071Y-120242956D01*
X151554449Y-120262708D01*
X151566154Y-120273046D01*
X151566222Y-120273114D01*
X151583423Y-120285395D01*
X151587562Y-120288480D01*
X151629546Y-120321158D01*
X151635874Y-120326083D01*
X151636073Y-120326185D01*
X151643759Y-120328473D01*
X151643762Y-120328475D01*
X151694732Y-120343649D01*
X151699647Y-120345223D01*
X151749970Y-120362500D01*
X151749973Y-120362500D01*
X151757552Y-120365102D01*
X151757782Y-120365136D01*
X151765789Y-120364804D01*
X151765790Y-120364805D01*
X151818915Y-120362607D01*
X151824121Y-120362500D01*
X156116367Y-120362500D01*
X156142224Y-120365181D01*
X156153017Y-120367445D01*
X156184922Y-120363468D01*
X156200508Y-120362500D01*
X156200611Y-120362500D01*
X156221476Y-120359017D01*
X156226512Y-120358283D01*
X156279360Y-120351696D01*
X156279362Y-120351694D01*
X156287327Y-120350702D01*
X156287524Y-120350639D01*
X156294583Y-120346818D01*
X156294586Y-120346818D01*
X156341380Y-120321493D01*
X156345943Y-120319144D01*
X156393746Y-120295776D01*
X156393747Y-120295774D01*
X156400959Y-120292249D01*
X156401123Y-120292127D01*
X156406559Y-120286221D01*
X156406562Y-120286220D01*
X156442616Y-120247053D01*
X156446151Y-120243369D01*
X157332548Y-119356973D01*
X157352723Y-119340591D01*
X157361956Y-119334560D01*
X157381713Y-119309174D01*
X157392038Y-119297484D01*
X157392114Y-119297409D01*
X157404397Y-119280204D01*
X157407482Y-119276065D01*
X157440158Y-119234085D01*
X157440158Y-119234083D01*
X157445086Y-119227753D01*
X157445186Y-119227559D01*
X157447475Y-119219870D01*
X157462655Y-119168875D01*
X157464215Y-119164005D01*
X157481500Y-119113661D01*
X157481500Y-119113657D01*
X157484102Y-119106078D01*
X157484136Y-119105848D01*
X157481608Y-119044727D01*
X157481500Y-119039520D01*
X157481500Y-105510212D01*
X157491091Y-105461994D01*
X157518405Y-105421117D01*
X158440266Y-104499256D01*
X159394036Y-103545485D01*
X159442628Y-103515269D01*
X159499575Y-103509660D01*
X159500000Y-103509716D01*
X159657806Y-103488940D01*
X159804858Y-103428030D01*
X159931134Y-103331134D01*
X160028030Y-103204858D01*
X160044376Y-103165396D01*
X160088940Y-103057806D01*
X160092720Y-103029091D01*
X160109716Y-102900000D01*
X160088940Y-102742194D01*
X160088940Y-102742193D01*
X160028031Y-102595143D01*
X160009741Y-102571308D01*
X159931134Y-102468866D01*
X159849122Y-102405935D01*
X159804856Y-102371968D01*
X159657806Y-102311059D01*
X159500000Y-102290284D01*
X159342193Y-102311059D01*
X159195143Y-102371968D01*
X159068866Y-102468866D01*
X158971968Y-102595143D01*
X158911059Y-102742193D01*
X158890284Y-102900000D01*
X158890340Y-102900427D01*
X158884729Y-102957372D01*
X158854512Y-103005963D01*
X156867455Y-104993020D01*
X156847280Y-105009405D01*
X156838042Y-105015440D01*
X156818288Y-105040820D01*
X156807972Y-105052504D01*
X156807890Y-105052586D01*
X156795612Y-105069781D01*
X156792503Y-105073950D01*
X156754936Y-105122216D01*
X156754803Y-105122475D01*
X156737349Y-105181099D01*
X156735762Y-105186055D01*
X156715897Y-105243921D01*
X156715863Y-105244151D01*
X156718392Y-105305273D01*
X156718500Y-105310480D01*
X156718500Y-118839787D01*
X156708909Y-118888005D01*
X156681595Y-118928883D01*
X156047881Y-119562596D01*
X156007004Y-119589909D01*
X155958786Y-119599500D01*
X154202199Y-119599500D01*
X154135533Y-119580419D01*
X154089058Y-119528955D01*
X154076851Y-119460695D01*
X154083000Y-119400504D01*
X154083000Y-119317500D01*
X152508500Y-119317500D01*
X152445500Y-119300619D01*
X152399381Y-119254500D01*
X152382500Y-119191500D01*
X152382500Y-118808500D01*
X152399381Y-118745500D01*
X152445500Y-118699381D01*
X152508500Y-118682500D01*
X154083000Y-118682500D01*
X154083000Y-118599488D01*
X154079039Y-118560718D01*
X154090102Y-118494853D01*
X154133276Y-118443895D01*
X154196430Y-118422163D01*
X154261819Y-118435763D01*
X154294240Y-118465458D01*
X154296337Y-118463362D01*
X154426597Y-118593622D01*
X154426599Y-118593623D01*
X154426600Y-118593624D01*
X154570563Y-118684082D01*
X154731046Y-118740237D01*
X154900000Y-118759274D01*
X155068954Y-118740237D01*
X155229437Y-118684082D01*
X155373400Y-118593624D01*
X155493624Y-118473400D01*
X155584082Y-118329437D01*
X155640237Y-118168954D01*
X155659274Y-118000000D01*
X155640237Y-117831046D01*
X155584082Y-117670563D01*
X155493624Y-117526600D01*
X155445402Y-117478378D01*
X155418091Y-117437505D01*
X155408500Y-117389286D01*
X155408500Y-117018394D01*
X155411379Y-116991614D01*
X155411697Y-116990148D01*
X155412420Y-116986827D01*
X155408821Y-116936505D01*
X155408500Y-116927517D01*
X155408500Y-116913813D01*
X155408500Y-116913810D01*
X155406547Y-116900233D01*
X155405588Y-116891304D01*
X155402396Y-116846671D01*
X155401989Y-116840978D01*
X155400276Y-116836387D01*
X155393615Y-116810285D01*
X155393554Y-116809862D01*
X155392919Y-116805444D01*
X155371962Y-116759554D01*
X155368519Y-116751243D01*
X155354638Y-116714027D01*
X155350889Y-116703974D01*
X155347953Y-116700052D01*
X155334209Y-116676886D01*
X155332176Y-116672434D01*
X155299144Y-116634315D01*
X155293496Y-116627306D01*
X155285281Y-116616332D01*
X155285280Y-116616330D01*
X155275569Y-116606619D01*
X155269468Y-116600066D01*
X155236421Y-116561928D01*
X155232301Y-116559280D01*
X155211327Y-116542377D01*
X153072405Y-114403455D01*
X153045091Y-114362578D01*
X153035500Y-114314360D01*
X153035500Y-111066216D01*
X153038379Y-111039436D01*
X153038697Y-111037970D01*
X153039420Y-111034649D01*
X153035820Y-110984325D01*
X153035500Y-110975339D01*
X153035500Y-110961634D01*
X153033550Y-110948074D01*
X153032588Y-110939125D01*
X153028989Y-110888801D01*
X153028989Y-110888799D01*
X153027277Y-110884210D01*
X153020615Y-110858113D01*
X153019919Y-110853266D01*
X152998953Y-110807358D01*
X152995517Y-110799059D01*
X152977890Y-110751798D01*
X152974958Y-110747881D01*
X152961207Y-110724704D01*
X152959176Y-110720256D01*
X152926144Y-110682137D01*
X152920496Y-110675128D01*
X152912281Y-110664154D01*
X152912280Y-110664152D01*
X152902569Y-110654441D01*
X152896468Y-110647888D01*
X152863421Y-110609750D01*
X152859301Y-110607102D01*
X152838327Y-110590199D01*
X152433547Y-110185419D01*
X152409120Y-110150993D01*
X152397434Y-110110431D01*
X152397273Y-110109005D01*
X152397274Y-110109000D01*
X152378237Y-109940046D01*
X152322082Y-109779563D01*
X152322080Y-109779560D01*
X152322080Y-109779559D01*
X152292813Y-109732981D01*
X152273500Y-109665945D01*
X152273500Y-106881972D01*
X152289222Y-106821023D01*
X152332464Y-106775285D01*
X152392458Y-106737588D01*
X152395089Y-106735935D01*
X152515313Y-106615711D01*
X152605771Y-106471748D01*
X152661926Y-106311265D01*
X152680963Y-106142311D01*
X152661926Y-105973357D01*
X152605771Y-105812874D01*
X152515313Y-105668911D01*
X152515312Y-105668910D01*
X152515311Y-105668908D01*
X152395091Y-105548688D01*
X152307495Y-105493648D01*
X152251126Y-105458229D01*
X152197631Y-105439510D01*
X152090645Y-105402074D01*
X151921689Y-105383037D01*
X151752732Y-105402074D01*
X151592252Y-105458229D01*
X151448286Y-105548688D01*
X151345595Y-105651380D01*
X151295436Y-105682118D01*
X151236789Y-105686734D01*
X151182439Y-105664221D01*
X151144233Y-105619488D01*
X151130500Y-105562285D01*
X151130500Y-105545838D01*
X151140091Y-105497620D01*
X151167402Y-105456745D01*
X152069585Y-104554562D01*
X152104005Y-104530140D01*
X152144567Y-104518454D01*
X152145993Y-104518293D01*
X152146000Y-104518294D01*
X152314954Y-104499257D01*
X152475437Y-104443102D01*
X152619400Y-104352644D01*
X152739624Y-104232420D01*
X152830082Y-104088457D01*
X152886237Y-103927974D01*
X152905274Y-103759020D01*
X152886237Y-103590066D01*
X152830082Y-103429583D01*
X152739624Y-103285620D01*
X152739623Y-103285619D01*
X152739622Y-103285617D01*
X152619402Y-103165397D01*
X152577647Y-103139161D01*
X152475437Y-103074938D01*
X152421942Y-103056219D01*
X152314956Y-103018783D01*
X152146000Y-102999746D01*
X151977043Y-103018783D01*
X151816563Y-103074938D01*
X151672597Y-103165397D01*
X151552377Y-103285617D01*
X151461918Y-103429583D01*
X151405763Y-103590063D01*
X151386565Y-103760451D01*
X151374879Y-103801013D01*
X151350452Y-103835438D01*
X150583592Y-104602298D01*
X150533436Y-104633035D01*
X150474789Y-104637651D01*
X150420439Y-104615138D01*
X150382233Y-104570405D01*
X150368500Y-104513202D01*
X150368500Y-98288987D01*
X150371182Y-98263129D01*
X150373445Y-98252336D01*
X150369468Y-98220432D01*
X150368500Y-98204846D01*
X150368500Y-98204746D01*
X150368500Y-98204743D01*
X150365017Y-98183877D01*
X150364273Y-98178760D01*
X150356704Y-98118037D01*
X150356635Y-98117823D01*
X150352818Y-98110770D01*
X150352818Y-98110768D01*
X150327509Y-98064002D01*
X150325133Y-98059385D01*
X150298255Y-98004406D01*
X150298114Y-98004216D01*
X150253081Y-97962761D01*
X150249323Y-97959155D01*
X148196616Y-95906447D01*
X148180227Y-95886265D01*
X148174196Y-95877034D01*
X148174195Y-95877033D01*
X148148818Y-95857281D01*
X148137110Y-95846941D01*
X148137045Y-95846876D01*
X148137044Y-95846875D01*
X148119826Y-95834582D01*
X148115715Y-95831516D01*
X148073720Y-95798831D01*
X148073717Y-95798829D01*
X148067406Y-95793918D01*
X148067169Y-95793796D01*
X148059505Y-95791514D01*
X148008534Y-95776339D01*
X148003584Y-95774753D01*
X147945715Y-95754886D01*
X147945483Y-95754852D01*
X147884362Y-95757381D01*
X147879155Y-95757489D01*
X146849359Y-95757489D01*
X146791527Y-95743433D01*
X146746598Y-95704402D01*
X146724596Y-95649103D01*
X146730430Y-95589874D01*
X146790236Y-95418956D01*
X146790237Y-95418954D01*
X146809274Y-95250000D01*
X146796497Y-95136606D01*
X146808183Y-95067831D01*
X146854669Y-95015813D01*
X146921705Y-94996500D01*
X148156367Y-94996500D01*
X148182224Y-94999181D01*
X148193017Y-95001445D01*
X148224922Y-94997468D01*
X148240508Y-94996500D01*
X148240611Y-94996500D01*
X148261476Y-94993017D01*
X148266512Y-94992283D01*
X148319360Y-94985696D01*
X148319362Y-94985694D01*
X148327327Y-94984702D01*
X148327524Y-94984639D01*
X148334583Y-94980818D01*
X148334586Y-94980818D01*
X148381380Y-94955493D01*
X148385943Y-94953144D01*
X148433746Y-94929776D01*
X148433747Y-94929774D01*
X148440959Y-94926249D01*
X148441123Y-94926127D01*
X148446559Y-94920221D01*
X148446562Y-94920220D01*
X148482626Y-94881041D01*
X148486163Y-94877357D01*
X148949542Y-94413978D01*
X148969713Y-94397598D01*
X148978956Y-94391560D01*
X148998709Y-94366179D01*
X149009050Y-94354471D01*
X149009113Y-94354409D01*
X149021400Y-94337197D01*
X149024488Y-94333058D01*
X149057158Y-94291085D01*
X149057158Y-94291082D01*
X149062080Y-94284760D01*
X149062185Y-94284556D01*
X149064471Y-94276874D01*
X149064475Y-94276870D01*
X149079665Y-94225844D01*
X149081209Y-94221022D01*
X149098500Y-94170661D01*
X149098500Y-94170658D01*
X149101101Y-94163082D01*
X149101135Y-94162849D01*
X149098608Y-94101742D01*
X149098500Y-94096535D01*
X149098500Y-90296999D01*
X149735726Y-90296999D01*
X149754763Y-90465956D01*
X149783490Y-90548052D01*
X149810918Y-90626437D01*
X149871219Y-90722406D01*
X149901377Y-90770402D01*
X150021597Y-90890622D01*
X150021599Y-90890623D01*
X150021600Y-90890624D01*
X150165563Y-90981082D01*
X150326046Y-91037237D01*
X150495000Y-91056274D01*
X150663954Y-91037237D01*
X150824437Y-90981082D01*
X150843021Y-90969405D01*
X150871019Y-90951813D01*
X150938055Y-90932500D01*
X152570787Y-90932500D01*
X152619005Y-90942091D01*
X152659883Y-90969405D01*
X153505576Y-91815099D01*
X153532889Y-91855976D01*
X153542480Y-91904194D01*
X153542480Y-100578603D01*
X153539798Y-100604461D01*
X153537534Y-100615253D01*
X153541512Y-100647158D01*
X153542480Y-100662744D01*
X153542480Y-100662850D01*
X153545955Y-100683679D01*
X153546705Y-100688825D01*
X153554274Y-100749538D01*
X153554351Y-100749778D01*
X153558161Y-100756819D01*
X153558162Y-100756822D01*
X153583472Y-100803591D01*
X153585854Y-100808220D01*
X153612722Y-100863179D01*
X153612864Y-100863370D01*
X153618759Y-100868797D01*
X153618760Y-100868798D01*
X153657898Y-100904827D01*
X153661632Y-100908410D01*
X154521595Y-101768374D01*
X154548908Y-101809251D01*
X154558499Y-101857469D01*
X154558499Y-106627366D01*
X154555817Y-106653224D01*
X154553553Y-106664016D01*
X154557531Y-106695921D01*
X154558499Y-106711507D01*
X154558499Y-106711613D01*
X154561974Y-106732442D01*
X154562724Y-106737588D01*
X154570293Y-106798301D01*
X154570371Y-106798545D01*
X154599491Y-106852355D01*
X154601874Y-106856984D01*
X154628736Y-106911931D01*
X154628895Y-106912145D01*
X154645016Y-106926985D01*
X154673929Y-106953601D01*
X154677662Y-106957184D01*
X154802512Y-107082034D01*
X154832729Y-107130624D01*
X154838340Y-107187567D01*
X154838283Y-107187995D01*
X154859059Y-107345806D01*
X154919968Y-107492856D01*
X154919970Y-107492858D01*
X155016866Y-107619134D01*
X155095699Y-107679625D01*
X155143143Y-107716031D01*
X155290193Y-107776940D01*
X155308552Y-107779356D01*
X155448000Y-107797716D01*
X155605806Y-107776940D01*
X155752858Y-107716030D01*
X155879134Y-107619134D01*
X155976030Y-107492858D01*
X156007816Y-107416120D01*
X156036940Y-107345806D01*
X156042324Y-107304908D01*
X156057716Y-107188000D01*
X156036940Y-107030194D01*
X156005935Y-106955339D01*
X155976031Y-106883143D01*
X155928364Y-106821023D01*
X155879134Y-106756866D01*
X155758131Y-106664016D01*
X155752856Y-106659968D01*
X155605806Y-106599059D01*
X155461012Y-106579997D01*
X155447999Y-106578284D01*
X155431554Y-106576119D01*
X155432188Y-106571296D01*
X155394255Y-106565461D01*
X155341234Y-106518966D01*
X155321499Y-106451263D01*
X155321499Y-101699889D01*
X155324181Y-101674031D01*
X155326444Y-101663238D01*
X155322467Y-101631334D01*
X155321499Y-101615748D01*
X155321499Y-101615643D01*
X155318024Y-101594826D01*
X155317275Y-101589694D01*
X155310695Y-101536895D01*
X155310694Y-101536894D01*
X155309703Y-101528936D01*
X155309635Y-101528725D01*
X155305817Y-101521670D01*
X155305817Y-101521669D01*
X155280508Y-101474903D01*
X155278132Y-101470286D01*
X155251254Y-101415307D01*
X155251113Y-101415117D01*
X155206093Y-101373674D01*
X155202334Y-101370068D01*
X154342384Y-100510117D01*
X154315071Y-100469240D01*
X154305480Y-100421022D01*
X154305480Y-91746613D01*
X154308162Y-91720755D01*
X154310425Y-91709962D01*
X154306448Y-91678058D01*
X154305480Y-91662472D01*
X154305480Y-91662372D01*
X154305480Y-91662369D01*
X154301997Y-91641503D01*
X154301253Y-91636386D01*
X154295989Y-91594159D01*
X154294676Y-91583620D01*
X154294675Y-91583619D01*
X154293684Y-91575663D01*
X154293615Y-91575449D01*
X154289798Y-91568396D01*
X154289798Y-91568394D01*
X154264489Y-91521628D01*
X154262113Y-91517011D01*
X154235235Y-91462032D01*
X154235094Y-91461842D01*
X154190061Y-91420387D01*
X154186303Y-91416781D01*
X153203922Y-90434399D01*
X153172521Y-90382139D01*
X153170988Y-90352875D01*
X153167287Y-90353108D01*
X153156205Y-90176973D01*
X153107494Y-90027056D01*
X153106588Y-90024267D01*
X153020553Y-89888697D01*
X152903506Y-89778783D01*
X152762803Y-89701431D01*
X152762802Y-89701430D01*
X152762799Y-89701429D01*
X152607283Y-89661500D01*
X152607282Y-89661500D01*
X151282388Y-89661500D01*
X150938055Y-89661500D01*
X150871019Y-89642187D01*
X150824440Y-89612919D01*
X150813790Y-89609192D01*
X150663954Y-89556763D01*
X150495000Y-89537726D01*
X150326043Y-89556763D01*
X150165563Y-89612918D01*
X150021597Y-89703377D01*
X149901377Y-89823597D01*
X149810918Y-89967563D01*
X149754763Y-90128043D01*
X149735726Y-90296999D01*
X149098500Y-90296999D01*
X149098500Y-84411212D01*
X149108091Y-84362994D01*
X149135405Y-84322117D01*
X149888656Y-83568866D01*
X150741545Y-82715976D01*
X150761715Y-82699596D01*
X150770956Y-82693560D01*
X150790713Y-82668174D01*
X150801038Y-82656484D01*
X150801114Y-82656409D01*
X150813397Y-82639203D01*
X150816498Y-82635045D01*
X150849158Y-82593085D01*
X150849158Y-82593083D01*
X150854089Y-82586749D01*
X150854180Y-82586571D01*
X150856471Y-82578873D01*
X150856475Y-82578869D01*
X150871659Y-82527865D01*
X150873237Y-82522944D01*
X150893102Y-82465081D01*
X150893136Y-82464848D01*
X150890608Y-82403727D01*
X150890500Y-82398520D01*
X150890500Y-78207706D01*
X150903494Y-78151978D01*
X150939795Y-78107744D01*
X150941818Y-78106191D01*
X151039634Y-78031134D01*
X151136530Y-77904858D01*
X151197440Y-77757806D01*
X151218216Y-77600000D01*
X151197440Y-77442194D01*
X151173492Y-77384377D01*
X151136531Y-77295143D01*
X151115368Y-77267563D01*
X151039634Y-77168866D01*
X150956745Y-77105262D01*
X150913356Y-77071968D01*
X150766306Y-77011059D01*
X150619217Y-76991695D01*
X150608500Y-76990284D01*
X150608499Y-76990284D01*
X150551067Y-76997845D01*
X150492558Y-76991695D01*
X150443219Y-76959651D01*
X150413807Y-76908699D01*
X150410733Y-76849949D01*
X150423629Y-76820991D01*
X150421682Y-76820185D01*
X150488940Y-76657806D01*
X150498335Y-76586445D01*
X150509716Y-76500000D01*
X150488940Y-76342194D01*
X150488940Y-76342193D01*
X150428031Y-76195143D01*
X150407178Y-76167967D01*
X150331134Y-76068866D01*
X150252525Y-76008546D01*
X150204856Y-75971968D01*
X150057806Y-75911059D01*
X149900000Y-75890284D01*
X149742193Y-75911059D01*
X149595143Y-75971968D01*
X149468866Y-76068866D01*
X149371968Y-76195143D01*
X149311059Y-76342193D01*
X149295243Y-76462333D01*
X149290284Y-76500000D01*
X149291749Y-76511127D01*
X149311059Y-76657806D01*
X149371969Y-76804858D01*
X149470462Y-76933215D01*
X149489813Y-76969417D01*
X149496500Y-77009919D01*
X149496500Y-82067787D01*
X149486909Y-82116005D01*
X149459595Y-82156883D01*
X147976452Y-83640023D01*
X147956276Y-83656407D01*
X147947043Y-83662439D01*
X147927288Y-83687820D01*
X147916972Y-83699504D01*
X147916890Y-83699586D01*
X147904612Y-83716781D01*
X147901503Y-83720950D01*
X147863936Y-83769216D01*
X147863803Y-83769475D01*
X147846349Y-83828099D01*
X147844762Y-83833055D01*
X147824897Y-83890921D01*
X147824863Y-83891151D01*
X147827392Y-83952273D01*
X147827500Y-83957480D01*
X147827500Y-93599500D01*
X147810619Y-93662500D01*
X147764500Y-93708619D01*
X147701500Y-93725500D01*
X145721634Y-93725500D01*
X145695776Y-93722818D01*
X145684983Y-93720554D01*
X145653079Y-93724532D01*
X145637493Y-93725500D01*
X145637385Y-93725500D01*
X145616543Y-93728977D01*
X145611396Y-93729727D01*
X145550701Y-93737293D01*
X145550449Y-93737374D01*
X145496661Y-93766482D01*
X145492034Y-93768864D01*
X145437070Y-93795735D01*
X145436849Y-93795900D01*
X145395419Y-93840904D01*
X145391815Y-93844661D01*
X145020402Y-94216073D01*
X144972922Y-94245906D01*
X144917200Y-94252185D01*
X144780000Y-94236726D01*
X144611043Y-94255763D01*
X144450564Y-94311917D01*
X144418079Y-94332329D01*
X144365150Y-94350849D01*
X144309428Y-94344570D01*
X144261948Y-94314736D01*
X144232115Y-94267256D01*
X144228093Y-94255763D01*
X144194082Y-94158563D01*
X144103624Y-94014600D01*
X144103623Y-94014599D01*
X144103622Y-94014597D01*
X143983402Y-93894377D01*
X143904279Y-93844661D01*
X143839437Y-93803918D01*
X143785942Y-93785199D01*
X143678956Y-93747763D01*
X143510000Y-93728726D01*
X143341043Y-93747763D01*
X143180563Y-93803918D01*
X143036597Y-93894377D01*
X142963595Y-93967380D01*
X142913436Y-93998118D01*
X142854789Y-94002734D01*
X142800439Y-93980221D01*
X142762233Y-93935488D01*
X142748500Y-93878285D01*
X142748500Y-87047634D01*
X142751182Y-87021776D01*
X142753445Y-87010983D01*
X142749468Y-86979079D01*
X142748500Y-86963493D01*
X142748500Y-86963388D01*
X142745025Y-86942571D01*
X142744276Y-86937439D01*
X142737696Y-86884640D01*
X142737695Y-86884638D01*
X142736703Y-86876678D01*
X142736637Y-86876471D01*
X142707508Y-86822644D01*
X142705138Y-86818040D01*
X142681777Y-86770254D01*
X142681776Y-86770253D01*
X142678253Y-86763046D01*
X142678122Y-86762871D01*
X142633092Y-86721418D01*
X142629335Y-86717812D01*
X139991405Y-84079882D01*
X139964091Y-84039005D01*
X139954500Y-83990787D01*
X139954500Y-75363633D01*
X139957182Y-75337775D01*
X139959445Y-75326982D01*
X139955468Y-75295078D01*
X139954500Y-75279492D01*
X139954500Y-75279388D01*
X139951024Y-75258560D01*
X139950276Y-75253433D01*
X139943696Y-75200639D01*
X139943694Y-75200636D01*
X139942703Y-75192679D01*
X139942636Y-75192468D01*
X139913519Y-75138666D01*
X139911135Y-75134035D01*
X139884255Y-75079052D01*
X139884114Y-75078862D01*
X139839081Y-75037407D01*
X139835323Y-75033801D01*
X137466981Y-72665458D01*
X137450592Y-72645276D01*
X137444561Y-72636045D01*
X137444560Y-72636044D01*
X137419183Y-72616292D01*
X137407475Y-72605952D01*
X137407410Y-72605887D01*
X137407409Y-72605886D01*
X137390191Y-72593593D01*
X137386080Y-72590527D01*
X137344085Y-72557842D01*
X137344082Y-72557840D01*
X137337771Y-72552929D01*
X137337534Y-72552807D01*
X137329870Y-72550525D01*
X137278899Y-72535350D01*
X137273949Y-72533764D01*
X137216080Y-72513897D01*
X137215848Y-72513863D01*
X137154727Y-72516392D01*
X137149520Y-72516500D01*
X136196633Y-72516500D01*
X136170775Y-72513818D01*
X136159983Y-72511555D01*
X136159982Y-72511555D01*
X136128080Y-72515532D01*
X136112494Y-72516500D01*
X136112386Y-72516500D01*
X136091550Y-72519976D01*
X136086406Y-72520726D01*
X136025690Y-72528296D01*
X136025458Y-72528370D01*
X135971637Y-72557495D01*
X135967012Y-72559875D01*
X135912079Y-72586731D01*
X135911847Y-72586904D01*
X135870420Y-72631904D01*
X135866816Y-72635660D01*
X135403452Y-73099023D01*
X135383276Y-73115407D01*
X135374043Y-73121439D01*
X135354288Y-73146820D01*
X135343972Y-73158504D01*
X135343890Y-73158586D01*
X135331612Y-73175781D01*
X135328503Y-73179950D01*
X135290936Y-73228216D01*
X135290803Y-73228475D01*
X135273349Y-73287099D01*
X135271762Y-73292055D01*
X135251897Y-73349921D01*
X135251863Y-73350151D01*
X135254392Y-73411273D01*
X135254500Y-73416480D01*
X135254500Y-75608787D01*
X135244909Y-75657005D01*
X135217595Y-75697883D01*
X135133881Y-75781596D01*
X135093004Y-75808909D01*
X135044786Y-75818500D01*
X133436006Y-75818500D01*
X133375057Y-75802778D01*
X133329319Y-75759536D01*
X133308624Y-75726600D01*
X133308622Y-75726598D01*
X133308621Y-75726596D01*
X133188402Y-75606377D01*
X133146647Y-75580141D01*
X133044437Y-75515918D01*
X132990942Y-75497199D01*
X132883956Y-75459763D01*
X132715000Y-75440726D01*
X132546043Y-75459763D01*
X132385563Y-75515918D01*
X132241597Y-75606377D01*
X132121377Y-75726597D01*
X132030918Y-75870563D01*
X131974763Y-76031043D01*
X131955726Y-76199999D01*
X131974763Y-76368956D01*
X131977017Y-76375397D01*
X132030918Y-76529437D01*
X132064240Y-76582468D01*
X132121377Y-76673402D01*
X132241597Y-76793622D01*
X132241599Y-76793623D01*
X132241600Y-76793624D01*
X132385563Y-76884082D01*
X132546046Y-76940237D01*
X132715000Y-76959274D01*
X132883954Y-76940237D01*
X133044437Y-76884082D01*
X133188400Y-76793624D01*
X133308624Y-76673400D01*
X133329319Y-76640463D01*
X133375057Y-76597222D01*
X133436006Y-76581500D01*
X135202367Y-76581500D01*
X135228224Y-76584181D01*
X135239017Y-76586445D01*
X135270922Y-76582468D01*
X135286508Y-76581500D01*
X135286611Y-76581500D01*
X135307476Y-76578017D01*
X135312512Y-76577283D01*
X135365360Y-76570696D01*
X135365362Y-76570694D01*
X135373327Y-76569702D01*
X135373524Y-76569639D01*
X135380583Y-76565818D01*
X135380586Y-76565818D01*
X135427380Y-76540493D01*
X135431943Y-76538144D01*
X135479746Y-76514776D01*
X135479747Y-76514774D01*
X135486959Y-76511249D01*
X135487123Y-76511127D01*
X135492559Y-76505221D01*
X135492562Y-76505220D01*
X135528626Y-76466041D01*
X135532163Y-76462357D01*
X135868542Y-76125978D01*
X135888713Y-76109598D01*
X135897956Y-76103560D01*
X135917709Y-76078179D01*
X135928050Y-76066471D01*
X135928113Y-76066409D01*
X135940400Y-76049197D01*
X135943488Y-76045058D01*
X135954394Y-76031046D01*
X135976158Y-76003085D01*
X135976158Y-76003082D01*
X135981080Y-75996760D01*
X135981188Y-75996551D01*
X135988507Y-75971968D01*
X135998647Y-75937903D01*
X136000225Y-75932975D01*
X136017500Y-75882661D01*
X136017500Y-75882659D01*
X136020102Y-75875080D01*
X136020135Y-75874851D01*
X136019804Y-75866844D01*
X136019805Y-75866842D01*
X136019615Y-75862264D01*
X136031823Y-75802726D01*
X136070485Y-75755826D01*
X136126604Y-75732483D01*
X136187122Y-75738128D01*
X136195561Y-75741081D01*
X136195563Y-75741082D01*
X136356046Y-75797237D01*
X136525000Y-75816274D01*
X136662205Y-75800814D01*
X136717925Y-75807093D01*
X136765405Y-75836927D01*
X137630573Y-76702095D01*
X137657887Y-76742972D01*
X137667478Y-76791190D01*
X137667478Y-84779637D01*
X137664796Y-84805495D01*
X137662532Y-84816287D01*
X137666510Y-84848192D01*
X137667478Y-84863778D01*
X137667478Y-84863884D01*
X137670953Y-84884713D01*
X137671703Y-84889859D01*
X137679272Y-84950572D01*
X137679349Y-84950812D01*
X137683159Y-84957853D01*
X137683160Y-84957856D01*
X137708470Y-85004625D01*
X137710852Y-85009254D01*
X137737720Y-85064213D01*
X137737862Y-85064404D01*
X137743757Y-85069831D01*
X137743758Y-85069832D01*
X137782909Y-85105873D01*
X137786641Y-85109455D01*
X139281595Y-86604410D01*
X139308909Y-86645287D01*
X139318500Y-86693505D01*
X139318500Y-95417994D01*
X139302778Y-95478943D01*
X139259536Y-95524680D01*
X139249266Y-95531134D01*
X139226596Y-95545378D01*
X139106377Y-95665597D01*
X139015918Y-95809563D01*
X138959763Y-95970043D01*
X138940726Y-96139000D01*
X138959763Y-96307956D01*
X138984901Y-96379795D01*
X139015918Y-96468437D01*
X139075293Y-96562931D01*
X139106377Y-96612402D01*
X139226596Y-96732621D01*
X139226598Y-96732622D01*
X139226600Y-96732624D01*
X139259536Y-96753319D01*
X139302778Y-96799057D01*
X139318500Y-96860006D01*
X139318500Y-100097415D01*
X139315818Y-100123273D01*
X139313554Y-100134065D01*
X139317532Y-100165970D01*
X139318500Y-100181556D01*
X139318500Y-100181662D01*
X139321975Y-100202491D01*
X139322725Y-100207637D01*
X139330294Y-100268350D01*
X139330371Y-100268590D01*
X139334181Y-100275631D01*
X139334182Y-100275634D01*
X139359492Y-100322403D01*
X139361874Y-100327032D01*
X139388742Y-100381991D01*
X139388884Y-100382182D01*
X139394779Y-100387609D01*
X139394780Y-100387610D01*
X139433931Y-100423651D01*
X139437663Y-100427233D01*
X141968072Y-102957644D01*
X141997906Y-103005124D01*
X142004185Y-103060846D01*
X141988726Y-103198047D01*
X142007763Y-103367004D01*
X142029117Y-103428030D01*
X142063918Y-103527485D01*
X142128141Y-103629695D01*
X142154377Y-103671450D01*
X142274597Y-103791670D01*
X142274599Y-103791671D01*
X142274600Y-103791672D01*
X142418563Y-103882130D01*
X142579046Y-103938285D01*
X142748000Y-103957322D01*
X142916954Y-103938285D01*
X143077437Y-103882130D01*
X143221400Y-103791672D01*
X143341624Y-103671448D01*
X143432082Y-103527485D01*
X143488237Y-103367002D01*
X143507274Y-103198048D01*
X143488237Y-103029094D01*
X143432082Y-102868611D01*
X143341624Y-102724648D01*
X143341623Y-102724647D01*
X143341622Y-102724645D01*
X143221402Y-102604425D01*
X143179647Y-102578189D01*
X143077437Y-102513966D01*
X143023942Y-102495247D01*
X142916956Y-102457811D01*
X142804317Y-102445119D01*
X142748000Y-102438774D01*
X142747999Y-102438774D01*
X142610797Y-102454233D01*
X142555075Y-102447954D01*
X142507595Y-102418120D01*
X140118405Y-100028930D01*
X140091091Y-99988053D01*
X140081500Y-99939835D01*
X140081500Y-96860006D01*
X140097222Y-96799057D01*
X140140463Y-96753319D01*
X140173400Y-96732624D01*
X140293624Y-96612400D01*
X140384082Y-96468437D01*
X140440237Y-96307954D01*
X140459274Y-96139000D01*
X140440237Y-95970046D01*
X140384082Y-95809563D01*
X140293624Y-95665600D01*
X140293623Y-95665599D01*
X140293622Y-95665597D01*
X140173403Y-95545378D01*
X140173400Y-95545376D01*
X140140463Y-95524680D01*
X140097222Y-95478943D01*
X140081500Y-95417994D01*
X140081500Y-86990068D01*
X140095233Y-86932865D01*
X140133439Y-86888132D01*
X140187789Y-86865619D01*
X140246436Y-86870235D01*
X140296595Y-86900973D01*
X140932595Y-87536973D01*
X140959909Y-87577850D01*
X140969500Y-87626068D01*
X140969500Y-96562931D01*
X140967199Y-96583769D01*
X140969438Y-96655011D01*
X140969500Y-96658969D01*
X140969500Y-97204957D01*
X140952619Y-97267957D01*
X140900094Y-97358931D01*
X140848971Y-97529691D01*
X140842136Y-97647056D01*
X140838608Y-97707637D01*
X140869560Y-97883176D01*
X140901057Y-97956195D01*
X140940158Y-98046842D01*
X140940159Y-98046844D01*
X140940160Y-98046845D01*
X140999084Y-98125994D01*
X141046602Y-98189822D01*
X141183145Y-98304395D01*
X141183147Y-98304396D01*
X141342434Y-98384394D01*
X141515877Y-98425500D01*
X142665412Y-98425500D01*
X142798042Y-98409998D01*
X142965539Y-98349034D01*
X143114462Y-98251085D01*
X143236783Y-98121433D01*
X143325906Y-97967067D01*
X143377028Y-97796308D01*
X143387392Y-97618363D01*
X143356440Y-97442824D01*
X143285840Y-97279155D01*
X143179398Y-97136178D01*
X143179397Y-97136177D01*
X143042854Y-97021604D01*
X142883562Y-96941604D01*
X142806632Y-96923371D01*
X142746596Y-96889863D01*
X142277405Y-96420672D01*
X142250091Y-96379795D01*
X142240500Y-96331577D01*
X142240500Y-95459212D01*
X142254233Y-95402009D01*
X142292439Y-95357276D01*
X142346789Y-95334763D01*
X142405436Y-95339379D01*
X142455594Y-95370116D01*
X143224477Y-96139000D01*
X143965018Y-96879541D01*
X143981406Y-96899721D01*
X143987438Y-96908954D01*
X143987439Y-96908955D01*
X143987440Y-96908956D01*
X144012818Y-96928708D01*
X144024523Y-96939046D01*
X144024591Y-96939114D01*
X144041782Y-96951388D01*
X144045958Y-96954502D01*
X144094237Y-96992079D01*
X144094451Y-96992189D01*
X144102129Y-96994474D01*
X144102130Y-96994475D01*
X144153133Y-97009658D01*
X144157997Y-97011216D01*
X144208339Y-97028500D01*
X144208341Y-97028500D01*
X144215920Y-97031102D01*
X144216151Y-97031136D01*
X144224158Y-97030804D01*
X144224159Y-97030805D01*
X144277273Y-97028607D01*
X144282480Y-97028500D01*
X147363788Y-97028500D01*
X147412006Y-97038091D01*
X147452883Y-97065405D01*
X148425595Y-98038117D01*
X148452909Y-98078994D01*
X148462500Y-98127212D01*
X148462500Y-98499367D01*
X148459818Y-98525225D01*
X148457554Y-98536017D01*
X148461532Y-98567922D01*
X148462500Y-98583508D01*
X148462500Y-98997945D01*
X148443187Y-99064981D01*
X148413919Y-99111559D01*
X148413918Y-99111563D01*
X148357763Y-99272046D01*
X148338726Y-99441000D01*
X148357763Y-99609954D01*
X148404364Y-99743133D01*
X148413919Y-99770440D01*
X148443187Y-99817019D01*
X148462500Y-99884055D01*
X148462500Y-111040931D01*
X148460199Y-111061769D01*
X148462438Y-111133011D01*
X148462500Y-111136969D01*
X148462500Y-111164983D01*
X148463011Y-111169032D01*
X148463940Y-111180848D01*
X148465334Y-111225205D01*
X148471014Y-111244755D01*
X148475022Y-111264110D01*
X148477572Y-111284296D01*
X148493906Y-111325552D01*
X148497749Y-111336779D01*
X148510130Y-111379392D01*
X148520492Y-111396914D01*
X148529189Y-111414667D01*
X148536680Y-111433587D01*
X148562764Y-111469489D01*
X148569275Y-111479401D01*
X148591866Y-111517598D01*
X148606254Y-111531986D01*
X148619092Y-111547017D01*
X148631058Y-111563487D01*
X148665247Y-111591770D01*
X148674029Y-111599761D01*
X149568596Y-112494329D01*
X149595909Y-112535206D01*
X149605500Y-112583424D01*
X149605500Y-112785474D01*
X149594063Y-112837926D01*
X149561830Y-112880857D01*
X149514651Y-112906471D01*
X149499015Y-112911014D01*
X149479658Y-112915022D01*
X149459467Y-112917572D01*
X149418207Y-112933908D01*
X149406980Y-112937751D01*
X149364370Y-112950130D01*
X149346849Y-112960492D01*
X149329105Y-112969185D01*
X149310176Y-112976680D01*
X149274284Y-113002757D01*
X149264367Y-113009271D01*
X149226165Y-113031865D01*
X149211767Y-113046262D01*
X149196742Y-113059094D01*
X149180277Y-113071057D01*
X149151984Y-113105256D01*
X149143997Y-113114032D01*
X147819078Y-114438951D01*
X147802711Y-114452065D01*
X147753928Y-114504013D01*
X147751178Y-114506851D01*
X147731356Y-114526673D01*
X147728852Y-114529902D01*
X147721157Y-114538911D01*
X147690780Y-114571260D01*
X147680974Y-114589097D01*
X147670125Y-114605613D01*
X147657649Y-114621697D01*
X147640022Y-114662428D01*
X147634804Y-114673080D01*
X147613430Y-114711961D01*
X147608370Y-114731670D01*
X147601967Y-114750372D01*
X147593883Y-114769053D01*
X147586941Y-114812883D01*
X147584534Y-114824504D01*
X147573500Y-114867482D01*
X147573500Y-114887830D01*
X147571949Y-114907541D01*
X147568765Y-114927643D01*
X147572941Y-114971820D01*
X147573500Y-114983678D01*
X147573500Y-116075577D01*
X147563909Y-116123795D01*
X147536595Y-116164672D01*
X146773672Y-116927595D01*
X146732795Y-116954909D01*
X146684577Y-116964500D01*
X139715423Y-116964500D01*
X139667205Y-116954909D01*
X139626328Y-116927595D01*
X138668269Y-115969536D01*
X138653153Y-115951266D01*
X138648484Y-115944395D01*
X138606206Y-115907122D01*
X138600452Y-115901719D01*
X138589093Y-115890360D01*
X138583520Y-115886037D01*
X138576400Y-115880514D01*
X138570303Y-115875470D01*
X138546012Y-115854055D01*
X138528042Y-115838212D01*
X138520643Y-115834442D01*
X138500629Y-115821740D01*
X138494066Y-115816649D01*
X138442334Y-115794263D01*
X138435185Y-115790899D01*
X138384976Y-115765316D01*
X138376878Y-115763506D01*
X138354325Y-115756178D01*
X138346709Y-115752882D01*
X138307473Y-115746667D01*
X138291040Y-115744065D01*
X138283274Y-115742583D01*
X138269354Y-115739471D01*
X138228278Y-115730289D01*
X138219974Y-115730550D01*
X138196323Y-115729062D01*
X138188121Y-115727763D01*
X138132025Y-115733066D01*
X138124126Y-115733563D01*
X138058363Y-115735630D01*
X138026919Y-115732657D01*
X137855283Y-115694291D01*
X137777099Y-115696747D01*
X137771835Y-115696218D01*
X137771835Y-115696500D01*
X136480588Y-115696500D01*
X136347956Y-115712002D01*
X136180460Y-115772965D01*
X136031540Y-115870912D01*
X135909215Y-116000568D01*
X135820094Y-116154931D01*
X135768971Y-116325691D01*
X135761525Y-116453554D01*
X135758608Y-116503637D01*
X135789560Y-116679176D01*
X135820647Y-116751243D01*
X135860158Y-116842842D01*
X135860159Y-116842844D01*
X135860160Y-116842845D01*
X135942513Y-116953465D01*
X135966602Y-116985822D01*
X136103145Y-117100395D01*
X136103147Y-117100396D01*
X136262434Y-117180394D01*
X136435877Y-117221500D01*
X137712412Y-117221500D01*
X137845042Y-117205998D01*
X137961862Y-117163478D01*
X138032227Y-117158867D01*
X138094051Y-117192784D01*
X138480338Y-117579070D01*
X138891189Y-117989922D01*
X138904301Y-118006287D01*
X138906445Y-118008301D01*
X138906447Y-118008303D01*
X138952306Y-118051367D01*
X138956265Y-118055085D01*
X138959107Y-118057840D01*
X138978906Y-118077639D01*
X138982131Y-118080141D01*
X138991149Y-118087843D01*
X139023494Y-118118217D01*
X139041330Y-118128023D01*
X139057852Y-118138876D01*
X139073934Y-118151350D01*
X139114661Y-118168974D01*
X139125304Y-118174187D01*
X139144437Y-118184706D01*
X139164199Y-118195570D01*
X139183908Y-118200630D01*
X139202613Y-118207033D01*
X139221293Y-118215117D01*
X139265126Y-118222059D01*
X139276721Y-118224459D01*
X139319718Y-118235500D01*
X139340067Y-118235500D01*
X139359776Y-118237050D01*
X139379880Y-118240235D01*
X139424055Y-118236059D01*
X139435914Y-118235500D01*
X146915931Y-118235500D01*
X146936769Y-118237800D01*
X146939716Y-118237707D01*
X146939719Y-118237708D01*
X147008012Y-118235561D01*
X147011969Y-118235500D01*
X147039978Y-118235500D01*
X147039983Y-118235500D01*
X147044029Y-118234988D01*
X147055848Y-118234058D01*
X147100205Y-118232665D01*
X147119744Y-118226987D01*
X147139102Y-118222978D01*
X147159299Y-118220427D01*
X147200555Y-118204092D01*
X147211765Y-118200253D01*
X147254393Y-118187869D01*
X147271907Y-118177510D01*
X147289667Y-118168810D01*
X147308586Y-118161320D01*
X147308586Y-118161319D01*
X147308588Y-118161319D01*
X147344499Y-118135227D01*
X147354399Y-118128724D01*
X147392598Y-118106134D01*
X147406986Y-118091745D01*
X147422021Y-118078904D01*
X147438487Y-118066942D01*
X147466788Y-118032729D01*
X147474747Y-118023983D01*
X148374407Y-117124324D01*
X148424564Y-117093589D01*
X148483211Y-117088973D01*
X148537561Y-117111486D01*
X148575767Y-117156219D01*
X148589500Y-117213422D01*
X148589500Y-117533784D01*
X148586621Y-117560564D01*
X148585580Y-117565349D01*
X148589179Y-117615673D01*
X148589500Y-117624661D01*
X148589500Y-117638367D01*
X148591450Y-117651936D01*
X148592410Y-117660868D01*
X148596011Y-117711203D01*
X148597724Y-117715795D01*
X148604383Y-117741884D01*
X148605080Y-117746731D01*
X148605080Y-117746732D01*
X148605081Y-117746734D01*
X148624955Y-117790253D01*
X148626036Y-117792620D01*
X148629476Y-117800925D01*
X148647112Y-117848207D01*
X148650046Y-117852126D01*
X148663789Y-117875289D01*
X148665822Y-117879742D01*
X148698857Y-117917865D01*
X148704501Y-117924869D01*
X148712717Y-117935845D01*
X148712719Y-117935847D01*
X148712720Y-117935848D01*
X148722422Y-117945550D01*
X148728538Y-117952119D01*
X148761579Y-117990250D01*
X148765696Y-117992896D01*
X148786670Y-118009798D01*
X149071199Y-118294327D01*
X149088102Y-118315301D01*
X149090750Y-118319421D01*
X149128888Y-118352468D01*
X149135441Y-118358569D01*
X149145152Y-118368280D01*
X149149120Y-118371250D01*
X149156128Y-118376496D01*
X149163139Y-118382146D01*
X149180602Y-118397279D01*
X149215502Y-118446790D01*
X149223264Y-118506866D01*
X149202094Y-118563622D01*
X149156885Y-118603939D01*
X149098086Y-118618500D01*
X138852634Y-118618500D01*
X138826776Y-118615818D01*
X138815983Y-118613554D01*
X138784079Y-118617532D01*
X138768493Y-118618500D01*
X138768385Y-118618500D01*
X138747543Y-118621977D01*
X138742396Y-118622727D01*
X138681702Y-118630293D01*
X138681451Y-118630373D01*
X138627663Y-118659481D01*
X138623036Y-118661863D01*
X138568066Y-118688736D01*
X138567857Y-118688892D01*
X138526418Y-118733906D01*
X138522814Y-118737661D01*
X137005963Y-120254512D01*
X136957372Y-120284729D01*
X136900427Y-120290340D01*
X136900001Y-120290283D01*
X136742193Y-120311059D01*
X136595143Y-120371968D01*
X136468866Y-120468866D01*
X136371968Y-120595143D01*
X136311059Y-120742193D01*
X136290284Y-120899999D01*
X136311059Y-121057806D01*
X136371968Y-121204856D01*
X136457096Y-121315795D01*
X136482527Y-121380149D01*
X136470140Y-121448228D01*
X136423671Y-121499499D01*
X136357134Y-121518500D01*
X135203977Y-121518500D01*
X135155759Y-121508909D01*
X135114882Y-121481595D01*
X131318405Y-117685118D01*
X131291091Y-117644241D01*
X131281500Y-117596023D01*
X131281500Y-115535952D01*
X132630685Y-115535952D01*
X132640834Y-115671380D01*
X132690446Y-115797792D01*
X132735315Y-115854055D01*
X132775121Y-115903970D01*
X132887327Y-115980472D01*
X132952212Y-116000486D01*
X133017097Y-116020500D01*
X133017098Y-116020500D01*
X133118760Y-116020500D01*
X133118762Y-116020500D01*
X133219287Y-116005348D01*
X133341642Y-115946425D01*
X133441194Y-115854055D01*
X133509096Y-115736445D01*
X133539315Y-115604046D01*
X133534212Y-115535952D01*
X134430685Y-115535952D01*
X134440834Y-115671380D01*
X134490446Y-115797792D01*
X134535315Y-115854055D01*
X134575121Y-115903970D01*
X134687327Y-115980472D01*
X134752212Y-116000486D01*
X134817097Y-116020500D01*
X134817098Y-116020500D01*
X134918760Y-116020500D01*
X134918762Y-116020500D01*
X135019287Y-116005348D01*
X135141642Y-115946425D01*
X135241194Y-115854055D01*
X135309096Y-115736445D01*
X135339315Y-115604046D01*
X135329166Y-115468622D01*
X135329165Y-115468619D01*
X135279553Y-115342207D01*
X135210732Y-115255909D01*
X135194879Y-115236030D01*
X135177466Y-115224158D01*
X135132607Y-115193573D01*
X135082673Y-115159528D01*
X135082672Y-115159527D01*
X135082671Y-115159527D01*
X134952903Y-115119500D01*
X134952902Y-115119500D01*
X134851238Y-115119500D01*
X134811027Y-115125560D01*
X134750710Y-115134652D01*
X134628360Y-115193573D01*
X134628357Y-115193575D01*
X134628358Y-115193575D01*
X134528806Y-115285945D01*
X134528804Y-115285947D01*
X134528805Y-115285947D01*
X134460903Y-115403554D01*
X134430685Y-115535952D01*
X133534212Y-115535952D01*
X133529166Y-115468622D01*
X133529165Y-115468619D01*
X133479553Y-115342207D01*
X133410732Y-115255909D01*
X133394879Y-115236030D01*
X133377466Y-115224158D01*
X133332607Y-115193573D01*
X133282673Y-115159528D01*
X133282672Y-115159527D01*
X133282671Y-115159527D01*
X133152903Y-115119500D01*
X133152902Y-115119500D01*
X133051238Y-115119500D01*
X133011027Y-115125560D01*
X132950710Y-115134652D01*
X132828360Y-115193573D01*
X132828357Y-115193575D01*
X132828358Y-115193575D01*
X132728806Y-115285945D01*
X132728804Y-115285947D01*
X132728805Y-115285947D01*
X132660903Y-115403554D01*
X132630685Y-115535952D01*
X131281500Y-115535952D01*
X131281500Y-113195989D01*
X134368726Y-113195989D01*
X134387763Y-113364945D01*
X134424838Y-113470899D01*
X134443918Y-113525426D01*
X134489923Y-113598643D01*
X134534377Y-113669391D01*
X134654597Y-113789611D01*
X134654599Y-113789612D01*
X134654600Y-113789613D01*
X134798563Y-113880071D01*
X134959046Y-113936226D01*
X135128000Y-113955263D01*
X135296954Y-113936226D01*
X135457437Y-113880071D01*
X135601400Y-113789613D01*
X135721624Y-113669389D01*
X135812082Y-113525426D01*
X135868237Y-113364943D01*
X135887274Y-113195989D01*
X135887273Y-113195982D01*
X135887434Y-113194556D01*
X135899120Y-113153994D01*
X135923544Y-113119571D01*
X138261710Y-110781405D01*
X138302588Y-110754091D01*
X138350806Y-110744500D01*
X143788286Y-110744500D01*
X143836505Y-110754091D01*
X143877378Y-110781402D01*
X143925600Y-110829624D01*
X144069563Y-110920082D01*
X144230046Y-110976237D01*
X144399000Y-110995274D01*
X144567954Y-110976237D01*
X144728437Y-110920082D01*
X144872400Y-110829624D01*
X144992624Y-110709400D01*
X145083082Y-110565437D01*
X145139237Y-110404954D01*
X145158274Y-110236000D01*
X145139237Y-110067046D01*
X145083082Y-109906563D01*
X144992624Y-109762600D01*
X144992623Y-109762599D01*
X144992622Y-109762597D01*
X144872402Y-109642377D01*
X144830647Y-109616141D01*
X144728437Y-109551918D01*
X144674942Y-109533199D01*
X144567956Y-109495763D01*
X144399000Y-109476726D01*
X144230043Y-109495763D01*
X144069563Y-109551918D01*
X143925601Y-109642375D01*
X143925600Y-109642375D01*
X143925600Y-109642376D01*
X143877378Y-109690597D01*
X143836505Y-109717909D01*
X143788286Y-109727500D01*
X138156205Y-109727500D01*
X138129425Y-109724621D01*
X138124639Y-109723580D01*
X138124638Y-109723580D01*
X138110083Y-109724621D01*
X138074316Y-109727179D01*
X138065328Y-109727500D01*
X138051621Y-109727500D01*
X138038054Y-109729450D01*
X138029123Y-109730410D01*
X137978785Y-109734011D01*
X137974188Y-109735726D01*
X137948110Y-109742382D01*
X137943257Y-109743080D01*
X137897357Y-109764040D01*
X137889055Y-109767478D01*
X137841782Y-109785111D01*
X137837855Y-109788051D01*
X137814712Y-109801783D01*
X137810248Y-109803821D01*
X137772114Y-109836864D01*
X137765123Y-109842498D01*
X137754142Y-109850719D01*
X137744445Y-109860416D01*
X137737869Y-109866538D01*
X137699738Y-109899579D01*
X137697086Y-109903706D01*
X137680188Y-109924672D01*
X135204418Y-112400441D01*
X135169993Y-112424868D01*
X135129431Y-112436554D01*
X135128001Y-112436715D01*
X135058885Y-112444502D01*
X134959043Y-112455752D01*
X134798563Y-112511907D01*
X134654597Y-112602366D01*
X134534377Y-112722586D01*
X134443918Y-112866552D01*
X134387763Y-113027032D01*
X134368726Y-113195989D01*
X131281500Y-113195989D01*
X131281500Y-108731356D01*
X131294493Y-108675629D01*
X131330793Y-108631396D01*
X131330862Y-108631342D01*
X131331134Y-108631134D01*
X131428030Y-108504858D01*
X131488940Y-108357806D01*
X131509716Y-108200000D01*
X131488940Y-108042194D01*
X131483752Y-108029669D01*
X131428031Y-107895143D01*
X131409741Y-107871308D01*
X131331134Y-107768866D01*
X131225453Y-107687773D01*
X131204856Y-107671968D01*
X131057806Y-107611059D01*
X130900000Y-107590284D01*
X130725748Y-107613225D01*
X130725305Y-107609867D01*
X130685039Y-107614627D01*
X130622926Y-107585984D01*
X130584930Y-107529109D01*
X130582248Y-107460763D01*
X130615669Y-107401088D01*
X131096407Y-106920350D01*
X133727715Y-106920350D01*
X133746752Y-107089307D01*
X133771778Y-107160827D01*
X133802907Y-107249788D01*
X133849048Y-107323221D01*
X133893366Y-107393753D01*
X134013586Y-107513973D01*
X134013588Y-107513974D01*
X134013589Y-107513975D01*
X134157552Y-107604433D01*
X134318035Y-107660588D01*
X134486989Y-107679625D01*
X134655943Y-107660588D01*
X134816426Y-107604433D01*
X134960389Y-107513975D01*
X135080613Y-107393751D01*
X135097759Y-107366462D01*
X135143497Y-107323221D01*
X135204446Y-107307499D01*
X144211793Y-107307499D01*
X144238573Y-107310378D01*
X144240387Y-107310772D01*
X144243360Y-107311419D01*
X144293683Y-107307819D01*
X144302670Y-107307499D01*
X144316375Y-107307499D01*
X144316377Y-107307499D01*
X144329944Y-107305547D01*
X144338884Y-107304587D01*
X144351161Y-107303708D01*
X144389210Y-107300988D01*
X144393795Y-107299277D01*
X144419907Y-107292613D01*
X144424743Y-107291918D01*
X144470651Y-107270951D01*
X144478919Y-107267527D01*
X144526213Y-107249888D01*
X144530130Y-107246954D01*
X144553300Y-107233207D01*
X144557752Y-107231175D01*
X144595886Y-107198129D01*
X144602873Y-107192499D01*
X144613857Y-107184279D01*
X144623559Y-107174575D01*
X144630147Y-107168443D01*
X144638937Y-107160827D01*
X144668259Y-107135420D01*
X144670904Y-107131303D01*
X144687802Y-107110332D01*
X145173289Y-106624847D01*
X145173289Y-106624846D01*
X145211590Y-106586544D01*
X145246013Y-106562120D01*
X145286575Y-106550434D01*
X145288001Y-106550273D01*
X145288008Y-106550274D01*
X145456962Y-106531237D01*
X145617445Y-106475082D01*
X145761408Y-106384624D01*
X145881632Y-106264400D01*
X145972090Y-106120437D01*
X146028245Y-105959954D01*
X146047282Y-105791000D01*
X146028245Y-105622046D01*
X145972090Y-105461563D01*
X145881632Y-105317600D01*
X145881631Y-105317599D01*
X145881630Y-105317597D01*
X145761410Y-105197377D01*
X145719655Y-105171141D01*
X145617445Y-105106918D01*
X145563950Y-105088199D01*
X145456964Y-105050763D01*
X145288008Y-105031726D01*
X145119051Y-105050763D01*
X144958571Y-105106918D01*
X144814605Y-105197377D01*
X144694385Y-105317597D01*
X144603926Y-105461563D01*
X144547771Y-105622043D01*
X144528573Y-105792431D01*
X144516887Y-105832992D01*
X144492462Y-105867417D01*
X144454162Y-105905718D01*
X144106286Y-106253594D01*
X144065409Y-106280908D01*
X144017191Y-106290499D01*
X143031369Y-106290499D01*
X142973537Y-106276443D01*
X142928608Y-106237412D01*
X142906606Y-106182113D01*
X142912440Y-106122884D01*
X142943054Y-106035393D01*
X142972247Y-105951964D01*
X142991284Y-105783010D01*
X142972247Y-105614056D01*
X142916092Y-105453573D01*
X142825634Y-105309610D01*
X142825633Y-105309609D01*
X142825632Y-105309607D01*
X142705412Y-105189387D01*
X142663657Y-105163151D01*
X142561447Y-105098928D01*
X142507952Y-105080209D01*
X142400966Y-105042773D01*
X142232010Y-105023736D01*
X142063053Y-105042773D01*
X141902573Y-105098928D01*
X141758611Y-105189385D01*
X141758610Y-105189385D01*
X141758610Y-105189386D01*
X141710388Y-105237607D01*
X141669515Y-105264919D01*
X141621296Y-105274510D01*
X141561272Y-105274510D01*
X139954828Y-105274510D01*
X139906610Y-105264919D01*
X139865732Y-105237605D01*
X139225546Y-104597418D01*
X139201120Y-104562992D01*
X139189434Y-104522430D01*
X139189273Y-104521004D01*
X139189274Y-104521000D01*
X139170237Y-104352046D01*
X139114082Y-104191563D01*
X139023624Y-104047600D01*
X139023623Y-104047599D01*
X139023622Y-104047597D01*
X138903402Y-103927377D01*
X138831390Y-103882129D01*
X138759437Y-103836918D01*
X138705942Y-103818199D01*
X138598956Y-103780763D01*
X138430000Y-103761726D01*
X138261043Y-103780763D01*
X138100563Y-103836918D01*
X137956597Y-103927377D01*
X137836377Y-104047597D01*
X137745918Y-104191563D01*
X137689763Y-104352043D01*
X137670726Y-104521000D01*
X137689763Y-104689956D01*
X137699453Y-104717648D01*
X137745918Y-104850437D01*
X137804304Y-104943357D01*
X137836377Y-104994402D01*
X137956597Y-105114622D01*
X137956599Y-105114623D01*
X137956600Y-105114624D01*
X138100563Y-105205082D01*
X138261046Y-105261237D01*
X138430000Y-105280274D01*
X138430004Y-105280273D01*
X138431430Y-105280434D01*
X138471992Y-105292120D01*
X138506418Y-105316546D01*
X139265276Y-106075403D01*
X139296014Y-106125563D01*
X139300630Y-106184210D01*
X139278117Y-106238560D01*
X139233384Y-106276766D01*
X139176181Y-106290499D01*
X134939033Y-106290499D01*
X134871997Y-106271186D01*
X134816429Y-106236270D01*
X134786944Y-106225953D01*
X134655943Y-106180114D01*
X134486989Y-106161077D01*
X134318032Y-106180114D01*
X134157552Y-106236269D01*
X134013586Y-106326728D01*
X133893366Y-106446948D01*
X133802907Y-106590914D01*
X133746752Y-106751394D01*
X133727715Y-106920350D01*
X131096407Y-106920350D01*
X135868543Y-102148213D01*
X135888714Y-102131833D01*
X135897957Y-102125795D01*
X135917710Y-102100414D01*
X135928051Y-102088706D01*
X135928114Y-102088644D01*
X135940401Y-102071432D01*
X135943489Y-102067293D01*
X135976159Y-102025320D01*
X135976159Y-102025317D01*
X135981081Y-102018995D01*
X135981189Y-102018786D01*
X135998645Y-101960150D01*
X136000226Y-101955210D01*
X136017501Y-101904896D01*
X136017501Y-101904894D01*
X136020103Y-101897315D01*
X136020137Y-101897084D01*
X136017609Y-101835962D01*
X136017501Y-101830755D01*
X136017501Y-94237490D01*
X136031871Y-94179055D01*
X136071702Y-94133948D01*
X136127910Y-94112458D01*
X136128015Y-94112444D01*
X136128017Y-94112445D01*
X136138958Y-94111080D01*
X136164947Y-94110543D01*
X136175940Y-94111454D01*
X136207110Y-94103559D01*
X136222444Y-94100673D01*
X136254360Y-94096696D01*
X136264270Y-94091850D01*
X136288673Y-94082905D01*
X136299366Y-94080198D01*
X136326282Y-94062611D01*
X136339857Y-94054897D01*
X136368746Y-94040776D01*
X136376545Y-94032976D01*
X136396719Y-94016593D01*
X136405956Y-94010560D01*
X136425717Y-93985169D01*
X136436039Y-93973481D01*
X136652923Y-93756597D01*
X136660560Y-93749566D01*
X136693142Y-93721972D01*
X136693345Y-93721630D01*
X136712489Y-93697031D01*
X136962800Y-93446721D01*
X136984852Y-93429135D01*
X136990442Y-93425624D01*
X137110666Y-93305400D01*
X137201124Y-93161437D01*
X137257279Y-93000954D01*
X137276316Y-92832000D01*
X137257279Y-92663046D01*
X137201124Y-92502563D01*
X137110666Y-92358600D01*
X137110665Y-92358599D01*
X137110664Y-92358597D01*
X137044641Y-92292574D01*
X137012029Y-92236090D01*
X137012029Y-92170868D01*
X137044641Y-92114384D01*
X137118622Y-92040402D01*
X137118621Y-92040402D01*
X137118624Y-92040400D01*
X137209082Y-91896437D01*
X137265237Y-91735954D01*
X137284274Y-91567000D01*
X137265237Y-91398046D01*
X137209082Y-91237563D01*
X137118624Y-91093600D01*
X137118623Y-91093599D01*
X137118622Y-91093597D01*
X136998402Y-90973377D01*
X136923350Y-90926219D01*
X136854437Y-90882918D01*
X136800942Y-90864199D01*
X136693956Y-90826763D01*
X136525000Y-90807726D01*
X136356043Y-90826763D01*
X136195563Y-90882918D01*
X136051597Y-90973377D01*
X135931377Y-91093597D01*
X135840918Y-91237563D01*
X135784763Y-91398043D01*
X135765726Y-91567000D01*
X135781185Y-91704201D01*
X135774906Y-91759923D01*
X135745072Y-91807403D01*
X135403456Y-92149019D01*
X135383281Y-92165404D01*
X135374043Y-92171439D01*
X135354289Y-92196819D01*
X135343973Y-92208503D01*
X135343891Y-92208585D01*
X135331613Y-92225780D01*
X135328504Y-92229949D01*
X135290937Y-92278215D01*
X135290804Y-92278474D01*
X135273350Y-92337098D01*
X135271763Y-92342054D01*
X135251898Y-92399920D01*
X135251864Y-92400150D01*
X135254393Y-92461272D01*
X135254501Y-92466479D01*
X135254501Y-101631023D01*
X135244910Y-101679241D01*
X135217596Y-101720118D01*
X129836455Y-107101256D01*
X129816280Y-107117641D01*
X129807042Y-107123676D01*
X129787288Y-107149056D01*
X129776972Y-107160740D01*
X129776890Y-107160822D01*
X129776887Y-107160825D01*
X129776886Y-107160827D01*
X129767067Y-107174579D01*
X129764612Y-107178017D01*
X129761503Y-107182186D01*
X129723936Y-107230452D01*
X129723803Y-107230711D01*
X129706349Y-107289335D01*
X129704762Y-107294291D01*
X129684897Y-107352157D01*
X129684863Y-107352387D01*
X129687392Y-107413509D01*
X129687500Y-107418716D01*
X129687500Y-119562207D01*
X129673767Y-119619410D01*
X129635561Y-119664143D01*
X129581211Y-119686656D01*
X129522564Y-119682040D01*
X129472405Y-119651302D01*
X128618405Y-118797302D01*
X128591091Y-118756425D01*
X128581500Y-118708207D01*
X128581500Y-92831356D01*
X128594493Y-92775629D01*
X128630793Y-92731396D01*
X128630862Y-92731342D01*
X128631134Y-92731134D01*
X128728030Y-92604858D01*
X128788940Y-92457806D01*
X128809716Y-92300000D01*
X128788940Y-92142194D01*
X128766032Y-92086888D01*
X128728031Y-91995143D01*
X128709741Y-91971308D01*
X128631134Y-91868866D01*
X128541416Y-91800022D01*
X128504856Y-91771968D01*
X128357806Y-91711059D01*
X128218358Y-91692700D01*
X128200000Y-91690284D01*
X128199999Y-91690284D01*
X128048903Y-91710176D01*
X127987302Y-91702885D01*
X127936646Y-91667084D01*
X127909210Y-91611451D01*
X127911646Y-91549468D01*
X127943360Y-91496161D01*
X131592113Y-87847409D01*
X131651638Y-87787884D01*
X131651640Y-87787880D01*
X135021117Y-84418405D01*
X135061995Y-84391091D01*
X135110213Y-84381500D01*
X136167144Y-84381500D01*
X136222871Y-84394493D01*
X136267104Y-84430793D01*
X136267366Y-84431134D01*
X136376339Y-84514753D01*
X136393643Y-84528031D01*
X136540693Y-84588940D01*
X136559052Y-84591356D01*
X136698500Y-84609716D01*
X136856306Y-84588940D01*
X137003358Y-84528030D01*
X137129634Y-84431134D01*
X137226530Y-84304858D01*
X137287440Y-84157806D01*
X137308216Y-84000000D01*
X137287440Y-83842194D01*
X137281602Y-83828099D01*
X137226531Y-83695143D01*
X137179753Y-83634182D01*
X137129634Y-83568866D01*
X137051025Y-83508546D01*
X137003356Y-83471968D01*
X136856306Y-83411059D01*
X136698500Y-83390284D01*
X136540693Y-83411059D01*
X136393643Y-83471968D01*
X136301970Y-83542312D01*
X136267366Y-83568866D01*
X136267365Y-83568867D01*
X136267364Y-83568868D01*
X136267104Y-83569207D01*
X136222871Y-83605507D01*
X136167144Y-83618500D01*
X134952634Y-83618500D01*
X134926776Y-83615818D01*
X134915983Y-83613554D01*
X134884079Y-83617532D01*
X134868493Y-83618500D01*
X134868385Y-83618500D01*
X134847543Y-83621977D01*
X134842396Y-83622727D01*
X134781701Y-83630293D01*
X134781449Y-83630374D01*
X134727661Y-83659482D01*
X134723034Y-83661864D01*
X134668070Y-83688735D01*
X134667849Y-83688900D01*
X134626407Y-83733917D01*
X134622803Y-83737673D01*
X131007886Y-87352591D01*
X131007883Y-87352594D01*
X127025455Y-91335020D01*
X127005280Y-91351405D01*
X126996042Y-91357440D01*
X126976288Y-91382820D01*
X126965972Y-91394504D01*
X126965890Y-91394586D01*
X126965887Y-91394589D01*
X126965886Y-91394591D01*
X126963419Y-91398046D01*
X126953612Y-91411781D01*
X126950503Y-91415950D01*
X126912936Y-91464216D01*
X126912803Y-91464475D01*
X126895349Y-91523099D01*
X126893762Y-91528055D01*
X126873897Y-91585921D01*
X126873863Y-91586151D01*
X126876392Y-91647273D01*
X126876500Y-91652480D01*
X126876500Y-98780644D01*
X126863507Y-98836371D01*
X126827207Y-98880604D01*
X126826868Y-98880864D01*
X126826867Y-98880865D01*
X126826866Y-98880866D01*
X126824060Y-98884522D01*
X126775348Y-98922923D01*
X126714214Y-98933428D01*
X126655475Y-98913488D01*
X126613369Y-98867938D01*
X126598100Y-98807816D01*
X126598100Y-86792000D01*
X126600782Y-86766143D01*
X126602716Y-86756918D01*
X126599068Y-86727654D01*
X126598142Y-86712747D01*
X126598100Y-86712495D01*
X126598100Y-86712492D01*
X126594875Y-86693173D01*
X126594137Y-86688103D01*
X126588015Y-86638987D01*
X126588013Y-86638984D01*
X126587075Y-86631453D01*
X126583463Y-86624779D01*
X126583463Y-86624776D01*
X126559906Y-86581247D01*
X126557540Y-86576648D01*
X126532484Y-86525395D01*
X126490485Y-86486733D01*
X126486727Y-86483126D01*
X124041404Y-84037803D01*
X124014090Y-83996926D01*
X124004499Y-83948708D01*
X124004499Y-82524932D01*
X123989734Y-82450699D01*
X123933484Y-82366515D01*
X123849301Y-82310266D01*
X123849296Y-82310265D01*
X123775066Y-82295500D01*
X122024931Y-82295500D01*
X121950699Y-82310265D01*
X121866515Y-82366515D01*
X121810266Y-82450698D01*
X121795500Y-82524933D01*
X121795500Y-84275068D01*
X121810265Y-84349300D01*
X121866515Y-84433484D01*
X121922764Y-84471068D01*
X121950699Y-84489734D01*
X122024933Y-84504500D01*
X122201755Y-84504499D01*
X122265353Y-84521728D01*
X122311560Y-84568705D01*
X122327736Y-84632581D01*
X122309457Y-84695888D01*
X122261723Y-84741312D01*
X122154702Y-84799229D01*
X121977096Y-84937466D01*
X121824678Y-85103037D01*
X121701580Y-85291451D01*
X121611177Y-85497548D01*
X121579535Y-85622499D01*
X121579536Y-85622500D01*
X124220464Y-85622500D01*
X124220464Y-85622499D01*
X124197686Y-85532553D01*
X124198490Y-85467671D01*
X124231474Y-85411792D01*
X124287890Y-85379737D01*
X124352776Y-85380005D01*
X124408925Y-85412526D01*
X125848995Y-86852596D01*
X125876309Y-86893473D01*
X125885900Y-86941691D01*
X125885900Y-94629699D01*
X125870631Y-94689821D01*
X125828525Y-94735371D01*
X125769787Y-94755311D01*
X125708652Y-94744806D01*
X125659938Y-94706404D01*
X125631134Y-94668866D01*
X125631132Y-94668865D01*
X125631132Y-94668864D01*
X125630793Y-94668604D01*
X125594493Y-94624371D01*
X125581500Y-94568644D01*
X125581500Y-90832633D01*
X125584182Y-90806775D01*
X125586445Y-90795982D01*
X125582468Y-90764078D01*
X125581500Y-90748492D01*
X125581500Y-90748392D01*
X125581500Y-90748389D01*
X125578017Y-90727523D01*
X125577273Y-90722406D01*
X125569704Y-90661683D01*
X125569635Y-90661469D01*
X125565818Y-90654416D01*
X125565818Y-90654414D01*
X125540509Y-90607648D01*
X125538133Y-90603031D01*
X125511255Y-90548052D01*
X125511114Y-90547862D01*
X125466081Y-90506407D01*
X125462323Y-90502801D01*
X123965842Y-89006319D01*
X123932983Y-88948897D01*
X123933747Y-88882743D01*
X123934328Y-88880701D01*
X123990345Y-88683821D01*
X124009232Y-88480000D01*
X123990345Y-88276179D01*
X123934328Y-88079299D01*
X123933585Y-88077807D01*
X123843089Y-87896066D01*
X123806345Y-87847409D01*
X123719732Y-87732715D01*
X123568462Y-87594814D01*
X123475046Y-87536973D01*
X123394425Y-87487054D01*
X123331591Y-87462712D01*
X123281796Y-87427632D01*
X123254275Y-87373292D01*
X123255460Y-87312392D01*
X123285074Y-87259164D01*
X123336197Y-87226048D01*
X123447367Y-87187884D01*
X123645302Y-87080766D01*
X123822903Y-86942533D01*
X123975321Y-86776962D01*
X124098419Y-86588548D01*
X124188822Y-86382451D01*
X124220464Y-86257500D01*
X121579535Y-86257500D01*
X120527500Y-86257500D01*
X120527500Y-80899000D01*
X132463726Y-80899000D01*
X132482763Y-81067956D01*
X132520199Y-81174942D01*
X132538918Y-81228437D01*
X132603141Y-81330647D01*
X132629377Y-81372402D01*
X132749597Y-81492622D01*
X132749599Y-81492623D01*
X132749600Y-81492624D01*
X132893563Y-81583082D01*
X133054046Y-81639237D01*
X133223000Y-81658274D01*
X133391954Y-81639237D01*
X133552437Y-81583082D01*
X133696400Y-81492624D01*
X133816624Y-81372400D01*
X133907082Y-81228437D01*
X133959368Y-81079008D01*
X133989200Y-81031531D01*
X134211328Y-80809404D01*
X134252206Y-80782091D01*
X134300424Y-80772500D01*
X136081945Y-80772500D01*
X136148981Y-80791813D01*
X136195559Y-80821080D01*
X136195560Y-80821080D01*
X136195563Y-80821082D01*
X136356046Y-80877237D01*
X136525000Y-80896274D01*
X136693954Y-80877237D01*
X136854437Y-80821082D01*
X136998400Y-80730624D01*
X137118624Y-80610400D01*
X137209082Y-80466437D01*
X137265237Y-80305954D01*
X137284274Y-80137000D01*
X137265237Y-79968046D01*
X137209082Y-79807563D01*
X137118624Y-79663600D01*
X137118623Y-79663599D01*
X137118622Y-79663597D01*
X136998402Y-79543377D01*
X136945305Y-79510014D01*
X136854437Y-79452918D01*
X136800942Y-79434199D01*
X136693956Y-79396763D01*
X136525000Y-79377726D01*
X136356046Y-79396763D01*
X136281127Y-79422977D01*
X136195559Y-79452919D01*
X136148981Y-79482187D01*
X136081945Y-79501500D01*
X134069074Y-79501500D01*
X134048228Y-79499198D01*
X133976970Y-79501438D01*
X133973012Y-79501500D01*
X133945015Y-79501500D01*
X133940975Y-79502010D01*
X133929154Y-79502940D01*
X133884794Y-79504334D01*
X133865243Y-79510014D01*
X133845894Y-79514021D01*
X133825699Y-79516573D01*
X133784441Y-79532907D01*
X133773217Y-79536750D01*
X133730605Y-79549131D01*
X133713084Y-79559492D01*
X133695341Y-79568184D01*
X133676415Y-79575678D01*
X133640513Y-79601762D01*
X133630597Y-79608276D01*
X133592399Y-79630867D01*
X133578011Y-79645255D01*
X133562984Y-79658089D01*
X133546515Y-79670055D01*
X133518227Y-79704249D01*
X133510238Y-79713028D01*
X133090465Y-80132800D01*
X133042985Y-80162633D01*
X132893563Y-80214917D01*
X132749597Y-80305377D01*
X132629377Y-80425597D01*
X132538918Y-80569563D01*
X132482763Y-80730043D01*
X132463726Y-80899000D01*
X120527500Y-80899000D01*
X120527500Y-77978000D01*
X132463726Y-77978000D01*
X132482763Y-78146956D01*
X132516375Y-78243013D01*
X132538918Y-78307437D01*
X132603141Y-78409647D01*
X132629377Y-78451402D01*
X132749597Y-78571622D01*
X132749599Y-78571623D01*
X132749600Y-78571624D01*
X132893563Y-78662082D01*
X133054046Y-78718237D01*
X133223000Y-78737274D01*
X133391954Y-78718237D01*
X133552437Y-78662082D01*
X133696400Y-78571624D01*
X133816624Y-78451400D01*
X133876396Y-78356274D01*
X133914636Y-78295416D01*
X133916142Y-78296362D01*
X133930343Y-78272796D01*
X133972321Y-78243013D01*
X134022706Y-78232500D01*
X136081945Y-78232500D01*
X136148981Y-78251813D01*
X136195559Y-78281080D01*
X136195560Y-78281080D01*
X136195563Y-78281082D01*
X136356046Y-78337237D01*
X136525000Y-78356274D01*
X136693954Y-78337237D01*
X136854437Y-78281082D01*
X136998400Y-78190624D01*
X137118624Y-78070400D01*
X137209082Y-77926437D01*
X137265237Y-77765954D01*
X137284274Y-77597000D01*
X137265237Y-77428046D01*
X137209082Y-77267563D01*
X137118624Y-77123600D01*
X137118623Y-77123599D01*
X137118622Y-77123597D01*
X136998402Y-77003377D01*
X136945303Y-76970013D01*
X136854437Y-76912918D01*
X136772025Y-76884081D01*
X136693956Y-76856763D01*
X136525000Y-76837726D01*
X136356046Y-76856763D01*
X136281127Y-76882977D01*
X136195559Y-76912919D01*
X136148981Y-76942187D01*
X136081945Y-76961500D01*
X133688069Y-76961500D01*
X133667231Y-76959199D01*
X133596002Y-76961438D01*
X133592044Y-76961500D01*
X133564015Y-76961500D01*
X133559957Y-76962012D01*
X133548144Y-76962941D01*
X133503795Y-76964335D01*
X133484254Y-76970013D01*
X133464894Y-76974022D01*
X133444703Y-76976572D01*
X133403443Y-76992908D01*
X133392216Y-76996751D01*
X133349606Y-77009130D01*
X133332085Y-77019492D01*
X133314341Y-77028185D01*
X133295412Y-77035680D01*
X133259520Y-77061757D01*
X133249603Y-77068271D01*
X133211401Y-77090865D01*
X133197003Y-77105262D01*
X133181978Y-77118094D01*
X133165513Y-77130057D01*
X133137220Y-77164256D01*
X133129233Y-77173032D01*
X133090468Y-77211797D01*
X133042989Y-77241631D01*
X132893562Y-77293918D01*
X132749597Y-77384377D01*
X132629377Y-77504597D01*
X132538918Y-77648563D01*
X132482763Y-77809043D01*
X132463726Y-77978000D01*
X120527500Y-77978000D01*
X120527500Y-75787773D01*
X120546938Y-75720538D01*
X120599256Y-75674047D01*
X120668310Y-75662646D01*
X120732794Y-75689853D01*
X120772813Y-75747272D01*
X120812642Y-75864606D01*
X120943358Y-76129671D01*
X121107547Y-76375397D01*
X121302406Y-76597593D01*
X121497265Y-76768479D01*
X121524603Y-76792453D01*
X121770331Y-76956643D01*
X121876764Y-77009130D01*
X122035392Y-77087357D01*
X122287785Y-77173032D01*
X122315241Y-77182352D01*
X122605097Y-77240008D01*
X122900000Y-77259337D01*
X123194903Y-77240008D01*
X123484759Y-77182352D01*
X123578042Y-77150686D01*
X123764607Y-77087357D01*
X123795813Y-77071968D01*
X124029669Y-76956643D01*
X124275397Y-76792453D01*
X124497593Y-76597593D01*
X124692453Y-76375397D01*
X124856643Y-76129669D01*
X124987355Y-75864611D01*
X124987354Y-75864611D01*
X124987357Y-75864607D01*
X125071569Y-75616524D01*
X125082352Y-75584759D01*
X125140008Y-75294903D01*
X125159337Y-75000000D01*
X125140008Y-74705097D01*
X125082352Y-74415241D01*
X125052043Y-74325953D01*
X124987357Y-74135393D01*
X124980817Y-74122132D01*
X124856643Y-73870332D01*
X124692453Y-73624603D01*
X124692452Y-73624601D01*
X124497593Y-73402406D01*
X124275397Y-73207547D01*
X124029671Y-73043358D01*
X123764607Y-72912642D01*
X123484761Y-72817648D01*
X123194902Y-72759991D01*
X122900000Y-72740663D01*
X122605097Y-72759991D01*
X122315238Y-72817648D01*
X122035393Y-72912642D01*
X121770329Y-73043358D01*
X121524601Y-73207547D01*
X121302406Y-73402406D01*
X121107547Y-73624601D01*
X120943358Y-73870329D01*
X120812642Y-74135393D01*
X120772813Y-74252728D01*
X120732794Y-74310147D01*
X120668310Y-74337354D01*
X120599256Y-74325953D01*
X120546938Y-74279462D01*
X120527500Y-74212227D01*
X120527500Y-71466000D01*
X120544381Y-71403000D01*
X120590500Y-71356881D01*
X120653500Y-71340000D01*
X123385816Y-71340000D01*
X123428910Y-71347599D01*
G37*
G04 #@! TD.AperFunction*
D31*
X163900000Y-121500000D02*
X161650000Y-121500000D01*
X159150000Y-117000000D02*
X159150000Y-119000000D01*
X161650000Y-114500000D02*
G75*
G03*
X159150000Y-117000000I0J-2500000D01*
G01*
X151900000Y-135000000D02*
G75*
G03*
X149400000Y-137500000I0J-2500000D01*
G01*
X155400000Y-137500000D02*
G75*
G03*
X152900000Y-135000000I-2500000J0D01*
G01*
X159150000Y-119000000D02*
G75*
G03*
X161650000Y-121500000I2500000J0D01*
G01*
X164900000Y-122500000D02*
G75*
G03*
X163900000Y-121500000I-1000000J0D01*
G01*
X148400000Y-143000000D02*
G75*
G03*
X149400000Y-142000000I0J1000000D01*
G01*
X155400000Y-142000000D02*
X155400000Y-137500000D01*
X120400000Y-68500000D02*
X120400000Y-139000000D01*
X163900000Y-114500000D02*
X161650000Y-114500000D01*
X124400000Y-64500000D02*
G75*
G03*
X120400000Y-68500000I0J-4000000D01*
G01*
X160900000Y-64500000D02*
X124400000Y-64500000D01*
X152900000Y-135000000D02*
X151900000Y-135000000D01*
X164900000Y-68500000D02*
X164900000Y-113500000D01*
X164900000Y-68500000D02*
G75*
G03*
X160900000Y-64500000I-4000000J0D01*
G01*
X120400000Y-139000000D02*
G75*
G03*
X124400000Y-143000000I4000000J0D01*
G01*
X149400000Y-137500000D02*
X149400000Y-142000000D01*
X155400000Y-142000000D02*
G75*
G03*
X156400000Y-143000000I1000000J0D01*
G01*
X163900000Y-114500000D02*
G75*
G03*
X164900000Y-113500000I0J1000000D01*
G01*
X160900000Y-143000000D02*
X156400000Y-143000000D01*
X164900000Y-139000000D02*
X164900000Y-122500000D01*
X148400000Y-143000000D02*
X124400000Y-143000000D01*
X160900000Y-143000000D02*
G75*
G03*
X164900000Y-139000000I0J4000000D01*
G01*
M02*
