G04 #@! TF.GenerationSoftware,KiCad,Pcbnew,7.0.1*
G04 #@! TF.CreationDate,2023-09-19T14:51:08+09:00*
G04 #@! TF.ProjectId,ESP32-DevKit-Lipo_Rev_C,45535033-322d-4446-9576-4b69742d4c69,C*
G04 #@! TF.SameCoordinates,Original*
G04 #@! TF.FileFunction,Soldermask,Top*
G04 #@! TF.FilePolarity,Negative*
%FSLAX46Y46*%
G04 Gerber Fmt 4.6, Leading zero omitted, Abs format (unit mm)*
G04 Created by KiCad (PCBNEW 7.0.1) date 2023-09-19 14:51:08*
%MOMM*%
%LPD*%
G01*
G04 APERTURE LIST*
G04 Aperture macros list*
%AMRoundRect*
0 Rectangle with rounded corners*
0 $1 Rounding radius*
0 $2 $3 $4 $5 $6 $7 $8 $9 X,Y pos of 4 corners*
0 Add a 4 corners polygon primitive as box body*
4,1,4,$2,$3,$4,$5,$6,$7,$8,$9,$2,$3,0*
0 Add four circle primitives for the rounded corners*
1,1,$1+$1,$2,$3*
1,1,$1+$1,$4,$5*
1,1,$1+$1,$6,$7*
1,1,$1+$1,$8,$9*
0 Add four rect primitives between the rounded corners*
20,1,$1+$1,$2,$3,$4,$5,0*
20,1,$1+$1,$4,$5,$6,$7,0*
20,1,$1+$1,$6,$7,$8,$9,0*
20,1,$1+$1,$8,$9,$2,$3,0*%
G04 Aperture macros list end*
%ADD10RoundRect,0.050800X0.700000X-0.500000X0.700000X0.500000X-0.700000X0.500000X-0.700000X-0.500000X0*%
%ADD11RoundRect,0.050800X0.500000X-0.700000X0.500000X0.700000X-0.500000X0.700000X-0.500000X-0.700000X0*%
%ADD12RoundRect,0.050800X0.400000X-0.400000X0.400000X0.400000X-0.400000X0.400000X-0.400000X-0.400000X0*%
%ADD13C,2.000000*%
%ADD14RoundRect,0.050800X0.600000X0.275000X-0.600000X0.275000X-0.600000X-0.275000X0.600000X-0.275000X0*%
%ADD15RoundRect,0.050800X-0.635000X0.162500X-0.635000X-0.162500X0.635000X-0.162500X0.635000X0.162500X0*%
%ADD16RoundRect,0.050800X-0.275000X0.250000X-0.275000X-0.250000X0.275000X-0.250000X0.275000X0.250000X0*%
%ADD17RoundRect,0.050800X0.275000X-0.250000X0.275000X0.250000X-0.275000X0.250000X-0.275000X-0.250000X0*%
%ADD18RoundRect,0.050800X0.250000X0.275000X-0.250000X0.275000X-0.250000X-0.275000X0.250000X-0.275000X0*%
%ADD19RoundRect,0.050800X-0.250000X-0.275000X0.250000X-0.275000X0.250000X0.275000X-0.250000X0.275000X0*%
%ADD20RoundRect,0.050800X-1.000000X-0.450000X1.000000X-0.450000X1.000000X0.450000X-1.000000X0.450000X0*%
%ADD21RoundRect,0.050800X-0.450000X-1.000000X0.450000X-1.000000X0.450000X1.000000X-0.450000X1.000000X0*%
%ADD22C,2.101600*%
%ADD23RoundRect,0.050800X-2.500000X-2.500000X2.500000X-2.500000X2.500000X2.500000X-2.500000X2.500000X0*%
%ADD24RoundRect,0.050800X-0.508000X-0.508000X0.508000X-0.508000X0.508000X0.508000X-0.508000X0.508000X0*%
%ADD25RoundRect,0.050800X-1.500000X0.800000X-1.500000X-0.800000X1.500000X-0.800000X1.500000X0.800000X0*%
%ADD26RoundRect,0.050800X0.508000X-0.508000X0.508000X0.508000X-0.508000X0.508000X-0.508000X-0.508000X0*%
%ADD27RoundRect,0.250000X0.625000X-0.350000X0.625000X0.350000X-0.625000X0.350000X-0.625000X-0.350000X0*%
%ADD28O,1.750000X1.200000*%
%ADD29RoundRect,0.050800X-0.600000X0.700000X-0.600000X-0.700000X0.600000X-0.700000X0.600000X0.700000X0*%
%ADD30RoundRect,0.050800X-0.700000X0.500000X-0.700000X-0.500000X0.700000X-0.500000X0.700000X0.500000X0*%
%ADD31RoundRect,0.050800X-0.508000X0.508000X-0.508000X-0.508000X0.508000X-0.508000X0.508000X0.508000X0*%
%ADD32RoundRect,0.050800X0.700000X0.500000X-0.700000X0.500000X-0.700000X-0.500000X0.700000X-0.500000X0*%
%ADD33C,0.801600*%
%ADD34RoundRect,0.050800X-0.750000X0.450000X-0.750000X-0.450000X0.750000X-0.450000X0.750000X0.450000X0*%
%ADD35C,0.800000*%
%ADD36C,5.000000*%
%ADD37C,4.000000*%
%ADD38R,1.524000X1.524000*%
%ADD39C,1.524000*%
%ADD40R,1.700000X1.700000*%
%ADD41O,1.700000X1.700000*%
%ADD42C,0.650000*%
%ADD43R,0.600000X1.240000*%
%ADD44R,0.300000X1.240000*%
%ADD45O,1.000000X2.100000*%
%ADD46O,1.000000X1.800000*%
G04 #@! TA.AperFunction,Profile*
%ADD47C,0.254000*%
G04 #@! TD*
G04 APERTURE END LIST*
D10*
X154135000Y-106106000D03*
X154135000Y-104206000D03*
X151935000Y-105156000D03*
D11*
X151317960Y-108112560D03*
X149415500Y-108112560D03*
X150370540Y-110322360D03*
D12*
X133223000Y-109728000D03*
X133223000Y-111252000D03*
D13*
X151765000Y-98425000D03*
D14*
X148687000Y-111826000D03*
X148687000Y-112776000D03*
X148687000Y-113726000D03*
X151287000Y-113726000D03*
X151287000Y-111826000D03*
D15*
X140144500Y-104263000D03*
X140144500Y-104913000D03*
X140144500Y-105563000D03*
X140144500Y-106213000D03*
X140144500Y-106863000D03*
X140144500Y-107513000D03*
X140144500Y-108163000D03*
X140144500Y-108813000D03*
X140144500Y-109463000D03*
X140144500Y-110113000D03*
X147383500Y-110113000D03*
X147383500Y-109463000D03*
X147383500Y-108813000D03*
X147383500Y-108163000D03*
X147383500Y-107513000D03*
X147383500Y-106863000D03*
X147383500Y-106213000D03*
X147383500Y-105563000D03*
X147383500Y-104913000D03*
X147383500Y-104263000D03*
D10*
X137160000Y-117470000D03*
X137160000Y-113670000D03*
D16*
X133223000Y-83693000D03*
D17*
X133223000Y-82677000D03*
D16*
X133223000Y-108331000D03*
D17*
X133223000Y-107315000D03*
D18*
X135509000Y-106934000D03*
D19*
X136525000Y-106934000D03*
D18*
X149098000Y-106299000D03*
D19*
X150114000Y-106299000D03*
X152527000Y-110871000D03*
D18*
X151511000Y-110871000D03*
X132206999Y-81661000D03*
D19*
X133222999Y-81661000D03*
D13*
X148590000Y-73025000D03*
D20*
X135010000Y-72512000D03*
X135010000Y-73782000D03*
X135010000Y-75052000D03*
X135010000Y-76322000D03*
X135010000Y-77592000D03*
X135010000Y-78862000D03*
X135010000Y-80132000D03*
X135010000Y-81402000D03*
X135010000Y-82672000D03*
X135010000Y-83942000D03*
X135010000Y-85212000D03*
X135010000Y-86482000D03*
X135010000Y-87752000D03*
X135010000Y-89022000D03*
X135010000Y-90292000D03*
D21*
X137810000Y-90022000D03*
D20*
X135010000Y-91562000D03*
D21*
X139080000Y-90022000D03*
D20*
X135010000Y-92832000D03*
D21*
X140350000Y-90022000D03*
D20*
X135010000Y-94102000D03*
D21*
X141620000Y-90022000D03*
D20*
X135010000Y-95372000D03*
D21*
X142890000Y-90022000D03*
X144160000Y-90022000D03*
D20*
X152010000Y-95372000D03*
D21*
X145430000Y-90022000D03*
D20*
X152010000Y-94102000D03*
D21*
X146700000Y-90022000D03*
D20*
X152010000Y-92832000D03*
D21*
X147970000Y-90022000D03*
D20*
X152010000Y-91562000D03*
D21*
X149240000Y-90022000D03*
D20*
X152010000Y-90292000D03*
X152010000Y-89022000D03*
X152010000Y-87752000D03*
X152010000Y-86482000D03*
X152010000Y-85212000D03*
X152010000Y-83942000D03*
X152010000Y-82672000D03*
X152010000Y-81402000D03*
X152010000Y-80132000D03*
X152010000Y-78862000D03*
X152010000Y-77592000D03*
X152010000Y-76322000D03*
X152010000Y-75052000D03*
X152010000Y-73782000D03*
X152010000Y-72512000D03*
D22*
X142510000Y-80022000D03*
D23*
X142510000Y-80022000D03*
D11*
X154492960Y-108112560D03*
X152590500Y-108112560D03*
X153545540Y-110322360D03*
D24*
X152717500Y-113538000D03*
X154495500Y-113538000D03*
D25*
X140208000Y-101403000D03*
X140208000Y-99003000D03*
D24*
X142621000Y-98679000D03*
X144399000Y-98679000D03*
D26*
X147066000Y-102362000D03*
X147066000Y-100584000D03*
D16*
X147320000Y-99377500D03*
D17*
X147320000Y-98361500D03*
D16*
X145542000Y-99377500D03*
D17*
X145542000Y-98361500D03*
D16*
X146431000Y-99377500D03*
D17*
X146431000Y-98361500D03*
D14*
X142718000Y-100269000D03*
X142718000Y-101219000D03*
X142718000Y-102169000D03*
X145318000Y-102169000D03*
X145318000Y-100269000D03*
D17*
X138557000Y-110490000D03*
D16*
X138557000Y-111506000D03*
D17*
X133223000Y-73660000D03*
D16*
X133223000Y-74676000D03*
D19*
X133223000Y-78740000D03*
D18*
X132207000Y-78740000D03*
D10*
X149098000Y-102103000D03*
X149098000Y-98303000D03*
D24*
X148971000Y-103886000D03*
X150749000Y-103886000D03*
D18*
X149098000Y-105410000D03*
D19*
X150114000Y-105410000D03*
D18*
X152654000Y-112141000D03*
D19*
X153670000Y-112141000D03*
D27*
X152700000Y-119000000D03*
D28*
X152700000Y-117000000D03*
D16*
X138557000Y-109474000D03*
D17*
X138557000Y-108458000D03*
D29*
X135598000Y-108839000D03*
X137198000Y-111039000D03*
X137198000Y-108839000D03*
X135598000Y-111039000D03*
D30*
X134493000Y-101478000D03*
X134493000Y-105278000D03*
D10*
X136779000Y-105278000D03*
X136779000Y-101478000D03*
D18*
X132207000Y-77216000D03*
D19*
X133223000Y-77216000D03*
X133223000Y-80137001D03*
D18*
X132207000Y-80137001D03*
D19*
X139446000Y-103251000D03*
D18*
X138430000Y-103251000D03*
D31*
X133223000Y-97536000D03*
X133223000Y-99314000D03*
D32*
X151165560Y-100523040D03*
X151165560Y-102425500D03*
X153375360Y-101470460D03*
D13*
X135255000Y-98425000D03*
D19*
X138557000Y-106934000D03*
D18*
X137541000Y-106934000D03*
D33*
X134885000Y-115570000D03*
X133085000Y-115570000D03*
D34*
X133985000Y-113393000D03*
X133985000Y-117747000D03*
D35*
X159025000Y-68500000D03*
X159574175Y-67174175D03*
X159574175Y-69825825D03*
X160900000Y-66625000D03*
D36*
X160900000Y-68500000D03*
D35*
X160900000Y-70375000D03*
X162225825Y-67174175D03*
X162225825Y-69825825D03*
X162775000Y-68500000D03*
D18*
X136384000Y-125400000D03*
D19*
X137400000Y-125400000D03*
D13*
X127400000Y-75000000D03*
D37*
X122900000Y-75000000D03*
X122900000Y-106900000D03*
X162400000Y-75000000D03*
X162400000Y-106900000D03*
D35*
X159025000Y-139000000D03*
X159574175Y-137674175D03*
X159574175Y-140325825D03*
X160900000Y-137125000D03*
D36*
X160900000Y-139000000D03*
D35*
X160900000Y-140875000D03*
X162225825Y-137674175D03*
X162225825Y-140325825D03*
X162775000Y-139000000D03*
D38*
X145650000Y-120500000D03*
D39*
X145650000Y-123000000D03*
X145650000Y-125500000D03*
X139650000Y-120500000D03*
X139650000Y-123000000D03*
X139650000Y-125500000D03*
D35*
X122525000Y-139000000D03*
X123074175Y-137674175D03*
X123074175Y-140325825D03*
X124400000Y-137125000D03*
D36*
X124400000Y-139000000D03*
D35*
X124400000Y-140875000D03*
X125725825Y-137674175D03*
X125725825Y-140325825D03*
X126275000Y-139000000D03*
D17*
X139650000Y-127742000D03*
D16*
X139650000Y-128758000D03*
D40*
X122900000Y-83400000D03*
D41*
X122900000Y-85940000D03*
X122900000Y-88480000D03*
X122900000Y-91020000D03*
X122900000Y-93560000D03*
X122900000Y-96100000D03*
X122900000Y-98640000D03*
D35*
X122525000Y-68500000D03*
X123074175Y-67174175D03*
X123074175Y-69825825D03*
X124400000Y-66625000D03*
D36*
X124400000Y-68500000D03*
D35*
X124400000Y-70375000D03*
X125725825Y-67174175D03*
X125725825Y-69825825D03*
X126275000Y-68500000D03*
D42*
X139760000Y-137895000D03*
X145540000Y-137895000D03*
D43*
X139450000Y-136775000D03*
X140250000Y-136775000D03*
D44*
X141400000Y-136775000D03*
X142400000Y-136775000D03*
X142900000Y-136775000D03*
X143900000Y-136775000D03*
D43*
X145050000Y-136775000D03*
X145850000Y-136775000D03*
X145850000Y-136775000D03*
X145050000Y-136775000D03*
D44*
X144400000Y-136775000D03*
X143400000Y-136775000D03*
X141900000Y-136775000D03*
X140900000Y-136775000D03*
D43*
X140250000Y-136775000D03*
X139450000Y-136775000D03*
D45*
X138330000Y-137375000D03*
D46*
X138330000Y-141575000D03*
D45*
X146970000Y-137375000D03*
D46*
X146970000Y-141575000D03*
D47*
X163900000Y-121500000D02*
X161650000Y-121500000D01*
X159150000Y-117000000D02*
X159150000Y-119000000D01*
X161650000Y-114500000D02*
G75*
G03*
X159150000Y-117000000I0J-2500000D01*
G01*
X151900000Y-135000000D02*
G75*
G03*
X149400000Y-137500000I0J-2500000D01*
G01*
X155400000Y-137500000D02*
G75*
G03*
X152900000Y-135000000I-2500000J0D01*
G01*
X159150000Y-119000000D02*
G75*
G03*
X161650000Y-121500000I2500000J0D01*
G01*
X164900000Y-122500000D02*
G75*
G03*
X163900000Y-121500000I-1000000J0D01*
G01*
X148400000Y-143000000D02*
G75*
G03*
X149400000Y-142000000I0J1000000D01*
G01*
X155400000Y-142000000D02*
X155400000Y-137500000D01*
X120400000Y-68500000D02*
X120400000Y-139000000D01*
X163900000Y-114500000D02*
X161650000Y-114500000D01*
X124400000Y-64500000D02*
G75*
G03*
X120400000Y-68500000I0J-4000000D01*
G01*
X160900000Y-64500000D02*
X124400000Y-64500000D01*
X152900000Y-135000000D02*
X151900000Y-135000000D01*
X164900000Y-68500000D02*
X164900000Y-113500000D01*
X164900000Y-68500000D02*
G75*
G03*
X160900000Y-64500000I-4000000J0D01*
G01*
X120400000Y-139000000D02*
G75*
G03*
X124400000Y-143000000I4000000J0D01*
G01*
X149400000Y-137500000D02*
X149400000Y-142000000D01*
X155400000Y-142000000D02*
G75*
G03*
X156400000Y-143000000I1000000J0D01*
G01*
X163900000Y-114500000D02*
G75*
G03*
X164900000Y-113500000I0J1000000D01*
G01*
X160900000Y-143000000D02*
X156400000Y-143000000D01*
X164900000Y-139000000D02*
X164900000Y-122500000D01*
X148400000Y-143000000D02*
X124400000Y-143000000D01*
X160900000Y-143000000D02*
G75*
G03*
X164900000Y-139000000I0J4000000D01*
G01*
M02*
