G04 #@! TF.GenerationSoftware,KiCad,Pcbnew,7.0.1*
G04 #@! TF.CreationDate,2023-09-19T14:51:08+09:00*
G04 #@! TF.ProjectId,ESP32-DevKit-Lipo_Rev_C,45535033-322d-4446-9576-4b69742d4c69,C*
G04 #@! TF.SameCoordinates,Original*
G04 #@! TF.FileFunction,Legend,Bot*
G04 #@! TF.FilePolarity,Positive*
%FSLAX46Y46*%
G04 Gerber Fmt 4.6, Leading zero omitted, Abs format (unit mm)*
G04 Created by KiCad (PCBNEW 7.0.1) date 2023-09-19 14:51:08*
%MOMM*%
%LPD*%
G01*
G04 APERTURE LIST*
G04 Aperture macros list*
%AMRoundRect*
0 Rectangle with rounded corners*
0 $1 Rounding radius*
0 $2 $3 $4 $5 $6 $7 $8 $9 X,Y pos of 4 corners*
0 Add a 4 corners polygon primitive as box body*
4,1,4,$2,$3,$4,$5,$6,$7,$8,$9,$2,$3,0*
0 Add four circle primitives for the rounded corners*
1,1,$1+$1,$2,$3*
1,1,$1+$1,$4,$5*
1,1,$1+$1,$6,$7*
1,1,$1+$1,$8,$9*
0 Add four rect primitives between the rounded corners*
20,1,$1+$1,$2,$3,$4,$5,0*
20,1,$1+$1,$4,$5,$6,$7,0*
20,1,$1+$1,$6,$7,$8,$9,0*
20,1,$1+$1,$8,$9,$2,$3,0*%
G04 Aperture macros list end*
%ADD10C,2.101600*%
%ADD11RoundRect,0.250000X0.625000X-0.350000X0.625000X0.350000X-0.625000X0.350000X-0.625000X-0.350000X0*%
%ADD12O,1.750000X1.200000*%
%ADD13C,0.801600*%
%ADD14C,0.800000*%
%ADD15C,5.000000*%
%ADD16C,4.000000*%
%ADD17R,1.524000X1.524000*%
%ADD18C,1.524000*%
%ADD19R,1.700000X1.700000*%
%ADD20O,1.700000X1.700000*%
%ADD21C,0.650000*%
%ADD22O,1.000000X2.100000*%
%ADD23O,1.000000X1.800000*%
%ADD24C,1.101600*%
G04 #@! TA.AperFunction,Profile*
%ADD25C,0.254000*%
G04 #@! TD*
G04 APERTURE END LIST*
%LPC*%
D10*
X142510000Y-80022000D03*
D11*
X152700000Y-119000000D03*
D12*
X152700000Y-117000000D03*
D13*
X134885000Y-115570000D03*
X133085000Y-115570000D03*
D14*
X159025000Y-68500000D03*
X159574175Y-67174175D03*
X159574175Y-69825825D03*
X160900000Y-66625000D03*
D15*
X160900000Y-68500000D03*
D14*
X160900000Y-70375000D03*
X162225825Y-67174175D03*
X162225825Y-69825825D03*
X162775000Y-68500000D03*
D16*
X122900000Y-75000000D03*
X122900000Y-106900000D03*
X162400000Y-75000000D03*
X162400000Y-106900000D03*
D14*
X159025000Y-139000000D03*
X159574175Y-137674175D03*
X159574175Y-140325825D03*
X160900000Y-137125000D03*
D15*
X160900000Y-139000000D03*
D14*
X160900000Y-140875000D03*
X162225825Y-137674175D03*
X162225825Y-140325825D03*
X162775000Y-139000000D03*
D17*
X145650000Y-120500000D03*
D18*
X145650000Y-123000000D03*
X145650000Y-125500000D03*
X139650000Y-120500000D03*
X139650000Y-123000000D03*
X139650000Y-125500000D03*
D14*
X122525000Y-139000000D03*
X123074175Y-137674175D03*
X123074175Y-140325825D03*
X124400000Y-137125000D03*
D15*
X124400000Y-139000000D03*
D14*
X124400000Y-140875000D03*
X125725825Y-137674175D03*
X125725825Y-140325825D03*
X126275000Y-139000000D03*
D19*
X122900000Y-83400000D03*
D20*
X122900000Y-85940000D03*
X122900000Y-88480000D03*
X122900000Y-91020000D03*
X122900000Y-93560000D03*
X122900000Y-96100000D03*
X122900000Y-98640000D03*
D14*
X122525000Y-68500000D03*
X123074175Y-67174175D03*
X123074175Y-69825825D03*
X124400000Y-66625000D03*
D15*
X124400000Y-68500000D03*
D14*
X124400000Y-70375000D03*
X125725825Y-67174175D03*
X125725825Y-69825825D03*
X126275000Y-68500000D03*
D21*
X139760000Y-137895000D03*
X145540000Y-137895000D03*
D22*
X138330000Y-137375000D03*
D23*
X138330000Y-141575000D03*
D22*
X146970000Y-137375000D03*
D23*
X146970000Y-141575000D03*
D24*
X154900000Y-118000000D03*
D25*
X163900000Y-121500000D02*
X161650000Y-121500000D01*
X159150000Y-117000000D02*
X159150000Y-119000000D01*
X161650000Y-114500000D02*
G75*
G03*
X159150000Y-117000000I0J-2500000D01*
G01*
X151900000Y-135000000D02*
G75*
G03*
X149400000Y-137500000I0J-2500000D01*
G01*
X155400000Y-137500000D02*
G75*
G03*
X152900000Y-135000000I-2500000J0D01*
G01*
X159150000Y-119000000D02*
G75*
G03*
X161650000Y-121500000I2500000J0D01*
G01*
X164900000Y-122500000D02*
G75*
G03*
X163900000Y-121500000I-1000000J0D01*
G01*
X148400000Y-143000000D02*
G75*
G03*
X149400000Y-142000000I0J1000000D01*
G01*
X155400000Y-142000000D02*
X155400000Y-137500000D01*
X120400000Y-68500000D02*
X120400000Y-139000000D01*
X163900000Y-114500000D02*
X161650000Y-114500000D01*
X124400000Y-64500000D02*
G75*
G03*
X120400000Y-68500000I0J-4000000D01*
G01*
X160900000Y-64500000D02*
X124400000Y-64500000D01*
X152900000Y-135000000D02*
X151900000Y-135000000D01*
X164900000Y-68500000D02*
X164900000Y-113500000D01*
X164900000Y-68500000D02*
G75*
G03*
X160900000Y-64500000I-4000000J0D01*
G01*
X120400000Y-139000000D02*
G75*
G03*
X124400000Y-143000000I4000000J0D01*
G01*
X149400000Y-137500000D02*
X149400000Y-142000000D01*
X155400000Y-142000000D02*
G75*
G03*
X156400000Y-143000000I1000000J0D01*
G01*
X163900000Y-114500000D02*
G75*
G03*
X164900000Y-113500000I0J1000000D01*
G01*
X160900000Y-143000000D02*
X156400000Y-143000000D01*
X164900000Y-139000000D02*
X164900000Y-122500000D01*
X148400000Y-143000000D02*
X124400000Y-143000000D01*
X160900000Y-143000000D02*
G75*
G03*
X164900000Y-139000000I0J4000000D01*
G01*
M02*
