%TF.GenerationSoftware,KiCad,Pcbnew,7.0.1*%
%TF.CreationDate,2023-09-19T14:53:10+09:00*%
%TF.ProjectId,ESP32-DevKit-Lipo_Rev_C,45535033-322d-4446-9576-4b69742d4c69,C*%
%TF.SameCoordinates,Original*%
%TF.FileFunction,Drillmap*%
%TF.FilePolarity,Positive*%
%FSLAX45Y45*%
G04 Gerber Fmt 4.5, Leading zero omitted, Abs format (unit mm)*
G04 Created by KiCad (PCBNEW 7.0.1) date 2023-09-19 14:53:10*
%MOMM*%
%LPD*%
G01*
G04 APERTURE LIST*
%ADD10C,0.254000*%
%ADD11C,0.200000*%
%ADD12C,0.065000*%
%ADD13C,0.070000*%
%ADD14C,0.270000*%
G04 APERTURE END LIST*
D10*
X16390000Y-12150000D02*
X16165000Y-12150000D01*
X15915000Y-11700000D02*
X15915000Y-11900000D01*
X16165000Y-11450000D02*
G75*
G03*
X15915000Y-11700000I0J-250000D01*
G01*
X15190000Y-13500000D02*
G75*
G03*
X14940000Y-13750000I0J-250000D01*
G01*
X15540000Y-13750000D02*
G75*
G03*
X15290000Y-13500000I-250000J0D01*
G01*
X15915000Y-11900000D02*
G75*
G03*
X16165000Y-12150000I250000J0D01*
G01*
X16490000Y-12250000D02*
G75*
G03*
X16390000Y-12150000I-100000J0D01*
G01*
X14840000Y-14300000D02*
G75*
G03*
X14940000Y-14200000I0J100000D01*
G01*
X15540000Y-14200000D02*
X15540000Y-13750000D01*
X12040000Y-6850000D02*
X12040000Y-13900000D01*
X16390000Y-11450000D02*
X16165000Y-11450000D01*
X12440000Y-6450000D02*
G75*
G03*
X12040000Y-6850000I0J-400000D01*
G01*
X16090000Y-6450000D02*
X12440000Y-6450000D01*
X15290000Y-13500000D02*
X15190000Y-13500000D01*
X16490000Y-6850000D02*
X16490000Y-11350000D01*
X16490000Y-6850000D02*
G75*
G03*
X16090000Y-6450000I-400000J0D01*
G01*
X12040000Y-13900000D02*
G75*
G03*
X12440000Y-14300000I400000J0D01*
G01*
X14940000Y-13750000D02*
X14940000Y-14200000D01*
X15540000Y-14200000D02*
G75*
G03*
X15640000Y-14300000I100000J0D01*
G01*
X16390000Y-11450000D02*
G75*
G03*
X16490000Y-11350000I0J100000D01*
G01*
X16090000Y-14300000D02*
X15640000Y-14300000D01*
X16490000Y-13900000D02*
X16490000Y-12250000D01*
X14840000Y-14300000D02*
X12440000Y-14300000D01*
X16090000Y-14300000D02*
G75*
G03*
X16490000Y-13900000I0J400000D01*
G01*
D11*
D12*
X13943500Y-13757000D02*
X14008500Y-13822000D01*
X14008500Y-13757000D02*
X13943500Y-13822000D01*
X14521500Y-13757000D02*
X14586500Y-13822000D01*
X14586500Y-13757000D02*
X14521500Y-13822000D01*
D13*
X13343500Y-11557000D02*
G75*
G03*
X13343500Y-11557000I-35000J0D01*
G01*
X13523500Y-11557000D02*
G75*
G03*
X13523500Y-11557000I-35000J0D01*
G01*
D14*
X12290000Y-7365000D02*
X12290000Y-7635000D01*
X12155000Y-7500000D02*
X12425000Y-7500000D01*
X12290000Y-10555000D02*
X12290000Y-10825000D01*
X12155000Y-10690000D02*
X12425000Y-10690000D01*
X16240000Y-7365000D02*
X16240000Y-7635000D01*
X16105000Y-7500000D02*
X16375000Y-7500000D01*
X16240000Y-10555000D02*
X16240000Y-10825000D01*
X16105000Y-10690000D02*
X16375000Y-10690000D01*
D11*
X12274919Y-14625224D02*
X12274919Y-14425224D01*
X12274919Y-14425224D02*
X12322538Y-14425224D01*
X12322538Y-14425224D02*
X12351109Y-14434748D01*
X12351109Y-14434748D02*
X12370157Y-14453795D01*
X12370157Y-14453795D02*
X12379681Y-14472843D01*
X12379681Y-14472843D02*
X12389205Y-14510938D01*
X12389205Y-14510938D02*
X12389205Y-14539509D01*
X12389205Y-14539509D02*
X12379681Y-14577605D01*
X12379681Y-14577605D02*
X12370157Y-14596652D01*
X12370157Y-14596652D02*
X12351109Y-14615700D01*
X12351109Y-14615700D02*
X12322538Y-14625224D01*
X12322538Y-14625224D02*
X12274919Y-14625224D01*
X12474919Y-14625224D02*
X12474919Y-14491890D01*
X12474919Y-14529986D02*
X12484443Y-14510938D01*
X12484443Y-14510938D02*
X12493967Y-14501414D01*
X12493967Y-14501414D02*
X12513014Y-14491890D01*
X12513014Y-14491890D02*
X12532062Y-14491890D01*
X12598728Y-14625224D02*
X12598728Y-14491890D01*
X12598728Y-14425224D02*
X12589205Y-14434748D01*
X12589205Y-14434748D02*
X12598728Y-14444271D01*
X12598728Y-14444271D02*
X12608252Y-14434748D01*
X12608252Y-14434748D02*
X12598728Y-14425224D01*
X12598728Y-14425224D02*
X12598728Y-14444271D01*
X12722538Y-14625224D02*
X12703490Y-14615700D01*
X12703490Y-14615700D02*
X12693967Y-14596652D01*
X12693967Y-14596652D02*
X12693967Y-14425224D01*
X12827300Y-14625224D02*
X12808252Y-14615700D01*
X12808252Y-14615700D02*
X12798728Y-14596652D01*
X12798728Y-14596652D02*
X12798728Y-14425224D01*
X13055871Y-14625224D02*
X13055871Y-14425224D01*
X13055871Y-14425224D02*
X13122538Y-14568081D01*
X13122538Y-14568081D02*
X13189205Y-14425224D01*
X13189205Y-14425224D02*
X13189205Y-14625224D01*
X13370157Y-14625224D02*
X13370157Y-14520462D01*
X13370157Y-14520462D02*
X13360633Y-14501414D01*
X13360633Y-14501414D02*
X13341586Y-14491890D01*
X13341586Y-14491890D02*
X13303490Y-14491890D01*
X13303490Y-14491890D02*
X13284443Y-14501414D01*
X13370157Y-14615700D02*
X13351109Y-14625224D01*
X13351109Y-14625224D02*
X13303490Y-14625224D01*
X13303490Y-14625224D02*
X13284443Y-14615700D01*
X13284443Y-14615700D02*
X13274919Y-14596652D01*
X13274919Y-14596652D02*
X13274919Y-14577605D01*
X13274919Y-14577605D02*
X13284443Y-14558557D01*
X13284443Y-14558557D02*
X13303490Y-14549033D01*
X13303490Y-14549033D02*
X13351109Y-14549033D01*
X13351109Y-14549033D02*
X13370157Y-14539509D01*
X13465395Y-14491890D02*
X13465395Y-14691890D01*
X13465395Y-14501414D02*
X13484443Y-14491890D01*
X13484443Y-14491890D02*
X13522538Y-14491890D01*
X13522538Y-14491890D02*
X13541586Y-14501414D01*
X13541586Y-14501414D02*
X13551109Y-14510938D01*
X13551109Y-14510938D02*
X13560633Y-14529986D01*
X13560633Y-14529986D02*
X13560633Y-14587128D01*
X13560633Y-14587128D02*
X13551109Y-14606176D01*
X13551109Y-14606176D02*
X13541586Y-14615700D01*
X13541586Y-14615700D02*
X13522538Y-14625224D01*
X13522538Y-14625224D02*
X13484443Y-14625224D01*
X13484443Y-14625224D02*
X13465395Y-14615700D01*
X13646348Y-14606176D02*
X13655871Y-14615700D01*
X13655871Y-14615700D02*
X13646348Y-14625224D01*
X13646348Y-14625224D02*
X13636824Y-14615700D01*
X13636824Y-14615700D02*
X13646348Y-14606176D01*
X13646348Y-14606176D02*
X13646348Y-14625224D01*
X13646348Y-14501414D02*
X13655871Y-14510938D01*
X13655871Y-14510938D02*
X13646348Y-14520462D01*
X13646348Y-14520462D02*
X13636824Y-14510938D01*
X13636824Y-14510938D02*
X13646348Y-14501414D01*
X13646348Y-14501414D02*
X13646348Y-14520462D01*
D12*
X11962300Y-14920200D02*
X12027300Y-14985200D01*
X12027300Y-14920200D02*
X11962300Y-14985200D01*
D11*
X12313014Y-14845224D02*
X12332062Y-14845224D01*
X12332062Y-14845224D02*
X12351109Y-14854748D01*
X12351109Y-14854748D02*
X12360633Y-14864271D01*
X12360633Y-14864271D02*
X12370157Y-14883319D01*
X12370157Y-14883319D02*
X12379681Y-14921414D01*
X12379681Y-14921414D02*
X12379681Y-14969033D01*
X12379681Y-14969033D02*
X12370157Y-15007128D01*
X12370157Y-15007128D02*
X12360633Y-15026176D01*
X12360633Y-15026176D02*
X12351109Y-15035700D01*
X12351109Y-15035700D02*
X12332062Y-15045224D01*
X12332062Y-15045224D02*
X12313014Y-15045224D01*
X12313014Y-15045224D02*
X12293967Y-15035700D01*
X12293967Y-15035700D02*
X12284443Y-15026176D01*
X12284443Y-15026176D02*
X12274919Y-15007128D01*
X12274919Y-15007128D02*
X12265395Y-14969033D01*
X12265395Y-14969033D02*
X12265395Y-14921414D01*
X12265395Y-14921414D02*
X12274919Y-14883319D01*
X12274919Y-14883319D02*
X12284443Y-14864271D01*
X12284443Y-14864271D02*
X12293967Y-14854748D01*
X12293967Y-14854748D02*
X12313014Y-14845224D01*
X12465395Y-15026176D02*
X12474919Y-15035700D01*
X12474919Y-15035700D02*
X12465395Y-15045224D01*
X12465395Y-15045224D02*
X12455871Y-15035700D01*
X12455871Y-15035700D02*
X12465395Y-15026176D01*
X12465395Y-15026176D02*
X12465395Y-15045224D01*
X12646348Y-14845224D02*
X12608252Y-14845224D01*
X12608252Y-14845224D02*
X12589205Y-14854748D01*
X12589205Y-14854748D02*
X12579681Y-14864271D01*
X12579681Y-14864271D02*
X12560633Y-14892843D01*
X12560633Y-14892843D02*
X12551109Y-14930938D01*
X12551109Y-14930938D02*
X12551109Y-15007128D01*
X12551109Y-15007128D02*
X12560633Y-15026176D01*
X12560633Y-15026176D02*
X12570157Y-15035700D01*
X12570157Y-15035700D02*
X12589205Y-15045224D01*
X12589205Y-15045224D02*
X12627300Y-15045224D01*
X12627300Y-15045224D02*
X12646348Y-15035700D01*
X12646348Y-15035700D02*
X12655871Y-15026176D01*
X12655871Y-15026176D02*
X12665395Y-15007128D01*
X12665395Y-15007128D02*
X12665395Y-14959509D01*
X12665395Y-14959509D02*
X12655871Y-14940462D01*
X12655871Y-14940462D02*
X12646348Y-14930938D01*
X12646348Y-14930938D02*
X12627300Y-14921414D01*
X12627300Y-14921414D02*
X12589205Y-14921414D01*
X12589205Y-14921414D02*
X12570157Y-14930938D01*
X12570157Y-14930938D02*
X12560633Y-14940462D01*
X12560633Y-14940462D02*
X12551109Y-14959509D01*
X12846348Y-14845224D02*
X12751109Y-14845224D01*
X12751109Y-14845224D02*
X12741586Y-14940462D01*
X12741586Y-14940462D02*
X12751109Y-14930938D01*
X12751109Y-14930938D02*
X12770157Y-14921414D01*
X12770157Y-14921414D02*
X12817776Y-14921414D01*
X12817776Y-14921414D02*
X12836824Y-14930938D01*
X12836824Y-14930938D02*
X12846348Y-14940462D01*
X12846348Y-14940462D02*
X12855871Y-14959509D01*
X12855871Y-14959509D02*
X12855871Y-15007128D01*
X12855871Y-15007128D02*
X12846348Y-15026176D01*
X12846348Y-15026176D02*
X12836824Y-15035700D01*
X12836824Y-15035700D02*
X12817776Y-15045224D01*
X12817776Y-15045224D02*
X12770157Y-15045224D01*
X12770157Y-15045224D02*
X12751109Y-15035700D01*
X12751109Y-15035700D02*
X12741586Y-15026176D01*
X12979681Y-14845224D02*
X12998729Y-14845224D01*
X12998729Y-14845224D02*
X13017776Y-14854748D01*
X13017776Y-14854748D02*
X13027300Y-14864271D01*
X13027300Y-14864271D02*
X13036824Y-14883319D01*
X13036824Y-14883319D02*
X13046348Y-14921414D01*
X13046348Y-14921414D02*
X13046348Y-14969033D01*
X13046348Y-14969033D02*
X13036824Y-15007128D01*
X13036824Y-15007128D02*
X13027300Y-15026176D01*
X13027300Y-15026176D02*
X13017776Y-15035700D01*
X13017776Y-15035700D02*
X12998729Y-15045224D01*
X12998729Y-15045224D02*
X12979681Y-15045224D01*
X12979681Y-15045224D02*
X12960633Y-15035700D01*
X12960633Y-15035700D02*
X12951109Y-15026176D01*
X12951109Y-15026176D02*
X12941586Y-15007128D01*
X12941586Y-15007128D02*
X12932062Y-14969033D01*
X12932062Y-14969033D02*
X12932062Y-14921414D01*
X12932062Y-14921414D02*
X12941586Y-14883319D01*
X12941586Y-14883319D02*
X12951109Y-14864271D01*
X12951109Y-14864271D02*
X12960633Y-14854748D01*
X12960633Y-14854748D02*
X12979681Y-14845224D01*
X13132062Y-15045224D02*
X13132062Y-14911890D01*
X13132062Y-14930938D02*
X13141586Y-14921414D01*
X13141586Y-14921414D02*
X13160633Y-14911890D01*
X13160633Y-14911890D02*
X13189205Y-14911890D01*
X13189205Y-14911890D02*
X13208252Y-14921414D01*
X13208252Y-14921414D02*
X13217776Y-14940462D01*
X13217776Y-14940462D02*
X13217776Y-15045224D01*
X13217776Y-14940462D02*
X13227300Y-14921414D01*
X13227300Y-14921414D02*
X13246348Y-14911890D01*
X13246348Y-14911890D02*
X13274919Y-14911890D01*
X13274919Y-14911890D02*
X13293967Y-14921414D01*
X13293967Y-14921414D02*
X13303490Y-14940462D01*
X13303490Y-14940462D02*
X13303490Y-15045224D01*
X13398729Y-15045224D02*
X13398729Y-14911890D01*
X13398729Y-14930938D02*
X13408252Y-14921414D01*
X13408252Y-14921414D02*
X13427300Y-14911890D01*
X13427300Y-14911890D02*
X13455871Y-14911890D01*
X13455871Y-14911890D02*
X13474919Y-14921414D01*
X13474919Y-14921414D02*
X13484443Y-14940462D01*
X13484443Y-14940462D02*
X13484443Y-15045224D01*
X13484443Y-14940462D02*
X13493967Y-14921414D01*
X13493967Y-14921414D02*
X13513014Y-14911890D01*
X13513014Y-14911890D02*
X13541586Y-14911890D01*
X13541586Y-14911890D02*
X13560633Y-14921414D01*
X13560633Y-14921414D02*
X13570157Y-14940462D01*
X13570157Y-14940462D02*
X13570157Y-15045224D01*
X13960633Y-14835700D02*
X13789205Y-15092843D01*
X14217776Y-14845224D02*
X14236824Y-14845224D01*
X14236824Y-14845224D02*
X14255872Y-14854748D01*
X14255872Y-14854748D02*
X14265395Y-14864271D01*
X14265395Y-14864271D02*
X14274919Y-14883319D01*
X14274919Y-14883319D02*
X14284443Y-14921414D01*
X14284443Y-14921414D02*
X14284443Y-14969033D01*
X14284443Y-14969033D02*
X14274919Y-15007128D01*
X14274919Y-15007128D02*
X14265395Y-15026176D01*
X14265395Y-15026176D02*
X14255872Y-15035700D01*
X14255872Y-15035700D02*
X14236824Y-15045224D01*
X14236824Y-15045224D02*
X14217776Y-15045224D01*
X14217776Y-15045224D02*
X14198729Y-15035700D01*
X14198729Y-15035700D02*
X14189205Y-15026176D01*
X14189205Y-15026176D02*
X14179681Y-15007128D01*
X14179681Y-15007128D02*
X14170157Y-14969033D01*
X14170157Y-14969033D02*
X14170157Y-14921414D01*
X14170157Y-14921414D02*
X14179681Y-14883319D01*
X14179681Y-14883319D02*
X14189205Y-14864271D01*
X14189205Y-14864271D02*
X14198729Y-14854748D01*
X14198729Y-14854748D02*
X14217776Y-14845224D01*
X14370157Y-15026176D02*
X14379681Y-15035700D01*
X14379681Y-15035700D02*
X14370157Y-15045224D01*
X14370157Y-15045224D02*
X14360633Y-15035700D01*
X14360633Y-15035700D02*
X14370157Y-15026176D01*
X14370157Y-15026176D02*
X14370157Y-15045224D01*
X14503491Y-14845224D02*
X14522538Y-14845224D01*
X14522538Y-14845224D02*
X14541586Y-14854748D01*
X14541586Y-14854748D02*
X14551110Y-14864271D01*
X14551110Y-14864271D02*
X14560633Y-14883319D01*
X14560633Y-14883319D02*
X14570157Y-14921414D01*
X14570157Y-14921414D02*
X14570157Y-14969033D01*
X14570157Y-14969033D02*
X14560633Y-15007128D01*
X14560633Y-15007128D02*
X14551110Y-15026176D01*
X14551110Y-15026176D02*
X14541586Y-15035700D01*
X14541586Y-15035700D02*
X14522538Y-15045224D01*
X14522538Y-15045224D02*
X14503491Y-15045224D01*
X14503491Y-15045224D02*
X14484443Y-15035700D01*
X14484443Y-15035700D02*
X14474919Y-15026176D01*
X14474919Y-15026176D02*
X14465395Y-15007128D01*
X14465395Y-15007128D02*
X14455872Y-14969033D01*
X14455872Y-14969033D02*
X14455872Y-14921414D01*
X14455872Y-14921414D02*
X14465395Y-14883319D01*
X14465395Y-14883319D02*
X14474919Y-14864271D01*
X14474919Y-14864271D02*
X14484443Y-14854748D01*
X14484443Y-14854748D02*
X14503491Y-14845224D01*
X14646348Y-14864271D02*
X14655872Y-14854748D01*
X14655872Y-14854748D02*
X14674919Y-14845224D01*
X14674919Y-14845224D02*
X14722538Y-14845224D01*
X14722538Y-14845224D02*
X14741586Y-14854748D01*
X14741586Y-14854748D02*
X14751110Y-14864271D01*
X14751110Y-14864271D02*
X14760633Y-14883319D01*
X14760633Y-14883319D02*
X14760633Y-14902367D01*
X14760633Y-14902367D02*
X14751110Y-14930938D01*
X14751110Y-14930938D02*
X14636824Y-15045224D01*
X14636824Y-15045224D02*
X14760633Y-15045224D01*
X14941586Y-14845224D02*
X14846348Y-14845224D01*
X14846348Y-14845224D02*
X14836824Y-14940462D01*
X14836824Y-14940462D02*
X14846348Y-14930938D01*
X14846348Y-14930938D02*
X14865395Y-14921414D01*
X14865395Y-14921414D02*
X14913014Y-14921414D01*
X14913014Y-14921414D02*
X14932062Y-14930938D01*
X14932062Y-14930938D02*
X14941586Y-14940462D01*
X14941586Y-14940462D02*
X14951110Y-14959509D01*
X14951110Y-14959509D02*
X14951110Y-15007128D01*
X14951110Y-15007128D02*
X14941586Y-15026176D01*
X14941586Y-15026176D02*
X14932062Y-15035700D01*
X14932062Y-15035700D02*
X14913014Y-15045224D01*
X14913014Y-15045224D02*
X14865395Y-15045224D01*
X14865395Y-15045224D02*
X14846348Y-15035700D01*
X14846348Y-15035700D02*
X14836824Y-15026176D01*
X15122538Y-14845224D02*
X15084443Y-14845224D01*
X15084443Y-14845224D02*
X15065395Y-14854748D01*
X15065395Y-14854748D02*
X15055872Y-14864271D01*
X15055872Y-14864271D02*
X15036824Y-14892843D01*
X15036824Y-14892843D02*
X15027300Y-14930938D01*
X15027300Y-14930938D02*
X15027300Y-15007128D01*
X15027300Y-15007128D02*
X15036824Y-15026176D01*
X15036824Y-15026176D02*
X15046348Y-15035700D01*
X15046348Y-15035700D02*
X15065395Y-15045224D01*
X15065395Y-15045224D02*
X15103491Y-15045224D01*
X15103491Y-15045224D02*
X15122538Y-15035700D01*
X15122538Y-15035700D02*
X15132062Y-15026176D01*
X15132062Y-15026176D02*
X15141586Y-15007128D01*
X15141586Y-15007128D02*
X15141586Y-14959509D01*
X15141586Y-14959509D02*
X15132062Y-14940462D01*
X15132062Y-14940462D02*
X15122538Y-14930938D01*
X15122538Y-14930938D02*
X15103491Y-14921414D01*
X15103491Y-14921414D02*
X15065395Y-14921414D01*
X15065395Y-14921414D02*
X15046348Y-14930938D01*
X15046348Y-14930938D02*
X15036824Y-14940462D01*
X15036824Y-14940462D02*
X15027300Y-14959509D01*
X15217776Y-14845224D02*
X15217776Y-14883319D01*
X15293967Y-14845224D02*
X15293967Y-14883319D01*
X15589205Y-15121414D02*
X15579681Y-15111890D01*
X15579681Y-15111890D02*
X15560634Y-15083319D01*
X15560634Y-15083319D02*
X15551110Y-15064271D01*
X15551110Y-15064271D02*
X15541586Y-15035700D01*
X15541586Y-15035700D02*
X15532062Y-14988081D01*
X15532062Y-14988081D02*
X15532062Y-14949986D01*
X15532062Y-14949986D02*
X15541586Y-14902367D01*
X15541586Y-14902367D02*
X15551110Y-14873795D01*
X15551110Y-14873795D02*
X15560634Y-14854748D01*
X15560634Y-14854748D02*
X15579681Y-14826176D01*
X15579681Y-14826176D02*
X15589205Y-14816652D01*
X15655872Y-14864271D02*
X15665395Y-14854748D01*
X15665395Y-14854748D02*
X15684443Y-14845224D01*
X15684443Y-14845224D02*
X15732062Y-14845224D01*
X15732062Y-14845224D02*
X15751110Y-14854748D01*
X15751110Y-14854748D02*
X15760634Y-14864271D01*
X15760634Y-14864271D02*
X15770157Y-14883319D01*
X15770157Y-14883319D02*
X15770157Y-14902367D01*
X15770157Y-14902367D02*
X15760634Y-14930938D01*
X15760634Y-14930938D02*
X15646348Y-15045224D01*
X15646348Y-15045224D02*
X15770157Y-15045224D01*
X16008253Y-15045224D02*
X16008253Y-14845224D01*
X16093967Y-15045224D02*
X16093967Y-14940462D01*
X16093967Y-14940462D02*
X16084443Y-14921414D01*
X16084443Y-14921414D02*
X16065396Y-14911890D01*
X16065396Y-14911890D02*
X16036824Y-14911890D01*
X16036824Y-14911890D02*
X16017776Y-14921414D01*
X16017776Y-14921414D02*
X16008253Y-14930938D01*
X16217776Y-15045224D02*
X16198729Y-15035700D01*
X16198729Y-15035700D02*
X16189205Y-15026176D01*
X16189205Y-15026176D02*
X16179681Y-15007128D01*
X16179681Y-15007128D02*
X16179681Y-14949986D01*
X16179681Y-14949986D02*
X16189205Y-14930938D01*
X16189205Y-14930938D02*
X16198729Y-14921414D01*
X16198729Y-14921414D02*
X16217776Y-14911890D01*
X16217776Y-14911890D02*
X16246348Y-14911890D01*
X16246348Y-14911890D02*
X16265396Y-14921414D01*
X16265396Y-14921414D02*
X16274919Y-14930938D01*
X16274919Y-14930938D02*
X16284443Y-14949986D01*
X16284443Y-14949986D02*
X16284443Y-15007128D01*
X16284443Y-15007128D02*
X16274919Y-15026176D01*
X16274919Y-15026176D02*
X16265396Y-15035700D01*
X16265396Y-15035700D02*
X16246348Y-15045224D01*
X16246348Y-15045224D02*
X16217776Y-15045224D01*
X16398729Y-15045224D02*
X16379681Y-15035700D01*
X16379681Y-15035700D02*
X16370157Y-15016652D01*
X16370157Y-15016652D02*
X16370157Y-14845224D01*
X16551110Y-15035700D02*
X16532062Y-15045224D01*
X16532062Y-15045224D02*
X16493967Y-15045224D01*
X16493967Y-15045224D02*
X16474919Y-15035700D01*
X16474919Y-15035700D02*
X16465396Y-15016652D01*
X16465396Y-15016652D02*
X16465396Y-14940462D01*
X16465396Y-14940462D02*
X16474919Y-14921414D01*
X16474919Y-14921414D02*
X16493967Y-14911890D01*
X16493967Y-14911890D02*
X16532062Y-14911890D01*
X16532062Y-14911890D02*
X16551110Y-14921414D01*
X16551110Y-14921414D02*
X16560634Y-14940462D01*
X16560634Y-14940462D02*
X16560634Y-14959509D01*
X16560634Y-14959509D02*
X16465396Y-14978557D01*
X16636824Y-15035700D02*
X16655872Y-15045224D01*
X16655872Y-15045224D02*
X16693967Y-15045224D01*
X16693967Y-15045224D02*
X16713015Y-15035700D01*
X16713015Y-15035700D02*
X16722538Y-15016652D01*
X16722538Y-15016652D02*
X16722538Y-15007128D01*
X16722538Y-15007128D02*
X16713015Y-14988081D01*
X16713015Y-14988081D02*
X16693967Y-14978557D01*
X16693967Y-14978557D02*
X16665396Y-14978557D01*
X16665396Y-14978557D02*
X16646348Y-14969033D01*
X16646348Y-14969033D02*
X16636824Y-14949986D01*
X16636824Y-14949986D02*
X16636824Y-14940462D01*
X16636824Y-14940462D02*
X16646348Y-14921414D01*
X16646348Y-14921414D02*
X16665396Y-14911890D01*
X16665396Y-14911890D02*
X16693967Y-14911890D01*
X16693967Y-14911890D02*
X16713015Y-14921414D01*
X16789205Y-15121414D02*
X16798729Y-15111890D01*
X16798729Y-15111890D02*
X16817777Y-15083319D01*
X16817777Y-15083319D02*
X16827300Y-15064271D01*
X16827300Y-15064271D02*
X16836824Y-15035700D01*
X16836824Y-15035700D02*
X16846348Y-14988081D01*
X16846348Y-14988081D02*
X16846348Y-14949986D01*
X16846348Y-14949986D02*
X16836824Y-14902367D01*
X16836824Y-14902367D02*
X16827300Y-14873795D01*
X16827300Y-14873795D02*
X16817777Y-14854748D01*
X16817777Y-14854748D02*
X16798729Y-14826176D01*
X16798729Y-14826176D02*
X16789205Y-14816652D01*
X17151110Y-15121414D02*
X17141586Y-15111890D01*
X17141586Y-15111890D02*
X17122539Y-15083319D01*
X17122539Y-15083319D02*
X17113015Y-15064271D01*
X17113015Y-15064271D02*
X17103491Y-15035700D01*
X17103491Y-15035700D02*
X17093967Y-14988081D01*
X17093967Y-14988081D02*
X17093967Y-14949986D01*
X17093967Y-14949986D02*
X17103491Y-14902367D01*
X17103491Y-14902367D02*
X17113015Y-14873795D01*
X17113015Y-14873795D02*
X17122539Y-14854748D01*
X17122539Y-14854748D02*
X17141586Y-14826176D01*
X17141586Y-14826176D02*
X17151110Y-14816652D01*
X17227300Y-14911890D02*
X17227300Y-15045224D01*
X17227300Y-14930938D02*
X17236824Y-14921414D01*
X17236824Y-14921414D02*
X17255872Y-14911890D01*
X17255872Y-14911890D02*
X17284443Y-14911890D01*
X17284443Y-14911890D02*
X17303491Y-14921414D01*
X17303491Y-14921414D02*
X17313015Y-14940462D01*
X17313015Y-14940462D02*
X17313015Y-15045224D01*
X17436824Y-15045224D02*
X17417777Y-15035700D01*
X17417777Y-15035700D02*
X17408253Y-15026176D01*
X17408253Y-15026176D02*
X17398729Y-15007128D01*
X17398729Y-15007128D02*
X17398729Y-14949986D01*
X17398729Y-14949986D02*
X17408253Y-14930938D01*
X17408253Y-14930938D02*
X17417777Y-14921414D01*
X17417777Y-14921414D02*
X17436824Y-14911890D01*
X17436824Y-14911890D02*
X17465396Y-14911890D01*
X17465396Y-14911890D02*
X17484443Y-14921414D01*
X17484443Y-14921414D02*
X17493967Y-14930938D01*
X17493967Y-14930938D02*
X17503491Y-14949986D01*
X17503491Y-14949986D02*
X17503491Y-15007128D01*
X17503491Y-15007128D02*
X17493967Y-15026176D01*
X17493967Y-15026176D02*
X17484443Y-15035700D01*
X17484443Y-15035700D02*
X17465396Y-15045224D01*
X17465396Y-15045224D02*
X17436824Y-15045224D01*
X17560634Y-14911890D02*
X17636824Y-14911890D01*
X17589205Y-14845224D02*
X17589205Y-15016652D01*
X17589205Y-15016652D02*
X17598729Y-15035700D01*
X17598729Y-15035700D02*
X17617777Y-15045224D01*
X17617777Y-15045224D02*
X17636824Y-15045224D01*
X17855872Y-14911890D02*
X17855872Y-15111890D01*
X17855872Y-14921414D02*
X17874920Y-14911890D01*
X17874920Y-14911890D02*
X17913015Y-14911890D01*
X17913015Y-14911890D02*
X17932062Y-14921414D01*
X17932062Y-14921414D02*
X17941586Y-14930938D01*
X17941586Y-14930938D02*
X17951110Y-14949986D01*
X17951110Y-14949986D02*
X17951110Y-15007128D01*
X17951110Y-15007128D02*
X17941586Y-15026176D01*
X17941586Y-15026176D02*
X17932062Y-15035700D01*
X17932062Y-15035700D02*
X17913015Y-15045224D01*
X17913015Y-15045224D02*
X17874920Y-15045224D01*
X17874920Y-15045224D02*
X17855872Y-15035700D01*
X18065396Y-15045224D02*
X18046348Y-15035700D01*
X18046348Y-15035700D02*
X18036824Y-15016652D01*
X18036824Y-15016652D02*
X18036824Y-14845224D01*
X18227301Y-15045224D02*
X18227301Y-14940462D01*
X18227301Y-14940462D02*
X18217777Y-14921414D01*
X18217777Y-14921414D02*
X18198729Y-14911890D01*
X18198729Y-14911890D02*
X18160634Y-14911890D01*
X18160634Y-14911890D02*
X18141586Y-14921414D01*
X18227301Y-15035700D02*
X18208253Y-15045224D01*
X18208253Y-15045224D02*
X18160634Y-15045224D01*
X18160634Y-15045224D02*
X18141586Y-15035700D01*
X18141586Y-15035700D02*
X18132062Y-15016652D01*
X18132062Y-15016652D02*
X18132062Y-14997605D01*
X18132062Y-14997605D02*
X18141586Y-14978557D01*
X18141586Y-14978557D02*
X18160634Y-14969033D01*
X18160634Y-14969033D02*
X18208253Y-14969033D01*
X18208253Y-14969033D02*
X18227301Y-14959509D01*
X18293967Y-14911890D02*
X18370158Y-14911890D01*
X18322539Y-14845224D02*
X18322539Y-15016652D01*
X18322539Y-15016652D02*
X18332062Y-15035700D01*
X18332062Y-15035700D02*
X18351110Y-15045224D01*
X18351110Y-15045224D02*
X18370158Y-15045224D01*
X18513015Y-15035700D02*
X18493967Y-15045224D01*
X18493967Y-15045224D02*
X18455872Y-15045224D01*
X18455872Y-15045224D02*
X18436824Y-15035700D01*
X18436824Y-15035700D02*
X18427301Y-15016652D01*
X18427301Y-15016652D02*
X18427301Y-14940462D01*
X18427301Y-14940462D02*
X18436824Y-14921414D01*
X18436824Y-14921414D02*
X18455872Y-14911890D01*
X18455872Y-14911890D02*
X18493967Y-14911890D01*
X18493967Y-14911890D02*
X18513015Y-14921414D01*
X18513015Y-14921414D02*
X18522539Y-14940462D01*
X18522539Y-14940462D02*
X18522539Y-14959509D01*
X18522539Y-14959509D02*
X18427301Y-14978557D01*
X18693967Y-15045224D02*
X18693967Y-14845224D01*
X18693967Y-15035700D02*
X18674920Y-15045224D01*
X18674920Y-15045224D02*
X18636824Y-15045224D01*
X18636824Y-15045224D02*
X18617777Y-15035700D01*
X18617777Y-15035700D02*
X18608253Y-15026176D01*
X18608253Y-15026176D02*
X18598729Y-15007128D01*
X18598729Y-15007128D02*
X18598729Y-14949986D01*
X18598729Y-14949986D02*
X18608253Y-14930938D01*
X18608253Y-14930938D02*
X18617777Y-14921414D01*
X18617777Y-14921414D02*
X18636824Y-14911890D01*
X18636824Y-14911890D02*
X18674920Y-14911890D01*
X18674920Y-14911890D02*
X18693967Y-14921414D01*
X18770158Y-15121414D02*
X18779682Y-15111890D01*
X18779682Y-15111890D02*
X18798729Y-15083319D01*
X18798729Y-15083319D02*
X18808253Y-15064271D01*
X18808253Y-15064271D02*
X18817777Y-15035700D01*
X18817777Y-15035700D02*
X18827301Y-14988081D01*
X18827301Y-14988081D02*
X18827301Y-14949986D01*
X18827301Y-14949986D02*
X18817777Y-14902367D01*
X18817777Y-14902367D02*
X18808253Y-14873795D01*
X18808253Y-14873795D02*
X18798729Y-14854748D01*
X18798729Y-14854748D02*
X18779682Y-14826176D01*
X18779682Y-14826176D02*
X18770158Y-14816652D01*
D13*
X12027300Y-15216700D02*
G75*
G03*
X12027300Y-15216700I-35000J0D01*
G01*
D11*
X12313014Y-15109224D02*
X12332062Y-15109224D01*
X12332062Y-15109224D02*
X12351109Y-15118748D01*
X12351109Y-15118748D02*
X12360633Y-15128271D01*
X12360633Y-15128271D02*
X12370157Y-15147319D01*
X12370157Y-15147319D02*
X12379681Y-15185414D01*
X12379681Y-15185414D02*
X12379681Y-15233033D01*
X12379681Y-15233033D02*
X12370157Y-15271128D01*
X12370157Y-15271128D02*
X12360633Y-15290176D01*
X12360633Y-15290176D02*
X12351109Y-15299700D01*
X12351109Y-15299700D02*
X12332062Y-15309224D01*
X12332062Y-15309224D02*
X12313014Y-15309224D01*
X12313014Y-15309224D02*
X12293967Y-15299700D01*
X12293967Y-15299700D02*
X12284443Y-15290176D01*
X12284443Y-15290176D02*
X12274919Y-15271128D01*
X12274919Y-15271128D02*
X12265395Y-15233033D01*
X12265395Y-15233033D02*
X12265395Y-15185414D01*
X12265395Y-15185414D02*
X12274919Y-15147319D01*
X12274919Y-15147319D02*
X12284443Y-15128271D01*
X12284443Y-15128271D02*
X12293967Y-15118748D01*
X12293967Y-15118748D02*
X12313014Y-15109224D01*
X12465395Y-15290176D02*
X12474919Y-15299700D01*
X12474919Y-15299700D02*
X12465395Y-15309224D01*
X12465395Y-15309224D02*
X12455871Y-15299700D01*
X12455871Y-15299700D02*
X12465395Y-15290176D01*
X12465395Y-15290176D02*
X12465395Y-15309224D01*
X12541586Y-15109224D02*
X12674919Y-15109224D01*
X12674919Y-15109224D02*
X12589205Y-15309224D01*
X12789205Y-15109224D02*
X12808252Y-15109224D01*
X12808252Y-15109224D02*
X12827300Y-15118748D01*
X12827300Y-15118748D02*
X12836824Y-15128271D01*
X12836824Y-15128271D02*
X12846348Y-15147319D01*
X12846348Y-15147319D02*
X12855871Y-15185414D01*
X12855871Y-15185414D02*
X12855871Y-15233033D01*
X12855871Y-15233033D02*
X12846348Y-15271128D01*
X12846348Y-15271128D02*
X12836824Y-15290176D01*
X12836824Y-15290176D02*
X12827300Y-15299700D01*
X12827300Y-15299700D02*
X12808252Y-15309224D01*
X12808252Y-15309224D02*
X12789205Y-15309224D01*
X12789205Y-15309224D02*
X12770157Y-15299700D01*
X12770157Y-15299700D02*
X12760633Y-15290176D01*
X12760633Y-15290176D02*
X12751109Y-15271128D01*
X12751109Y-15271128D02*
X12741586Y-15233033D01*
X12741586Y-15233033D02*
X12741586Y-15185414D01*
X12741586Y-15185414D02*
X12751109Y-15147319D01*
X12751109Y-15147319D02*
X12760633Y-15128271D01*
X12760633Y-15128271D02*
X12770157Y-15118748D01*
X12770157Y-15118748D02*
X12789205Y-15109224D01*
X12979681Y-15109224D02*
X12998729Y-15109224D01*
X12998729Y-15109224D02*
X13017776Y-15118748D01*
X13017776Y-15118748D02*
X13027300Y-15128271D01*
X13027300Y-15128271D02*
X13036824Y-15147319D01*
X13036824Y-15147319D02*
X13046348Y-15185414D01*
X13046348Y-15185414D02*
X13046348Y-15233033D01*
X13046348Y-15233033D02*
X13036824Y-15271128D01*
X13036824Y-15271128D02*
X13027300Y-15290176D01*
X13027300Y-15290176D02*
X13017776Y-15299700D01*
X13017776Y-15299700D02*
X12998729Y-15309224D01*
X12998729Y-15309224D02*
X12979681Y-15309224D01*
X12979681Y-15309224D02*
X12960633Y-15299700D01*
X12960633Y-15299700D02*
X12951109Y-15290176D01*
X12951109Y-15290176D02*
X12941586Y-15271128D01*
X12941586Y-15271128D02*
X12932062Y-15233033D01*
X12932062Y-15233033D02*
X12932062Y-15185414D01*
X12932062Y-15185414D02*
X12941586Y-15147319D01*
X12941586Y-15147319D02*
X12951109Y-15128271D01*
X12951109Y-15128271D02*
X12960633Y-15118748D01*
X12960633Y-15118748D02*
X12979681Y-15109224D01*
X13132062Y-15309224D02*
X13132062Y-15175890D01*
X13132062Y-15194938D02*
X13141586Y-15185414D01*
X13141586Y-15185414D02*
X13160633Y-15175890D01*
X13160633Y-15175890D02*
X13189205Y-15175890D01*
X13189205Y-15175890D02*
X13208252Y-15185414D01*
X13208252Y-15185414D02*
X13217776Y-15204462D01*
X13217776Y-15204462D02*
X13217776Y-15309224D01*
X13217776Y-15204462D02*
X13227300Y-15185414D01*
X13227300Y-15185414D02*
X13246348Y-15175890D01*
X13246348Y-15175890D02*
X13274919Y-15175890D01*
X13274919Y-15175890D02*
X13293967Y-15185414D01*
X13293967Y-15185414D02*
X13303490Y-15204462D01*
X13303490Y-15204462D02*
X13303490Y-15309224D01*
X13398729Y-15309224D02*
X13398729Y-15175890D01*
X13398729Y-15194938D02*
X13408252Y-15185414D01*
X13408252Y-15185414D02*
X13427300Y-15175890D01*
X13427300Y-15175890D02*
X13455871Y-15175890D01*
X13455871Y-15175890D02*
X13474919Y-15185414D01*
X13474919Y-15185414D02*
X13484443Y-15204462D01*
X13484443Y-15204462D02*
X13484443Y-15309224D01*
X13484443Y-15204462D02*
X13493967Y-15185414D01*
X13493967Y-15185414D02*
X13513014Y-15175890D01*
X13513014Y-15175890D02*
X13541586Y-15175890D01*
X13541586Y-15175890D02*
X13560633Y-15185414D01*
X13560633Y-15185414D02*
X13570157Y-15204462D01*
X13570157Y-15204462D02*
X13570157Y-15309224D01*
X13960633Y-15099700D02*
X13789205Y-15356843D01*
X14217776Y-15109224D02*
X14236824Y-15109224D01*
X14236824Y-15109224D02*
X14255872Y-15118748D01*
X14255872Y-15118748D02*
X14265395Y-15128271D01*
X14265395Y-15128271D02*
X14274919Y-15147319D01*
X14274919Y-15147319D02*
X14284443Y-15185414D01*
X14284443Y-15185414D02*
X14284443Y-15233033D01*
X14284443Y-15233033D02*
X14274919Y-15271128D01*
X14274919Y-15271128D02*
X14265395Y-15290176D01*
X14265395Y-15290176D02*
X14255872Y-15299700D01*
X14255872Y-15299700D02*
X14236824Y-15309224D01*
X14236824Y-15309224D02*
X14217776Y-15309224D01*
X14217776Y-15309224D02*
X14198729Y-15299700D01*
X14198729Y-15299700D02*
X14189205Y-15290176D01*
X14189205Y-15290176D02*
X14179681Y-15271128D01*
X14179681Y-15271128D02*
X14170157Y-15233033D01*
X14170157Y-15233033D02*
X14170157Y-15185414D01*
X14170157Y-15185414D02*
X14179681Y-15147319D01*
X14179681Y-15147319D02*
X14189205Y-15128271D01*
X14189205Y-15128271D02*
X14198729Y-15118748D01*
X14198729Y-15118748D02*
X14217776Y-15109224D01*
X14370157Y-15290176D02*
X14379681Y-15299700D01*
X14379681Y-15299700D02*
X14370157Y-15309224D01*
X14370157Y-15309224D02*
X14360633Y-15299700D01*
X14360633Y-15299700D02*
X14370157Y-15290176D01*
X14370157Y-15290176D02*
X14370157Y-15309224D01*
X14503491Y-15109224D02*
X14522538Y-15109224D01*
X14522538Y-15109224D02*
X14541586Y-15118748D01*
X14541586Y-15118748D02*
X14551110Y-15128271D01*
X14551110Y-15128271D02*
X14560633Y-15147319D01*
X14560633Y-15147319D02*
X14570157Y-15185414D01*
X14570157Y-15185414D02*
X14570157Y-15233033D01*
X14570157Y-15233033D02*
X14560633Y-15271128D01*
X14560633Y-15271128D02*
X14551110Y-15290176D01*
X14551110Y-15290176D02*
X14541586Y-15299700D01*
X14541586Y-15299700D02*
X14522538Y-15309224D01*
X14522538Y-15309224D02*
X14503491Y-15309224D01*
X14503491Y-15309224D02*
X14484443Y-15299700D01*
X14484443Y-15299700D02*
X14474919Y-15290176D01*
X14474919Y-15290176D02*
X14465395Y-15271128D01*
X14465395Y-15271128D02*
X14455872Y-15233033D01*
X14455872Y-15233033D02*
X14455872Y-15185414D01*
X14455872Y-15185414D02*
X14465395Y-15147319D01*
X14465395Y-15147319D02*
X14474919Y-15128271D01*
X14474919Y-15128271D02*
X14484443Y-15118748D01*
X14484443Y-15118748D02*
X14503491Y-15109224D01*
X14646348Y-15128271D02*
X14655872Y-15118748D01*
X14655872Y-15118748D02*
X14674919Y-15109224D01*
X14674919Y-15109224D02*
X14722538Y-15109224D01*
X14722538Y-15109224D02*
X14741586Y-15118748D01*
X14741586Y-15118748D02*
X14751110Y-15128271D01*
X14751110Y-15128271D02*
X14760633Y-15147319D01*
X14760633Y-15147319D02*
X14760633Y-15166367D01*
X14760633Y-15166367D02*
X14751110Y-15194938D01*
X14751110Y-15194938D02*
X14636824Y-15309224D01*
X14636824Y-15309224D02*
X14760633Y-15309224D01*
X14827300Y-15109224D02*
X14960633Y-15109224D01*
X14960633Y-15109224D02*
X14874919Y-15309224D01*
X15122538Y-15109224D02*
X15084443Y-15109224D01*
X15084443Y-15109224D02*
X15065395Y-15118748D01*
X15065395Y-15118748D02*
X15055872Y-15128271D01*
X15055872Y-15128271D02*
X15036824Y-15156843D01*
X15036824Y-15156843D02*
X15027300Y-15194938D01*
X15027300Y-15194938D02*
X15027300Y-15271128D01*
X15027300Y-15271128D02*
X15036824Y-15290176D01*
X15036824Y-15290176D02*
X15046348Y-15299700D01*
X15046348Y-15299700D02*
X15065395Y-15309224D01*
X15065395Y-15309224D02*
X15103491Y-15309224D01*
X15103491Y-15309224D02*
X15122538Y-15299700D01*
X15122538Y-15299700D02*
X15132062Y-15290176D01*
X15132062Y-15290176D02*
X15141586Y-15271128D01*
X15141586Y-15271128D02*
X15141586Y-15223509D01*
X15141586Y-15223509D02*
X15132062Y-15204462D01*
X15132062Y-15204462D02*
X15122538Y-15194938D01*
X15122538Y-15194938D02*
X15103491Y-15185414D01*
X15103491Y-15185414D02*
X15065395Y-15185414D01*
X15065395Y-15185414D02*
X15046348Y-15194938D01*
X15046348Y-15194938D02*
X15036824Y-15204462D01*
X15036824Y-15204462D02*
X15027300Y-15223509D01*
X15217776Y-15109224D02*
X15217776Y-15147319D01*
X15293967Y-15109224D02*
X15293967Y-15147319D01*
X15589205Y-15385414D02*
X15579681Y-15375890D01*
X15579681Y-15375890D02*
X15560634Y-15347319D01*
X15560634Y-15347319D02*
X15551110Y-15328271D01*
X15551110Y-15328271D02*
X15541586Y-15299700D01*
X15541586Y-15299700D02*
X15532062Y-15252081D01*
X15532062Y-15252081D02*
X15532062Y-15213986D01*
X15532062Y-15213986D02*
X15541586Y-15166367D01*
X15541586Y-15166367D02*
X15551110Y-15137795D01*
X15551110Y-15137795D02*
X15560634Y-15118748D01*
X15560634Y-15118748D02*
X15579681Y-15090176D01*
X15579681Y-15090176D02*
X15589205Y-15080652D01*
X15655872Y-15128271D02*
X15665395Y-15118748D01*
X15665395Y-15118748D02*
X15684443Y-15109224D01*
X15684443Y-15109224D02*
X15732062Y-15109224D01*
X15732062Y-15109224D02*
X15751110Y-15118748D01*
X15751110Y-15118748D02*
X15760634Y-15128271D01*
X15760634Y-15128271D02*
X15770157Y-15147319D01*
X15770157Y-15147319D02*
X15770157Y-15166367D01*
X15770157Y-15166367D02*
X15760634Y-15194938D01*
X15760634Y-15194938D02*
X15646348Y-15309224D01*
X15646348Y-15309224D02*
X15770157Y-15309224D01*
X16008253Y-15309224D02*
X16008253Y-15109224D01*
X16093967Y-15309224D02*
X16093967Y-15204462D01*
X16093967Y-15204462D02*
X16084443Y-15185414D01*
X16084443Y-15185414D02*
X16065396Y-15175890D01*
X16065396Y-15175890D02*
X16036824Y-15175890D01*
X16036824Y-15175890D02*
X16017776Y-15185414D01*
X16017776Y-15185414D02*
X16008253Y-15194938D01*
X16217776Y-15309224D02*
X16198729Y-15299700D01*
X16198729Y-15299700D02*
X16189205Y-15290176D01*
X16189205Y-15290176D02*
X16179681Y-15271128D01*
X16179681Y-15271128D02*
X16179681Y-15213986D01*
X16179681Y-15213986D02*
X16189205Y-15194938D01*
X16189205Y-15194938D02*
X16198729Y-15185414D01*
X16198729Y-15185414D02*
X16217776Y-15175890D01*
X16217776Y-15175890D02*
X16246348Y-15175890D01*
X16246348Y-15175890D02*
X16265396Y-15185414D01*
X16265396Y-15185414D02*
X16274919Y-15194938D01*
X16274919Y-15194938D02*
X16284443Y-15213986D01*
X16284443Y-15213986D02*
X16284443Y-15271128D01*
X16284443Y-15271128D02*
X16274919Y-15290176D01*
X16274919Y-15290176D02*
X16265396Y-15299700D01*
X16265396Y-15299700D02*
X16246348Y-15309224D01*
X16246348Y-15309224D02*
X16217776Y-15309224D01*
X16398729Y-15309224D02*
X16379681Y-15299700D01*
X16379681Y-15299700D02*
X16370157Y-15280652D01*
X16370157Y-15280652D02*
X16370157Y-15109224D01*
X16551110Y-15299700D02*
X16532062Y-15309224D01*
X16532062Y-15309224D02*
X16493967Y-15309224D01*
X16493967Y-15309224D02*
X16474919Y-15299700D01*
X16474919Y-15299700D02*
X16465396Y-15280652D01*
X16465396Y-15280652D02*
X16465396Y-15204462D01*
X16465396Y-15204462D02*
X16474919Y-15185414D01*
X16474919Y-15185414D02*
X16493967Y-15175890D01*
X16493967Y-15175890D02*
X16532062Y-15175890D01*
X16532062Y-15175890D02*
X16551110Y-15185414D01*
X16551110Y-15185414D02*
X16560634Y-15204462D01*
X16560634Y-15204462D02*
X16560634Y-15223509D01*
X16560634Y-15223509D02*
X16465396Y-15242557D01*
X16636824Y-15299700D02*
X16655872Y-15309224D01*
X16655872Y-15309224D02*
X16693967Y-15309224D01*
X16693967Y-15309224D02*
X16713015Y-15299700D01*
X16713015Y-15299700D02*
X16722538Y-15280652D01*
X16722538Y-15280652D02*
X16722538Y-15271128D01*
X16722538Y-15271128D02*
X16713015Y-15252081D01*
X16713015Y-15252081D02*
X16693967Y-15242557D01*
X16693967Y-15242557D02*
X16665396Y-15242557D01*
X16665396Y-15242557D02*
X16646348Y-15233033D01*
X16646348Y-15233033D02*
X16636824Y-15213986D01*
X16636824Y-15213986D02*
X16636824Y-15204462D01*
X16636824Y-15204462D02*
X16646348Y-15185414D01*
X16646348Y-15185414D02*
X16665396Y-15175890D01*
X16665396Y-15175890D02*
X16693967Y-15175890D01*
X16693967Y-15175890D02*
X16713015Y-15185414D01*
X16789205Y-15385414D02*
X16798729Y-15375890D01*
X16798729Y-15375890D02*
X16817777Y-15347319D01*
X16817777Y-15347319D02*
X16827300Y-15328271D01*
X16827300Y-15328271D02*
X16836824Y-15299700D01*
X16836824Y-15299700D02*
X16846348Y-15252081D01*
X16846348Y-15252081D02*
X16846348Y-15213986D01*
X16846348Y-15213986D02*
X16836824Y-15166367D01*
X16836824Y-15166367D02*
X16827300Y-15137795D01*
X16827300Y-15137795D02*
X16817777Y-15118748D01*
X16817777Y-15118748D02*
X16798729Y-15090176D01*
X16798729Y-15090176D02*
X16789205Y-15080652D01*
X17151110Y-15385414D02*
X17141586Y-15375890D01*
X17141586Y-15375890D02*
X17122539Y-15347319D01*
X17122539Y-15347319D02*
X17113015Y-15328271D01*
X17113015Y-15328271D02*
X17103491Y-15299700D01*
X17103491Y-15299700D02*
X17093967Y-15252081D01*
X17093967Y-15252081D02*
X17093967Y-15213986D01*
X17093967Y-15213986D02*
X17103491Y-15166367D01*
X17103491Y-15166367D02*
X17113015Y-15137795D01*
X17113015Y-15137795D02*
X17122539Y-15118748D01*
X17122539Y-15118748D02*
X17141586Y-15090176D01*
X17141586Y-15090176D02*
X17151110Y-15080652D01*
X17227300Y-15175890D02*
X17227300Y-15309224D01*
X17227300Y-15194938D02*
X17236824Y-15185414D01*
X17236824Y-15185414D02*
X17255872Y-15175890D01*
X17255872Y-15175890D02*
X17284443Y-15175890D01*
X17284443Y-15175890D02*
X17303491Y-15185414D01*
X17303491Y-15185414D02*
X17313015Y-15204462D01*
X17313015Y-15204462D02*
X17313015Y-15309224D01*
X17436824Y-15309224D02*
X17417777Y-15299700D01*
X17417777Y-15299700D02*
X17408253Y-15290176D01*
X17408253Y-15290176D02*
X17398729Y-15271128D01*
X17398729Y-15271128D02*
X17398729Y-15213986D01*
X17398729Y-15213986D02*
X17408253Y-15194938D01*
X17408253Y-15194938D02*
X17417777Y-15185414D01*
X17417777Y-15185414D02*
X17436824Y-15175890D01*
X17436824Y-15175890D02*
X17465396Y-15175890D01*
X17465396Y-15175890D02*
X17484443Y-15185414D01*
X17484443Y-15185414D02*
X17493967Y-15194938D01*
X17493967Y-15194938D02*
X17503491Y-15213986D01*
X17503491Y-15213986D02*
X17503491Y-15271128D01*
X17503491Y-15271128D02*
X17493967Y-15290176D01*
X17493967Y-15290176D02*
X17484443Y-15299700D01*
X17484443Y-15299700D02*
X17465396Y-15309224D01*
X17465396Y-15309224D02*
X17436824Y-15309224D01*
X17560634Y-15175890D02*
X17636824Y-15175890D01*
X17589205Y-15109224D02*
X17589205Y-15280652D01*
X17589205Y-15280652D02*
X17598729Y-15299700D01*
X17598729Y-15299700D02*
X17617777Y-15309224D01*
X17617777Y-15309224D02*
X17636824Y-15309224D01*
X17855872Y-15175890D02*
X17855872Y-15375890D01*
X17855872Y-15185414D02*
X17874920Y-15175890D01*
X17874920Y-15175890D02*
X17913015Y-15175890D01*
X17913015Y-15175890D02*
X17932062Y-15185414D01*
X17932062Y-15185414D02*
X17941586Y-15194938D01*
X17941586Y-15194938D02*
X17951110Y-15213986D01*
X17951110Y-15213986D02*
X17951110Y-15271128D01*
X17951110Y-15271128D02*
X17941586Y-15290176D01*
X17941586Y-15290176D02*
X17932062Y-15299700D01*
X17932062Y-15299700D02*
X17913015Y-15309224D01*
X17913015Y-15309224D02*
X17874920Y-15309224D01*
X17874920Y-15309224D02*
X17855872Y-15299700D01*
X18065396Y-15309224D02*
X18046348Y-15299700D01*
X18046348Y-15299700D02*
X18036824Y-15280652D01*
X18036824Y-15280652D02*
X18036824Y-15109224D01*
X18227301Y-15309224D02*
X18227301Y-15204462D01*
X18227301Y-15204462D02*
X18217777Y-15185414D01*
X18217777Y-15185414D02*
X18198729Y-15175890D01*
X18198729Y-15175890D02*
X18160634Y-15175890D01*
X18160634Y-15175890D02*
X18141586Y-15185414D01*
X18227301Y-15299700D02*
X18208253Y-15309224D01*
X18208253Y-15309224D02*
X18160634Y-15309224D01*
X18160634Y-15309224D02*
X18141586Y-15299700D01*
X18141586Y-15299700D02*
X18132062Y-15280652D01*
X18132062Y-15280652D02*
X18132062Y-15261605D01*
X18132062Y-15261605D02*
X18141586Y-15242557D01*
X18141586Y-15242557D02*
X18160634Y-15233033D01*
X18160634Y-15233033D02*
X18208253Y-15233033D01*
X18208253Y-15233033D02*
X18227301Y-15223509D01*
X18293967Y-15175890D02*
X18370158Y-15175890D01*
X18322539Y-15109224D02*
X18322539Y-15280652D01*
X18322539Y-15280652D02*
X18332062Y-15299700D01*
X18332062Y-15299700D02*
X18351110Y-15309224D01*
X18351110Y-15309224D02*
X18370158Y-15309224D01*
X18513015Y-15299700D02*
X18493967Y-15309224D01*
X18493967Y-15309224D02*
X18455872Y-15309224D01*
X18455872Y-15309224D02*
X18436824Y-15299700D01*
X18436824Y-15299700D02*
X18427301Y-15280652D01*
X18427301Y-15280652D02*
X18427301Y-15204462D01*
X18427301Y-15204462D02*
X18436824Y-15185414D01*
X18436824Y-15185414D02*
X18455872Y-15175890D01*
X18455872Y-15175890D02*
X18493967Y-15175890D01*
X18493967Y-15175890D02*
X18513015Y-15185414D01*
X18513015Y-15185414D02*
X18522539Y-15204462D01*
X18522539Y-15204462D02*
X18522539Y-15223509D01*
X18522539Y-15223509D02*
X18427301Y-15242557D01*
X18693967Y-15309224D02*
X18693967Y-15109224D01*
X18693967Y-15299700D02*
X18674920Y-15309224D01*
X18674920Y-15309224D02*
X18636824Y-15309224D01*
X18636824Y-15309224D02*
X18617777Y-15299700D01*
X18617777Y-15299700D02*
X18608253Y-15290176D01*
X18608253Y-15290176D02*
X18598729Y-15271128D01*
X18598729Y-15271128D02*
X18598729Y-15213986D01*
X18598729Y-15213986D02*
X18608253Y-15194938D01*
X18608253Y-15194938D02*
X18617777Y-15185414D01*
X18617777Y-15185414D02*
X18636824Y-15175890D01*
X18636824Y-15175890D02*
X18674920Y-15175890D01*
X18674920Y-15175890D02*
X18693967Y-15185414D01*
X18770158Y-15385414D02*
X18779682Y-15375890D01*
X18779682Y-15375890D02*
X18798729Y-15347319D01*
X18798729Y-15347319D02*
X18808253Y-15328271D01*
X18808253Y-15328271D02*
X18817777Y-15299700D01*
X18817777Y-15299700D02*
X18827301Y-15252081D01*
X18827301Y-15252081D02*
X18827301Y-15213986D01*
X18827301Y-15213986D02*
X18817777Y-15166367D01*
X18817777Y-15166367D02*
X18808253Y-15137795D01*
X18808253Y-15137795D02*
X18798729Y-15118748D01*
X18798729Y-15118748D02*
X18779682Y-15090176D01*
X18779682Y-15090176D02*
X18770158Y-15080652D01*
X11927300Y-15380700D02*
X11927300Y-15580700D01*
X11827300Y-15480700D02*
X12027300Y-15480700D01*
X12265395Y-15392271D02*
X12274919Y-15382748D01*
X12274919Y-15382748D02*
X12293967Y-15373224D01*
X12293967Y-15373224D02*
X12341586Y-15373224D01*
X12341586Y-15373224D02*
X12360633Y-15382748D01*
X12360633Y-15382748D02*
X12370157Y-15392271D01*
X12370157Y-15392271D02*
X12379681Y-15411319D01*
X12379681Y-15411319D02*
X12379681Y-15430367D01*
X12379681Y-15430367D02*
X12370157Y-15458938D01*
X12370157Y-15458938D02*
X12255871Y-15573224D01*
X12255871Y-15573224D02*
X12379681Y-15573224D01*
X12465395Y-15554176D02*
X12474919Y-15563700D01*
X12474919Y-15563700D02*
X12465395Y-15573224D01*
X12465395Y-15573224D02*
X12455871Y-15563700D01*
X12455871Y-15563700D02*
X12465395Y-15554176D01*
X12465395Y-15554176D02*
X12465395Y-15573224D01*
X12541586Y-15373224D02*
X12674919Y-15373224D01*
X12674919Y-15373224D02*
X12589205Y-15573224D01*
X12789205Y-15373224D02*
X12808252Y-15373224D01*
X12808252Y-15373224D02*
X12827300Y-15382748D01*
X12827300Y-15382748D02*
X12836824Y-15392271D01*
X12836824Y-15392271D02*
X12846348Y-15411319D01*
X12846348Y-15411319D02*
X12855871Y-15449414D01*
X12855871Y-15449414D02*
X12855871Y-15497033D01*
X12855871Y-15497033D02*
X12846348Y-15535128D01*
X12846348Y-15535128D02*
X12836824Y-15554176D01*
X12836824Y-15554176D02*
X12827300Y-15563700D01*
X12827300Y-15563700D02*
X12808252Y-15573224D01*
X12808252Y-15573224D02*
X12789205Y-15573224D01*
X12789205Y-15573224D02*
X12770157Y-15563700D01*
X12770157Y-15563700D02*
X12760633Y-15554176D01*
X12760633Y-15554176D02*
X12751109Y-15535128D01*
X12751109Y-15535128D02*
X12741586Y-15497033D01*
X12741586Y-15497033D02*
X12741586Y-15449414D01*
X12741586Y-15449414D02*
X12751109Y-15411319D01*
X12751109Y-15411319D02*
X12760633Y-15392271D01*
X12760633Y-15392271D02*
X12770157Y-15382748D01*
X12770157Y-15382748D02*
X12789205Y-15373224D01*
X12979681Y-15373224D02*
X12998729Y-15373224D01*
X12998729Y-15373224D02*
X13017776Y-15382748D01*
X13017776Y-15382748D02*
X13027300Y-15392271D01*
X13027300Y-15392271D02*
X13036824Y-15411319D01*
X13036824Y-15411319D02*
X13046348Y-15449414D01*
X13046348Y-15449414D02*
X13046348Y-15497033D01*
X13046348Y-15497033D02*
X13036824Y-15535128D01*
X13036824Y-15535128D02*
X13027300Y-15554176D01*
X13027300Y-15554176D02*
X13017776Y-15563700D01*
X13017776Y-15563700D02*
X12998729Y-15573224D01*
X12998729Y-15573224D02*
X12979681Y-15573224D01*
X12979681Y-15573224D02*
X12960633Y-15563700D01*
X12960633Y-15563700D02*
X12951109Y-15554176D01*
X12951109Y-15554176D02*
X12941586Y-15535128D01*
X12941586Y-15535128D02*
X12932062Y-15497033D01*
X12932062Y-15497033D02*
X12932062Y-15449414D01*
X12932062Y-15449414D02*
X12941586Y-15411319D01*
X12941586Y-15411319D02*
X12951109Y-15392271D01*
X12951109Y-15392271D02*
X12960633Y-15382748D01*
X12960633Y-15382748D02*
X12979681Y-15373224D01*
X13132062Y-15573224D02*
X13132062Y-15439890D01*
X13132062Y-15458938D02*
X13141586Y-15449414D01*
X13141586Y-15449414D02*
X13160633Y-15439890D01*
X13160633Y-15439890D02*
X13189205Y-15439890D01*
X13189205Y-15439890D02*
X13208252Y-15449414D01*
X13208252Y-15449414D02*
X13217776Y-15468462D01*
X13217776Y-15468462D02*
X13217776Y-15573224D01*
X13217776Y-15468462D02*
X13227300Y-15449414D01*
X13227300Y-15449414D02*
X13246348Y-15439890D01*
X13246348Y-15439890D02*
X13274919Y-15439890D01*
X13274919Y-15439890D02*
X13293967Y-15449414D01*
X13293967Y-15449414D02*
X13303490Y-15468462D01*
X13303490Y-15468462D02*
X13303490Y-15573224D01*
X13398729Y-15573224D02*
X13398729Y-15439890D01*
X13398729Y-15458938D02*
X13408252Y-15449414D01*
X13408252Y-15449414D02*
X13427300Y-15439890D01*
X13427300Y-15439890D02*
X13455871Y-15439890D01*
X13455871Y-15439890D02*
X13474919Y-15449414D01*
X13474919Y-15449414D02*
X13484443Y-15468462D01*
X13484443Y-15468462D02*
X13484443Y-15573224D01*
X13484443Y-15468462D02*
X13493967Y-15449414D01*
X13493967Y-15449414D02*
X13513014Y-15439890D01*
X13513014Y-15439890D02*
X13541586Y-15439890D01*
X13541586Y-15439890D02*
X13560633Y-15449414D01*
X13560633Y-15449414D02*
X13570157Y-15468462D01*
X13570157Y-15468462D02*
X13570157Y-15573224D01*
X13960633Y-15363700D02*
X13789205Y-15620843D01*
X14217776Y-15373224D02*
X14236824Y-15373224D01*
X14236824Y-15373224D02*
X14255872Y-15382748D01*
X14255872Y-15382748D02*
X14265395Y-15392271D01*
X14265395Y-15392271D02*
X14274919Y-15411319D01*
X14274919Y-15411319D02*
X14284443Y-15449414D01*
X14284443Y-15449414D02*
X14284443Y-15497033D01*
X14284443Y-15497033D02*
X14274919Y-15535128D01*
X14274919Y-15535128D02*
X14265395Y-15554176D01*
X14265395Y-15554176D02*
X14255872Y-15563700D01*
X14255872Y-15563700D02*
X14236824Y-15573224D01*
X14236824Y-15573224D02*
X14217776Y-15573224D01*
X14217776Y-15573224D02*
X14198729Y-15563700D01*
X14198729Y-15563700D02*
X14189205Y-15554176D01*
X14189205Y-15554176D02*
X14179681Y-15535128D01*
X14179681Y-15535128D02*
X14170157Y-15497033D01*
X14170157Y-15497033D02*
X14170157Y-15449414D01*
X14170157Y-15449414D02*
X14179681Y-15411319D01*
X14179681Y-15411319D02*
X14189205Y-15392271D01*
X14189205Y-15392271D02*
X14198729Y-15382748D01*
X14198729Y-15382748D02*
X14217776Y-15373224D01*
X14370157Y-15554176D02*
X14379681Y-15563700D01*
X14379681Y-15563700D02*
X14370157Y-15573224D01*
X14370157Y-15573224D02*
X14360633Y-15563700D01*
X14360633Y-15563700D02*
X14370157Y-15554176D01*
X14370157Y-15554176D02*
X14370157Y-15573224D01*
X14570157Y-15573224D02*
X14455872Y-15573224D01*
X14513014Y-15573224D02*
X14513014Y-15373224D01*
X14513014Y-15373224D02*
X14493967Y-15401795D01*
X14493967Y-15401795D02*
X14474919Y-15420843D01*
X14474919Y-15420843D02*
X14455872Y-15430367D01*
X14693967Y-15373224D02*
X14713014Y-15373224D01*
X14713014Y-15373224D02*
X14732062Y-15382748D01*
X14732062Y-15382748D02*
X14741586Y-15392271D01*
X14741586Y-15392271D02*
X14751110Y-15411319D01*
X14751110Y-15411319D02*
X14760633Y-15449414D01*
X14760633Y-15449414D02*
X14760633Y-15497033D01*
X14760633Y-15497033D02*
X14751110Y-15535128D01*
X14751110Y-15535128D02*
X14741586Y-15554176D01*
X14741586Y-15554176D02*
X14732062Y-15563700D01*
X14732062Y-15563700D02*
X14713014Y-15573224D01*
X14713014Y-15573224D02*
X14693967Y-15573224D01*
X14693967Y-15573224D02*
X14674919Y-15563700D01*
X14674919Y-15563700D02*
X14665395Y-15554176D01*
X14665395Y-15554176D02*
X14655872Y-15535128D01*
X14655872Y-15535128D02*
X14646348Y-15497033D01*
X14646348Y-15497033D02*
X14646348Y-15449414D01*
X14646348Y-15449414D02*
X14655872Y-15411319D01*
X14655872Y-15411319D02*
X14665395Y-15392271D01*
X14665395Y-15392271D02*
X14674919Y-15382748D01*
X14674919Y-15382748D02*
X14693967Y-15373224D01*
X14932062Y-15373224D02*
X14893967Y-15373224D01*
X14893967Y-15373224D02*
X14874919Y-15382748D01*
X14874919Y-15382748D02*
X14865395Y-15392271D01*
X14865395Y-15392271D02*
X14846348Y-15420843D01*
X14846348Y-15420843D02*
X14836824Y-15458938D01*
X14836824Y-15458938D02*
X14836824Y-15535128D01*
X14836824Y-15535128D02*
X14846348Y-15554176D01*
X14846348Y-15554176D02*
X14855872Y-15563700D01*
X14855872Y-15563700D02*
X14874919Y-15573224D01*
X14874919Y-15573224D02*
X14913014Y-15573224D01*
X14913014Y-15573224D02*
X14932062Y-15563700D01*
X14932062Y-15563700D02*
X14941586Y-15554176D01*
X14941586Y-15554176D02*
X14951110Y-15535128D01*
X14951110Y-15535128D02*
X14951110Y-15487509D01*
X14951110Y-15487509D02*
X14941586Y-15468462D01*
X14941586Y-15468462D02*
X14932062Y-15458938D01*
X14932062Y-15458938D02*
X14913014Y-15449414D01*
X14913014Y-15449414D02*
X14874919Y-15449414D01*
X14874919Y-15449414D02*
X14855872Y-15458938D01*
X14855872Y-15458938D02*
X14846348Y-15468462D01*
X14846348Y-15468462D02*
X14836824Y-15487509D01*
X15017776Y-15373224D02*
X15141586Y-15373224D01*
X15141586Y-15373224D02*
X15074919Y-15449414D01*
X15074919Y-15449414D02*
X15103491Y-15449414D01*
X15103491Y-15449414D02*
X15122538Y-15458938D01*
X15122538Y-15458938D02*
X15132062Y-15468462D01*
X15132062Y-15468462D02*
X15141586Y-15487509D01*
X15141586Y-15487509D02*
X15141586Y-15535128D01*
X15141586Y-15535128D02*
X15132062Y-15554176D01*
X15132062Y-15554176D02*
X15122538Y-15563700D01*
X15122538Y-15563700D02*
X15103491Y-15573224D01*
X15103491Y-15573224D02*
X15046348Y-15573224D01*
X15046348Y-15573224D02*
X15027300Y-15563700D01*
X15027300Y-15563700D02*
X15017776Y-15554176D01*
X15217776Y-15373224D02*
X15217776Y-15411319D01*
X15293967Y-15373224D02*
X15293967Y-15411319D01*
X15589205Y-15649414D02*
X15579681Y-15639890D01*
X15579681Y-15639890D02*
X15560634Y-15611319D01*
X15560634Y-15611319D02*
X15551110Y-15592271D01*
X15551110Y-15592271D02*
X15541586Y-15563700D01*
X15541586Y-15563700D02*
X15532062Y-15516081D01*
X15532062Y-15516081D02*
X15532062Y-15477986D01*
X15532062Y-15477986D02*
X15541586Y-15430367D01*
X15541586Y-15430367D02*
X15551110Y-15401795D01*
X15551110Y-15401795D02*
X15560634Y-15382748D01*
X15560634Y-15382748D02*
X15579681Y-15354176D01*
X15579681Y-15354176D02*
X15589205Y-15344652D01*
X15751110Y-15439890D02*
X15751110Y-15573224D01*
X15703491Y-15363700D02*
X15655872Y-15506557D01*
X15655872Y-15506557D02*
X15779681Y-15506557D01*
X16008253Y-15573224D02*
X16008253Y-15373224D01*
X16093967Y-15573224D02*
X16093967Y-15468462D01*
X16093967Y-15468462D02*
X16084443Y-15449414D01*
X16084443Y-15449414D02*
X16065396Y-15439890D01*
X16065396Y-15439890D02*
X16036824Y-15439890D01*
X16036824Y-15439890D02*
X16017776Y-15449414D01*
X16017776Y-15449414D02*
X16008253Y-15458938D01*
X16217776Y-15573224D02*
X16198729Y-15563700D01*
X16198729Y-15563700D02*
X16189205Y-15554176D01*
X16189205Y-15554176D02*
X16179681Y-15535128D01*
X16179681Y-15535128D02*
X16179681Y-15477986D01*
X16179681Y-15477986D02*
X16189205Y-15458938D01*
X16189205Y-15458938D02*
X16198729Y-15449414D01*
X16198729Y-15449414D02*
X16217776Y-15439890D01*
X16217776Y-15439890D02*
X16246348Y-15439890D01*
X16246348Y-15439890D02*
X16265396Y-15449414D01*
X16265396Y-15449414D02*
X16274919Y-15458938D01*
X16274919Y-15458938D02*
X16284443Y-15477986D01*
X16284443Y-15477986D02*
X16284443Y-15535128D01*
X16284443Y-15535128D02*
X16274919Y-15554176D01*
X16274919Y-15554176D02*
X16265396Y-15563700D01*
X16265396Y-15563700D02*
X16246348Y-15573224D01*
X16246348Y-15573224D02*
X16217776Y-15573224D01*
X16398729Y-15573224D02*
X16379681Y-15563700D01*
X16379681Y-15563700D02*
X16370157Y-15544652D01*
X16370157Y-15544652D02*
X16370157Y-15373224D01*
X16551110Y-15563700D02*
X16532062Y-15573224D01*
X16532062Y-15573224D02*
X16493967Y-15573224D01*
X16493967Y-15573224D02*
X16474919Y-15563700D01*
X16474919Y-15563700D02*
X16465396Y-15544652D01*
X16465396Y-15544652D02*
X16465396Y-15468462D01*
X16465396Y-15468462D02*
X16474919Y-15449414D01*
X16474919Y-15449414D02*
X16493967Y-15439890D01*
X16493967Y-15439890D02*
X16532062Y-15439890D01*
X16532062Y-15439890D02*
X16551110Y-15449414D01*
X16551110Y-15449414D02*
X16560634Y-15468462D01*
X16560634Y-15468462D02*
X16560634Y-15487509D01*
X16560634Y-15487509D02*
X16465396Y-15506557D01*
X16636824Y-15563700D02*
X16655872Y-15573224D01*
X16655872Y-15573224D02*
X16693967Y-15573224D01*
X16693967Y-15573224D02*
X16713015Y-15563700D01*
X16713015Y-15563700D02*
X16722538Y-15544652D01*
X16722538Y-15544652D02*
X16722538Y-15535128D01*
X16722538Y-15535128D02*
X16713015Y-15516081D01*
X16713015Y-15516081D02*
X16693967Y-15506557D01*
X16693967Y-15506557D02*
X16665396Y-15506557D01*
X16665396Y-15506557D02*
X16646348Y-15497033D01*
X16646348Y-15497033D02*
X16636824Y-15477986D01*
X16636824Y-15477986D02*
X16636824Y-15468462D01*
X16636824Y-15468462D02*
X16646348Y-15449414D01*
X16646348Y-15449414D02*
X16665396Y-15439890D01*
X16665396Y-15439890D02*
X16693967Y-15439890D01*
X16693967Y-15439890D02*
X16713015Y-15449414D01*
X16789205Y-15649414D02*
X16798729Y-15639890D01*
X16798729Y-15639890D02*
X16817777Y-15611319D01*
X16817777Y-15611319D02*
X16827300Y-15592271D01*
X16827300Y-15592271D02*
X16836824Y-15563700D01*
X16836824Y-15563700D02*
X16846348Y-15516081D01*
X16846348Y-15516081D02*
X16846348Y-15477986D01*
X16846348Y-15477986D02*
X16836824Y-15430367D01*
X16836824Y-15430367D02*
X16827300Y-15401795D01*
X16827300Y-15401795D02*
X16817777Y-15382748D01*
X16817777Y-15382748D02*
X16798729Y-15354176D01*
X16798729Y-15354176D02*
X16789205Y-15344652D01*
X17151110Y-15649414D02*
X17141586Y-15639890D01*
X17141586Y-15639890D02*
X17122539Y-15611319D01*
X17122539Y-15611319D02*
X17113015Y-15592271D01*
X17113015Y-15592271D02*
X17103491Y-15563700D01*
X17103491Y-15563700D02*
X17093967Y-15516081D01*
X17093967Y-15516081D02*
X17093967Y-15477986D01*
X17093967Y-15477986D02*
X17103491Y-15430367D01*
X17103491Y-15430367D02*
X17113015Y-15401795D01*
X17113015Y-15401795D02*
X17122539Y-15382748D01*
X17122539Y-15382748D02*
X17141586Y-15354176D01*
X17141586Y-15354176D02*
X17151110Y-15344652D01*
X17227300Y-15439890D02*
X17227300Y-15573224D01*
X17227300Y-15458938D02*
X17236824Y-15449414D01*
X17236824Y-15449414D02*
X17255872Y-15439890D01*
X17255872Y-15439890D02*
X17284443Y-15439890D01*
X17284443Y-15439890D02*
X17303491Y-15449414D01*
X17303491Y-15449414D02*
X17313015Y-15468462D01*
X17313015Y-15468462D02*
X17313015Y-15573224D01*
X17436824Y-15573224D02*
X17417777Y-15563700D01*
X17417777Y-15563700D02*
X17408253Y-15554176D01*
X17408253Y-15554176D02*
X17398729Y-15535128D01*
X17398729Y-15535128D02*
X17398729Y-15477986D01*
X17398729Y-15477986D02*
X17408253Y-15458938D01*
X17408253Y-15458938D02*
X17417777Y-15449414D01*
X17417777Y-15449414D02*
X17436824Y-15439890D01*
X17436824Y-15439890D02*
X17465396Y-15439890D01*
X17465396Y-15439890D02*
X17484443Y-15449414D01*
X17484443Y-15449414D02*
X17493967Y-15458938D01*
X17493967Y-15458938D02*
X17503491Y-15477986D01*
X17503491Y-15477986D02*
X17503491Y-15535128D01*
X17503491Y-15535128D02*
X17493967Y-15554176D01*
X17493967Y-15554176D02*
X17484443Y-15563700D01*
X17484443Y-15563700D02*
X17465396Y-15573224D01*
X17465396Y-15573224D02*
X17436824Y-15573224D01*
X17560634Y-15439890D02*
X17636824Y-15439890D01*
X17589205Y-15373224D02*
X17589205Y-15544652D01*
X17589205Y-15544652D02*
X17598729Y-15563700D01*
X17598729Y-15563700D02*
X17617777Y-15573224D01*
X17617777Y-15573224D02*
X17636824Y-15573224D01*
X17855872Y-15439890D02*
X17855872Y-15639890D01*
X17855872Y-15449414D02*
X17874920Y-15439890D01*
X17874920Y-15439890D02*
X17913015Y-15439890D01*
X17913015Y-15439890D02*
X17932062Y-15449414D01*
X17932062Y-15449414D02*
X17941586Y-15458938D01*
X17941586Y-15458938D02*
X17951110Y-15477986D01*
X17951110Y-15477986D02*
X17951110Y-15535128D01*
X17951110Y-15535128D02*
X17941586Y-15554176D01*
X17941586Y-15554176D02*
X17932062Y-15563700D01*
X17932062Y-15563700D02*
X17913015Y-15573224D01*
X17913015Y-15573224D02*
X17874920Y-15573224D01*
X17874920Y-15573224D02*
X17855872Y-15563700D01*
X18065396Y-15573224D02*
X18046348Y-15563700D01*
X18046348Y-15563700D02*
X18036824Y-15544652D01*
X18036824Y-15544652D02*
X18036824Y-15373224D01*
X18227301Y-15573224D02*
X18227301Y-15468462D01*
X18227301Y-15468462D02*
X18217777Y-15449414D01*
X18217777Y-15449414D02*
X18198729Y-15439890D01*
X18198729Y-15439890D02*
X18160634Y-15439890D01*
X18160634Y-15439890D02*
X18141586Y-15449414D01*
X18227301Y-15563700D02*
X18208253Y-15573224D01*
X18208253Y-15573224D02*
X18160634Y-15573224D01*
X18160634Y-15573224D02*
X18141586Y-15563700D01*
X18141586Y-15563700D02*
X18132062Y-15544652D01*
X18132062Y-15544652D02*
X18132062Y-15525605D01*
X18132062Y-15525605D02*
X18141586Y-15506557D01*
X18141586Y-15506557D02*
X18160634Y-15497033D01*
X18160634Y-15497033D02*
X18208253Y-15497033D01*
X18208253Y-15497033D02*
X18227301Y-15487509D01*
X18293967Y-15439890D02*
X18370158Y-15439890D01*
X18322539Y-15373224D02*
X18322539Y-15544652D01*
X18322539Y-15544652D02*
X18332062Y-15563700D01*
X18332062Y-15563700D02*
X18351110Y-15573224D01*
X18351110Y-15573224D02*
X18370158Y-15573224D01*
X18513015Y-15563700D02*
X18493967Y-15573224D01*
X18493967Y-15573224D02*
X18455872Y-15573224D01*
X18455872Y-15573224D02*
X18436824Y-15563700D01*
X18436824Y-15563700D02*
X18427301Y-15544652D01*
X18427301Y-15544652D02*
X18427301Y-15468462D01*
X18427301Y-15468462D02*
X18436824Y-15449414D01*
X18436824Y-15449414D02*
X18455872Y-15439890D01*
X18455872Y-15439890D02*
X18493967Y-15439890D01*
X18493967Y-15439890D02*
X18513015Y-15449414D01*
X18513015Y-15449414D02*
X18522539Y-15468462D01*
X18522539Y-15468462D02*
X18522539Y-15487509D01*
X18522539Y-15487509D02*
X18427301Y-15506557D01*
X18693967Y-15573224D02*
X18693967Y-15373224D01*
X18693967Y-15563700D02*
X18674920Y-15573224D01*
X18674920Y-15573224D02*
X18636824Y-15573224D01*
X18636824Y-15573224D02*
X18617777Y-15563700D01*
X18617777Y-15563700D02*
X18608253Y-15554176D01*
X18608253Y-15554176D02*
X18598729Y-15535128D01*
X18598729Y-15535128D02*
X18598729Y-15477986D01*
X18598729Y-15477986D02*
X18608253Y-15458938D01*
X18608253Y-15458938D02*
X18617777Y-15449414D01*
X18617777Y-15449414D02*
X18636824Y-15439890D01*
X18636824Y-15439890D02*
X18674920Y-15439890D01*
X18674920Y-15439890D02*
X18693967Y-15449414D01*
X18770158Y-15649414D02*
X18779682Y-15639890D01*
X18779682Y-15639890D02*
X18798729Y-15611319D01*
X18798729Y-15611319D02*
X18808253Y-15592271D01*
X18808253Y-15592271D02*
X18817777Y-15563700D01*
X18817777Y-15563700D02*
X18827301Y-15516081D01*
X18827301Y-15516081D02*
X18827301Y-15477986D01*
X18827301Y-15477986D02*
X18817777Y-15430367D01*
X18817777Y-15430367D02*
X18808253Y-15401795D01*
X18808253Y-15401795D02*
X18798729Y-15382748D01*
X18798729Y-15382748D02*
X18779682Y-15354176D01*
X18779682Y-15354176D02*
X18770158Y-15344652D01*
M02*
